<?xml version="1.0" encoding="UTF-8" standalone="no"?>
<!DOCTYPE svg PUBLIC "-//W3C//DTD SVG 1.1//EN"
 "http://www.w3.org/Graphics/SVG/1.1/DTD/svg11.dtd">
<!-- Generated by graphviz version 2.47.0 (20210316.0004)
 -->
<!-- Title: dependencies Pages: 1 -->
<svg width="504pt" height="211pt"
 viewBox="0.00 0.00 504.00 211.00" xmlns="http://www.w3.org/2000/svg" xmlns:xlink="http://www.w3.org/1999/xlink">
<g id="graph0" class="graph" transform="scale(1 1) rotate(0) translate(4 207)">
<title>dependencies</title>
<polygon fill="white" stroke="transparent" points="-4,4 -4,-207 500,-207 500,4 -4,4"/>
<text text-anchor="start" x="227.01" y="-42.4" font-family="sans-serif" font-weight="bold" font-size="14.00">Legend</text>
<polygon fill="#ffffb3" stroke="transparent" points="14,-10 14,-30 34,-30 34,-10 14,-10"/>
<text text-anchor="start" x="37.63" y="-15.4" font-family="sans-serif" font-size="14.00"> &#160;Declarations</text>
<polygon fill="#8dd3c7" stroke="transparent" points="127,-10 127,-30 147,-30 147,-10 127,-10"/>
<text text-anchor="start" x="150.73" y="-15.4" font-family="sans-serif" font-size="14.00"> &#160;Module</text>
<polygon fill="#80b1d3" stroke="transparent" points="213,-10 213,-30 233,-30 233,-10 213,-10"/>
<text text-anchor="start" x="236.78" y="-15.4" font-family="sans-serif" font-size="14.00"> &#160;Bootstrap</text>
<polygon fill="#fdb462" stroke="transparent" points="310,-10 310,-30 330,-30 330,-10 310,-10"/>
<text text-anchor="start" x="333.67" y="-15.4" font-family="sans-serif" font-size="14.00"> &#160;Providers</text>
<polygon fill="#fb8072" stroke="transparent" points="406,-10 406,-30 426,-30 426,-10 406,-10"/>
<text text-anchor="start" x="429.73" y="-15.4" font-family="sans-serif" font-size="14.00"> &#160;Exports</text>
<g id="clust1" class="cluster">
<title>cluster_SafeStatusModalModule</title>
<polygon fill="none" stroke="black" stroke-dasharray="1,5" points="144,-70 144,-195 352,-195 352,-70 144,-70"/>
</g>
<g id="clust2" class="cluster">
<title>cluster_SafeStatusModalModule_declarations</title>
<polygon fill="none" stroke="black" points="152,-78 152,-130 344,-130 344,-78 152,-78"/>
</g>
<!-- SafeStatusModalComponent -->
<g id="node1" class="node">
<title>SafeStatusModalComponent</title>
<polygon fill="#ffffb3" stroke="black" points="336.48,-122 159.52,-122 159.52,-86 336.48,-86 336.48,-122"/>
<text text-anchor="middle" x="248" y="-99.8" font-family="Times,serif" font-size="14.00">SafeStatusModalComponent</text>
</g>
<!-- SafeStatusModalModule -->
<g id="node2" class="node">
<title>SafeStatusModalModule</title>
<polygon fill="#8dd3c7" stroke="black" points="325.7,-187 322.7,-191 301.7,-191 298.7,-187 170.3,-187 170.3,-151 325.7,-151 325.7,-187"/>
<text text-anchor="middle" x="248" y="-164.8" font-family="Times,serif" font-size="14.00">SafeStatusModalModule</text>
</g>
<!-- SafeStatusModalComponent&#45;&gt;SafeStatusModalModule -->
<g id="edge1" class="edge">
<title>SafeStatusModalComponent&#45;&gt;SafeStatusModalModule</title>
<path fill="none" stroke="black" d="M248,-122.11C248,-122.11 248,-140.99 248,-140.99"/>
<polygon fill="black" stroke="black" points="244.5,-140.99 248,-150.99 251.5,-140.99 244.5,-140.99"/>
</g>
</g>
</svg>
