<?xml version="1.0" encoding="UTF-8" standalone="no"?>
<!DOCTYPE svg PUBLIC "-//W3C//DTD SVG 1.1//EN"
 "http://www.w3.org/Graphics/SVG/1.1/DTD/svg11.dtd">
<!-- Generated by graphviz version 2.47.0 (20210316.0004)
 -->
<!-- Title: dependencies Pages: 1 -->
<svg width="504pt" height="284pt"
 viewBox="0.00 0.00 504.00 284.00" xmlns="http://www.w3.org/2000/svg" xmlns:xlink="http://www.w3.org/1999/xlink">
<g id="graph0" class="graph" transform="scale(1 1) rotate(0) translate(4 280)">
<title>dependencies</title>
<polygon fill="white" stroke="transparent" points="-4,4 -4,-280 500,-280 500,4 -4,4"/>
<text text-anchor="start" x="227.01" y="-42.4" font-family="sans-serif" font-weight="bold" font-size="14.00">Legend</text>
<polygon fill="#ffffb3" stroke="transparent" points="14,-10 14,-30 34,-30 34,-10 14,-10"/>
<text text-anchor="start" x="37.63" y="-15.4" font-family="sans-serif" font-size="14.00"> &#160;Declarations</text>
<polygon fill="#8dd3c7" stroke="transparent" points="127,-10 127,-30 147,-30 147,-10 127,-10"/>
<text text-anchor="start" x="150.73" y="-15.4" font-family="sans-serif" font-size="14.00"> &#160;Module</text>
<polygon fill="#80b1d3" stroke="transparent" points="213,-10 213,-30 233,-30 233,-10 213,-10"/>
<text text-anchor="start" x="236.78" y="-15.4" font-family="sans-serif" font-size="14.00"> &#160;Bootstrap</text>
<polygon fill="#fdb462" stroke="transparent" points="310,-10 310,-30 330,-30 330,-10 310,-10"/>
<text text-anchor="start" x="333.67" y="-15.4" font-family="sans-serif" font-size="14.00"> &#160;Providers</text>
<polygon fill="#fb8072" stroke="transparent" points="406,-10 406,-30 426,-30 426,-10 406,-10"/>
<text text-anchor="start" x="429.73" y="-15.4" font-family="sans-serif" font-size="14.00"> &#160;Exports</text>
<g id="clust1" class="cluster">
<title>cluster_SafeAccessModule</title>
<polygon fill="none" stroke="black" stroke-dasharray="1,5" points="65,-70 65,-268 431,-268 431,-70 65,-70"/>
</g>
<g id="clust2" class="cluster">
<title>cluster_SafeAccessModule_declarations</title>
<polygon fill="none" stroke="black" points="73,-78 73,-130 423,-130 423,-78 73,-78"/>
</g>
<g id="clust6" class="cluster">
<title>cluster_SafeAccessModule_exports</title>
<polygon fill="none" stroke="black" points="170,-208 170,-260 336,-260 336,-208 170,-208"/>
</g>
<!-- SafeAccessComponent -->
<g id="node1" class="node">
<title>SafeAccessComponent</title>
<polygon fill="#ffffb3" stroke="black" points="414.84,-122 269.16,-122 269.16,-86 414.84,-86 414.84,-122"/>
<text text-anchor="middle" x="342" y="-99.8" font-family="Times,serif" font-size="14.00">SafeAccessComponent</text>
</g>
<!-- SafeAccessModule -->
<g id="node3" class="node">
<title>SafeAccessModule</title>
<polygon fill="#8dd3c7" stroke="black" points="315.06,-187 312.06,-191 291.06,-191 288.06,-187 190.94,-187 190.94,-151 315.06,-151 315.06,-187"/>
<text text-anchor="middle" x="253" y="-164.8" font-family="Times,serif" font-size="14.00">SafeAccessModule</text>
</g>
<!-- SafeAccessComponent&#45;&gt;SafeAccessModule -->
<g id="edge1" class="edge">
<title>SafeAccessComponent&#45;&gt;SafeAccessModule</title>
<path fill="none" stroke="black" d="M292.05,-122.11C292.05,-122.11 292.05,-140.99 292.05,-140.99"/>
<polygon fill="black" stroke="black" points="288.55,-140.99 292.05,-150.99 295.55,-140.99 288.55,-140.99"/>
</g>
<!-- SafeEditAccessComponent -->
<g id="node2" class="node">
<title>SafeEditAccessComponent</title>
<polygon fill="#ffffb3" stroke="black" points="250.68,-122 81.32,-122 81.32,-86 250.68,-86 250.68,-122"/>
<text text-anchor="middle" x="166" y="-99.8" font-family="Times,serif" font-size="14.00">SafeEditAccessComponent</text>
</g>
<!-- SafeEditAccessComponent&#45;&gt;SafeAccessModule -->
<g id="edge2" class="edge">
<title>SafeEditAccessComponent&#45;&gt;SafeAccessModule</title>
<path fill="none" stroke="black" d="M220.78,-122.11C220.78,-122.11 220.78,-140.99 220.78,-140.99"/>
<polygon fill="black" stroke="black" points="217.28,-140.99 220.78,-150.99 224.28,-140.99 217.28,-140.99"/>
</g>
<!-- SafeAccessComponent  -->
<g id="node4" class="node">
<title>SafeAccessComponent </title>
<polygon fill="#fb8072" stroke="black" points="327.84,-252 178.16,-252 178.16,-216 327.84,-216 327.84,-252"/>
<text text-anchor="middle" x="253" y="-229.8" font-family="Times,serif" font-size="14.00">SafeAccessComponent </text>
</g>
<!-- SafeAccessModule&#45;&gt;SafeAccessComponent  -->
<g id="edge3" class="edge">
<title>SafeAccessModule&#45;&gt;SafeAccessComponent </title>
<path fill="none" stroke="black" stroke-dasharray="5,2" d="M253,-187.11C253,-187.11 253,-205.99 253,-205.99"/>
<polygon fill="black" stroke="black" points="249.5,-205.99 253,-215.99 256.5,-205.99 249.5,-205.99"/>
</g>
</g>
</svg>
