<?xml version="1.0" encoding="UTF-8" standalone="no"?>
<!DOCTYPE svg PUBLIC "-//W3C//DTD SVG 1.1//EN"
 "http://www.w3.org/Graphics/SVG/1.1/DTD/svg11.dtd">
<!-- Generated by graphviz version 2.47.0 (20210316.0004)
 -->
<!-- Title: dependencies Pages: 1 -->
<svg width="504pt" height="284pt"
 viewBox="0.00 0.00 504.00 284.00" xmlns="http://www.w3.org/2000/svg" xmlns:xlink="http://www.w3.org/1999/xlink">
<g id="graph0" class="graph" transform="scale(1 1) rotate(0) translate(4 280)">
<title>dependencies</title>
<polygon fill="white" stroke="transparent" points="-4,4 -4,-280 500,-280 500,4 -4,4"/>
<text text-anchor="start" x="227.01" y="-42.4" font-family="sans-serif" font-weight="bold" font-size="14.00">Legend</text>
<polygon fill="#ffffb3" stroke="transparent" points="14,-10 14,-30 34,-30 34,-10 14,-10"/>
<text text-anchor="start" x="37.63" y="-15.4" font-family="sans-serif" font-size="14.00"> &#160;Declarations</text>
<polygon fill="#8dd3c7" stroke="transparent" points="127,-10 127,-30 147,-30 147,-10 127,-10"/>
<text text-anchor="start" x="150.73" y="-15.4" font-family="sans-serif" font-size="14.00"> &#160;Module</text>
<polygon fill="#80b1d3" stroke="transparent" points="213,-10 213,-30 233,-30 233,-10 213,-10"/>
<text text-anchor="start" x="236.78" y="-15.4" font-family="sans-serif" font-size="14.00"> &#160;Bootstrap</text>
<polygon fill="#fdb462" stroke="transparent" points="310,-10 310,-30 330,-30 330,-10 310,-10"/>
<text text-anchor="start" x="333.67" y="-15.4" font-family="sans-serif" font-size="14.00"> &#160;Providers</text>
<polygon fill="#fb8072" stroke="transparent" points="406,-10 406,-30 426,-30 426,-10 406,-10"/>
<text text-anchor="start" x="429.73" y="-15.4" font-family="sans-serif" font-size="14.00"> &#160;Exports</text>
<g id="clust1" class="cluster">
<title>cluster_RolesModule</title>
<polygon fill="none" stroke="black" stroke-dasharray="1,5" points="95,-70 95,-268 401,-268 401,-70 95,-70"/>
</g>
<g id="clust5" class="cluster">
<title>cluster_RolesModule_exports</title>
<polygon fill="none" stroke="black" points="187,-208 187,-260 319,-260 319,-208 187,-208"/>
</g>
<g id="clust2" class="cluster">
<title>cluster_RolesModule_declarations</title>
<polygon fill="none" stroke="black" points="263,-78 263,-130 393,-130 393,-78 263,-78"/>
</g>
<g id="clust4" class="cluster">
<title>cluster_RolesModule_imports</title>
<polygon fill="none" stroke="black" points="103,-78 103,-130 255,-130 255,-78 103,-78"/>
</g>
<!-- RolesComponent -->
<g id="node1" class="node">
<title>RolesComponent</title>
<polygon fill="#ffffb3" stroke="black" points="384.72,-122 271.28,-122 271.28,-86 384.72,-86 384.72,-122"/>
<text text-anchor="middle" x="328" y="-99.8" font-family="Times,serif" font-size="14.00">RolesComponent</text>
</g>
<!-- RolesModule -->
<g id="node2" class="node">
<title>RolesModule</title>
<polygon fill="#8dd3c7" stroke="black" points="298.94,-187 295.94,-191 274.94,-191 271.94,-187 207.06,-187 207.06,-151 298.94,-151 298.94,-187"/>
<text text-anchor="middle" x="253" y="-164.8" font-family="Times,serif" font-size="14.00">RolesModule</text>
</g>
<!-- RolesComponent&#45;&gt;RolesModule -->
<g id="edge1" class="edge">
<title>RolesComponent&#45;&gt;RolesModule</title>
<path fill="none" stroke="black" d="M285.05,-122.11C285.05,-122.11 285.05,-140.99 285.05,-140.99"/>
<polygon fill="black" stroke="black" points="281.55,-140.99 285.05,-150.99 288.55,-140.99 281.55,-140.99"/>
</g>
<!-- RolesComponent  -->
<g id="node4" class="node">
<title>RolesComponent </title>
<polygon fill="#fb8072" stroke="black" points="311.22,-252 194.78,-252 194.78,-216 311.22,-216 311.22,-252"/>
<text text-anchor="middle" x="253" y="-229.8" font-family="Times,serif" font-size="14.00">RolesComponent </text>
</g>
<!-- RolesModule&#45;&gt;RolesComponent  -->
<g id="edge3" class="edge">
<title>RolesModule&#45;&gt;RolesComponent </title>
<path fill="none" stroke="black" stroke-dasharray="5,2" d="M253,-187.11C253,-187.11 253,-205.99 253,-205.99"/>
<polygon fill="black" stroke="black" points="249.5,-205.99 253,-215.99 256.5,-205.99 249.5,-205.99"/>
</g>
<!-- RolesRoutingModule -->
<g id="node3" class="node">
<title>RolesRoutingModule</title>
<polygon fill="#8dd3c7" stroke="black" points="247.05,-122 244.05,-126 223.05,-126 220.05,-122 110.95,-122 110.95,-86 247.05,-86 247.05,-122"/>
<text text-anchor="middle" x="179" y="-99.8" font-family="Times,serif" font-size="14.00">RolesRoutingModule</text>
</g>
<!-- RolesRoutingModule&#45;&gt;RolesModule -->
<g id="edge2" class="edge">
<title>RolesRoutingModule&#45;&gt;RolesModule</title>
<path fill="none" stroke="black" d="M227.28,-122.11C227.28,-122.11 227.28,-140.99 227.28,-140.99"/>
<polygon fill="black" stroke="black" points="223.78,-140.99 227.28,-150.99 230.78,-140.99 223.78,-140.99"/>
</g>
</g>
</svg>
