<?xml version="1.0" encoding="UTF-8" standalone="no"?>
<!DOCTYPE svg PUBLIC "-//W3C//DTD SVG 1.1//EN"
 "http://www.w3.org/Graphics/SVG/1.1/DTD/svg11.dtd">
<!-- Generated by graphviz version 2.47.0 (20210316.0004)
 -->
<!-- Title: dependencies Pages: 1 -->
<svg width="528pt" height="284pt"
 viewBox="0.00 0.00 528.00 284.00" xmlns="http://www.w3.org/2000/svg" xmlns:xlink="http://www.w3.org/1999/xlink">
<g id="graph0" class="graph" transform="scale(1 1) rotate(0) translate(4 280)">
<title>dependencies</title>
<polygon fill="white" stroke="transparent" points="-4,4 -4,-280 524,-280 524,4 -4,4"/>
<text text-anchor="start" x="239.01" y="-42.4" font-family="sans-serif" font-weight="bold" font-size="14.00">Legend</text>
<polygon fill="#ffffb3" stroke="transparent" points="26,-10 26,-30 46,-30 46,-10 26,-10"/>
<text text-anchor="start" x="49.63" y="-15.4" font-family="sans-serif" font-size="14.00"> &#160;Declarations</text>
<polygon fill="#8dd3c7" stroke="transparent" points="139,-10 139,-30 159,-30 159,-10 139,-10"/>
<text text-anchor="start" x="162.73" y="-15.4" font-family="sans-serif" font-size="14.00"> &#160;Module</text>
<polygon fill="#80b1d3" stroke="transparent" points="225,-10 225,-30 245,-30 245,-10 225,-10"/>
<text text-anchor="start" x="248.78" y="-15.4" font-family="sans-serif" font-size="14.00"> &#160;Bootstrap</text>
<polygon fill="#fdb462" stroke="transparent" points="322,-10 322,-30 342,-30 342,-10 322,-10"/>
<text text-anchor="start" x="345.67" y="-15.4" font-family="sans-serif" font-size="14.00"> &#160;Providers</text>
<polygon fill="#fb8072" stroke="transparent" points="418,-10 418,-30 438,-30 438,-10 418,-10"/>
<text text-anchor="start" x="441.73" y="-15.4" font-family="sans-serif" font-size="14.00"> &#160;Exports</text>
<g id="clust1" class="cluster">
<title>cluster_FormAnswerModule</title>
<polygon fill="none" stroke="black" stroke-dasharray="1,5" points="8,-70 8,-268 512,-268 512,-70 8,-70"/>
</g>
<g id="clust2" class="cluster">
<title>cluster_FormAnswerModule_declarations</title>
<polygon fill="none" stroke="black" points="332,-78 332,-130 504,-130 504,-78 332,-78"/>
</g>
<g id="clust4" class="cluster">
<title>cluster_FormAnswerModule_imports</title>
<polygon fill="none" stroke="black" points="16,-78 16,-130 324,-130 324,-78 16,-78"/>
</g>
<g id="clust5" class="cluster">
<title>cluster_FormAnswerModule_exports</title>
<polygon fill="none" stroke="black" points="140,-208 140,-260 314,-260 314,-208 140,-208"/>
</g>
<!-- FormAnswerComponent -->
<g id="node1" class="node">
<title>FormAnswerComponent</title>
<polygon fill="#ffffb3" stroke="black" points="495.7,-122 340.3,-122 340.3,-86 495.7,-86 495.7,-122"/>
<text text-anchor="middle" x="418" y="-99.8" font-family="Times,serif" font-size="14.00">FormAnswerComponent</text>
</g>
<!-- FormAnswerModule -->
<g id="node2" class="node">
<title>FormAnswerModule</title>
<polygon fill="#8dd3c7" stroke="black" points="293.92,-187 290.92,-191 269.92,-191 266.92,-187 160.08,-187 160.08,-151 293.92,-151 293.92,-187"/>
<text text-anchor="middle" x="227" y="-164.8" font-family="Times,serif" font-size="14.00">FormAnswerModule</text>
</g>
<!-- FormAnswerComponent&#45;&gt;FormAnswerModule -->
<g id="edge1" class="edge">
<title>FormAnswerComponent&#45;&gt;FormAnswerModule</title>
<path fill="none" stroke="black" d="M418,-122.11C418,-141.34 418,-169 418,-169 418,-169 303.8,-169 303.8,-169"/>
<polygon fill="black" stroke="black" points="303.8,-165.5 293.8,-169 303.8,-172.5 303.8,-165.5"/>
</g>
<!-- FormAnswerComponent  -->
<g id="node5" class="node">
<title>FormAnswerComponent </title>
<polygon fill="#fb8072" stroke="black" points="306.2,-252 147.8,-252 147.8,-216 306.2,-216 306.2,-252"/>
<text text-anchor="middle" x="227" y="-229.8" font-family="Times,serif" font-size="14.00">FormAnswerComponent </text>
</g>
<!-- FormAnswerModule&#45;&gt;FormAnswerComponent  -->
<g id="edge4" class="edge">
<title>FormAnswerModule&#45;&gt;FormAnswerComponent </title>
<path fill="none" stroke="black" stroke-dasharray="5,2" d="M227,-187.11C227,-187.11 227,-205.99 227,-205.99"/>
<polygon fill="black" stroke="black" points="223.5,-205.99 227,-215.99 230.5,-205.99 223.5,-205.99"/>
</g>
<!-- FormAnswerRoutingModule -->
<g id="node3" class="node">
<title>FormAnswerRoutingModule</title>
<polygon fill="#8dd3c7" stroke="black" points="316.04,-122 313.04,-126 292.04,-126 289.04,-122 137.96,-122 137.96,-86 316.04,-86 316.04,-122"/>
<text text-anchor="middle" x="227" y="-99.8" font-family="Times,serif" font-size="14.00">FormAnswerRoutingModule</text>
</g>
<!-- FormAnswerRoutingModule&#45;&gt;FormAnswerModule -->
<g id="edge2" class="edge">
<title>FormAnswerRoutingModule&#45;&gt;FormAnswerModule</title>
<path fill="none" stroke="black" d="M227,-122.11C227,-122.11 227,-140.99 227,-140.99"/>
<polygon fill="black" stroke="black" points="223.5,-140.99 227,-150.99 230.5,-140.99 223.5,-140.99"/>
</g>
<!-- FormsModule -->
<g id="node4" class="node">
<title>FormsModule</title>
<polygon fill="#8dd3c7" stroke="black" points="119.83,-122 116.83,-126 95.83,-126 92.83,-122 24.17,-122 24.17,-86 119.83,-86 119.83,-122"/>
<text text-anchor="middle" x="72" y="-99.8" font-family="Times,serif" font-size="14.00">FormsModule</text>
</g>
<!-- FormsModule&#45;&gt;FormAnswerModule -->
<g id="edge3" class="edge">
<title>FormsModule&#45;&gt;FormAnswerModule</title>
<path fill="none" stroke="black" d="M72,-122.11C72,-141.34 72,-169 72,-169 72,-169 149.92,-169 149.92,-169"/>
<polygon fill="black" stroke="black" points="149.92,-172.5 159.92,-169 149.92,-165.5 149.92,-172.5"/>
</g>
</g>
</svg>
