<?xml version="1.0" encoding="UTF-8" standalone="no"?>
<!DOCTYPE svg PUBLIC "-//W3C//DTD SVG 1.1//EN"
 "http://www.w3.org/Graphics/SVG/1.1/DTD/svg11.dtd">
<!-- Generated by graphviz version 2.47.0 (20210316.0004)
 -->
<!-- Title: dependencies Pages: 1 -->
<svg width="528pt" height="284pt"
 viewBox="0.00 0.00 528.00 284.00" xmlns="http://www.w3.org/2000/svg" xmlns:xlink="http://www.w3.org/1999/xlink">
<g id="graph0" class="graph" transform="scale(1 1) rotate(0) translate(4 280)">
<title>dependencies</title>
<polygon fill="white" stroke="transparent" points="-4,4 -4,-280 524,-280 524,4 -4,4"/>
<text text-anchor="start" x="239.01" y="-42.4" font-family="sans-serif" font-weight="bold" font-size="14.00">Legend</text>
<polygon fill="#ffffb3" stroke="transparent" points="26,-10 26,-30 46,-30 46,-10 26,-10"/>
<text text-anchor="start" x="49.63" y="-15.4" font-family="sans-serif" font-size="14.00"> &#160;Declarations</text>
<polygon fill="#8dd3c7" stroke="transparent" points="139,-10 139,-30 159,-30 159,-10 139,-10"/>
<text text-anchor="start" x="162.73" y="-15.4" font-family="sans-serif" font-size="14.00"> &#160;Module</text>
<polygon fill="#80b1d3" stroke="transparent" points="225,-10 225,-30 245,-30 245,-10 225,-10"/>
<text text-anchor="start" x="248.78" y="-15.4" font-family="sans-serif" font-size="14.00"> &#160;Bootstrap</text>
<polygon fill="#fdb462" stroke="transparent" points="322,-10 322,-30 342,-30 342,-10 322,-10"/>
<text text-anchor="start" x="345.67" y="-15.4" font-family="sans-serif" font-size="14.00"> &#160;Providers</text>
<polygon fill="#fb8072" stroke="transparent" points="418,-10 418,-30 438,-30 438,-10 418,-10"/>
<text text-anchor="start" x="441.73" y="-15.4" font-family="sans-serif" font-size="14.00"> &#160;Exports</text>
<g id="clust1" class="cluster">
<title>cluster_FormAnswerModule</title>
<polygon fill="none" stroke="black" stroke-dasharray="1,5" points="8,-70 8,-268 512,-268 512,-70 8,-70"/>
</g>
<g id="clust4" class="cluster">
<title>cluster_FormAnswerModule_imports</title>
<polygon fill="none" stroke="black" points="196,-78 196,-130 504,-130 504,-78 196,-78"/>
</g>
<g id="clust2" class="cluster">
<title>cluster_FormAnswerModule_declarations</title>
<polygon fill="none" stroke="black" points="16,-78 16,-130 188,-130 188,-78 16,-78"/>
</g>
<g id="clust5" class="cluster">
<title>cluster_FormAnswerModule_exports</title>
<polygon fill="none" stroke="black" points="165,-208 165,-260 339,-260 339,-208 165,-208"/>
</g>
<!-- FormAnswerComponent -->
<g id="node1" class="node">
<title>FormAnswerComponent</title>
<polygon fill="#ffffb3" stroke="black" points="179.7,-122 24.3,-122 24.3,-86 179.7,-86 179.7,-122"/>
<text text-anchor="middle" x="102" y="-99.8" font-family="Times,serif" font-size="14.00">FormAnswerComponent</text>
</g>
<!-- FormAnswerModule -->
<g id="node2" class="node">
<title>FormAnswerModule</title>
<polygon fill="#8dd3c7" stroke="black" points="318.92,-187 315.92,-191 294.92,-191 291.92,-187 185.08,-187 185.08,-151 318.92,-151 318.92,-187"/>
<text text-anchor="middle" x="252" y="-164.8" font-family="Times,serif" font-size="14.00">FormAnswerModule</text>
</g>
<!-- FormAnswerComponent&#45;&gt;FormAnswerModule -->
<g id="edge1" class="edge">
<title>FormAnswerComponent&#45;&gt;FormAnswerModule</title>
<path fill="none" stroke="black" d="M179.9,-104C188.83,-104 194.81,-104 194.81,-104 194.81,-104 194.81,-140.89 194.81,-140.89"/>
<polygon fill="black" stroke="black" points="191.31,-140.89 194.81,-150.89 198.31,-140.89 191.31,-140.89"/>
</g>
<!-- FormAnswerComponent  -->
<g id="node5" class="node">
<title>FormAnswerComponent </title>
<polygon fill="#fb8072" stroke="black" points="331.2,-252 172.8,-252 172.8,-216 331.2,-216 331.2,-252"/>
<text text-anchor="middle" x="252" y="-229.8" font-family="Times,serif" font-size="14.00">FormAnswerComponent </text>
</g>
<!-- FormAnswerModule&#45;&gt;FormAnswerComponent  -->
<g id="edge4" class="edge">
<title>FormAnswerModule&#45;&gt;FormAnswerComponent </title>
<path fill="none" stroke="black" stroke-dasharray="5,2" d="M252,-187.11C252,-187.11 252,-205.99 252,-205.99"/>
<polygon fill="black" stroke="black" points="248.5,-205.99 252,-215.99 255.5,-205.99 248.5,-205.99"/>
</g>
<!-- FormAnswerRoutingModule -->
<g id="node3" class="node">
<title>FormAnswerRoutingModule</title>
<polygon fill="#8dd3c7" stroke="black" points="496.04,-122 493.04,-126 472.04,-126 469.04,-122 317.96,-122 317.96,-86 496.04,-86 496.04,-122"/>
<text text-anchor="middle" x="407" y="-99.8" font-family="Times,serif" font-size="14.00">FormAnswerRoutingModule</text>
</g>
<!-- FormAnswerRoutingModule&#45;&gt;FormAnswerModule -->
<g id="edge2" class="edge">
<title>FormAnswerRoutingModule&#45;&gt;FormAnswerModule</title>
<path fill="none" stroke="black" d="M325.03,-122.11C325.03,-141.34 325.03,-169 325.03,-169 325.03,-169 324.41,-169 324.41,-169"/>
<polygon fill="black" stroke="black" points="328.8,-165.5 318.8,-169 328.8,-172.5 328.8,-165.5"/>
</g>
<!-- FormsModule -->
<g id="node4" class="node">
<title>FormsModule</title>
<polygon fill="#8dd3c7" stroke="black" points="299.83,-122 296.83,-126 275.83,-126 272.83,-122 204.17,-122 204.17,-86 299.83,-86 299.83,-122"/>
<text text-anchor="middle" x="252" y="-99.8" font-family="Times,serif" font-size="14.00">FormsModule</text>
</g>
<!-- FormsModule&#45;&gt;FormAnswerModule -->
<g id="edge3" class="edge">
<title>FormsModule&#45;&gt;FormAnswerModule</title>
<path fill="none" stroke="black" d="M252,-122.11C252,-122.11 252,-140.99 252,-140.99"/>
<polygon fill="black" stroke="black" points="248.5,-140.99 252,-150.99 255.5,-140.99 248.5,-140.99"/>
</g>
</g>
</svg>
