<?xml version="1.0" encoding="UTF-8" standalone="no"?>
<!DOCTYPE svg PUBLIC "-//W3C//DTD SVG 1.1//EN"
 "http://www.w3.org/Graphics/SVG/1.1/DTD/svg11.dtd">
<!-- Generated by graphviz version 2.47.0 (20210316.0004)
 -->
<!-- Title: dependencies Pages: 1 -->
<svg width="552pt" height="284pt"
 viewBox="0.00 0.00 552.00 284.00" xmlns="http://www.w3.org/2000/svg" xmlns:xlink="http://www.w3.org/1999/xlink">
<g id="graph0" class="graph" transform="scale(1 1) rotate(0) translate(4 280)">
<title>dependencies</title>
<polygon fill="white" stroke="transparent" points="-4,4 -4,-280 548,-280 548,4 -4,4"/>
<text text-anchor="start" x="251.01" y="-42.4" font-family="sans-serif" font-weight="bold" font-size="14.00">Legend</text>
<polygon fill="#ffffb3" stroke="transparent" points="38,-10 38,-30 58,-30 58,-10 38,-10"/>
<text text-anchor="start" x="61.63" y="-15.4" font-family="sans-serif" font-size="14.00"> &#160;Declarations</text>
<polygon fill="#8dd3c7" stroke="transparent" points="151,-10 151,-30 171,-30 171,-10 151,-10"/>
<text text-anchor="start" x="174.73" y="-15.4" font-family="sans-serif" font-size="14.00"> &#160;Module</text>
<polygon fill="#80b1d3" stroke="transparent" points="237,-10 237,-30 257,-30 257,-10 237,-10"/>
<text text-anchor="start" x="260.78" y="-15.4" font-family="sans-serif" font-size="14.00"> &#160;Bootstrap</text>
<polygon fill="#fdb462" stroke="transparent" points="334,-10 334,-30 354,-30 354,-10 334,-10"/>
<text text-anchor="start" x="357.67" y="-15.4" font-family="sans-serif" font-size="14.00"> &#160;Providers</text>
<polygon fill="#fb8072" stroke="transparent" points="430,-10 430,-30 450,-30 450,-10 430,-10"/>
<text text-anchor="start" x="453.73" y="-15.4" font-family="sans-serif" font-size="14.00"> &#160;Exports</text>
<g id="clust1" class="cluster">
<title>cluster_SafeUsersModule</title>
<polygon fill="none" stroke="black" stroke-dasharray="1,5" points="8,-70 8,-268 536,-268 536,-70 8,-70"/>
</g>
<g id="clust7" class="cluster">
<title>cluster_SafeUsersModule_exports</title>
<polygon fill="none" stroke="black" points="184,-208 184,-260 342,-260 342,-208 184,-208"/>
</g>
<g id="clust2" class="cluster">
<title>cluster_SafeUsersModule_declarations</title>
<polygon fill="none" stroke="black" points="16,-78 16,-130 528,-130 528,-78 16,-78"/>
</g>
<!-- SafeEditUserComponent -->
<g id="node1" class="node">
<title>SafeEditUserComponent</title>
<polygon fill="#ffffb3" stroke="black" points="519.97,-122 364.03,-122 364.03,-86 519.97,-86 519.97,-122"/>
<text text-anchor="middle" x="442" y="-99.8" font-family="Times,serif" font-size="14.00">SafeEditUserComponent</text>
</g>
<!-- SafeUsersModule -->
<g id="node4" class="node">
<title>SafeUsersModule</title>
<polygon fill="#8dd3c7" stroke="black" points="321.29,-187 318.29,-191 297.29,-191 294.29,-187 204.71,-187 204.71,-151 321.29,-151 321.29,-187"/>
<text text-anchor="middle" x="263" y="-164.8" font-family="Times,serif" font-size="14.00">SafeUsersModule</text>
</g>
<!-- SafeEditUserComponent&#45;&gt;SafeUsersModule -->
<g id="edge1" class="edge">
<title>SafeEditUserComponent&#45;&gt;SafeUsersModule</title>
<path fill="none" stroke="black" d="M442,-122.11C442,-141.34 442,-169 442,-169 442,-169 331.61,-169 331.61,-169"/>
<polygon fill="black" stroke="black" points="331.61,-165.5 321.61,-169 331.61,-172.5 331.61,-165.5"/>
</g>
<!-- SafeInviteUserComponent -->
<g id="node2" class="node">
<title>SafeInviteUserComponent</title>
<polygon fill="#ffffb3" stroke="black" points="345.79,-122 180.21,-122 180.21,-86 345.79,-86 345.79,-122"/>
<text text-anchor="middle" x="263" y="-99.8" font-family="Times,serif" font-size="14.00">SafeInviteUserComponent</text>
</g>
<!-- SafeInviteUserComponent&#45;&gt;SafeUsersModule -->
<g id="edge2" class="edge">
<title>SafeInviteUserComponent&#45;&gt;SafeUsersModule</title>
<path fill="none" stroke="black" d="M263,-122.11C263,-122.11 263,-140.99 263,-140.99"/>
<polygon fill="black" stroke="black" points="259.5,-140.99 263,-150.99 266.5,-140.99 259.5,-140.99"/>
</g>
<!-- SafeUsersComponent -->
<g id="node3" class="node">
<title>SafeUsersComponent</title>
<polygon fill="#ffffb3" stroke="black" points="162.08,-122 23.92,-122 23.92,-86 162.08,-86 162.08,-122"/>
<text text-anchor="middle" x="93" y="-99.8" font-family="Times,serif" font-size="14.00">SafeUsersComponent</text>
</g>
<!-- SafeUsersComponent&#45;&gt;SafeUsersModule -->
<g id="edge3" class="edge">
<title>SafeUsersComponent&#45;&gt;SafeUsersModule</title>
<path fill="none" stroke="black" d="M93,-122.11C93,-141.34 93,-169 93,-169 93,-169 194.5,-169 194.5,-169"/>
<polygon fill="black" stroke="black" points="194.5,-172.5 204.5,-169 194.5,-165.5 194.5,-172.5"/>
</g>
<!-- SafeUsersComponent  -->
<g id="node5" class="node">
<title>SafeUsersComponent </title>
<polygon fill="#fb8072" stroke="black" points="333.58,-252 192.42,-252 192.42,-216 333.58,-216 333.58,-252"/>
<text text-anchor="middle" x="263" y="-229.8" font-family="Times,serif" font-size="14.00">SafeUsersComponent </text>
</g>
<!-- SafeUsersModule&#45;&gt;SafeUsersComponent  -->
<g id="edge4" class="edge">
<title>SafeUsersModule&#45;&gt;SafeUsersComponent </title>
<path fill="none" stroke="black" stroke-dasharray="5,2" d="M263,-187.11C263,-187.11 263,-205.99 263,-205.99"/>
<polygon fill="black" stroke="black" points="259.5,-205.99 263,-215.99 266.5,-205.99 259.5,-205.99"/>
</g>
</g>
</svg>
