<?xml version="1.0" encoding="UTF-8" standalone="no"?>
<!DOCTYPE svg PUBLIC "-//W3C//DTD SVG 1.1//EN"
 "http://www.w3.org/Graphics/SVG/1.1/DTD/svg11.dtd">
<!-- Generated by graphviz version 2.47.0 (20210316.0004)
 -->
<!-- Title: dependencies Pages: 1 -->
<svg width="504pt" height="284pt"
 viewBox="0.00 0.00 504.00 284.00" xmlns="http://www.w3.org/2000/svg" xmlns:xlink="http://www.w3.org/1999/xlink">
<g id="graph0" class="graph" transform="scale(1 1) rotate(0) translate(4 280)">
<title>dependencies</title>
<polygon fill="white" stroke="transparent" points="-4,4 -4,-280 500,-280 500,4 -4,4"/>
<text text-anchor="start" x="227.01" y="-42.4" font-family="sans-serif" font-weight="bold" font-size="14.00">Legend</text>
<polygon fill="#ffffb3" stroke="transparent" points="14,-10 14,-30 34,-30 34,-10 14,-10"/>
<text text-anchor="start" x="37.63" y="-15.4" font-family="sans-serif" font-size="14.00"> &#160;Declarations</text>
<polygon fill="#8dd3c7" stroke="transparent" points="127,-10 127,-30 147,-30 147,-10 127,-10"/>
<text text-anchor="start" x="150.73" y="-15.4" font-family="sans-serif" font-size="14.00"> &#160;Module</text>
<polygon fill="#80b1d3" stroke="transparent" points="213,-10 213,-30 233,-30 233,-10 213,-10"/>
<text text-anchor="start" x="236.78" y="-15.4" font-family="sans-serif" font-size="14.00"> &#160;Bootstrap</text>
<polygon fill="#fdb462" stroke="transparent" points="310,-10 310,-30 330,-30 330,-10 310,-10"/>
<text text-anchor="start" x="333.67" y="-15.4" font-family="sans-serif" font-size="14.00"> &#160;Providers</text>
<polygon fill="#fb8072" stroke="transparent" points="406,-10 406,-30 426,-30 426,-10 406,-10"/>
<text text-anchor="start" x="429.73" y="-15.4" font-family="sans-serif" font-size="14.00"> &#160;Exports</text>
<g id="clust1" class="cluster">
<title>cluster_AddFormModule</title>
<polygon fill="none" stroke="black" stroke-dasharray="1,5" points="104,-70 104,-268 392,-268 392,-70 104,-70"/>
</g>
<g id="clust2" class="cluster">
<title>cluster_AddFormModule_declarations</title>
<polygon fill="none" stroke="black" points="232,-78 232,-130 384,-130 384,-78 232,-78"/>
</g>
<g id="clust5" class="cluster">
<title>cluster_AddFormModule_exports</title>
<polygon fill="none" stroke="black" points="170,-208 170,-260 326,-260 326,-208 170,-208"/>
</g>
<g id="clust4" class="cluster">
<title>cluster_AddFormModule_imports</title>
<polygon fill="none" stroke="black" points="112,-78 112,-130 224,-130 224,-78 112,-78"/>
</g>
<!-- AddFormComponent -->
<g id="node1" class="node">
<title>AddFormComponent</title>
<polygon fill="#ffffb3" stroke="black" points="375.77,-122 240.23,-122 240.23,-86 375.77,-86 375.77,-122"/>
<text text-anchor="middle" x="308" y="-99.8" font-family="Times,serif" font-size="14.00">AddFormComponent</text>
</g>
<!-- AddFormModule -->
<g id="node2" class="node">
<title>AddFormModule</title>
<polygon fill="#8dd3c7" stroke="black" points="304.99,-187 301.99,-191 280.99,-191 277.99,-187 191.01,-187 191.01,-151 304.99,-151 304.99,-187"/>
<text text-anchor="middle" x="248" y="-164.8" font-family="Times,serif" font-size="14.00">AddFormModule</text>
</g>
<!-- AddFormComponent&#45;&gt;AddFormModule -->
<g id="edge1" class="edge">
<title>AddFormComponent&#45;&gt;AddFormModule</title>
<path fill="none" stroke="black" d="M272.55,-122.11C272.55,-122.11 272.55,-140.99 272.55,-140.99"/>
<polygon fill="black" stroke="black" points="269.05,-140.99 272.55,-150.99 276.05,-140.99 269.05,-140.99"/>
</g>
<!-- AddFormComponent  -->
<g id="node4" class="node">
<title>AddFormComponent </title>
<polygon fill="#fb8072" stroke="black" points="317.77,-252 178.23,-252 178.23,-216 317.77,-216 317.77,-252"/>
<text text-anchor="middle" x="248" y="-229.8" font-family="Times,serif" font-size="14.00">AddFormComponent </text>
</g>
<!-- AddFormModule&#45;&gt;AddFormComponent  -->
<g id="edge3" class="edge">
<title>AddFormModule&#45;&gt;AddFormComponent </title>
<path fill="none" stroke="black" stroke-dasharray="5,2" d="M248,-187.11C248,-187.11 248,-205.99 248,-205.99"/>
<polygon fill="black" stroke="black" points="244.5,-205.99 248,-215.99 251.5,-205.99 244.5,-205.99"/>
</g>
<!-- FormsModule -->
<g id="node3" class="node">
<title>FormsModule</title>
<polygon fill="#8dd3c7" stroke="black" points="215.83,-122 212.83,-126 191.83,-126 188.83,-122 120.17,-122 120.17,-86 215.83,-86 215.83,-122"/>
<text text-anchor="middle" x="168" y="-99.8" font-family="Times,serif" font-size="14.00">FormsModule</text>
</g>
<!-- FormsModule&#45;&gt;AddFormModule -->
<g id="edge2" class="edge">
<title>FormsModule&#45;&gt;AddFormModule</title>
<path fill="none" stroke="black" d="M203.33,-122.11C203.33,-122.11 203.33,-140.99 203.33,-140.99"/>
<polygon fill="black" stroke="black" points="199.83,-140.99 203.33,-150.99 206.83,-140.99 199.83,-140.99"/>
</g>
</g>
</svg>
