<?xml version="1.0" encoding="UTF-8" standalone="no"?>
<!DOCTYPE svg PUBLIC "-//W3C//DTD SVG 1.1//EN"
 "http://www.w3.org/Graphics/SVG/1.1/DTD/svg11.dtd">
<!-- Generated by graphviz version 2.47.0 (20210316.0004)
 -->
<!-- Title: dependencies Pages: 1 -->
<svg width="504pt" height="284pt"
 viewBox="0.00 0.00 504.00 284.00" xmlns="http://www.w3.org/2000/svg" xmlns:xlink="http://www.w3.org/1999/xlink">
<g id="graph0" class="graph" transform="scale(1 1) rotate(0) translate(4 280)">
<title>dependencies</title>
<polygon fill="white" stroke="transparent" points="-4,4 -4,-280 500,-280 500,4 -4,4"/>
<text text-anchor="start" x="227.01" y="-42.4" font-family="sans-serif" font-weight="bold" font-size="14.00">Legend</text>
<polygon fill="#ffffb3" stroke="transparent" points="14,-10 14,-30 34,-30 34,-10 14,-10"/>
<text text-anchor="start" x="37.63" y="-15.4" font-family="sans-serif" font-size="14.00"> &#160;Declarations</text>
<polygon fill="#8dd3c7" stroke="transparent" points="127,-10 127,-30 147,-30 147,-10 127,-10"/>
<text text-anchor="start" x="150.73" y="-15.4" font-family="sans-serif" font-size="14.00"> &#160;Module</text>
<polygon fill="#80b1d3" stroke="transparent" points="213,-10 213,-30 233,-30 233,-10 213,-10"/>
<text text-anchor="start" x="236.78" y="-15.4" font-family="sans-serif" font-size="14.00"> &#160;Bootstrap</text>
<polygon fill="#fdb462" stroke="transparent" points="310,-10 310,-30 330,-30 330,-10 310,-10"/>
<text text-anchor="start" x="333.67" y="-15.4" font-family="sans-serif" font-size="14.00"> &#160;Providers</text>
<polygon fill="#fb8072" stroke="transparent" points="406,-10 406,-30 426,-30 426,-10 406,-10"/>
<text text-anchor="start" x="429.73" y="-15.4" font-family="sans-serif" font-size="14.00"> &#160;Exports</text>
<g id="clust1" class="cluster">
<title>cluster_SafeLayoutModule</title>
<polygon fill="none" stroke="black" stroke-dasharray="1,5" points="63,-70 63,-268 433,-268 433,-70 63,-70"/>
</g>
<g id="clust2" class="cluster">
<title>cluster_SafeLayoutModule_declarations</title>
<polygon fill="none" stroke="black" points="263,-78 263,-130 425,-130 425,-78 263,-78"/>
</g>
<g id="clust5" class="cluster">
<title>cluster_SafeLayoutModule_exports</title>
<polygon fill="none" stroke="black" points="169,-208 169,-260 335,-260 335,-208 169,-208"/>
</g>
<g id="clust4" class="cluster">
<title>cluster_SafeLayoutModule_imports</title>
<polygon fill="none" stroke="black" points="71,-78 71,-130 255,-130 255,-78 71,-78"/>
</g>
<!-- SafeLayoutComponent -->
<g id="node1" class="node">
<title>SafeLayoutComponent</title>
<polygon fill="#ffffb3" stroke="black" points="416.86,-122 271.14,-122 271.14,-86 416.86,-86 416.86,-122"/>
<text text-anchor="middle" x="344" y="-99.8" font-family="Times,serif" font-size="14.00">SafeLayoutComponent</text>
</g>
<!-- SafeLayoutModule -->
<g id="node2" class="node">
<title>SafeLayoutModule</title>
<polygon fill="#8dd3c7" stroke="black" points="314.08,-187 311.08,-191 290.08,-191 287.08,-187 189.92,-187 189.92,-151 314.08,-151 314.08,-187"/>
<text text-anchor="middle" x="252" y="-164.8" font-family="Times,serif" font-size="14.00">SafeLayoutModule</text>
</g>
<!-- SafeLayoutComponent&#45;&gt;SafeLayoutModule -->
<g id="edge1" class="edge">
<title>SafeLayoutComponent&#45;&gt;SafeLayoutModule</title>
<path fill="none" stroke="black" d="M292.55,-122.11C292.55,-122.11 292.55,-140.99 292.55,-140.99"/>
<polygon fill="black" stroke="black" points="289.05,-140.99 292.55,-150.99 296.05,-140.99 289.05,-140.99"/>
</g>
<!-- SafeLayoutComponent  -->
<g id="node4" class="node">
<title>SafeLayoutComponent </title>
<polygon fill="#fb8072" stroke="black" points="326.86,-252 177.14,-252 177.14,-216 326.86,-216 326.86,-252"/>
<text text-anchor="middle" x="252" y="-229.8" font-family="Times,serif" font-size="14.00">SafeLayoutComponent </text>
</g>
<!-- SafeLayoutModule&#45;&gt;SafeLayoutComponent  -->
<g id="edge3" class="edge">
<title>SafeLayoutModule&#45;&gt;SafeLayoutComponent </title>
<path fill="none" stroke="black" stroke-dasharray="5,2" d="M252,-187.11C252,-187.11 252,-205.99 252,-205.99"/>
<polygon fill="black" stroke="black" points="248.5,-205.99 252,-215.99 255.5,-205.99 248.5,-205.99"/>
</g>
<!-- SafeConfirmModalModule -->
<g id="node3" class="node">
<title>SafeConfirmModalModule</title>
<polygon fill="#8dd3c7" stroke="black" points="247.41,-122 244.41,-126 223.41,-126 220.41,-122 78.59,-122 78.59,-86 247.41,-86 247.41,-122"/>
<text text-anchor="middle" x="163" y="-99.8" font-family="Times,serif" font-size="14.00">SafeConfirmModalModule</text>
</g>
<!-- SafeConfirmModalModule&#45;&gt;SafeLayoutModule -->
<g id="edge2" class="edge">
<title>SafeConfirmModalModule&#45;&gt;SafeLayoutModule</title>
<path fill="none" stroke="black" d="M218.58,-122.11C218.58,-122.11 218.58,-140.99 218.58,-140.99"/>
<polygon fill="black" stroke="black" points="215.08,-140.99 218.58,-150.99 222.08,-140.99 215.08,-140.99"/>
</g>
</g>
</svg>
