<?xml version="1.0" encoding="UTF-8" standalone="no"?>
<!DOCTYPE svg PUBLIC "-//W3C//DTD SVG 1.1//EN"
 "http://www.w3.org/Graphics/SVG/1.1/DTD/svg11.dtd">
<!-- Generated by graphviz version 2.47.0 (20210316.0004)
 -->
<!-- Title: dependencies Pages: 1 -->
<svg width="654pt" height="211pt"
 viewBox="0.00 0.00 654.00 211.00" xmlns="http://www.w3.org/2000/svg" xmlns:xlink="http://www.w3.org/1999/xlink">
<g id="graph0" class="graph" transform="scale(1 1) rotate(0) translate(4 207)">
<title>dependencies</title>
<polygon fill="white" stroke="transparent" points="-4,4 -4,-207 650,-207 650,4 -4,4"/>
<text text-anchor="start" x="302.01" y="-42.4" font-family="sans-serif" font-weight="bold" font-size="14.00">Legend</text>
<polygon fill="#ffffb3" stroke="transparent" points="89,-10 89,-30 109,-30 109,-10 89,-10"/>
<text text-anchor="start" x="112.63" y="-15.4" font-family="sans-serif" font-size="14.00"> &#160;Declarations</text>
<polygon fill="#8dd3c7" stroke="transparent" points="202,-10 202,-30 222,-30 222,-10 202,-10"/>
<text text-anchor="start" x="225.73" y="-15.4" font-family="sans-serif" font-size="14.00"> &#160;Module</text>
<polygon fill="#80b1d3" stroke="transparent" points="288,-10 288,-30 308,-30 308,-10 288,-10"/>
<text text-anchor="start" x="311.78" y="-15.4" font-family="sans-serif" font-size="14.00"> &#160;Bootstrap</text>
<polygon fill="#fdb462" stroke="transparent" points="385,-10 385,-30 405,-30 405,-10 385,-10"/>
<text text-anchor="start" x="408.67" y="-15.4" font-family="sans-serif" font-size="14.00"> &#160;Providers</text>
<polygon fill="#fb8072" stroke="transparent" points="481,-10 481,-30 501,-30 501,-10 481,-10"/>
<text text-anchor="start" x="504.73" y="-15.4" font-family="sans-serif" font-size="14.00"> &#160;Exports</text>
<g id="clust1" class="cluster">
<title>cluster_ChannelsModule</title>
<polygon fill="none" stroke="black" stroke-dasharray="1,5" points="8,-70 8,-195 638,-195 638,-70 8,-70"/>
</g>
<g id="clust2" class="cluster">
<title>cluster_ChannelsModule_declarations</title>
<polygon fill="none" stroke="black" points="310,-78 310,-130 630,-130 630,-78 310,-78"/>
</g>
<g id="clust5" class="cluster">
<title>cluster_ChannelsModule_imports</title>
<polygon fill="none" stroke="black" points="16,-78 16,-130 302,-130 302,-78 16,-78"/>
</g>
<!-- AddChannelComponent -->
<g id="node1" class="node">
<title>AddChannelComponent</title>
<polygon fill="#ffffb3" stroke="black" points="622.1,-122 469.9,-122 469.9,-86 622.1,-86 622.1,-122"/>
<text text-anchor="middle" x="546" y="-99.8" font-family="Times,serif" font-size="14.00">AddChannelComponent</text>
</g>
<!-- ChannelsModule -->
<g id="node3" class="node">
<title>ChannelsModule</title>
<polygon fill="#8dd3c7" stroke="black" points="355.65,-187 352.65,-191 331.65,-191 328.65,-187 244.35,-187 244.35,-151 355.65,-151 355.65,-187"/>
<text text-anchor="middle" x="300" y="-164.8" font-family="Times,serif" font-size="14.00">ChannelsModule</text>
</g>
<!-- AddChannelComponent&#45;&gt;ChannelsModule -->
<g id="edge1" class="edge">
<title>AddChannelComponent&#45;&gt;ChannelsModule</title>
<path fill="none" stroke="black" d="M546,-122.11C546,-141.34 546,-169 546,-169 546,-169 365.82,-169 365.82,-169"/>
<polygon fill="black" stroke="black" points="365.82,-165.5 355.82,-169 365.82,-172.5 365.82,-165.5"/>
</g>
<!-- ChannelsComponent -->
<g id="node2" class="node">
<title>ChannelsComponent</title>
<polygon fill="#ffffb3" stroke="black" points="451.93,-122 318.07,-122 318.07,-86 451.93,-86 451.93,-122"/>
<text text-anchor="middle" x="385" y="-99.8" font-family="Times,serif" font-size="14.00">ChannelsComponent</text>
</g>
<!-- ChannelsComponent&#45;&gt;ChannelsModule -->
<g id="edge2" class="edge">
<title>ChannelsComponent&#45;&gt;ChannelsModule</title>
<path fill="none" stroke="black" d="M337.05,-122.11C337.05,-122.11 337.05,-140.99 337.05,-140.99"/>
<polygon fill="black" stroke="black" points="333.55,-140.99 337.05,-150.99 340.55,-140.99 333.55,-140.99"/>
</g>
<!-- ChannelsRoutingModule -->
<g id="node4" class="node">
<title>ChannelsRoutingModule</title>
<polygon fill="#8dd3c7" stroke="black" points="294.27,-122 291.27,-126 270.27,-126 267.27,-122 137.73,-122 137.73,-86 294.27,-86 294.27,-122"/>
<text text-anchor="middle" x="216" y="-99.8" font-family="Times,serif" font-size="14.00">ChannelsRoutingModule</text>
</g>
<!-- ChannelsRoutingModule&#45;&gt;ChannelsModule -->
<g id="edge3" class="edge">
<title>ChannelsRoutingModule&#45;&gt;ChannelsModule</title>
<path fill="none" stroke="black" d="M269.28,-122.11C269.28,-122.11 269.28,-140.99 269.28,-140.99"/>
<polygon fill="black" stroke="black" points="265.78,-140.99 269.28,-150.99 272.78,-140.99 265.78,-140.99"/>
</g>
<!-- FormsModule -->
<g id="node5" class="node">
<title>FormsModule</title>
<polygon fill="#8dd3c7" stroke="black" points="119.83,-122 116.83,-126 95.83,-126 92.83,-122 24.17,-122 24.17,-86 119.83,-86 119.83,-122"/>
<text text-anchor="middle" x="72" y="-99.8" font-family="Times,serif" font-size="14.00">FormsModule</text>
</g>
<!-- FormsModule&#45;&gt;ChannelsModule -->
<g id="edge4" class="edge">
<title>FormsModule&#45;&gt;ChannelsModule</title>
<path fill="none" stroke="black" d="M72,-122.11C72,-141.34 72,-169 72,-169 72,-169 234.22,-169 234.22,-169"/>
<polygon fill="black" stroke="black" points="234.22,-172.5 244.22,-169 234.22,-165.5 234.22,-172.5"/>
</g>
</g>
</svg>
