<?xml version="1.0" encoding="UTF-8" standalone="no"?>
<!DOCTYPE svg PUBLIC "-//W3C//DTD SVG 1.1//EN"
 "http://www.w3.org/Graphics/SVG/1.1/DTD/svg11.dtd">
<!-- Generated by graphviz version 2.47.0 (20210316.0004)
 -->
<!-- Title: dependencies Pages: 1 -->
<svg width="504pt" height="211pt"
 viewBox="0.00 0.00 504.00 211.00" xmlns="http://www.w3.org/2000/svg" xmlns:xlink="http://www.w3.org/1999/xlink">
<g id="graph0" class="graph" transform="scale(1 1) rotate(0) translate(4 207)">
<title>dependencies</title>
<polygon fill="white" stroke="transparent" points="-4,4 -4,-207 500,-207 500,4 -4,4"/>
<text text-anchor="start" x="227.01" y="-42.4" font-family="sans-serif" font-weight="bold" font-size="14.00">Legend</text>
<polygon fill="#ffffb3" stroke="transparent" points="14,-10 14,-30 34,-30 34,-10 14,-10"/>
<text text-anchor="start" x="37.63" y="-15.4" font-family="sans-serif" font-size="14.00"> &#160;Declarations</text>
<polygon fill="#8dd3c7" stroke="transparent" points="127,-10 127,-30 147,-30 147,-10 127,-10"/>
<text text-anchor="start" x="150.73" y="-15.4" font-family="sans-serif" font-size="14.00"> &#160;Module</text>
<polygon fill="#80b1d3" stroke="transparent" points="213,-10 213,-30 233,-30 233,-10 213,-10"/>
<text text-anchor="start" x="236.78" y="-15.4" font-family="sans-serif" font-size="14.00"> &#160;Bootstrap</text>
<polygon fill="#fdb462" stroke="transparent" points="310,-10 310,-30 330,-30 330,-10 310,-10"/>
<text text-anchor="start" x="333.67" y="-15.4" font-family="sans-serif" font-size="14.00"> &#160;Providers</text>
<polygon fill="#fb8072" stroke="transparent" points="406,-10 406,-30 426,-30 426,-10 406,-10"/>
<text text-anchor="start" x="429.73" y="-15.4" font-family="sans-serif" font-size="14.00"> &#160;Exports</text>
<g id="clust1" class="cluster">
<title>cluster_AddStepModule</title>
<polygon fill="none" stroke="black" stroke-dasharray="1,5" points="21.5,-70 21.5,-195 474.5,-195 474.5,-70 21.5,-70"/>
</g>
<g id="clust2" class="cluster">
<title>cluster_AddStepModule_declarations</title>
<polygon fill="none" stroke="black" points="320.5,-78 320.5,-130 466.5,-130 466.5,-78 320.5,-78"/>
</g>
<g id="clust4" class="cluster">
<title>cluster_AddStepModule_imports</title>
<polygon fill="none" stroke="black" points="29.5,-78 29.5,-130 312.5,-130 312.5,-78 29.5,-78"/>
</g>
<!-- AddStepComponent -->
<g id="node1" class="node">
<title>AddStepComponent</title>
<polygon fill="#ffffb3" stroke="black" points="458.83,-122 328.17,-122 328.17,-86 458.83,-86 458.83,-122"/>
<text text-anchor="middle" x="393.5" y="-99.8" font-family="Times,serif" font-size="14.00">AddStepComponent</text>
</g>
<!-- AddStepModule -->
<g id="node2" class="node">
<title>AddStepModule</title>
<polygon fill="#8dd3c7" stroke="black" points="281.55,-187 278.55,-191 257.55,-191 254.55,-187 173.45,-187 173.45,-151 281.55,-151 281.55,-187"/>
<text text-anchor="middle" x="227.5" y="-164.8" font-family="Times,serif" font-size="14.00">AddStepModule</text>
</g>
<!-- AddStepComponent&#45;&gt;AddStepModule -->
<g id="edge1" class="edge">
<title>AddStepComponent&#45;&gt;AddStepModule</title>
<path fill="none" stroke="black" d="M393.5,-122.11C393.5,-141.34 393.5,-169 393.5,-169 393.5,-169 291.85,-169 291.85,-169"/>
<polygon fill="black" stroke="black" points="291.85,-165.5 281.85,-169 291.85,-172.5 291.85,-165.5"/>
</g>
<!-- AddStepRoutingModule -->
<g id="node3" class="node">
<title>AddStepRoutingModule</title>
<polygon fill="#8dd3c7" stroke="black" points="304.16,-122 301.16,-126 280.16,-126 277.16,-122 150.84,-122 150.84,-86 304.16,-86 304.16,-122"/>
<text text-anchor="middle" x="227.5" y="-99.8" font-family="Times,serif" font-size="14.00">AddStepRoutingModule</text>
</g>
<!-- AddStepRoutingModule&#45;&gt;AddStepModule -->
<g id="edge2" class="edge">
<title>AddStepRoutingModule&#45;&gt;AddStepModule</title>
<path fill="none" stroke="black" d="M227.5,-122.11C227.5,-122.11 227.5,-140.99 227.5,-140.99"/>
<polygon fill="black" stroke="black" points="224,-140.99 227.5,-150.99 231,-140.99 224,-140.99"/>
</g>
<!-- FormsModule -->
<g id="node4" class="node">
<title>FormsModule</title>
<polygon fill="#8dd3c7" stroke="black" points="133.33,-122 130.33,-126 109.33,-126 106.33,-122 37.67,-122 37.67,-86 133.33,-86 133.33,-122"/>
<text text-anchor="middle" x="85.5" y="-99.8" font-family="Times,serif" font-size="14.00">FormsModule</text>
</g>
<!-- FormsModule&#45;&gt;AddStepModule -->
<g id="edge3" class="edge">
<title>FormsModule&#45;&gt;AddStepModule</title>
<path fill="none" stroke="black" d="M85.5,-122.11C85.5,-141.34 85.5,-169 85.5,-169 85.5,-169 163.41,-169 163.41,-169"/>
<polygon fill="black" stroke="black" points="163.41,-172.5 173.41,-169 163.41,-165.5 163.41,-172.5"/>
</g>
</g>
</svg>
