<?xml version="1.0" encoding="UTF-8" standalone="no"?>
<!DOCTYPE svg PUBLIC "-//W3C//DTD SVG 1.1//EN"
 "http://www.w3.org/Graphics/SVG/1.1/DTD/svg11.dtd">
<!-- Generated by graphviz version 2.47.0 (20210316.0004)
 -->
<!-- Title: dependencies Pages: 1 -->
<svg width="504pt" height="211pt"
 viewBox="0.00 0.00 504.00 211.00" xmlns="http://www.w3.org/2000/svg" xmlns:xlink="http://www.w3.org/1999/xlink">
<g id="graph0" class="graph" transform="scale(1 1) rotate(0) translate(4 207)">
<title>dependencies</title>
<polygon fill="white" stroke="transparent" points="-4,4 -4,-207 500,-207 500,4 -4,4"/>
<text text-anchor="start" x="227.01" y="-42.4" font-family="sans-serif" font-weight="bold" font-size="14.00">Legend</text>
<polygon fill="#ffffb3" stroke="transparent" points="14,-10 14,-30 34,-30 34,-10 14,-10"/>
<text text-anchor="start" x="37.63" y="-15.4" font-family="sans-serif" font-size="14.00"> &#160;Declarations</text>
<polygon fill="#8dd3c7" stroke="transparent" points="127,-10 127,-30 147,-30 147,-10 127,-10"/>
<text text-anchor="start" x="150.73" y="-15.4" font-family="sans-serif" font-size="14.00"> &#160;Module</text>
<polygon fill="#80b1d3" stroke="transparent" points="213,-10 213,-30 233,-30 233,-10 213,-10"/>
<text text-anchor="start" x="236.78" y="-15.4" font-family="sans-serif" font-size="14.00"> &#160;Bootstrap</text>
<polygon fill="#fdb462" stroke="transparent" points="310,-10 310,-30 330,-30 330,-10 310,-10"/>
<text text-anchor="start" x="333.67" y="-15.4" font-family="sans-serif" font-size="14.00"> &#160;Providers</text>
<polygon fill="#fb8072" stroke="transparent" points="406,-10 406,-30 426,-30 426,-10 406,-10"/>
<text text-anchor="start" x="429.73" y="-15.4" font-family="sans-serif" font-size="14.00"> &#160;Exports</text>
<g id="clust1" class="cluster">
<title>cluster_AddStepModule</title>
<polygon fill="none" stroke="black" stroke-dasharray="1,5" points="21.5,-70 21.5,-195 474.5,-195 474.5,-70 21.5,-70"/>
</g>
<g id="clust4" class="cluster">
<title>cluster_AddStepModule_imports</title>
<polygon fill="none" stroke="black" points="183.5,-78 183.5,-130 466.5,-130 466.5,-78 183.5,-78"/>
</g>
<g id="clust2" class="cluster">
<title>cluster_AddStepModule_declarations</title>
<polygon fill="none" stroke="black" points="29.5,-78 29.5,-130 175.5,-130 175.5,-78 29.5,-78"/>
</g>
<!-- AddStepComponent -->
<g id="node1" class="node">
<title>AddStepComponent</title>
<polygon fill="#ffffb3" stroke="black" points="167.83,-122 37.17,-122 37.17,-86 167.83,-86 167.83,-122"/>
<text text-anchor="middle" x="102.5" y="-99.8" font-family="Times,serif" font-size="14.00">AddStepComponent</text>
</g>
<!-- AddStepModule -->
<g id="node2" class="node">
<title>AddStepModule</title>
<polygon fill="#8dd3c7" stroke="black" points="293.55,-187 290.55,-191 269.55,-191 266.55,-187 185.45,-187 185.45,-151 293.55,-151 293.55,-187"/>
<text text-anchor="middle" x="239.5" y="-164.8" font-family="Times,serif" font-size="14.00">AddStepModule</text>
</g>
<!-- AddStepComponent&#45;&gt;AddStepModule -->
<g id="edge1" class="edge">
<title>AddStepComponent&#45;&gt;AddStepModule</title>
<path fill="none" stroke="black" d="M102.5,-122.11C102.5,-141.34 102.5,-169 102.5,-169 102.5,-169 175.35,-169 175.35,-169"/>
<polygon fill="black" stroke="black" points="175.35,-172.5 185.35,-169 175.35,-165.5 175.35,-172.5"/>
</g>
<!-- AddStepRoutingModule -->
<g id="node3" class="node">
<title>AddStepRoutingModule</title>
<polygon fill="#8dd3c7" stroke="black" points="458.16,-122 455.16,-126 434.16,-126 431.16,-122 304.84,-122 304.84,-86 458.16,-86 458.16,-122"/>
<text text-anchor="middle" x="381.5" y="-99.8" font-family="Times,serif" font-size="14.00">AddStepRoutingModule</text>
</g>
<!-- AddStepRoutingModule&#45;&gt;AddStepModule -->
<g id="edge2" class="edge">
<title>AddStepRoutingModule&#45;&gt;AddStepModule</title>
<path fill="none" stroke="black" d="M381.5,-122.11C381.5,-141.34 381.5,-169 381.5,-169 381.5,-169 303.59,-169 303.59,-169"/>
<polygon fill="black" stroke="black" points="303.59,-165.5 293.59,-169 303.59,-172.5 303.59,-165.5"/>
</g>
<!-- FormsModule -->
<g id="node4" class="node">
<title>FormsModule</title>
<polygon fill="#8dd3c7" stroke="black" points="287.33,-122 284.33,-126 263.33,-126 260.33,-122 191.67,-122 191.67,-86 287.33,-86 287.33,-122"/>
<text text-anchor="middle" x="239.5" y="-99.8" font-family="Times,serif" font-size="14.00">FormsModule</text>
</g>
<!-- FormsModule&#45;&gt;AddStepModule -->
<g id="edge3" class="edge">
<title>FormsModule&#45;&gt;AddStepModule</title>
<path fill="none" stroke="black" d="M239.5,-122.11C239.5,-122.11 239.5,-140.99 239.5,-140.99"/>
<polygon fill="black" stroke="black" points="236,-140.99 239.5,-150.99 243,-140.99 236,-140.99"/>
</g>
</g>
</svg>
