<?xml version="1.0" encoding="UTF-8" standalone="no"?>
<!DOCTYPE svg PUBLIC "-//W3C//DTD SVG 1.1//EN"
 "http://www.w3.org/Graphics/SVG/1.1/DTD/svg11.dtd">
<!-- Generated by graphviz version 2.47.0 (20210316.0004)
 -->
<!-- Title: dependencies Pages: 1 -->
<svg width="1491pt" height="284pt"
 viewBox="0.00 0.00 1491.00 284.00" xmlns="http://www.w3.org/2000/svg" xmlns:xlink="http://www.w3.org/1999/xlink">
<g id="graph0" class="graph" transform="scale(1 1) rotate(0) translate(4 280)">
<title>dependencies</title>
<polygon fill="white" stroke="transparent" points="-4,4 -4,-280 1487,-280 1487,4 -4,4"/>
<text text-anchor="start" x="720.51" y="-42.4" font-family="sans-serif" font-weight="bold" font-size="14.00">Legend</text>
<polygon fill="#ffffb3" stroke="transparent" points="507.5,-10 507.5,-30 527.5,-30 527.5,-10 507.5,-10"/>
<text text-anchor="start" x="531.13" y="-15.4" font-family="sans-serif" font-size="14.00"> &#160;Declarations</text>
<polygon fill="#8dd3c7" stroke="transparent" points="620.5,-10 620.5,-30 640.5,-30 640.5,-10 620.5,-10"/>
<text text-anchor="start" x="644.23" y="-15.4" font-family="sans-serif" font-size="14.00"> &#160;Module</text>
<polygon fill="#80b1d3" stroke="transparent" points="706.5,-10 706.5,-30 726.5,-30 726.5,-10 706.5,-10"/>
<text text-anchor="start" x="730.28" y="-15.4" font-family="sans-serif" font-size="14.00"> &#160;Bootstrap</text>
<polygon fill="#fdb462" stroke="transparent" points="803.5,-10 803.5,-30 823.5,-30 823.5,-10 803.5,-10"/>
<text text-anchor="start" x="827.17" y="-15.4" font-family="sans-serif" font-size="14.00"> &#160;Providers</text>
<polygon fill="#fb8072" stroke="transparent" points="899.5,-10 899.5,-30 919.5,-30 919.5,-10 899.5,-10"/>
<text text-anchor="start" x="923.23" y="-15.4" font-family="sans-serif" font-size="14.00"> &#160;Exports</text>
<g id="clust1" class="cluster">
<title>cluster_AppModule</title>
<polygon fill="none" stroke="black" stroke-dasharray="1,5" points="8,-70 8,-268 1475,-268 1475,-70 8,-70"/>
</g>
<g id="clust14" class="cluster">
<title>cluster_AppModule_bootstrap</title>
<polygon fill="none" stroke="black" points="731,-208 731,-260 855,-260 855,-208 731,-208"/>
</g>
<g id="clust2" class="cluster">
<title>cluster_AppModule_declarations</title>
<polygon fill="none" stroke="black" points="16,-78 16,-130 1467,-130 1467,-78 16,-78"/>
</g>
<!-- AppComponent -->
<g id="node1" class="node">
<title>AppComponent</title>
<polygon fill="#ffffb3" stroke="black" points="1458.94,-122 1353.06,-122 1353.06,-86 1458.94,-86 1458.94,-122"/>
<text text-anchor="middle" x="1406" y="-99.8" font-family="Times,serif" font-size="14.00">AppComponent</text>
</g>
<!-- AppModule -->
<g id="node10" class="node">
<title>AppModule</title>
<polygon fill="#8dd3c7" stroke="black" points="834.66,-187 831.66,-191 810.66,-191 807.66,-187 751.34,-187 751.34,-151 834.66,-151 834.66,-187"/>
<text text-anchor="middle" x="793" y="-164.8" font-family="Times,serif" font-size="14.00">AppModule</text>
</g>
<!-- AppComponent&#45;&gt;AppModule -->
<g id="edge1" class="edge">
<title>AppComponent&#45;&gt;AppModule</title>
<path fill="none" stroke="black" d="M1406,-122.01C1406,-144.49 1406,-180 1406,-180 1406,-180 845.13,-180 845.13,-180"/>
<polygon fill="black" stroke="black" points="845.13,-176.5 835.13,-180 845.13,-183.5 845.13,-176.5"/>
</g>
<!-- ApplicationComponent -->
<g id="node2" class="node">
<title>ApplicationComponent</title>
<polygon fill="#ffffb3" stroke="black" points="1335.93,-122 1188.07,-122 1188.07,-86 1335.93,-86 1335.93,-122"/>
<text text-anchor="middle" x="1262" y="-99.8" font-family="Times,serif" font-size="14.00">ApplicationComponent</text>
</g>
<!-- ApplicationComponent&#45;&gt;AppModule -->
<g id="edge2" class="edge">
<title>ApplicationComponent&#45;&gt;AppModule</title>
<path fill="none" stroke="black" d="M1262,-122.13C1262,-142.57 1262,-173 1262,-173 1262,-173 845.03,-173 845.03,-173"/>
<polygon fill="black" stroke="black" points="845.03,-169.5 835.03,-173 845.03,-176.5 845.03,-169.5"/>
</g>
<!-- DashboardComponent -->
<g id="node3" class="node">
<title>DashboardComponent</title>
<polygon fill="#ffffb3" stroke="black" points="1169.97,-122 1028.03,-122 1028.03,-86 1169.97,-86 1169.97,-122"/>
<text text-anchor="middle" x="1099" y="-99.8" font-family="Times,serif" font-size="14.00">DashboardComponent</text>
</g>
<!-- DashboardComponent&#45;&gt;AppModule -->
<g id="edge3" class="edge">
<title>DashboardComponent&#45;&gt;AppModule</title>
<path fill="none" stroke="black" d="M1099,-122.27C1099,-140.56 1099,-166 1099,-166 1099,-166 844.91,-166 844.91,-166"/>
<polygon fill="black" stroke="black" points="844.91,-162.5 834.91,-166 844.91,-169.5 844.91,-162.5"/>
</g>
<!-- FormComponent -->
<g id="node4" class="node">
<title>FormComponent</title>
<polygon fill="#ffffb3" stroke="black" points="1009.67,-122 898.33,-122 898.33,-86 1009.67,-86 1009.67,-122"/>
<text text-anchor="middle" x="954" y="-99.8" font-family="Times,serif" font-size="14.00">FormComponent</text>
</g>
<!-- FormComponent&#45;&gt;AppModule -->
<g id="edge4" class="edge">
<title>FormComponent&#45;&gt;AppModule</title>
<path fill="none" stroke="black" d="M954,-122.01C954,-138.05 954,-159 954,-159 954,-159 844.88,-159 844.88,-159"/>
<polygon fill="black" stroke="black" points="844.88,-155.5 834.88,-159 844.88,-162.5 844.88,-155.5"/>
</g>
<!-- WebApplicationComponent -->
<g id="node5" class="node">
<title>WebApplicationComponent</title>
<polygon fill="#ffffb3" stroke="black" points="879.86,-122 706.14,-122 706.14,-86 879.86,-86 879.86,-122"/>
<text text-anchor="middle" x="793" y="-99.8" font-family="Times,serif" font-size="14.00">WebApplicationComponent</text>
</g>
<!-- WebApplicationComponent&#45;&gt;AppModule -->
<g id="edge5" class="edge">
<title>WebApplicationComponent&#45;&gt;AppModule</title>
<path fill="none" stroke="black" d="M793,-122.11C793,-122.11 793,-140.99 793,-140.99"/>
<polygon fill="black" stroke="black" points="789.5,-140.99 793,-150.99 796.5,-140.99 789.5,-140.99"/>
</g>
<!-- WebDashboardComponent -->
<g id="node6" class="node">
<title>WebDashboardComponent</title>
<polygon fill="#ffffb3" stroke="black" points="688.4,-122 519.6,-122 519.6,-86 688.4,-86 688.4,-122"/>
<text text-anchor="middle" x="604" y="-99.8" font-family="Times,serif" font-size="14.00">WebDashboardComponent</text>
</g>
<!-- WebDashboardComponent&#45;&gt;AppModule -->
<g id="edge6" class="edge">
<title>WebDashboardComponent&#45;&gt;AppModule</title>
<path fill="none" stroke="black" d="M604,-122.01C604,-138.05 604,-159 604,-159 604,-159 741.05,-159 741.05,-159"/>
<polygon fill="black" stroke="black" points="741.05,-162.5 751.05,-159 741.05,-155.5 741.05,-162.5"/>
</g>
<!-- WebFormComponent -->
<g id="node7" class="node">
<title>WebFormComponent</title>
<polygon fill="#ffffb3" stroke="black" points="502.1,-122 363.9,-122 363.9,-86 502.1,-86 502.1,-122"/>
<text text-anchor="middle" x="433" y="-99.8" font-family="Times,serif" font-size="14.00">WebFormComponent</text>
</g>
<!-- WebFormComponent&#45;&gt;AppModule -->
<g id="edge7" class="edge">
<title>WebFormComponent&#45;&gt;AppModule</title>
<path fill="none" stroke="black" d="M433,-122.27C433,-140.56 433,-166 433,-166 433,-166 741,-166 741,-166"/>
<polygon fill="black" stroke="black" points="741,-169.5 751,-166 741,-162.5 741,-169.5"/>
</g>
<!-- WebWorkflowComponent -->
<g id="node8" class="node">
<title>WebWorkflowComponent</title>
<polygon fill="#ffffb3" stroke="black" points="345.79,-122 180.21,-122 180.21,-86 345.79,-86 345.79,-122"/>
<text text-anchor="middle" x="263" y="-99.8" font-family="Times,serif" font-size="14.00">WebWorkflowComponent</text>
</g>
<!-- WebWorkflowComponent&#45;&gt;AppModule -->
<g id="edge8" class="edge">
<title>WebWorkflowComponent&#45;&gt;AppModule</title>
<path fill="none" stroke="black" d="M263,-122.13C263,-142.57 263,-173 263,-173 263,-173 740.97,-173 740.97,-173"/>
<polygon fill="black" stroke="black" points="740.97,-176.5 750.97,-173 740.97,-169.5 740.97,-176.5"/>
</g>
<!-- WorkflowComponent -->
<g id="node9" class="node">
<title>WorkflowComponent</title>
<polygon fill="#ffffb3" stroke="black" points="162.37,-122 23.63,-122 23.63,-86 162.37,-86 162.37,-122"/>
<text text-anchor="middle" x="93" y="-99.8" font-family="Times,serif" font-size="14.00">WorkflowComponent</text>
</g>
<!-- WorkflowComponent&#45;&gt;AppModule -->
<g id="edge9" class="edge">
<title>WorkflowComponent&#45;&gt;AppModule</title>
<path fill="none" stroke="black" d="M93,-122.01C93,-144.49 93,-180 93,-180 93,-180 741.31,-180 741.31,-180"/>
<polygon fill="black" stroke="black" points="741.31,-183.5 751.31,-180 741.31,-176.5 741.31,-183.5"/>
</g>
<!-- AppComponent  -->
<g id="node11" class="node">
<title>AppComponent </title>
<polygon fill="#80b1d3" stroke="black" points="847.44,-252 738.56,-252 738.56,-216 847.44,-216 847.44,-252"/>
<text text-anchor="middle" x="793" y="-229.8" font-family="Times,serif" font-size="14.00">AppComponent </text>
</g>
<!-- AppModule&#45;&gt;AppComponent  -->
<g id="edge10" class="edge">
<title>AppModule&#45;&gt;AppComponent </title>
<path fill="none" stroke="black" stroke-dasharray="1,5" d="M793,-187.11C793,-187.11 793,-205.99 793,-205.99"/>
<polygon fill="black" stroke="black" points="789.5,-205.99 793,-215.99 796.5,-205.99 789.5,-205.99"/>
</g>
</g>
</svg>
