<?xml version="1.0" encoding="UTF-8" standalone="no"?>
<!DOCTYPE svg PUBLIC "-//W3C//DTD SVG 1.1//EN"
 "http://www.w3.org/Graphics/SVG/1.1/DTD/svg11.dtd">
<!-- Generated by graphviz version 2.47.0 (20210316.0004)
 -->
<!-- Title: dependencies Pages: 1 -->
<svg width="574pt" height="211pt"
 viewBox="0.00 0.00 574.00 211.00" xmlns="http://www.w3.org/2000/svg" xmlns:xlink="http://www.w3.org/1999/xlink">
<g id="graph0" class="graph" transform="scale(1 1) rotate(0) translate(4 207)">
<title>dependencies</title>
<polygon fill="white" stroke="transparent" points="-4,4 -4,-207 570,-207 570,4 -4,4"/>
<text text-anchor="start" x="262.01" y="-42.4" font-family="sans-serif" font-weight="bold" font-size="14.00">Legend</text>
<polygon fill="#ffffb3" stroke="transparent" points="49,-10 49,-30 69,-30 69,-10 49,-10"/>
<text text-anchor="start" x="72.63" y="-15.4" font-family="sans-serif" font-size="14.00"> &#160;Declarations</text>
<polygon fill="#8dd3c7" stroke="transparent" points="162,-10 162,-30 182,-30 182,-10 162,-10"/>
<text text-anchor="start" x="185.73" y="-15.4" font-family="sans-serif" font-size="14.00"> &#160;Module</text>
<polygon fill="#80b1d3" stroke="transparent" points="248,-10 248,-30 268,-30 268,-10 248,-10"/>
<text text-anchor="start" x="271.78" y="-15.4" font-family="sans-serif" font-size="14.00"> &#160;Bootstrap</text>
<polygon fill="#fdb462" stroke="transparent" points="345,-10 345,-30 365,-30 365,-10 345,-10"/>
<text text-anchor="start" x="368.67" y="-15.4" font-family="sans-serif" font-size="14.00"> &#160;Providers</text>
<polygon fill="#fb8072" stroke="transparent" points="441,-10 441,-30 461,-30 461,-10 441,-10"/>
<text text-anchor="start" x="464.73" y="-15.4" font-family="sans-serif" font-size="14.00"> &#160;Exports</text>
<g id="clust1" class="cluster">
<title>cluster_AppPreviewModule</title>
<polygon fill="none" stroke="black" stroke-dasharray="1,5" points="8,-70 8,-195 558,-195 558,-70 8,-70"/>
</g>
<g id="clust4" class="cluster">
<title>cluster_AppPreviewModule_imports</title>
<polygon fill="none" stroke="black" points="192,-78 192,-130 550,-130 550,-78 192,-78"/>
</g>
<g id="clust2" class="cluster">
<title>cluster_AppPreviewModule_declarations</title>
<polygon fill="none" stroke="black" points="16,-78 16,-130 184,-130 184,-78 16,-78"/>
</g>
<!-- AppPreviewComponent -->
<g id="node1" class="node">
<title>AppPreviewComponent</title>
<polygon fill="#ffffb3" stroke="black" points="175.81,-122 24.19,-122 24.19,-86 175.81,-86 175.81,-122"/>
<text text-anchor="middle" x="100" y="-99.8" font-family="Times,serif" font-size="14.00">AppPreviewComponent</text>
</g>
<!-- AppPreviewModule -->
<g id="node2" class="node">
<title>AppPreviewModule</title>
<polygon fill="#8dd3c7" stroke="black" points="339.53,-187 336.53,-191 315.53,-191 312.53,-187 210.47,-187 210.47,-151 339.53,-151 339.53,-187"/>
<text text-anchor="middle" x="275" y="-164.8" font-family="Times,serif" font-size="14.00">AppPreviewModule</text>
</g>
<!-- AppPreviewComponent&#45;&gt;AppPreviewModule -->
<g id="edge1" class="edge">
<title>AppPreviewComponent&#45;&gt;AppPreviewModule</title>
<path fill="none" stroke="black" d="M100,-122.11C100,-141.34 100,-169 100,-169 100,-169 200.33,-169 200.33,-169"/>
<polygon fill="black" stroke="black" points="200.33,-172.5 210.33,-169 200.33,-165.5 200.33,-172.5"/>
</g>
<!-- AppPreviewRoutingModule -->
<g id="node3" class="node">
<title>AppPreviewRoutingModule</title>
<polygon fill="#8dd3c7" stroke="black" points="542.14,-122 539.14,-126 518.14,-126 515.14,-122 367.86,-122 367.86,-86 542.14,-86 542.14,-122"/>
<text text-anchor="middle" x="455" y="-99.8" font-family="Times,serif" font-size="14.00">AppPreviewRoutingModule</text>
</g>
<!-- AppPreviewRoutingModule&#45;&gt;AppPreviewModule -->
<g id="edge2" class="edge">
<title>AppPreviewRoutingModule&#45;&gt;AppPreviewModule</title>
<path fill="none" stroke="black" d="M455,-122.11C455,-141.34 455,-169 455,-169 455,-169 349.73,-169 349.73,-169"/>
<polygon fill="black" stroke="black" points="349.73,-165.5 339.73,-169 349.73,-172.5 349.73,-165.5"/>
</g>
<!-- PreviewToolbarModule -->
<g id="node4" class="node">
<title>PreviewToolbarModule</title>
<polygon fill="#8dd3c7" stroke="black" points="349.74,-122 346.74,-126 325.74,-126 322.74,-122 200.26,-122 200.26,-86 349.74,-86 349.74,-122"/>
<text text-anchor="middle" x="275" y="-99.8" font-family="Times,serif" font-size="14.00">PreviewToolbarModule</text>
</g>
<!-- PreviewToolbarModule&#45;&gt;AppPreviewModule -->
<g id="edge3" class="edge">
<title>PreviewToolbarModule&#45;&gt;AppPreviewModule</title>
<path fill="none" stroke="black" d="M275,-122.11C275,-122.11 275,-140.99 275,-140.99"/>
<polygon fill="black" stroke="black" points="271.5,-140.99 275,-150.99 278.5,-140.99 271.5,-140.99"/>
</g>
</g>
</svg>
