<?xml version="1.0" encoding="UTF-8" standalone="no"?>
<!DOCTYPE svg PUBLIC "-//W3C//DTD SVG 1.1//EN"
 "http://www.w3.org/Graphics/SVG/1.1/DTD/svg11.dtd">
<!-- Generated by graphviz version 2.47.0 (20210316.0004)
 -->
<!-- Title: dependencies Pages: 1 -->
<svg width="574pt" height="211pt"
 viewBox="0.00 0.00 574.00 211.00" xmlns="http://www.w3.org/2000/svg" xmlns:xlink="http://www.w3.org/1999/xlink">
<g id="graph0" class="graph" transform="scale(1 1) rotate(0) translate(4 207)">
<title>dependencies</title>
<polygon fill="white" stroke="transparent" points="-4,4 -4,-207 570,-207 570,4 -4,4"/>
<text text-anchor="start" x="262.01" y="-42.4" font-family="sans-serif" font-weight="bold" font-size="14.00">Legend</text>
<polygon fill="#ffffb3" stroke="transparent" points="49,-10 49,-30 69,-30 69,-10 49,-10"/>
<text text-anchor="start" x="72.63" y="-15.4" font-family="sans-serif" font-size="14.00"> &#160;Declarations</text>
<polygon fill="#8dd3c7" stroke="transparent" points="162,-10 162,-30 182,-30 182,-10 162,-10"/>
<text text-anchor="start" x="185.73" y="-15.4" font-family="sans-serif" font-size="14.00"> &#160;Module</text>
<polygon fill="#80b1d3" stroke="transparent" points="248,-10 248,-30 268,-30 268,-10 248,-10"/>
<text text-anchor="start" x="271.78" y="-15.4" font-family="sans-serif" font-size="14.00"> &#160;Bootstrap</text>
<polygon fill="#fdb462" stroke="transparent" points="345,-10 345,-30 365,-30 365,-10 345,-10"/>
<text text-anchor="start" x="368.67" y="-15.4" font-family="sans-serif" font-size="14.00"> &#160;Providers</text>
<polygon fill="#fb8072" stroke="transparent" points="441,-10 441,-30 461,-30 461,-10 441,-10"/>
<text text-anchor="start" x="464.73" y="-15.4" font-family="sans-serif" font-size="14.00"> &#160;Exports</text>
<g id="clust1" class="cluster">
<title>cluster_AppPreviewModule</title>
<polygon fill="none" stroke="black" stroke-dasharray="1,5" points="8,-70 8,-195 558,-195 558,-70 8,-70"/>
</g>
<g id="clust2" class="cluster">
<title>cluster_AppPreviewModule_declarations</title>
<polygon fill="none" stroke="black" points="382,-78 382,-130 550,-130 550,-78 382,-78"/>
</g>
<g id="clust4" class="cluster">
<title>cluster_AppPreviewModule_imports</title>
<polygon fill="none" stroke="black" points="16,-78 16,-130 374,-130 374,-78 16,-78"/>
</g>
<!-- AppPreviewComponent -->
<g id="node1" class="node">
<title>AppPreviewComponent</title>
<polygon fill="#ffffb3" stroke="black" points="541.81,-122 390.19,-122 390.19,-86 541.81,-86 541.81,-122"/>
<text text-anchor="middle" x="466" y="-99.8" font-family="Times,serif" font-size="14.00">AppPreviewComponent</text>
</g>
<!-- AppPreviewModule -->
<g id="node2" class="node">
<title>AppPreviewModule</title>
<polygon fill="#8dd3c7" stroke="black" points="343.53,-187 340.53,-191 319.53,-191 316.53,-187 214.47,-187 214.47,-151 343.53,-151 343.53,-187"/>
<text text-anchor="middle" x="279" y="-164.8" font-family="Times,serif" font-size="14.00">AppPreviewModule</text>
</g>
<!-- AppPreviewComponent&#45;&gt;AppPreviewModule -->
<g id="edge1" class="edge">
<title>AppPreviewComponent&#45;&gt;AppPreviewModule</title>
<path fill="none" stroke="black" d="M466,-122.11C466,-141.34 466,-169 466,-169 466,-169 353.62,-169 353.62,-169"/>
<polygon fill="black" stroke="black" points="353.62,-165.5 343.62,-169 353.62,-172.5 353.62,-165.5"/>
</g>
<!-- AppPreviewRoutingModule -->
<g id="node3" class="node">
<title>AppPreviewRoutingModule</title>
<polygon fill="#8dd3c7" stroke="black" points="366.14,-122 363.14,-126 342.14,-126 339.14,-122 191.86,-122 191.86,-86 366.14,-86 366.14,-122"/>
<text text-anchor="middle" x="279" y="-99.8" font-family="Times,serif" font-size="14.00">AppPreviewRoutingModule</text>
</g>
<!-- AppPreviewRoutingModule&#45;&gt;AppPreviewModule -->
<g id="edge2" class="edge">
<title>AppPreviewRoutingModule&#45;&gt;AppPreviewModule</title>
<path fill="none" stroke="black" d="M279,-122.11C279,-122.11 279,-140.99 279,-140.99"/>
<polygon fill="black" stroke="black" points="275.5,-140.99 279,-150.99 282.5,-140.99 275.5,-140.99"/>
</g>
<!-- PreviewToolbarModule -->
<g id="node4" class="node">
<title>PreviewToolbarModule</title>
<polygon fill="#8dd3c7" stroke="black" points="173.74,-122 170.74,-126 149.74,-126 146.74,-122 24.26,-122 24.26,-86 173.74,-86 173.74,-122"/>
<text text-anchor="middle" x="99" y="-99.8" font-family="Times,serif" font-size="14.00">PreviewToolbarModule</text>
</g>
<!-- PreviewToolbarModule&#45;&gt;AppPreviewModule -->
<g id="edge3" class="edge">
<title>PreviewToolbarModule&#45;&gt;AppPreviewModule</title>
<path fill="none" stroke="black" d="M99,-122.11C99,-141.34 99,-169 99,-169 99,-169 204.27,-169 204.27,-169"/>
<polygon fill="black" stroke="black" points="204.27,-172.5 214.27,-169 204.27,-165.5 204.27,-172.5"/>
</g>
</g>
</svg>
