<?xml version="1.0" encoding="UTF-8" standalone="no"?>
<!DOCTYPE svg PUBLIC "-//W3C//DTD SVG 1.1//EN"
 "http://www.w3.org/Graphics/SVG/1.1/DTD/svg11.dtd">
<!-- Generated by graphviz version 2.47.0 (20210316.0004)
 -->
<!-- Title: dependencies Pages: 1 -->
<svg width="914pt" height="349pt"
 viewBox="0.00 0.00 914.00 349.00" xmlns="http://www.w3.org/2000/svg" xmlns:xlink="http://www.w3.org/1999/xlink">
<g id="graph0" class="graph" transform="scale(1 1) rotate(0) translate(4 345)">
<title>dependencies</title>
<polygon fill="white" stroke="transparent" points="-4,4 -4,-345 910,-345 910,4 -4,4"/>
<text text-anchor="start" x="432.01" y="-42.4" font-family="sans-serif" font-weight="bold" font-size="14.00">Legend</text>
<polygon fill="#ffffb3" stroke="transparent" points="219,-10 219,-30 239,-30 239,-10 219,-10"/>
<text text-anchor="start" x="242.63" y="-15.4" font-family="sans-serif" font-size="14.00"> &#160;Declarations</text>
<polygon fill="#8dd3c7" stroke="transparent" points="332,-10 332,-30 352,-30 352,-10 332,-10"/>
<text text-anchor="start" x="355.73" y="-15.4" font-family="sans-serif" font-size="14.00"> &#160;Module</text>
<polygon fill="#80b1d3" stroke="transparent" points="418,-10 418,-30 438,-30 438,-10 418,-10"/>
<text text-anchor="start" x="441.78" y="-15.4" font-family="sans-serif" font-size="14.00"> &#160;Bootstrap</text>
<polygon fill="#fdb462" stroke="transparent" points="515,-10 515,-30 535,-30 535,-10 515,-10"/>
<text text-anchor="start" x="538.67" y="-15.4" font-family="sans-serif" font-size="14.00"> &#160;Providers</text>
<polygon fill="#fb8072" stroke="transparent" points="611,-10 611,-30 631,-30 631,-10 611,-10"/>
<text text-anchor="start" x="634.73" y="-15.4" font-family="sans-serif" font-size="14.00"> &#160;Exports</text>
<g id="clust1" class="cluster">
<title>cluster_SafeQueryBuilderModule</title>
<polygon fill="none" stroke="black" stroke-dasharray="1,5" points="8,-70 8,-333 898,-333 898,-70 8,-70"/>
</g>
<g id="clust2" class="cluster">
<title>cluster_SafeQueryBuilderModule_declarations</title>
<polygon fill="none" stroke="black" points="16,-143 16,-195 742,-195 742,-143 16,-143"/>
</g>
<g id="clust3" class="cluster">
<title>cluster_SafeQueryBuilderModule_SafeQueryBuilderComponent_providers</title>
<polygon fill="none" stroke="black" points="16,-78 16,-130 890,-130 890,-78 16,-78"/>
</g>
<g id="clust8" class="cluster">
<title>cluster_SafeQueryBuilderModule_exports</title>
<polygon fill="none" stroke="black" points="261,-273 261,-325 463,-325 463,-273 261,-273"/>
</g>
<!-- SafeQueryBuilderComponent -->
<g id="node1" class="node">
<title>SafeQueryBuilderComponent</title>
<polygon fill="#ffffb3" stroke="black" points="733.68,-187 550.32,-187 550.32,-151 733.68,-151 733.68,-187"/>
<text text-anchor="middle" x="642" y="-164.8" font-family="Times,serif" font-size="14.00">SafeQueryBuilderComponent</text>
</g>
<!-- SafeQueryBuilderModule -->
<g id="node5" class="node">
<title>SafeQueryBuilderModule</title>
<polygon fill="#8dd3c7" stroke="black" points="442.9,-252 439.9,-256 418.9,-256 415.9,-252 281.1,-252 281.1,-216 442.9,-216 442.9,-252"/>
<text text-anchor="middle" x="362" y="-229.8" font-family="Times,serif" font-size="14.00">SafeQueryBuilderModule</text>
</g>
<!-- SafeQueryBuilderComponent&#45;&gt;SafeQueryBuilderModule -->
<g id="edge1" class="edge">
<title>SafeQueryBuilderComponent&#45;&gt;SafeQueryBuilderModule</title>
<path fill="none" stroke="black" d="M642,-187.11C642,-206.34 642,-234 642,-234 642,-234 452.99,-234 452.99,-234"/>
<polygon fill="black" stroke="black" points="452.99,-230.5 442.99,-234 452.99,-237.5 452.99,-230.5"/>
</g>
<!-- SafeTabFieldsComponent -->
<g id="node2" class="node">
<title>SafeTabFieldsComponent</title>
<polygon fill="#ffffb3" stroke="black" points="532.2,-187 369.8,-187 369.8,-151 532.2,-151 532.2,-187"/>
<text text-anchor="middle" x="451" y="-164.8" font-family="Times,serif" font-size="14.00">SafeTabFieldsComponent</text>
</g>
<!-- SafeTabFieldsComponent&#45;&gt;SafeQueryBuilderModule -->
<g id="edge3" class="edge">
<title>SafeTabFieldsComponent&#45;&gt;SafeQueryBuilderModule</title>
<path fill="none" stroke="black" d="M406.3,-187.11C406.3,-187.11 406.3,-205.99 406.3,-205.99"/>
<polygon fill="black" stroke="black" points="402.8,-205.99 406.3,-215.99 409.8,-205.99 402.8,-205.99"/>
</g>
<!-- SafeTabFilterComponent -->
<g id="node3" class="node">
<title>SafeTabFilterComponent</title>
<polygon fill="#ffffb3" stroke="black" points="352.3,-187 193.7,-187 193.7,-151 352.3,-151 352.3,-187"/>
<text text-anchor="middle" x="273" y="-164.8" font-family="Times,serif" font-size="14.00">SafeTabFilterComponent</text>
</g>
<!-- SafeTabFilterComponent&#45;&gt;SafeQueryBuilderModule -->
<g id="edge4" class="edge">
<title>SafeTabFilterComponent&#45;&gt;SafeQueryBuilderModule</title>
<path fill="none" stroke="black" d="M316.73,-187.11C316.73,-187.11 316.73,-205.99 316.73,-205.99"/>
<polygon fill="black" stroke="black" points="313.23,-205.99 316.73,-215.99 320.23,-205.99 313.23,-205.99"/>
</g>
<!-- SafeTabSortComponent -->
<g id="node4" class="node">
<title>SafeTabSortComponent</title>
<polygon fill="#ffffb3" stroke="black" points="175.81,-187 24.19,-187 24.19,-151 175.81,-151 175.81,-187"/>
<text text-anchor="middle" x="100" y="-164.8" font-family="Times,serif" font-size="14.00">SafeTabSortComponent</text>
</g>
<!-- SafeTabSortComponent&#45;&gt;SafeQueryBuilderModule -->
<g id="edge5" class="edge">
<title>SafeTabSortComponent&#45;&gt;SafeQueryBuilderModule</title>
<path fill="none" stroke="black" d="M100,-187.11C100,-206.34 100,-234 100,-234 100,-234 271.25,-234 271.25,-234"/>
<polygon fill="black" stroke="black" points="271.25,-237.5 281.25,-234 271.25,-230.5 271.25,-237.5"/>
</g>
<!-- SafeQueryBuilderComponent  -->
<g id="node7" class="node">
<title>SafeQueryBuilderComponent </title>
<polygon fill="#fb8072" stroke="black" points="455.18,-317 268.82,-317 268.82,-281 455.18,-281 455.18,-317"/>
<text text-anchor="middle" x="362" y="-294.8" font-family="Times,serif" font-size="14.00">SafeQueryBuilderComponent </text>
</g>
<!-- SafeQueryBuilderModule&#45;&gt;SafeQueryBuilderComponent  -->
<g id="edge6" class="edge">
<title>SafeQueryBuilderModule&#45;&gt;SafeQueryBuilderComponent </title>
<path fill="none" stroke="black" stroke-dasharray="5,2" d="M362,-252.11C362,-252.11 362,-270.99 362,-270.99"/>
<polygon fill="black" stroke="black" points="358.5,-270.99 362,-280.99 365.5,-270.99 358.5,-270.99"/>
</g>
<!-- { provide: MAT_AUTOCOMPLETE_SCROLL_STRATEGY, useFactory: scrollFactory, deps: [Overlay] } -->
<g id="node6" class="node">
<title>{ provide: MAT_AUTOCOMPLETE_SCROLL_STRATEGY, useFactory: scrollFactory, deps: [Overlay] }</title>
<ellipse fill="#fdb462" stroke="black" cx="453" cy="-104" rx="429.07" ry="18"/>
<text text-anchor="middle" x="453" y="-99.8" font-family="Times,serif" font-size="14.00">{ provide: MAT_AUTOCOMPLETE_SCROLL_STRATEGY, useFactory: scrollFactory, deps: [Overlay] }</text>
</g>
<!-- { provide: MAT_AUTOCOMPLETE_SCROLL_STRATEGY, useFactory: scrollFactory, deps: [Overlay] }&#45;&gt;SafeQueryBuilderComponent -->
<g id="edge2" class="edge">
<title>{ provide: MAT_AUTOCOMPLETE_SCROLL_STRATEGY, useFactory: scrollFactory, deps: [Overlay] }&#45;&gt;SafeQueryBuilderComponent</title>
<path fill="none" stroke="black" d="M642,-120.4C642,-120.4 642,-140.54 642,-140.54"/>
<polygon fill="black" stroke="black" points="638.5,-140.54 642,-150.54 645.5,-140.54 638.5,-140.54"/>
</g>
</g>
</svg>
