<?xml version="1.0" encoding="UTF-8" standalone="no"?>
<!DOCTYPE svg PUBLIC "-//W3C//DTD SVG 1.1//EN"
 "http://www.w3.org/Graphics/SVG/1.1/DTD/svg11.dtd">
<!-- Generated by graphviz version 2.47.0 (20210316.0004)
 -->
<!-- Title: dependencies Pages: 1 -->
<svg width="1397pt" height="284pt"
 viewBox="0.00 0.00 1397.00 284.00" xmlns="http://www.w3.org/2000/svg" xmlns:xlink="http://www.w3.org/1999/xlink">
<g id="graph0" class="graph" transform="scale(1 1) rotate(0) translate(4 280)">
<title>dependencies</title>
<polygon fill="white" stroke="transparent" points="-4,4 -4,-280 1393,-280 1393,4 -4,4"/>
<text text-anchor="start" x="673.51" y="-42.4" font-family="sans-serif" font-weight="bold" font-size="14.00">Legend</text>
<polygon fill="#ffffb3" stroke="transparent" points="460.5,-10 460.5,-30 480.5,-30 480.5,-10 460.5,-10"/>
<text text-anchor="start" x="484.13" y="-15.4" font-family="sans-serif" font-size="14.00"> &#160;Declarations</text>
<polygon fill="#8dd3c7" stroke="transparent" points="573.5,-10 573.5,-30 593.5,-30 593.5,-10 573.5,-10"/>
<text text-anchor="start" x="597.23" y="-15.4" font-family="sans-serif" font-size="14.00"> &#160;Module</text>
<polygon fill="#80b1d3" stroke="transparent" points="659.5,-10 659.5,-30 679.5,-30 679.5,-10 659.5,-10"/>
<text text-anchor="start" x="683.28" y="-15.4" font-family="sans-serif" font-size="14.00"> &#160;Bootstrap</text>
<polygon fill="#fdb462" stroke="transparent" points="756.5,-10 756.5,-30 776.5,-30 776.5,-10 756.5,-10"/>
<text text-anchor="start" x="780.17" y="-15.4" font-family="sans-serif" font-size="14.00"> &#160;Providers</text>
<polygon fill="#fb8072" stroke="transparent" points="852.5,-10 852.5,-30 872.5,-30 872.5,-10 852.5,-10"/>
<text text-anchor="start" x="876.23" y="-15.4" font-family="sans-serif" font-size="14.00"> &#160;Exports</text>
<g id="clust1" class="cluster">
<title>cluster_SafeWidgetGridModule</title>
<polygon fill="none" stroke="black" stroke-dasharray="1,5" points="8,-70 8,-268 1381,-268 1381,-70 8,-70"/>
</g>
<g id="clust9" class="cluster">
<title>cluster_SafeWidgetGridModule_imports</title>
<polygon fill="none" stroke="black" points="1231,-78 1231,-130 1373,-130 1373,-78 1231,-78"/>
</g>
<g id="clust10" class="cluster">
<title>cluster_SafeWidgetGridModule_exports</title>
<polygon fill="none" stroke="black" points="582,-208 582,-260 774,-260 774,-208 582,-208"/>
</g>
<g id="clust2" class="cluster">
<title>cluster_SafeWidgetGridModule_declarations</title>
<polygon fill="none" stroke="black" points="16,-78 16,-130 1223,-130 1223,-78 16,-78"/>
</g>
<!-- SafeDashboardMenuComponent -->
<g id="node1" class="node">
<title>SafeDashboardMenuComponent</title>
<polygon fill="#ffffb3" stroke="black" points="1214.51,-122 1015.49,-122 1015.49,-86 1214.51,-86 1214.51,-122"/>
<text text-anchor="middle" x="1115" y="-99.8" font-family="Times,serif" font-size="14.00">SafeDashboardMenuComponent</text>
</g>
<!-- SafeWidgetGridModule -->
<g id="node7" class="node">
<title>SafeWidgetGridModule</title>
<polygon fill="#8dd3c7" stroke="black" points="753.79,-187 750.79,-191 729.79,-191 726.79,-187 602.21,-187 602.21,-151 753.79,-151 753.79,-187"/>
<text text-anchor="middle" x="678" y="-164.8" font-family="Times,serif" font-size="14.00">SafeWidgetGridModule</text>
</g>
<!-- SafeDashboardMenuComponent&#45;&gt;SafeWidgetGridModule -->
<g id="edge1" class="edge">
<title>SafeDashboardMenuComponent&#45;&gt;SafeWidgetGridModule</title>
<path fill="none" stroke="black" d="M1115,-122.11C1115,-141.34 1115,-169 1115,-169 1115,-169 764.12,-169 764.12,-169"/>
<polygon fill="black" stroke="black" points="764.12,-165.5 754.12,-169 764.12,-172.5 764.12,-165.5"/>
</g>
<!-- SafeExpandedWidgetComponent -->
<g id="node2" class="node">
<title>SafeExpandedWidgetComponent</title>
<polygon fill="#ffffb3" stroke="black" points="997.9,-122 794.1,-122 794.1,-86 997.9,-86 997.9,-122"/>
<text text-anchor="middle" x="896" y="-99.8" font-family="Times,serif" font-size="14.00">SafeExpandedWidgetComponent</text>
</g>
<!-- SafeExpandedWidgetComponent&#45;&gt;SafeWidgetGridModule -->
<g id="edge2" class="edge">
<title>SafeExpandedWidgetComponent&#45;&gt;SafeWidgetGridModule</title>
<path fill="none" stroke="black" d="M896,-122.03C896,-138.4 896,-160 896,-160 896,-160 763.94,-160 763.94,-160"/>
<polygon fill="black" stroke="black" points="763.94,-156.5 753.94,-160 763.94,-163.5 763.94,-156.5"/>
</g>
<!-- SafeFloatingOptionsComponent -->
<g id="node3" class="node">
<title>SafeFloatingOptionsComponent</title>
<polygon fill="#ffffb3" stroke="black" points="776.71,-122 579.29,-122 579.29,-86 776.71,-86 776.71,-122"/>
<text text-anchor="middle" x="678" y="-99.8" font-family="Times,serif" font-size="14.00">SafeFloatingOptionsComponent</text>
</g>
<!-- SafeFloatingOptionsComponent&#45;&gt;SafeWidgetGridModule -->
<g id="edge3" class="edge">
<title>SafeFloatingOptionsComponent&#45;&gt;SafeWidgetGridModule</title>
<path fill="none" stroke="black" d="M678,-122.11C678,-122.11 678,-140.99 678,-140.99"/>
<polygon fill="black" stroke="black" points="674.5,-140.99 678,-150.99 681.5,-140.99 674.5,-140.99"/>
</g>
<!-- SafeTileDataComponent -->
<g id="node4" class="node">
<title>SafeTileDataComponent</title>
<polygon fill="#ffffb3" stroke="black" points="561.68,-122 406.32,-122 406.32,-86 561.68,-86 561.68,-122"/>
<text text-anchor="middle" x="484" y="-99.8" font-family="Times,serif" font-size="14.00">SafeTileDataComponent</text>
</g>
<!-- SafeTileDataComponent&#45;&gt;SafeWidgetGridModule -->
<g id="edge4" class="edge">
<title>SafeTileDataComponent&#45;&gt;SafeWidgetGridModule</title>
<path fill="none" stroke="black" d="M484,-122.03C484,-138.4 484,-160 484,-160 484,-160 592.16,-160 592.16,-160"/>
<polygon fill="black" stroke="black" points="592.16,-163.5 602.16,-160 592.16,-156.5 592.16,-163.5"/>
</g>
<!-- SafeTileDisplayComponent -->
<g id="node5" class="node">
<title>SafeTileDisplayComponent</title>
<polygon fill="#ffffb3" stroke="black" points="388.3,-122 215.7,-122 215.7,-86 388.3,-86 388.3,-122"/>
<text text-anchor="middle" x="302" y="-99.8" font-family="Times,serif" font-size="14.00">SafeTileDisplayComponent</text>
</g>
<!-- SafeTileDisplayComponent&#45;&gt;SafeWidgetGridModule -->
<g id="edge5" class="edge">
<title>SafeTileDisplayComponent&#45;&gt;SafeWidgetGridModule</title>
<path fill="none" stroke="black" d="M302,-122.11C302,-141.34 302,-169 302,-169 302,-169 591.91,-169 591.91,-169"/>
<polygon fill="black" stroke="black" points="591.91,-172.5 601.91,-169 591.91,-165.5 591.91,-172.5"/>
</g>
<!-- SafeWidgetGridComponent -->
<g id="node6" class="node">
<title>SafeWidgetGridComponent</title>
<polygon fill="#ffffb3" stroke="black" points="197.57,-122 24.43,-122 24.43,-86 197.57,-86 197.57,-122"/>
<text text-anchor="middle" x="111" y="-99.8" font-family="Times,serif" font-size="14.00">SafeWidgetGridComponent</text>
</g>
<!-- SafeWidgetGridComponent&#45;&gt;SafeWidgetGridModule -->
<g id="edge6" class="edge">
<title>SafeWidgetGridComponent&#45;&gt;SafeWidgetGridModule</title>
<path fill="none" stroke="black" d="M111,-122.29C111,-144.21 111,-178 111,-178 111,-178 592.12,-178 592.12,-178"/>
<polygon fill="black" stroke="black" points="592.12,-181.5 602.12,-178 592.12,-174.5 592.12,-181.5"/>
</g>
<!-- SafeWidgetGridComponent  -->
<g id="node9" class="node">
<title>SafeWidgetGridComponent </title>
<polygon fill="#fb8072" stroke="black" points="766.07,-252 589.93,-252 589.93,-216 766.07,-216 766.07,-252"/>
<text text-anchor="middle" x="678" y="-229.8" font-family="Times,serif" font-size="14.00">SafeWidgetGridComponent </text>
</g>
<!-- SafeWidgetGridModule&#45;&gt;SafeWidgetGridComponent  -->
<g id="edge8" class="edge">
<title>SafeWidgetGridModule&#45;&gt;SafeWidgetGridComponent </title>
<path fill="none" stroke="black" stroke-dasharray="5,2" d="M678,-187.11C678,-187.11 678,-205.99 678,-205.99"/>
<polygon fill="black" stroke="black" points="674.5,-205.99 678,-215.99 681.5,-205.99 674.5,-205.99"/>
</g>
<!-- SafeWidgetModule -->
<g id="node8" class="node">
<title>SafeWidgetModule</title>
<polygon fill="#8dd3c7" stroke="black" points="1364.63,-122 1361.63,-126 1340.63,-126 1337.63,-122 1239.37,-122 1239.37,-86 1364.63,-86 1364.63,-122"/>
<text text-anchor="middle" x="1302" y="-99.8" font-family="Times,serif" font-size="14.00">SafeWidgetModule</text>
</g>
<!-- SafeWidgetModule&#45;&gt;SafeWidgetGridModule -->
<g id="edge7" class="edge">
<title>SafeWidgetModule&#45;&gt;SafeWidgetGridModule</title>
<path fill="none" stroke="black" d="M1302,-122.29C1302,-144.21 1302,-178 1302,-178 1302,-178 763.89,-178 763.89,-178"/>
<polygon fill="black" stroke="black" points="763.89,-174.5 753.89,-178 763.89,-181.5 763.89,-174.5"/>
</g>
</g>
</svg>
