<?xml version="1.0" encoding="UTF-8" standalone="no"?>
<!DOCTYPE svg PUBLIC "-//W3C//DTD SVG 1.1//EN"
 "http://www.w3.org/Graphics/SVG/1.1/DTD/svg11.dtd">
<!-- Generated by graphviz version 2.47.0 (20210316.0004)
 -->
<!-- Title: dependencies Pages: 1 -->
<svg width="1397pt" height="284pt"
 viewBox="0.00 0.00 1397.00 284.00" xmlns="http://www.w3.org/2000/svg" xmlns:xlink="http://www.w3.org/1999/xlink">
<g id="graph0" class="graph" transform="scale(1 1) rotate(0) translate(4 280)">
<title>dependencies</title>
<polygon fill="white" stroke="transparent" points="-4,4 -4,-280 1393,-280 1393,4 -4,4"/>
<text text-anchor="start" x="673.51" y="-42.4" font-family="sans-serif" font-weight="bold" font-size="14.00">Legend</text>
<polygon fill="#ffffb3" stroke="transparent" points="460.5,-10 460.5,-30 480.5,-30 480.5,-10 460.5,-10"/>
<text text-anchor="start" x="484.13" y="-15.4" font-family="sans-serif" font-size="14.00"> &#160;Declarations</text>
<polygon fill="#8dd3c7" stroke="transparent" points="573.5,-10 573.5,-30 593.5,-30 593.5,-10 573.5,-10"/>
<text text-anchor="start" x="597.23" y="-15.4" font-family="sans-serif" font-size="14.00"> &#160;Module</text>
<polygon fill="#80b1d3" stroke="transparent" points="659.5,-10 659.5,-30 679.5,-30 679.5,-10 659.5,-10"/>
<text text-anchor="start" x="683.28" y="-15.4" font-family="sans-serif" font-size="14.00"> &#160;Bootstrap</text>
<polygon fill="#fdb462" stroke="transparent" points="756.5,-10 756.5,-30 776.5,-30 776.5,-10 756.5,-10"/>
<text text-anchor="start" x="780.17" y="-15.4" font-family="sans-serif" font-size="14.00"> &#160;Providers</text>
<polygon fill="#fb8072" stroke="transparent" points="852.5,-10 852.5,-30 872.5,-30 872.5,-10 852.5,-10"/>
<text text-anchor="start" x="876.23" y="-15.4" font-family="sans-serif" font-size="14.00"> &#160;Exports</text>
<g id="clust1" class="cluster">
<title>cluster_SafeWidgetGridModule</title>
<polygon fill="none" stroke="black" stroke-dasharray="1,5" points="8,-70 8,-268 1381,-268 1381,-70 8,-70"/>
</g>
<g id="clust2" class="cluster">
<title>cluster_SafeWidgetGridModule_declarations</title>
<polygon fill="none" stroke="black" points="166,-78 166,-130 1373,-130 1373,-78 166,-78"/>
</g>
<g id="clust10" class="cluster">
<title>cluster_SafeWidgetGridModule_exports</title>
<polygon fill="none" stroke="black" points="538,-208 538,-260 730,-260 730,-208 538,-208"/>
</g>
<g id="clust9" class="cluster">
<title>cluster_SafeWidgetGridModule_imports</title>
<polygon fill="none" stroke="black" points="16,-78 16,-130 158,-130 158,-78 16,-78"/>
</g>
<!-- SafeDashboardMenuComponent -->
<g id="node1" class="node">
<title>SafeDashboardMenuComponent</title>
<polygon fill="#ffffb3" stroke="black" points="1364.51,-122 1165.49,-122 1165.49,-86 1364.51,-86 1364.51,-122"/>
<text text-anchor="middle" x="1265" y="-99.8" font-family="Times,serif" font-size="14.00">SafeDashboardMenuComponent</text>
</g>
<!-- SafeWidgetGridModule -->
<g id="node7" class="node">
<title>SafeWidgetGridModule</title>
<polygon fill="#8dd3c7" stroke="black" points="709.79,-187 706.79,-191 685.79,-191 682.79,-187 558.21,-187 558.21,-151 709.79,-151 709.79,-187"/>
<text text-anchor="middle" x="634" y="-164.8" font-family="Times,serif" font-size="14.00">SafeWidgetGridModule</text>
</g>
<!-- SafeDashboardMenuComponent&#45;&gt;SafeWidgetGridModule -->
<g id="edge1" class="edge">
<title>SafeDashboardMenuComponent&#45;&gt;SafeWidgetGridModule</title>
<path fill="none" stroke="black" d="M1265,-122.29C1265,-144.21 1265,-178 1265,-178 1265,-178 719.8,-178 719.8,-178"/>
<polygon fill="black" stroke="black" points="719.8,-174.5 709.8,-178 719.8,-181.5 719.8,-174.5"/>
</g>
<!-- SafeExpandedWidgetComponent -->
<g id="node2" class="node">
<title>SafeExpandedWidgetComponent</title>
<polygon fill="#ffffb3" stroke="black" points="1147.9,-122 944.1,-122 944.1,-86 1147.9,-86 1147.9,-122"/>
<text text-anchor="middle" x="1046" y="-99.8" font-family="Times,serif" font-size="14.00">SafeExpandedWidgetComponent</text>
</g>
<!-- SafeExpandedWidgetComponent&#45;&gt;SafeWidgetGridModule -->
<g id="edge2" class="edge">
<title>SafeExpandedWidgetComponent&#45;&gt;SafeWidgetGridModule</title>
<path fill="none" stroke="black" d="M1046,-122.11C1046,-141.34 1046,-169 1046,-169 1046,-169 720.05,-169 720.05,-169"/>
<polygon fill="black" stroke="black" points="720.05,-165.5 710.05,-169 720.05,-172.5 720.05,-165.5"/>
</g>
<!-- SafeFloatingOptionsComponent -->
<g id="node3" class="node">
<title>SafeFloatingOptionsComponent</title>
<polygon fill="#ffffb3" stroke="black" points="926.71,-122 729.29,-122 729.29,-86 926.71,-86 926.71,-122"/>
<text text-anchor="middle" x="828" y="-99.8" font-family="Times,serif" font-size="14.00">SafeFloatingOptionsComponent</text>
</g>
<!-- SafeFloatingOptionsComponent&#45;&gt;SafeWidgetGridModule -->
<g id="edge3" class="edge">
<title>SafeFloatingOptionsComponent&#45;&gt;SafeWidgetGridModule</title>
<path fill="none" stroke="black" d="M828,-122.03C828,-138.4 828,-160 828,-160 828,-160 719.84,-160 719.84,-160"/>
<polygon fill="black" stroke="black" points="719.84,-156.5 709.84,-160 719.84,-163.5 719.84,-156.5"/>
</g>
<!-- SafeTileDataComponent -->
<g id="node4" class="node">
<title>SafeTileDataComponent</title>
<polygon fill="#ffffb3" stroke="black" points="711.68,-122 556.32,-122 556.32,-86 711.68,-86 711.68,-122"/>
<text text-anchor="middle" x="634" y="-99.8" font-family="Times,serif" font-size="14.00">SafeTileDataComponent</text>
</g>
<!-- SafeTileDataComponent&#45;&gt;SafeWidgetGridModule -->
<g id="edge4" class="edge">
<title>SafeTileDataComponent&#45;&gt;SafeWidgetGridModule</title>
<path fill="none" stroke="black" d="M634,-122.11C634,-122.11 634,-140.99 634,-140.99"/>
<polygon fill="black" stroke="black" points="630.5,-140.99 634,-150.99 637.5,-140.99 630.5,-140.99"/>
</g>
<!-- SafeTileDisplayComponent -->
<g id="node5" class="node">
<title>SafeTileDisplayComponent</title>
<polygon fill="#ffffb3" stroke="black" points="538.3,-122 365.7,-122 365.7,-86 538.3,-86 538.3,-122"/>
<text text-anchor="middle" x="452" y="-99.8" font-family="Times,serif" font-size="14.00">SafeTileDisplayComponent</text>
</g>
<!-- SafeTileDisplayComponent&#45;&gt;SafeWidgetGridModule -->
<g id="edge5" class="edge">
<title>SafeTileDisplayComponent&#45;&gt;SafeWidgetGridModule</title>
<path fill="none" stroke="black" d="M452,-122.03C452,-138.4 452,-160 452,-160 452,-160 548.13,-160 548.13,-160"/>
<polygon fill="black" stroke="black" points="548.13,-163.5 558.13,-160 548.13,-156.5 548.13,-163.5"/>
</g>
<!-- SafeWidgetGridComponent -->
<g id="node6" class="node">
<title>SafeWidgetGridComponent</title>
<polygon fill="#ffffb3" stroke="black" points="347.57,-122 174.43,-122 174.43,-86 347.57,-86 347.57,-122"/>
<text text-anchor="middle" x="261" y="-99.8" font-family="Times,serif" font-size="14.00">SafeWidgetGridComponent</text>
</g>
<!-- SafeWidgetGridComponent&#45;&gt;SafeWidgetGridModule -->
<g id="edge6" class="edge">
<title>SafeWidgetGridComponent&#45;&gt;SafeWidgetGridModule</title>
<path fill="none" stroke="black" d="M261,-122.11C261,-141.34 261,-169 261,-169 261,-169 548.07,-169 548.07,-169"/>
<polygon fill="black" stroke="black" points="548.07,-172.5 558.07,-169 548.07,-165.5 548.07,-172.5"/>
</g>
<!-- SafeWidgetGridComponent  -->
<g id="node9" class="node">
<title>SafeWidgetGridComponent </title>
<polygon fill="#fb8072" stroke="black" points="722.07,-252 545.93,-252 545.93,-216 722.07,-216 722.07,-252"/>
<text text-anchor="middle" x="634" y="-229.8" font-family="Times,serif" font-size="14.00">SafeWidgetGridComponent </text>
</g>
<!-- SafeWidgetGridModule&#45;&gt;SafeWidgetGridComponent  -->
<g id="edge8" class="edge">
<title>SafeWidgetGridModule&#45;&gt;SafeWidgetGridComponent </title>
<path fill="none" stroke="black" stroke-dasharray="5,2" d="M634,-187.11C634,-187.11 634,-205.99 634,-205.99"/>
<polygon fill="black" stroke="black" points="630.5,-205.99 634,-215.99 637.5,-205.99 630.5,-205.99"/>
</g>
<!-- SafeWidgetModule -->
<g id="node8" class="node">
<title>SafeWidgetModule</title>
<polygon fill="#8dd3c7" stroke="black" points="149.63,-122 146.63,-126 125.63,-126 122.63,-122 24.37,-122 24.37,-86 149.63,-86 149.63,-122"/>
<text text-anchor="middle" x="87" y="-99.8" font-family="Times,serif" font-size="14.00">SafeWidgetModule</text>
</g>
<!-- SafeWidgetModule&#45;&gt;SafeWidgetGridModule -->
<g id="edge7" class="edge">
<title>SafeWidgetModule&#45;&gt;SafeWidgetGridModule</title>
<path fill="none" stroke="black" d="M87,-122.29C87,-144.21 87,-178 87,-178 87,-178 548.23,-178 548.23,-178"/>
<polygon fill="black" stroke="black" points="548.23,-181.5 558.23,-178 548.23,-174.5 548.23,-181.5"/>
</g>
</g>
</svg>
