<?xml version="1.0" encoding="UTF-8"?>
<svg fill="none" viewBox="0 0 204 204" xmlns="http://www.w3.org/2000/svg">
<!-- <g filter="url(#a)">
<path d="m4 8c0-4.4183 3.5817-8 8-8h180c4.418 0 8 3.5817 8 8v180c0 4.418-3.582 8-8 8h-180c-4.4183 0-8-3.582-8-8v-180z" fill="#fff"/>
<path d="m4.25 8c0-4.2802 3.4698-7.75 7.75-7.75h180c4.28 0 7.75 3.4698 7.75 7.75v180c0 4.28-3.47 7.75-7.75 7.75h-180c-4.2802 0-7.75-3.47-7.75-7.75v-180z" stroke="#B8C0C4" stroke-width=".5"/>
</g> -->
<path d="m59.005 41.661v-7.974h1.9847c0.6851 0 1.2581 0.1004 1.7188 0.3012 0.4725 0.189 0.8506 0.4666 1.1341 0.8328 0.2835 0.3663 0.4843 0.8093 0.6025 1.329 0.1299 0.508 0.1949 1.081 0.1949 1.7189 0 0.697-0.0886 1.2876-0.2658 1.772-0.1772 0.4843-0.4135 0.8801-0.7088 1.1872-0.2954 0.2954-0.632 0.508-1.0101 0.6379-0.378 0.13-0.7678 0.195-1.1695 0.195h-2.4808zm-2.782-10.313v12.652h5.4577c0.9687 0 1.8075-0.1595 2.5163-0.4784 0.7206-0.3308 1.3172-0.7797 1.7897-1.3468 0.4843-0.567 0.8447-1.2404 1.0809-2.02 0.2363-0.7797 0.3544-1.6303 0.3544-2.5517 0-1.0514-0.1476-1.9669-0.443-2.7466-0.2835-0.7797-0.6852-1.4294-1.2049-1.9492-0.508-0.5198-1.1164-0.9096-1.8252-1.1695-0.697-0.2599-1.453-0.3899-2.2682-0.3899h-5.4577zm12.762 6.3083c0.0355-0.5906 0.1831-1.0809 0.443-1.4707 0.2599-0.3899 0.5907-0.7029 0.9923-0.9392 0.4017-0.2362 0.8506-0.4016 1.3468-0.4961 0.5079-0.1064 1.0159-0.1595 1.5239-0.1595 0.4607 0 0.9273 0.0354 1.3999 0.1063 0.4725 0.0591 0.9037 0.1831 1.2935 0.3721 0.3899 0.189 0.7088 0.4548 0.9569 0.7974 0.2481 0.3308 0.3721 0.7738 0.3721 1.329v4.7667c0 0.4135 0.0236 0.8092 0.0709 1.1872 0.0473 0.3781 0.1299 0.6616 0.2481 0.8506h-2.5517c-0.0473-0.1418-0.0886-0.2835-0.124-0.4253-0.0237-0.1536-0.0414-0.3071-0.0532-0.4607-0.4017 0.4135-0.8742 0.7029-1.4176 0.8683s-1.0986 0.2481-1.6657 0.2481c-0.4371 0-0.8446-0.0532-1.2227-0.1595-0.378-0.1063-0.7088-0.2717-0.9923-0.4962-0.2835-0.2244-0.508-0.508-0.6733-0.8505-0.1536-0.3426-0.2304-0.7502-0.2304-1.2227 0-0.5198 0.0886-0.9451 0.2658-1.2759 0.189-0.3425 0.4253-0.6143 0.7088-0.8151 0.2953-0.2008 0.6261-0.3485 0.9923-0.443 0.378-0.1063 0.7561-0.189 1.1341-0.2481 0.378-0.059 0.7501-0.1063 1.1164-0.1417 0.3662-0.0355 0.691-0.0886 0.9746-0.1595 0.2835-0.0709 0.5079-0.1713 0.6733-0.3012 0.1654-0.1418 0.2422-0.3426 0.2304-0.6025 0-0.2717-0.0473-0.4844-0.1418-0.6379-0.0827-0.1654-0.2008-0.2895-0.3544-0.3722-0.1417-0.0945-0.313-0.1535-0.5139-0.1772-0.189-0.0354-0.3957-0.0531-0.6202-0.0531-0.4961 0-0.886 0.1063-1.1695 0.3189-0.2835 0.2127-0.4489 0.5671-0.4961 1.0632h-2.5163zm5.8122 1.8606c-0.1063 0.0945-0.2422 0.1713-0.4076 0.2304-0.1536 0.0473-0.3248 0.0886-0.5139 0.124-0.1772 0.0355-0.3662 0.065-0.567 0.0886-0.2008 0.0237-0.4017 0.0532-0.6025 0.0886-0.189 0.0355-0.378 0.0827-0.567 0.1418-0.1772 0.0591-0.3367 0.1418-0.4785 0.2481-0.1299 0.0945-0.2362 0.2185-0.3189 0.3721s-0.1241 0.3485-0.1241 0.5848c0 0.2244 0.0414 0.4134 0.1241 0.567s0.1949 0.2776 0.3367 0.3721c0.1417 0.0827 0.3071 0.1418 0.4961 0.1772 0.189 0.0355 0.384 0.0532 0.5848 0.0532 0.4961 0 0.8801-0.0827 1.1518-0.2481s0.4725-0.3603 0.6025-0.5848c0.1299-0.2362 0.2067-0.4725 0.2303-0.7088 0.0355-0.2362 0.0532-0.4252 0.0532-0.567v-0.9392zm6.4185 1.5062h-2.3922c0.0236 0.6143 0.1595 1.1282 0.4076 1.5417 0.2598 0.4016 0.5847 0.7265 0.9746 0.9746 0.4016 0.2481 0.8564 0.4253 1.3644 0.5316s1.0278 0.1595 1.5594 0.1595c0.5197 0 1.0277-0.0532 1.5239-0.1595 0.5079-0.0945 0.9569-0.2658 1.3467-0.5139s0.7029-0.5729 0.9392-0.9746c0.248-0.4135 0.3721-0.9214 0.3721-1.5239 0-0.4253-0.0827-0.7797-0.2481-1.0632-0.1654-0.2954-0.3839-0.5375-0.6556-0.7265-0.2718-0.2009-0.5848-0.3603-0.9392-0.4785-0.3426-0.1181-0.697-0.2185-1.0632-0.3012-0.3544-0.0827-0.7029-0.1595-1.0455-0.2304s-0.6497-0.1476-0.9214-0.2303c-0.2599-0.0945-0.4726-0.2127-0.6379-0.3544-0.1654-0.1418-0.2481-0.3249-0.2481-0.5494 0-0.189 0.0472-0.3366 0.1417-0.443 0.0945-0.1181 0.2068-0.2067 0.3367-0.2658 0.1418-0.059 0.2953-0.0945 0.4607-0.1063 0.1654-0.0236 0.319-0.0354 0.4608-0.0354 0.4489 0 0.8387 0.0886 1.1695 0.2658 0.3307 0.1654 0.5139 0.4902 0.5493 0.9746h2.3922c-0.0473-0.5671-0.1949-1.0337-0.443-1.3999-0.2363-0.378-0.5375-0.6793-0.9037-0.9037-0.3662-0.2245-0.7856-0.384-1.2581-0.4785-0.4608-0.0945-0.9392-0.1417-1.4354-0.1417-0.4961 0-0.9805 0.0472-1.453 0.1417-0.4725 0.0827-0.8978 0.2363-1.2758 0.4608-0.3781 0.2126-0.6852 0.5079-0.9215 0.886-0.2244 0.378-0.3367 0.8623-0.3367 1.453 0 0.4017 0.0827 0.7442 0.2481 1.0278 0.1654 0.2717 0.3839 0.502 0.6557 0.691 0.2717 0.1772 0.5788 0.3249 0.9214 0.443 0.3544 0.1064 0.7147 0.2009 1.0809 0.2836 0.8978 0.189 1.5948 0.378 2.091 0.567 0.5079 0.189 0.7619 0.4725 0.7619 0.8506 0 0.2244-0.0531 0.4134-0.1594 0.567-0.1064 0.1418-0.2422 0.2599-0.4076 0.3544-0.1536 0.0827-0.3308 0.1477-0.5316 0.1949-0.189 0.0355-0.3721 0.0532-0.5493 0.0532-0.2481 0-0.4903-0.0296-0.7265-0.0886-0.2245-0.0591-0.4253-0.1477-0.6025-0.2658-0.1772-0.13-0.3249-0.2894-0.443-0.4785-0.1063-0.2008-0.1595-0.4371-0.1595-0.7088zm7.5684-9.6751v12.652h2.5162v-4.8021c0-0.9333 0.1536-1.6007 0.4607-2.0024 0.3072-0.4134 0.8033-0.6202 1.4885-0.6202 0.6025 0 1.0219 0.189 1.2581 0.5671 0.2363 0.3662 0.3544 0.9273 0.3544 1.6834v5.1742h2.5163v-5.635c0-0.567-0.0532-1.0809-0.1595-1.5416-0.0945-0.4725-0.2658-0.8683-0.5139-1.1872-0.2481-0.3308-0.5907-0.5848-1.0277-0.762-0.4253-0.189-0.9746-0.2835-1.648-0.2835-0.4725 0-0.9569 0.124-1.453 0.3721-0.4962 0.2363-0.9038 0.6202-1.2227 1.1518h-0.0532v-4.7667h-2.5162zm17.22 8.0803c0 0.3781-0.042 0.7443-0.124 1.0987-0.083 0.3544-0.213 0.6674-0.39 0.9391s-0.402 0.4903-0.674 0.6557c-0.259 0.1536-0.578 0.2303-0.956 0.2303-0.367 0-0.686-0.0767-0.957-0.2303-0.272-0.1654-0.496-0.384-0.674-0.6557-0.177-0.2717-0.307-0.5847-0.39-0.9391-0.082-0.3544-0.124-0.7206-0.124-1.0987 0-0.3898 0.042-0.7619 0.124-1.1163 0.083-0.3544 0.213-0.6675 0.39-0.9392 0.178-0.2717 0.402-0.4843 0.674-0.6379 0.271-0.1654 0.59-0.2481 0.957-0.2481 0.378 0 0.697 0.0827 0.956 0.2481 0.272 0.1536 0.497 0.3662 0.674 0.6379s0.307 0.5848 0.39 0.9392c0.082 0.3544 0.124 0.7265 0.124 1.1163zm-6.7162-8.0803v12.652h2.3922v-1.1695h0.035c0.272 0.508 0.674 0.8683 1.205 1.0809 0.532 0.2126 1.134 0.319 1.808 0.319 0.461 0 0.915-0.0945 1.364-0.2836 0.449-0.189 0.851-0.4784 1.205-0.8682 0.366-0.3899 0.662-0.886 0.886-1.4885 0.225-0.6143 0.337-1.3408 0.337-2.1796 0-0.8387-0.112-1.5593-0.337-2.1618-0.224-0.6143-0.52-1.1164-0.886-1.5062-0.354-0.3899-0.756-0.6793-1.205-0.8683s-0.903-0.2835-1.364-0.2835c-0.567 0-1.117 0.1122-1.648 0.3367-0.52 0.2126-0.933 0.5552-1.241 1.0277h-0.035v-4.6072h-2.5162zm13.065 8.0803c0-0.3662 0.036-0.7265 0.107-1.0809 0.07-0.3544 0.189-0.6674 0.354-0.9391 0.177-0.2717 0.408-0.4903 0.691-0.6557 0.284-0.1772 0.638-0.2658 1.063-0.2658 0.426 0 0.78 0.0886 1.063 0.2658 0.296 0.1654 0.526 0.384 0.692 0.6557 0.177 0.2717 0.301 0.5847 0.372 0.9391s0.106 0.7147 0.106 1.0809c0 0.3663-0.035 0.7266-0.106 1.081-0.071 0.3425-0.195 0.6556-0.372 0.9391-0.166 0.2717-0.396 0.4903-0.692 0.6557-0.283 0.1653-0.637 0.248-1.063 0.248-0.425 0-0.779-0.0827-1.063-0.248-0.283-0.1654-0.514-0.384-0.691-0.6557-0.165-0.2835-0.284-0.5966-0.354-0.9391-0.071-0.3544-0.107-0.7147-0.107-1.081zm-2.516 0c0 0.7325 0.112 1.394 0.337 1.9847 0.224 0.5906 0.543 1.0986 0.957 1.5239 0.413 0.4135 0.909 0.7324 1.488 0.9569 0.579 0.2244 1.229 0.3367 1.949 0.3367 0.721 0 1.371-0.1123 1.949-0.3367 0.591-0.2245 1.093-0.5434 1.507-0.9569 0.413-0.4253 0.732-0.9333 0.957-1.5239 0.224-0.5907 0.336-1.2522 0.336-1.9847 0-0.7324-0.112-1.3939-0.336-1.9846-0.225-0.6025-0.544-1.1105-0.957-1.5239-0.414-0.4253-0.916-0.7502-1.507-0.9746-0.578-0.2363-1.228-0.3544-1.949-0.3544-0.72 0-1.37 0.1181-1.949 0.3544-0.579 0.2244-1.075 0.5493-1.488 0.9746-0.414 0.4134-0.733 0.9214-0.957 1.5239-0.225 0.5907-0.337 1.2522-0.337 1.9846zm11.01-1.772c0.035-0.5906 0.183-1.0809 0.443-1.4707 0.26-0.3899 0.591-0.7029 0.992-0.9392 0.402-0.2362 0.851-0.4016 1.347-0.4961 0.508-0.1064 1.016-0.1595 1.524-0.1595 0.461 0 0.927 0.0354 1.4 0.1063 0.472 0.0591 0.904 0.1831 1.293 0.3721 0.39 0.189 0.709 0.4548 0.957 0.7974 0.248 0.3308 0.372 0.7738 0.372 1.329v4.7667c0 0.4135 0.024 0.8092 0.071 1.1872 0.047 0.3781 0.13 0.6616 0.248 0.8506h-2.551c-0.048-0.1418-0.089-0.2835-0.124-0.4253-0.024-0.1536-0.042-0.3071-0.054-0.4607-0.401 0.4135-0.874 0.7029-1.417 0.8683-0.544 0.1654-1.099 0.2481-1.666 0.2481-0.437 0-0.844-0.0532-1.223-0.1595-0.378-0.1063-0.708-0.2717-0.992-0.4962-0.283-0.2244-0.508-0.508-0.673-0.8505-0.154-0.3426-0.231-0.7502-0.231-1.2227 0-0.5198 0.089-0.9451 0.266-1.2759 0.189-0.3425 0.426-0.6143 0.709-0.8151 0.295-0.2008 0.626-0.3485 0.992-0.443 0.378-0.1063 0.756-0.189 1.134-0.2481 0.378-0.059 0.751-0.1063 1.117-0.1417 0.366-0.0355 0.691-0.0886 0.974-0.1595 0.284-0.0709 0.508-0.1713 0.674-0.3012 0.165-0.1418 0.242-0.3426 0.23-0.6025 0-0.2717-0.047-0.4844-0.142-0.6379-0.082-0.1654-0.2-0.2895-0.354-0.3722-0.142-0.0945-0.313-0.1535-0.514-0.1772-0.189-0.0354-0.396-0.0531-0.62-0.0531-0.496 0-0.886 0.1063-1.17 0.3189-0.283 0.2127-0.449 0.5671-0.496 1.0632h-2.516zm5.812 1.8606c-0.106 0.0945-0.242 0.1713-0.407 0.2304-0.154 0.0473-0.325 0.0886-0.514 0.124-0.178 0.0355-0.367 0.065-0.567 0.0886-0.201 0.0237-0.402 0.0532-0.603 0.0886-0.189 0.0355-0.378 0.0827-0.567 0.1418-0.177 0.0591-0.337 0.1418-0.478 0.2481-0.13 0.0945-0.237 0.2185-0.319 0.3721-0.083 0.1536-0.124 0.3485-0.124 0.5848 0 0.2244 0.041 0.4134 0.124 0.567 0.082 0.1536 0.195 0.2776 0.336 0.3721 0.142 0.0827 0.308 0.1418 0.497 0.1772 0.189 0.0355 0.383 0.0532 0.584 0.0532 0.496 0 0.88-0.0827 1.152-0.2481s0.473-0.3603 0.603-0.5848c0.13-0.2362 0.206-0.4725 0.23-0.7088 0.035-0.2362 0.053-0.4252 0.053-0.567v-0.9392zm4.469-4.678v9.1612h2.517v-4.1288c0-0.4134 0.041-0.7974 0.124-1.1518 0.082-0.3544 0.218-0.6615 0.407-0.9214 0.201-0.2717 0.461-0.4843 0.78-0.6379s0.709-0.2304 1.169-0.2304c0.154 0 0.314 0.0118 0.479 0.0355 0.165 0.0118 0.307 0.0295 0.425 0.0531v-2.339c-0.201-0.0591-0.384-0.0886-0.549-0.0886-0.319 0-0.626 0.0472-0.922 0.1417-0.295 0.0945-0.573 0.2304-0.832 0.4076-0.26 0.1654-0.491 0.3721-0.691 0.6202-0.201 0.2363-0.361 0.4962-0.479 0.7797h-0.035v-1.7011h-2.393zm13.079 4.554c0 0.378-0.035 0.7442-0.106 1.0986s-0.189 0.6734-0.354 0.9569c-0.166 0.2717-0.39 0.4903-0.674 0.6557-0.271 0.1653-0.614 0.248-1.027 0.248-0.39 0-0.727-0.0827-1.01-0.248-0.272-0.1772-0.502-0.4017-0.692-0.6734-0.177-0.2835-0.307-0.6025-0.389-0.9569-0.083-0.3544-0.124-0.7088-0.124-1.0632 0-0.378 0.035-0.7383 0.106-1.0809 0.083-0.3544 0.207-0.6675 0.372-0.9392 0.177-0.2717 0.408-0.4902 0.691-0.6556 0.284-0.1654 0.632-0.2481 1.046-0.2481 0.413 0 0.756 0.0827 1.027 0.2481 0.272 0.1654 0.491 0.3839 0.656 0.6556 0.177 0.2599 0.301 0.5671 0.372 0.9215 0.071 0.3426 0.106 0.7029 0.106 1.0809zm0.036 3.4377v1.1695h2.392v-12.652h-2.516v4.6072h-0.036c-0.283-0.4489-0.673-0.7856-1.169-1.01-0.484-0.2363-0.998-0.3544-1.542-0.3544-0.673 0-1.264 0.1358-1.772 0.4075-0.508 0.2599-0.933 0.6084-1.276 1.0455-0.33 0.4371-0.584 0.9451-0.762 1.5239-0.165 0.5671-0.248 1.1577-0.248 1.772 0 0.638 0.083 1.2523 0.248 1.8429 0.178 0.5907 0.432 1.1164 0.762 1.5771 0.343 0.4489 0.774 0.8092 1.294 1.0809 0.52 0.2599 1.122 0.3899 1.807 0.3899 0.603 0 1.14-0.1064 1.613-0.319 0.484-0.2245 0.874-0.5848 1.169-1.0809h0.036z" fill="#008DC9"/>
<path d="m54.75 64.75v86.887h86" stroke="#008DC9" stroke-linecap="round" stroke-linejoin="round" stroke-width="2.5"/>
<path d="m148.75 147.64v-86.887h-86" stroke="#008DC9" stroke-linecap="round" stroke-linejoin="round" stroke-width="2.5"/>
<line x1="56" x2="59.5" y1="75.5" y2="75.5" stroke="#008DC9" stroke-linecap="round" stroke-width="2.5"/>
<line x1="56" x2="59.5" y1="86.613" y2="86.613" stroke="#008DC9" stroke-linecap="round" stroke-width="2.5"/>
<line x1="56" x2="59.5" y1="97.727" y2="97.727" stroke="#008DC9" stroke-linecap="round" stroke-width="2.5"/>
<line x1="56" x2="59.5" y1="108.84" y2="108.84" stroke="#008DC9" stroke-linecap="round" stroke-width="2.5"/>
<line x1="56" x2="59.5" y1="119.95" y2="119.95" stroke="#008DC9" stroke-linecap="round" stroke-width="2.5"/>
<line x1="56" x2="59.5" y1="131.07" y2="131.07" stroke="#008DC9" stroke-linecap="round" stroke-width="2.5"/>
<line x1="56" x2="59.5" y1="142.18" y2="142.18" stroke="#008DC9" stroke-linecap="round" stroke-width="2.5"/>
<path d="m65.87 108.51c-0.6872-0.066-1.2978 0.437-1.364 1.124-0.0661 0.687 0.4374 1.298 1.1246 1.364l0.2394-2.488zm-0.2394 2.488c2.0596 0.198 3.6446 1.54 5.0349 3.836 1.4002 2.312 2.4531 5.347 3.5257 8.519 1.0469 3.096 2.1199 6.347 3.5582 8.807 1.4446 2.471 3.4624 4.483 6.5009 4.483v-2.5c-1.7115 0-3.0687-1.066-4.3428-3.245-1.2805-2.19-2.27-5.158-3.3481-8.346-1.0524-3.112-2.187-6.423-3.7555-9.013-1.5785-2.607-3.7435-4.722-6.9339-5.029l-0.2394 2.488zm18.62 25.645c3.5855 0 6.1061-1.255 7.9047-3.287 1.7391-1.964 2.7226-4.568 3.4808-7.113 0.792-2.658 1.3163-5.136 2.1611-7.406 0.8268-2.223 1.8389-3.857 3.3464-4.761l-1.2861-2.144c-2.2424 1.346-3.5115 3.635-4.4034 6.033-0.874 2.349-1.506 5.188-2.214 7.564-0.7418 2.49-1.6021 4.64-2.9567 6.17-1.2952 1.463-3.1183 2.444-6.0328 2.444v2.5z" fill="#008DC9"/>
<path d="m53 58 98 98" stroke="#008DC9" stroke-linecap="round" stroke-width="1.5"/>
<path d="m69.75 67.75h78.5" stroke="#008DC9" stroke-linecap="round" stroke-width="2.5"/>
<line x1="87.5" x2="87.5" y1="69.25" y2="83.75" stroke="#008DC9" stroke-linecap="round" stroke-width="2.5"/>
<line x1="102.48" x2="102.02" y1="69.269" y2="99.519" stroke="#008DC9" stroke-linecap="round" stroke-width="2.5"/>
<line x1="117.5" x2="117.5" y1="69.25" y2="114.75" stroke="#008DC9" stroke-linecap="round" stroke-width="2.5"/>
<line x1="133.5" x2="133.5" y1="69.25" y2="131.75" stroke="#008DC9" stroke-linecap="round" stroke-width="2.5"/>
<defs>
<filter id="a" x="0" y="0" width="204" height="204" color-interpolation-filters="sRGB" filterUnits="userSpaceOnUse">
<feFlood flood-opacity="0" result="BackgroundImageFix"/>
<feColorMatrix in="SourceAlpha" values="0 0 0 0 0 0 0 0 0 0 0 0 0 0 0 0 0 0 127 0"/>
<feOffset dy="4"/>
<feGaussianBlur stdDeviation="2"/>
<feColorMatrix values="0 0 0 0 0 0 0 0 0 0 0 0 0 0 0 0 0 0 0.25 0"/>
<feBlend in2="BackgroundImageFix" result="effect1_dropShadow"/>
<feBlend in="SourceGraphic" in2="effect1_dropShadow" result="shape"/>
</filter>
</defs>
</svg>
