<svg width="200" height="200" viewBox="0 0 200 200" fill="none" xmlns="http://www.w3.org/2000/svg">
<rect width="200" height="200" rx="10" fill="#F6C481" fill-opacity="0.2"/>
<path d="M54.4453 179V164.781H58.6445C59.901 164.781 61.0143 165.061 61.9844 165.621C62.9609 166.181 63.7161 166.975 64.25 168.004C64.7839 169.033 65.0508 170.211 65.0508 171.539V172.252C65.0508 173.6 64.7806 174.785 64.2402 175.807C63.7064 176.829 62.9414 177.617 61.9453 178.17C60.9557 178.723 59.8197 179 58.5371 179H54.4453ZM56.916 166.773V177.027H58.5273C59.8229 177.027 60.8158 176.624 61.5059 175.816C62.2025 175.003 62.5573 173.837 62.5703 172.32V171.529C62.5703 169.986 62.235 168.808 61.5645 167.994C60.8939 167.18 59.9206 166.773 58.6445 166.773H56.916ZM73.5957 179C73.4915 178.798 73.4004 178.469 73.3223 178.014C72.5671 178.801 71.6426 179.195 70.5488 179.195C69.4876 179.195 68.6217 178.893 67.9512 178.287C67.2806 177.682 66.9453 176.933 66.9453 176.041C66.9453 174.915 67.362 174.052 68.1953 173.453C69.0352 172.848 70.2331 172.545 71.7891 172.545H73.2441V171.852C73.2441 171.305 73.0911 170.868 72.7852 170.543C72.4792 170.211 72.0137 170.045 71.3887 170.045C70.8483 170.045 70.4056 170.182 70.0605 170.455C69.7155 170.722 69.543 171.064 69.543 171.48H67.1699C67.1699 170.901 67.362 170.361 67.7461 169.859C68.1302 169.352 68.651 168.954 69.3086 168.668C69.9727 168.382 70.7116 168.238 71.5254 168.238C72.7624 168.238 73.7487 168.551 74.4844 169.176C75.2201 169.794 75.5977 170.667 75.6172 171.793V176.559C75.6172 177.509 75.7507 178.268 76.0176 178.834V179H73.5957ZM70.9883 177.291C71.457 177.291 71.8965 177.177 72.3066 176.949C72.7233 176.721 73.0358 176.415 73.2441 176.031V174.039H71.9648C71.0859 174.039 70.4251 174.192 69.9824 174.498C69.5397 174.804 69.3184 175.237 69.3184 175.797C69.3184 176.253 69.4681 176.617 69.7676 176.891C70.0736 177.158 70.4805 177.291 70.9883 177.291ZM84.0254 176.129C84.0254 175.706 83.8496 175.383 83.498 175.162C83.153 174.941 82.5768 174.745 81.7695 174.576C80.9622 174.407 80.2884 174.192 79.748 173.932C78.5632 173.359 77.9707 172.529 77.9707 171.441C77.9707 170.53 78.3548 169.768 79.123 169.156C79.8913 168.544 80.8678 168.238 82.0527 168.238C83.3158 168.238 84.3346 168.551 85.1094 169.176C85.8906 169.801 86.2812 170.611 86.2812 171.607H83.9082C83.9082 171.152 83.7389 170.774 83.4004 170.475C83.0618 170.169 82.6126 170.016 82.0527 170.016C81.5319 170.016 81.1055 170.136 80.7734 170.377C80.4479 170.618 80.2852 170.94 80.2852 171.344C80.2852 171.708 80.4382 171.992 80.7441 172.193C81.0501 172.395 81.6686 172.6 82.5996 172.809C83.5306 173.01 84.2598 173.255 84.7871 173.541C85.321 173.821 85.7148 174.16 85.9688 174.557C86.2292 174.954 86.3594 175.436 86.3594 176.002C86.3594 176.952 85.9655 177.724 85.1777 178.316C84.39 178.902 83.3581 179.195 82.082 179.195C81.2161 179.195 80.4447 179.039 79.7676 178.727C79.0905 178.414 78.5632 177.984 78.1855 177.438C77.8079 176.891 77.6191 176.301 77.6191 175.67H79.9238C79.9564 176.23 80.168 176.663 80.5586 176.969C80.9492 177.268 81.4668 177.418 82.1113 177.418C82.7363 177.418 83.2116 177.301 83.5371 177.066C83.8626 176.826 84.0254 176.513 84.0254 176.129ZM90.7734 169.586C91.5482 168.688 92.528 168.238 93.7129 168.238C95.9655 168.238 97.1081 169.524 97.1406 172.096V179H94.7676V172.184C94.7676 171.454 94.6081 170.94 94.2891 170.641C93.9766 170.335 93.5143 170.182 92.9023 170.182C91.9518 170.182 91.2422 170.605 90.7734 171.451V179H88.4004V164H90.7734V169.586ZM108.82 173.824C108.82 175.465 108.452 176.77 107.717 177.74C106.988 178.71 105.982 179.195 104.699 179.195C103.462 179.195 102.499 178.749 101.809 177.857L101.691 179H99.543V164H101.916V169.449C102.6 168.642 103.521 168.238 104.68 168.238C105.969 168.238 106.981 168.717 107.717 169.674C108.452 170.631 108.82 171.969 108.82 173.688V173.824ZM106.447 173.619C106.447 172.473 106.245 171.614 105.842 171.041C105.438 170.468 104.852 170.182 104.084 170.182C103.055 170.182 102.333 170.631 101.916 171.529V175.885C102.339 176.803 103.068 177.262 104.104 177.262C104.846 177.262 105.419 176.985 105.822 176.432C106.226 175.878 106.434 175.042 106.447 173.922V173.619ZM110.373 173.619C110.373 172.584 110.578 171.653 110.988 170.826C111.398 169.993 111.975 169.355 112.717 168.912C113.459 168.463 114.312 168.238 115.275 168.238C116.701 168.238 117.857 168.697 118.742 169.615C119.634 170.533 120.116 171.751 120.188 173.268L120.197 173.824C120.197 174.866 119.995 175.797 119.592 176.617C119.195 177.438 118.622 178.072 117.873 178.521C117.131 178.971 116.271 179.195 115.295 179.195C113.804 179.195 112.609 178.701 111.711 177.711C110.819 176.715 110.373 175.39 110.373 173.736V173.619ZM112.746 173.824C112.746 174.911 112.971 175.764 113.42 176.383C113.869 176.995 114.494 177.301 115.295 177.301C116.096 177.301 116.717 176.988 117.16 176.363C117.609 175.738 117.834 174.824 117.834 173.619C117.834 172.551 117.603 171.705 117.141 171.08C116.685 170.455 116.063 170.143 115.275 170.143C114.501 170.143 113.885 170.452 113.43 171.07C112.974 171.682 112.746 172.6 112.746 173.824ZM128.518 179C128.413 178.798 128.322 178.469 128.244 178.014C127.489 178.801 126.564 179.195 125.471 179.195C124.41 179.195 123.544 178.893 122.873 178.287C122.202 177.682 121.867 176.933 121.867 176.041C121.867 174.915 122.284 174.052 123.117 173.453C123.957 172.848 125.155 172.545 126.711 172.545H128.166V171.852C128.166 171.305 128.013 170.868 127.707 170.543C127.401 170.211 126.936 170.045 126.311 170.045C125.77 170.045 125.327 170.182 124.982 170.455C124.637 170.722 124.465 171.064 124.465 171.48H122.092C122.092 170.901 122.284 170.361 122.668 169.859C123.052 169.352 123.573 168.954 124.23 168.668C124.895 168.382 125.633 168.238 126.447 168.238C127.684 168.238 128.671 168.551 129.406 169.176C130.142 169.794 130.52 170.667 130.539 171.793V176.559C130.539 177.509 130.673 178.268 130.939 178.834V179H128.518ZM125.91 177.291C126.379 177.291 126.818 177.177 127.229 176.949C127.645 176.721 127.958 176.415 128.166 176.031V174.039H126.887C126.008 174.039 125.347 174.192 124.904 174.498C124.462 174.804 124.24 175.237 124.24 175.797C124.24 176.253 124.39 176.617 124.689 176.891C124.995 177.158 125.402 177.291 125.91 177.291ZM138.557 170.602C138.244 170.549 137.922 170.523 137.59 170.523C136.503 170.523 135.77 170.94 135.393 171.773V179H133.02V168.434H135.285L135.344 169.615C135.917 168.697 136.711 168.238 137.727 168.238C138.065 168.238 138.345 168.284 138.566 168.375L138.557 170.602ZM139.416 173.639C139.416 172.011 139.794 170.706 140.549 169.723C141.304 168.733 142.316 168.238 143.586 168.238C144.706 168.238 145.611 168.629 146.301 169.41V164H148.674V179H146.525L146.408 177.906C145.699 178.766 144.751 179.195 143.566 179.195C142.329 179.195 141.327 178.697 140.559 177.701C139.797 176.705 139.416 175.351 139.416 173.639ZM141.789 173.844C141.789 174.918 141.994 175.758 142.404 176.363C142.821 176.962 143.41 177.262 144.172 177.262C145.142 177.262 145.852 176.829 146.301 175.963V171.451C145.865 170.605 145.161 170.182 144.191 170.182C143.423 170.182 142.831 170.488 142.414 171.1C141.997 171.705 141.789 172.62 141.789 173.844Z" fill="#6E7478"/>
<rect x="61" y="48" width="36.3636" height="36.3636" rx="4" fill="#F6C481" fill-opacity="0.5"/>
<rect x="61" y="91.6367" width="36.3636" height="36.3636" rx="4" fill="#F6C481" fill-opacity="0.7"/>
<rect x="102.818" y="48" width="36.3636" height="80" rx="4" fill="#F6C481"/>
<path d="M66 71.5C66 70.1193 67.1193 69 68.5 69C69.8807 69 71 70.1193 71 71.5V81H66V71.5Z" fill="#F6C481"/>
<path d="M73 63.5C73 62.1193 74.1193 61 75.5 61C76.8807 61 78 62.1193 78 63.5V81H73V63.5Z" fill="#F6C481"/>
<path d="M80 58.5C80 57.1193 81.1193 56 82.5 56C83.8807 56 85 57.1193 85 58.5V81H80V58.5Z" fill="#F6C481"/>
<path d="M87 54.5C87 53.1193 88.1193 52 89.5 52C90.8807 52 92 53.1193 92 54.5V81H87V54.5Z" fill="#F6C481"/>
</svg>
