<svg width="36" height="37" viewBox="0 0 36 37" fill="none" xmlns="http://www.w3.org/2000/svg">
<rect width="16.7442" height="16.7442" rx="2.66047" fill="#2F383E" fill-opacity="0.1"/>
<rect y="20.0928" width="16.7442" height="16.7442" rx="2.66047" fill="#2F383E" fill-opacity="0.3"/>
<rect x="19.2557" width="16.7442" height="36.8372" rx="2.66047" fill="#2F383E" fill-opacity="0.4"/>
<path d="M2.30225 10.8211C2.30225 10.1853 2.81764 9.66992 3.45341 9.66992C4.08918 9.66992 4.60457 10.1853 4.60457 10.8211V15.1955H2.30225V10.8211Z" fill="#2F383E" fill-opacity="0.4"/>
<path d="M5.52563 7.13749C5.52563 6.50172 6.04103 5.98633 6.6768 5.98633C7.31257 5.98633 7.82796 6.50172 7.82796 7.13749V15.1956H5.52563V7.13749Z" fill="#2F383E" fill-opacity="0.4"/>
<path d="M8.7489 4.83476C8.7489 4.19899 9.26429 3.68359 9.90006 3.68359C10.5358 3.68359 11.0512 4.19899 11.0512 4.83476V15.1952H8.7489V4.83476Z" fill="#2F383E" fill-opacity="0.4"/>
<path d="M11.972 2.99296C11.972 2.35719 12.4874 1.8418 13.1232 1.8418C13.759 1.8418 14.2744 2.35719 14.2744 2.99296V15.1953H11.972V2.99296Z" fill="#2F383E" fill-opacity="0.4"/>
</svg>
