<?xml version="1.0" encoding="UTF-8"?>
<svg fill="none" viewBox="0 0 204 204" xmlns="http://www.w3.org/2000/svg">
<!-- <g filter="url(#b)">
<path d="m4 8c0-4.4183 3.5817-8 8-8h180c4.418 0 8 3.5817 8 8v180c0 4.418-3.582 8-8 8h-180c-4.4183 0-8-3.582-8-8v-180z" fill="#fff"/>
<path d="m4.25 8c0-4.2802 3.4698-7.75 7.75-7.75h180c4.28 0 7.75 3.4698 7.75 7.75v180c0 4.28-3.47 7.75-7.75 7.75h-180c-4.2802 0-7.75-3.47-7.75-7.75v-180z" stroke="#B8C0C4" stroke-width=".5"/>
</g> -->
<path d="m80.223 28.348v12.652h2.782v-5.2274h5.2983v-2.1618h-5.2983v-2.9238h6.1134v-2.3391h-8.8954zm12.471 8.0803c0-0.3662 0.0355-0.7265 0.1064-1.0809 0.0708-0.3544 0.189-0.6674 0.3544-0.9391 0.1772-0.2717 0.4075-0.4903 0.691-0.6557 0.2836-0.1772 0.638-0.2658 1.0632-0.2658 0.4253 0 0.7797 0.0886 1.0632 0.2658 0.2954 0.1654 0.5257 0.384 0.6911 0.6557 0.1772 0.2717 0.3013 0.5847 0.3721 0.9391 0.0709 0.3544 0.1064 0.7147 0.1064 1.0809 0 0.3663-0.0355 0.7266-0.1064 1.081-0.0708 0.3425-0.1949 0.6556-0.3721 0.9391-0.1654 0.2717-0.3957 0.4903-0.6911 0.6557-0.2835 0.1653-0.6379 0.248-1.0632 0.248-0.4252 0-0.7796-0.0827-1.0632-0.248-0.2835-0.1654-0.5138-0.384-0.691-0.6557-0.1654-0.2835-0.2836-0.5966-0.3544-0.9391-0.0709-0.3544-0.1064-0.7147-0.1064-1.081zm-2.5162 0c0 0.7325 0.1122 1.394 0.3367 1.9847 0.2244 0.5906 0.5434 1.0986 0.9569 1.5239 0.4134 0.4135 0.9096 0.7324 1.4884 0.9569 0.5789 0.2244 1.2286 0.3367 1.9492 0.3367 0.7207 0 1.3704-0.1123 1.9492-0.3367 0.5907-0.2245 1.0928-0.5434 1.5062-0.9569 0.4135-0.4253 0.7325-0.9333 0.9569-1.5239 0.2245-0.5907 0.3367-1.2522 0.3367-1.9847 0-0.7324-0.1122-1.3939-0.3367-1.9846-0.2244-0.6025-0.5434-1.1105-0.9569-1.5239-0.4134-0.4253-0.9155-0.7502-1.5062-0.9746-0.5788-0.2363-1.2285-0.3544-1.9492-0.3544-0.7206 0-1.3703 0.1181-1.9492 0.3544-0.5788 0.2244-1.075 0.5493-1.4884 0.9746-0.4135 0.4134-0.7325 0.9214-0.9569 1.5239-0.2245 0.5907-0.3367 1.2522-0.3367 1.9846zm11.117-4.5894v9.1612h2.516v-4.1288c0-0.4134 0.041-0.7974 0.124-1.1518s0.218-0.6615 0.407-0.9214c0.201-0.2717 0.461-0.4843 0.78-0.6379s0.709-0.2304 1.17-0.2304c0.153 0 0.313 0.0118 0.478 0.0355 0.165 0.0118 0.307 0.0295 0.425 0.0531v-2.339c-0.201-0.0591-0.384-0.0886-0.549-0.0886-0.319 0-0.626 0.0472-0.921 0.1417-0.296 0.0945-0.573 0.2304-0.833 0.4076-0.26 0.1654-0.491 0.3721-0.691 0.6202-0.201 0.2363-0.361 0.4962-0.479 0.7797h-0.035v-1.7011h-2.392zm6.958 0v9.1612h2.516v-5.316c0-0.4489 0.065-0.8092 0.195-1.0809 0.13-0.2835 0.283-0.4962 0.461-0.6379 0.189-0.1536 0.378-0.254 0.567-0.3013 0.2-0.059 0.36-0.0886 0.478-0.0886 0.402 0 0.703 0.0709 0.904 0.2127 0.212 0.1299 0.36 0.3071 0.443 0.5316 0.094 0.2244 0.147 0.4725 0.159 0.7442 0.012 0.2599 0.018 0.5257 0.018 0.7974v5.1388h2.516v-5.1034c0-0.2835 0.018-0.5611 0.053-0.8328 0.048-0.2835 0.13-0.5316 0.248-0.7442 0.13-0.2245 0.302-0.4017 0.514-0.5316 0.225-0.1418 0.514-0.2127 0.869-0.2127 0.354 0 0.632 0.0591 0.832 0.1772 0.213 0.1182 0.373 0.2776 0.479 0.4785 0.106 0.2008 0.171 0.4371 0.195 0.7088 0.023 0.2717 0.035 0.5611 0.035 0.8682v5.192h2.517v-6.1311c0-0.5907-0.083-1.0928-0.249-1.5062-0.165-0.4253-0.395-0.7679-0.691-1.0278-0.295-0.2599-0.649-0.4489-1.063-0.567-0.413-0.1182-0.862-0.1772-1.347-0.1772-0.637 0-1.193 0.1536-1.665 0.4607-0.461 0.3071-0.827 0.6615-1.099 1.0632-0.248-0.567-0.614-0.9628-1.099-1.1872-0.472-0.2245-0.998-0.3367-1.577-0.3367-0.602 0-1.14 0.1299-1.612 0.3898-0.461 0.2599-0.857 0.6261-1.187 1.0987h-0.036v-1.2404h-2.374z" fill="#008DC9"/>
<mask id="a" x="63" y="57.5979" width="79" height="94" fill="black" maskUnits="userSpaceOnUse">
<rect x="63" y="57.598" width="79" height="94" fill="#fff"/>
<path d="m68.882 58.598c-2.6853 0-4.882 1.9117-4.882 4.25v83.438c0 2.338 2.1958 4.25 4.882 4.25h67.238c2.685 0 4.88-1.912 4.88-4.25v-74.118c1e-3 -0.0954-0.014-0.1914-0.045-0.283l-2e-3 -0.0035c-6e-3 -0.0197-0.013-0.0392-0.021-0.0585-4e-3 -0.0062-8e-3 -0.0123-0.013-0.0183-6e-3 -0.0197-0.013-0.0393-0.021-0.0586-5e-3 -0.0061-0.011-0.0122-0.017-0.0182-0.014-0.02-0.029-0.0396-0.045-0.0586-4e-3 -0.0049-8e-3 -0.0098-0.012-0.0146-0.014-0.02-0.029-0.0395-0.045-0.0585-7e-3 -0.0062-0.014-0.0123-0.021-0.0183-0.014-0.0201-0.029-0.0398-0.045-0.0589l-14.485-12.613c-0.157-0.1369-0.359-0.2289-0.577-0.2641-0.038-0.0053-0.075-9e-3 -0.113-0.011h-2e-3c-0.03-0.0022-0.06-0.0034-0.09-0.0035l-56.564-0.0291zm0 1.9157h55.432v8.3628c0 2.3377 2.196 4.2502 4.882 4.2502h9.605v73.159c0 1.309-1.178 2.335-2.681 2.335h-67.238c-1.5036 0-2.6817-1.026-2.6817-2.335v-83.438c0-1.3091 1.1777-2.3343 2.6817-2.3343zm57.632 1.3559 8.572 7.462 2.16 1.8805h-8.051c-1.503 0-2.681-1.0254-2.681-2.3348v-7.0077zm-40.153 10.024c-0.2157 0.0064-0.4244 0.0679-0.6003 0.1768-0.1758 0.1089-0.311 0.2604-0.3886 0.4357l-0.5417 1.1759h-9.204c-1.8024 0-3.2876 1.2934-3.2876 2.8624v9.5981c0 1.5693 1.4856 2.8623 3.2876 2.8623h11.026c1.8024 0 3.2861-1.2934 3.2861-2.8623v-9.5981c0-1.4128-1.2025-2.5978-2.7566-2.8215l0.2314-0.5048c0.0706-0.148 0.0975-0.309 0.0781-0.4684-0.0194-0.1593-0.0844-0.3119-0.1891-0.4437-0.1046-0.1318-0.2456-0.2386-0.4099-0.3107-0.1644-0.0721-0.3478-0.1069-0.5317-0.1017zm34.304 2.7715c-7e-3 3e-4 -0.015 6e-4 -0.022 1e-3h-24.005c-0.1485-0.0058-0.2967 0.0147-0.4358 0.0602-0.139 0.0455-0.2661 0.1151-0.3735 0.2045-0.1073 0.0895-0.1927 0.1969-0.2511 0.3158-0.0584 0.119-0.0885 0.247-0.0885 0.3763 0 0.1294 0.0301 0.2573 0.0885 0.3763 0.0584 0.1189 0.1438 0.2264 0.2511 0.3158 0.1074 0.0894 0.2345 0.159 0.3735 0.2045 0.1391 0.0455 0.2873 0.066 0.4358 0.0603h24.005c0.149 0.0068 0.297-0.0126 0.437-0.057 0.139-0.0444 0.267-0.1129 0.375-0.2015 0.108-0.0885 0.195-0.1951 0.254-0.3135 0.06-0.1184 0.091-0.2461 0.093-0.3753 1e-3 -0.1293-0.028-0.2575-0.085-0.3768-0.057-0.1194-0.141-0.2275-0.247-0.3178s-0.232-0.1609-0.371-0.2077c-0.138-0.0467-0.286-0.0694-0.434-0.0651zm-45.04 0.9314h8.3216l-3.14 6.8155-1.8744-3.1658c-0.066-0.1122-0.1568-0.2119-0.2672-0.2934-0.1103-0.0816-0.2381-0.1434-0.3759-0.1819-0.1378-0.0384-0.283-0.0529-0.4273-0.0424-0.1442 0.0104-0.2847 0.0455-0.4133 0.1033s-0.2429 0.1372-0.3362 0.2335c-0.0934 0.0963-0.164 0.2077-0.2078 0.3278s-0.06 0.2465-0.0475 0.3721c0.0124 0.1255 0.0531 0.2478 0.1199 0.3596l2.9777 5.0256c0.0963 0.1631 0.2443 0.2987 0.4265 0.3907s0.3909 0.1365 0.6013 0.1282c0.2104-0.0082 0.4137-0.0688 0.5857-0.1747s0.3054-0.2525 0.3845-0.4224l4.3642-9.4708h0.3348c0.6203 0 1.0878 0.4051 1.0878 0.947v9.5982c0 0.542-0.4652 0.9471-1.0878 0.9471h-11.026c-0.6203 0-1.0877-0.4051-1.0877-0.9471v-9.5982c0-0.5419 0.4652-0.947 1.0877-0.947l-3e-4 -0.0049zm54.003 2.9212c-7e-3 1e-4 -0.014 2e-4 -0.021 4e-4h-32.968c-0.1485-0.0058-0.2968 0.0147-0.4359 0.0602s-0.2662 0.115-0.3736 0.2044-0.1929 0.1968-0.2513 0.3158-0.0885 0.247-0.0885 0.3764 0.0301 0.2574 0.0885 0.3764 0.1439 0.2264 0.2513 0.3158c0.1074 0.0895 0.2345 0.159 0.3736 0.2045s0.2874 0.0659 0.4359 0.0602h32.968c0.148 0.0068 0.296-0.0125 0.436-0.0569 0.139-0.0443 0.267-0.1129 0.375-0.2014 0.109-0.0885 0.195-0.1952 0.255-0.3136s0.091-0.2461 0.092-0.3754c2e-3 -0.1293-0.027-0.2575-0.084-0.3769s-0.141-0.2275-0.247-0.3178c-0.107-0.0903-0.233-0.1609-0.371-0.2076-0.139-0.0467-0.287-0.0689-0.435-0.0645zm-32.997 3.7771c-0.1449-6e-4 -0.2884 0.0238-0.4224 0.0717-0.1341 0.0479-0.2559 0.1184-0.3586 0.2074-0.1026 0.089-0.1841 0.1947-0.2396 0.3112-0.0556 0.1165-0.0842 0.2413-0.0842 0.3675 0 0.1261 0.0286 0.251 0.0842 0.3675 0.0555 0.1165 0.137 0.2222 0.2396 0.3112 0.1027 0.089 0.2245 0.1594 0.3586 0.2073 0.134 0.0479 0.2775 0.0723 0.4224 0.0718h32.968c0.145 5e-4 0.288-0.0239 0.422-0.0718s0.256-0.1183 0.359-0.2073c0.102-0.089 0.184-0.1947 0.239-0.3112 0.056-0.1165 0.085-0.2414 0.085-0.3675 0-0.1262-0.029-0.251-0.085-0.3675-0.055-0.1165-0.137-0.2222-0.239-0.3112-0.103-0.089-0.225-0.1595-0.359-0.2074s-0.277-0.0723-0.422-0.0717h-32.968zm32.997 3.8105c-7e-3 1e-4 -0.014 2e-4 -0.021 4e-4h-32.968c-0.1485-0.0058-0.2968 0.0147-0.4359 0.0602-0.1391 0.0454-0.2662 0.115-0.3736 0.2044s-0.1929 0.1969-0.2513 0.3158c-0.0584 0.119-0.0885 0.2471-0.0885 0.3764 0 0.1294 0.0301 0.2575 0.0885 0.3764 0.0584 0.119 0.1439 0.2265 0.2513 0.3159s0.2345 0.1589 0.3736 0.2044 0.2874 0.066 0.4359 0.0602h32.968c0.148 0.0069 0.296-0.0125 0.436-0.0569 0.139-0.0444 0.267-0.1129 0.375-0.2014 0.109-0.0885 0.195-0.1952 0.255-0.3136s0.091-0.2461 0.092-0.3754c2e-3 -0.1293-0.027-0.2575-0.084-0.3769s-0.141-0.2275-0.247-0.3178c-0.107-0.0903-0.233-0.1609-0.371-0.2076-0.139-0.0467-0.287-0.0689-0.435-0.0645zm-54.003 14.39c-1.8025 0-3.2877 1.293-3.2877 2.862v9.6c0 1.57 1.4856 2.863 3.2877 2.863h11.026c1.8025 0 3.2861-1.294 3.2861-2.863v-9.6c0-1.569-1.4833-2.862-3.2861-2.862h-11.026zm21.006 0.984c-0.1462-2e-3 -0.2915 0.021-0.4274 0.068s-0.2596 0.117-0.364 0.206-0.1873 0.196-0.2439 0.313c-0.0566 0.118-0.0858 0.244-0.0858 0.371s0.0292 0.253 0.0858 0.371c0.0566 0.117 0.1395 0.224 0.2439 0.313s0.2281 0.159 0.364 0.206 0.2812 0.07 0.4274 0.068h24.005c0.146 2e-3 0.292-0.021 0.428-0.068 0.135-0.047 0.259-0.117 0.364-0.206 0.104-0.089 0.187-0.196 0.243-0.313 0.057-0.118 0.086-0.244 0.086-0.371s-0.029-0.253-0.086-0.371c-0.056-0.117-0.139-0.224-0.243-0.313-0.105-0.089-0.229-0.159-0.364-0.206-0.136-0.047-0.282-0.07-0.428-0.068h-24.005zm-21.006 0.932h11.026c0.6203 0 1.0878 0.405 1.0878 0.947v9.6c0 0.542-0.4652 0.947-1.0878 0.947h-11.026c-0.6203 0-1.0878-0.405-1.0878-0.947v-9.6c0-0.54 0.4652-0.947 1.0878-0.947zm21.006 2.922c-0.1449-1e-3 -0.2884 0.023-0.4224 0.071-0.1341 0.048-0.2559 0.119-0.3586 0.208-0.1026 0.089-0.1841 0.194-0.2396 0.311-0.0556 0.116-0.0842 0.241-0.0842 0.367 0 0.127 0.0286 0.251 0.0842 0.368 0.0555 0.116 0.137 0.222 0.2396 0.311 0.1027 0.089 0.2245 0.16 0.3586 0.208 0.134 0.047 0.2775 0.072 0.4224 0.071h32.968c0.145 1e-3 0.288-0.024 0.422-0.071 0.134-0.048 0.256-0.119 0.359-0.208 0.102-0.089 0.184-0.195 0.239-0.311 0.056-0.117 0.085-0.241 0.085-0.368 0-0.126-0.029-0.251-0.085-0.367-0.055-0.117-0.137-0.222-0.239-0.311-0.103-0.089-0.225-0.16-0.359-0.208s-0.277-0.072-0.422-0.071h-32.968zm0 3.778c-0.1449-1e-3 -0.2884 0.024-0.4224 0.072-0.1341 0.048-0.2559 0.118-0.3586 0.207-0.1026 0.089-0.1841 0.195-0.2396 0.311-0.0556 0.117-0.0842 0.242-0.0842 0.368s0.0286 0.251 0.0842 0.367c0.0555 0.117 0.137 0.223 0.2396 0.312 0.1027 0.089 0.2245 0.159 0.3586 0.207 0.134 0.048 0.2775 0.072 0.4224 0.072h32.968c0.145 0 0.288-0.024 0.422-0.072s0.256-0.118 0.359-0.207c0.102-0.089 0.184-0.195 0.239-0.312 0.056-0.116 0.085-0.241 0.085-0.367s-0.029-0.251-0.085-0.368c-0.055-0.116-0.137-0.222-0.239-0.311-0.103-0.089-0.225-0.159-0.359-0.207s-0.277-0.073-0.422-0.072h-32.968zm0 3.809c-0.1449 0-0.2884 0.024-0.4224 0.072-0.1341 0.048-0.2559 0.118-0.3586 0.207-0.1026 0.089-0.1841 0.195-0.2396 0.312-0.0556 0.116-0.0842 0.241-0.0842 0.367s0.0286 0.251 0.0842 0.367c0.0555 0.117 0.137 0.223 0.2396 0.312 0.1027 0.089 0.2245 0.159 0.3586 0.207 0.134 0.048 0.2775 0.072 0.4224 0.072h32.968c0.145 0 0.288-0.024 0.422-0.072s0.256-0.118 0.359-0.207c0.102-0.089 0.184-0.195 0.239-0.312 0.056-0.116 0.085-0.241 0.085-0.367s-0.029-0.251-0.085-0.367c-0.055-0.117-0.137-0.223-0.239-0.312-0.103-0.089-0.225-0.159-0.359-0.207s-0.277-0.072-0.422-0.072h-32.968zm-21.006 14.391c-1.8025 0-3.2877 1.294-3.2877 2.863v9.598c0 1.569 1.4856 2.862 3.2877 2.862h11.026c1.8025 0 3.2861-1.293 3.2861-2.862v-9.598c0-1.57-1.4833-2.863-3.2861-2.863h-11.026zm21.006 0.983c-0.1449-1e-3 -0.2884 0.023-0.4224 0.071-0.1341 0.048-0.2559 0.119-0.3586 0.208-0.1026 0.089-0.1841 0.194-0.2396 0.311-0.0556 0.116-0.0842 0.241-0.0842 0.367 0 0.127 0.0286 0.251 0.0842 0.368 0.0555 0.116 0.137 0.222 0.2396 0.311 0.1027 0.089 0.2245 0.16 0.3586 0.208 0.134 0.047 0.2775 0.072 0.4224 0.071h24.005c0.145 1e-3 0.289-0.024 0.423-0.071 0.134-0.048 0.255-0.119 0.358-0.208s0.184-0.195 0.24-0.311c0.055-0.117 0.084-0.241 0.084-0.368 0-0.126-0.029-0.251-0.084-0.367-0.056-0.117-0.137-0.222-0.24-0.311s-0.224-0.16-0.358-0.208-0.278-0.072-0.423-0.071h-24.005zm-21.006 0.933h11.026c0.6203 0 1.0878 0.405 1.0878 0.947v9.598c0 0.542-0.4652 0.947-1.0878 0.947h-11.026c-0.6203 0-1.0878-0.405-1.0878-0.947v-9.598c0-0.54 0.4652-0.947 1.0878-0.947zm21.006 2.92c-0.1462-3e-3 -0.2915 0.02-0.4274 0.067s-0.2596 0.117-0.364 0.207c-0.1044 0.089-0.1873 0.195-0.2439 0.313-0.0566 0.117-0.0858 0.243-0.0858 0.37 0 0.128 0.0292 0.254 0.0858 0.371 0.0566 0.118 0.1395 0.224 0.2439 0.313s0.2281 0.159 0.364 0.207c0.1359 0.047 0.2812 0.07 0.4274 0.067h32.968c0.146 3e-3 0.291-0.02 0.427-0.067 0.136-0.048 0.26-0.118 0.364-0.207 0.105-0.089 0.187-0.195 0.244-0.313 0.057-0.117 0.086-0.243 0.086-0.371 0-0.127-0.029-0.253-0.086-0.37-0.057-0.118-0.139-0.224-0.244-0.313-0.104-0.09-0.228-0.16-0.364-0.207s-0.281-0.07-0.427-0.067h-32.968zm0 3.778c-0.1462-2e-3 -0.2914 0.021-0.4273 0.068-0.1358 0.047-0.2595 0.117-0.3638 0.206-0.1044 0.09-0.1873 0.196-0.2438 0.313-0.0566 0.118-0.0858 0.244-0.0858 0.371s0.0292 0.253 0.0858 0.371c0.0565 0.117 0.1394 0.223 0.2438 0.313 0.1043 0.089 0.228 0.159 0.3638 0.206 0.1359 0.047 0.2811 0.07 0.4273 0.068h32.968c0.146 2e-3 0.291-0.021 0.427-0.068s0.26-0.117 0.364-0.206c0.104-0.09 0.187-0.196 0.244-0.313 0.056-0.118 0.085-0.244 0.085-0.371s-0.029-0.253-0.085-0.371c-0.057-0.117-0.14-0.223-0.244-0.313-0.104-0.089-0.228-0.159-0.364-0.206s-0.281-0.07-0.427-0.068h-32.968zm0 3.81c-0.1445 0-0.2876 0.024-0.4211 0.072-0.1335 0.049-0.2548 0.119-0.357 0.208s-0.1833 0.195-0.2386 0.311-0.0838 0.241-0.0838 0.366c0 0.126 0.0285 0.251 0.0838 0.367s0.1364 0.222 0.2386 0.311 0.2235 0.159 0.357 0.207c0.1335 0.049 0.2766 0.073 0.4211 0.073h32.968c0.144 0 0.287-0.024 0.421-0.073 0.133-0.048 0.255-0.118 0.357-0.207s0.183-0.195 0.238-0.311c0.056-0.116 0.084-0.241 0.084-0.367 0-0.125-0.028-0.25-0.084-0.366-0.055-0.116-0.136-0.222-0.238-0.311s-0.224-0.159-0.357-0.208c-0.134-0.048-0.277-0.072-0.421-0.072h-32.968z"/>
</mask>
<path d="m68.882 58.598c-2.6853 0-4.882 1.9117-4.882 4.25v83.438c0 2.338 2.1958 4.25 4.882 4.25h67.238c2.685 0 4.88-1.912 4.88-4.25v-74.118c1e-3 -0.0954-0.014-0.1914-0.045-0.283l-2e-3 -0.0035c-6e-3 -0.0197-0.013-0.0392-0.021-0.0585-4e-3 -0.0062-8e-3 -0.0123-0.013-0.0183-6e-3 -0.0197-0.013-0.0393-0.021-0.0586-5e-3 -0.0061-0.011-0.0122-0.017-0.0182-0.014-0.02-0.029-0.0396-0.045-0.0586-4e-3 -0.0049-8e-3 -0.0098-0.012-0.0146-0.014-0.02-0.029-0.0395-0.045-0.0585-7e-3 -0.0062-0.014-0.0123-0.021-0.0183-0.014-0.0201-0.029-0.0398-0.045-0.0589l-14.485-12.613c-0.157-0.1369-0.359-0.2289-0.577-0.2641-0.038-0.0053-0.075-9e-3 -0.113-0.011h-2e-3c-0.03-0.0022-0.06-0.0034-0.09-0.0035l-56.564-0.0291zm0 1.9157h55.432v8.3628c0 2.3377 2.196 4.2502 4.882 4.2502h9.605v73.159c0 1.309-1.178 2.335-2.681 2.335h-67.238c-1.5036 0-2.6817-1.026-2.6817-2.335v-83.438c0-1.3091 1.1777-2.3343 2.6817-2.3343zm57.632 1.3559 8.572 7.462 2.16 1.8805h-8.051c-1.503 0-2.681-1.0254-2.681-2.3348v-7.0077zm-40.153 10.024c-0.2157 0.0064-0.4244 0.0679-0.6003 0.1768-0.1758 0.1089-0.311 0.2604-0.3886 0.4357l-0.5417 1.1759h-9.204c-1.8024 0-3.2876 1.2934-3.2876 2.8624v9.5981c0 1.5693 1.4856 2.8623 3.2876 2.8623h11.026c1.8024 0 3.2861-1.2934 3.2861-2.8623v-9.5981c0-1.4128-1.2025-2.5978-2.7566-2.8215l0.2314-0.5048c0.0706-0.148 0.0975-0.309 0.0781-0.4684-0.0194-0.1593-0.0844-0.3119-0.1891-0.4437-0.1046-0.1318-0.2456-0.2386-0.4099-0.3107-0.1644-0.0721-0.3478-0.1069-0.5317-0.1017zm34.304 2.7715c-7e-3 3e-4 -0.015 6e-4 -0.022 1e-3h-24.005c-0.1485-0.0058-0.2967 0.0147-0.4358 0.0602-0.139 0.0455-0.2661 0.1151-0.3735 0.2045-0.1073 0.0895-0.1927 0.1969-0.2511 0.3158-0.0584 0.119-0.0885 0.247-0.0885 0.3763 0 0.1294 0.0301 0.2573 0.0885 0.3763 0.0584 0.1189 0.1438 0.2264 0.2511 0.3158 0.1074 0.0894 0.2345 0.159 0.3735 0.2045 0.1391 0.0455 0.2873 0.066 0.4358 0.0603h24.005c0.149 0.0068 0.297-0.0126 0.437-0.057 0.139-0.0444 0.267-0.1129 0.375-0.2015 0.108-0.0885 0.195-0.1951 0.254-0.3135 0.06-0.1184 0.091-0.2461 0.093-0.3753 1e-3 -0.1293-0.028-0.2575-0.085-0.3768-0.057-0.1194-0.141-0.2275-0.247-0.3178s-0.232-0.1609-0.371-0.2077c-0.138-0.0467-0.286-0.0694-0.434-0.0651zm-45.04 0.9314h8.3216l-3.14 6.8155-1.8744-3.1658c-0.066-0.1122-0.1568-0.2119-0.2672-0.2934-0.1103-0.0816-0.2381-0.1434-0.3759-0.1819-0.1378-0.0384-0.283-0.0529-0.4273-0.0424-0.1442 0.0104-0.2847 0.0455-0.4133 0.1033s-0.2429 0.1372-0.3362 0.2335c-0.0934 0.0963-0.164 0.2077-0.2078 0.3278s-0.06 0.2465-0.0475 0.3721c0.0124 0.1255 0.0531 0.2478 0.1199 0.3596l2.9777 5.0256c0.0963 0.1631 0.2443 0.2987 0.4265 0.3907s0.3909 0.1365 0.6013 0.1282c0.2104-0.0082 0.4137-0.0688 0.5857-0.1747s0.3054-0.2525 0.3845-0.4224l4.3642-9.4708h0.3348c0.6203 0 1.0878 0.4051 1.0878 0.947v9.5982c0 0.542-0.4652 0.9471-1.0878 0.9471h-11.026c-0.6203 0-1.0877-0.4051-1.0877-0.9471v-9.5982c0-0.5419 0.4652-0.947 1.0877-0.947l-3e-4 -0.0049zm54.003 2.9212c-7e-3 1e-4 -0.014 2e-4 -0.021 4e-4h-32.968c-0.1485-0.0058-0.2968 0.0147-0.4359 0.0602s-0.2662 0.115-0.3736 0.2044-0.1929 0.1968-0.2513 0.3158-0.0885 0.247-0.0885 0.3764 0.0301 0.2574 0.0885 0.3764 0.1439 0.2264 0.2513 0.3158c0.1074 0.0895 0.2345 0.159 0.3736 0.2045s0.2874 0.0659 0.4359 0.0602h32.968c0.148 0.0068 0.296-0.0125 0.436-0.0569 0.139-0.0443 0.267-0.1129 0.375-0.2014 0.109-0.0885 0.195-0.1952 0.255-0.3136s0.091-0.2461 0.092-0.3754c2e-3 -0.1293-0.027-0.2575-0.084-0.3769s-0.141-0.2275-0.247-0.3178c-0.107-0.0903-0.233-0.1609-0.371-0.2076-0.139-0.0467-0.287-0.0689-0.435-0.0645zm-32.997 3.7771c-0.1449-6e-4 -0.2884 0.0238-0.4224 0.0717-0.1341 0.0479-0.2559 0.1184-0.3586 0.2074-0.1026 0.089-0.1841 0.1947-0.2396 0.3112-0.0556 0.1165-0.0842 0.2413-0.0842 0.3675 0 0.1261 0.0286 0.251 0.0842 0.3675 0.0555 0.1165 0.137 0.2222 0.2396 0.3112 0.1027 0.089 0.2245 0.1594 0.3586 0.2073 0.134 0.0479 0.2775 0.0723 0.4224 0.0718h32.968c0.145 5e-4 0.288-0.0239 0.422-0.0718s0.256-0.1183 0.359-0.2073c0.102-0.089 0.184-0.1947 0.239-0.3112 0.056-0.1165 0.085-0.2414 0.085-0.3675 0-0.1262-0.029-0.251-0.085-0.3675-0.055-0.1165-0.137-0.2222-0.239-0.3112-0.103-0.089-0.225-0.1595-0.359-0.2074s-0.277-0.0723-0.422-0.0717h-32.968zm32.997 3.8105c-7e-3 1e-4 -0.014 2e-4 -0.021 4e-4h-32.968c-0.1485-0.0058-0.2968 0.0147-0.4359 0.0602-0.1391 0.0454-0.2662 0.115-0.3736 0.2044s-0.1929 0.1969-0.2513 0.3158c-0.0584 0.119-0.0885 0.2471-0.0885 0.3764 0 0.1294 0.0301 0.2575 0.0885 0.3764 0.0584 0.119 0.1439 0.2265 0.2513 0.3159s0.2345 0.1589 0.3736 0.2044 0.2874 0.066 0.4359 0.0602h32.968c0.148 0.0069 0.296-0.0125 0.436-0.0569 0.139-0.0444 0.267-0.1129 0.375-0.2014 0.109-0.0885 0.195-0.1952 0.255-0.3136s0.091-0.2461 0.092-0.3754c2e-3 -0.1293-0.027-0.2575-0.084-0.3769s-0.141-0.2275-0.247-0.3178c-0.107-0.0903-0.233-0.1609-0.371-0.2076-0.139-0.0467-0.287-0.0689-0.435-0.0645zm-54.003 14.39c-1.8025 0-3.2877 1.293-3.2877 2.862v9.6c0 1.57 1.4856 2.863 3.2877 2.863h11.026c1.8025 0 3.2861-1.294 3.2861-2.863v-9.6c0-1.569-1.4833-2.862-3.2861-2.862h-11.026zm21.006 0.984c-0.1462-2e-3 -0.2915 0.021-0.4274 0.068s-0.2596 0.117-0.364 0.206-0.1873 0.196-0.2439 0.313c-0.0566 0.118-0.0858 0.244-0.0858 0.371s0.0292 0.253 0.0858 0.371c0.0566 0.117 0.1395 0.224 0.2439 0.313s0.2281 0.159 0.364 0.206 0.2812 0.07 0.4274 0.068h24.005c0.146 2e-3 0.292-0.021 0.428-0.068 0.135-0.047 0.259-0.117 0.364-0.206 0.104-0.089 0.187-0.196 0.243-0.313 0.057-0.118 0.086-0.244 0.086-0.371s-0.029-0.253-0.086-0.371c-0.056-0.117-0.139-0.224-0.243-0.313-0.105-0.089-0.229-0.159-0.364-0.206-0.136-0.047-0.282-0.07-0.428-0.068h-24.005zm-21.006 0.932h11.026c0.6203 0 1.0878 0.405 1.0878 0.947v9.6c0 0.542-0.4652 0.947-1.0878 0.947h-11.026c-0.6203 0-1.0878-0.405-1.0878-0.947v-9.6c0-0.54 0.4652-0.947 1.0878-0.947zm21.006 2.922c-0.1449-1e-3 -0.2884 0.023-0.4224 0.071-0.1341 0.048-0.2559 0.119-0.3586 0.208-0.1026 0.089-0.1841 0.194-0.2396 0.311-0.0556 0.116-0.0842 0.241-0.0842 0.367 0 0.127 0.0286 0.251 0.0842 0.368 0.0555 0.116 0.137 0.222 0.2396 0.311 0.1027 0.089 0.2245 0.16 0.3586 0.208 0.134 0.047 0.2775 0.072 0.4224 0.071h32.968c0.145 1e-3 0.288-0.024 0.422-0.071 0.134-0.048 0.256-0.119 0.359-0.208 0.102-0.089 0.184-0.195 0.239-0.311 0.056-0.117 0.085-0.241 0.085-0.368 0-0.126-0.029-0.251-0.085-0.367-0.055-0.117-0.137-0.222-0.239-0.311-0.103-0.089-0.225-0.16-0.359-0.208s-0.277-0.072-0.422-0.071h-32.968zm0 3.778c-0.1449-1e-3 -0.2884 0.024-0.4224 0.072-0.1341 0.048-0.2559 0.118-0.3586 0.207-0.1026 0.089-0.1841 0.195-0.2396 0.311-0.0556 0.117-0.0842 0.242-0.0842 0.368s0.0286 0.251 0.0842 0.367c0.0555 0.117 0.137 0.223 0.2396 0.312 0.1027 0.089 0.2245 0.159 0.3586 0.207 0.134 0.048 0.2775 0.072 0.4224 0.072h32.968c0.145 0 0.288-0.024 0.422-0.072s0.256-0.118 0.359-0.207c0.102-0.089 0.184-0.195 0.239-0.312 0.056-0.116 0.085-0.241 0.085-0.367s-0.029-0.251-0.085-0.368c-0.055-0.116-0.137-0.222-0.239-0.311-0.103-0.089-0.225-0.159-0.359-0.207s-0.277-0.073-0.422-0.072h-32.968zm0 3.809c-0.1449 0-0.2884 0.024-0.4224 0.072-0.1341 0.048-0.2559 0.118-0.3586 0.207-0.1026 0.089-0.1841 0.195-0.2396 0.312-0.0556 0.116-0.0842 0.241-0.0842 0.367s0.0286 0.251 0.0842 0.367c0.0555 0.117 0.137 0.223 0.2396 0.312 0.1027 0.089 0.2245 0.159 0.3586 0.207 0.134 0.048 0.2775 0.072 0.4224 0.072h32.968c0.145 0 0.288-0.024 0.422-0.072s0.256-0.118 0.359-0.207c0.102-0.089 0.184-0.195 0.239-0.312 0.056-0.116 0.085-0.241 0.085-0.367s-0.029-0.251-0.085-0.367c-0.055-0.117-0.137-0.223-0.239-0.312-0.103-0.089-0.225-0.159-0.359-0.207s-0.277-0.072-0.422-0.072h-32.968zm-21.006 14.391c-1.8025 0-3.2877 1.294-3.2877 2.863v9.598c0 1.569 1.4856 2.862 3.2877 2.862h11.026c1.8025 0 3.2861-1.293 3.2861-2.862v-9.598c0-1.57-1.4833-2.863-3.2861-2.863h-11.026zm21.006 0.983c-0.1449-1e-3 -0.2884 0.023-0.4224 0.071-0.1341 0.048-0.2559 0.119-0.3586 0.208-0.1026 0.089-0.1841 0.194-0.2396 0.311-0.0556 0.116-0.0842 0.241-0.0842 0.367 0 0.127 0.0286 0.251 0.0842 0.368 0.0555 0.116 0.137 0.222 0.2396 0.311 0.1027 0.089 0.2245 0.16 0.3586 0.208 0.134 0.047 0.2775 0.072 0.4224 0.071h24.005c0.145 1e-3 0.289-0.024 0.423-0.071 0.134-0.048 0.255-0.119 0.358-0.208s0.184-0.195 0.24-0.311c0.055-0.117 0.084-0.241 0.084-0.368 0-0.126-0.029-0.251-0.084-0.367-0.056-0.117-0.137-0.222-0.24-0.311s-0.224-0.16-0.358-0.208-0.278-0.072-0.423-0.071h-24.005zm-21.006 0.933h11.026c0.6203 0 1.0878 0.405 1.0878 0.947v9.598c0 0.542-0.4652 0.947-1.0878 0.947h-11.026c-0.6203 0-1.0878-0.405-1.0878-0.947v-9.598c0-0.54 0.4652-0.947 1.0878-0.947zm21.006 2.92c-0.1462-3e-3 -0.2915 0.02-0.4274 0.067s-0.2596 0.117-0.364 0.207c-0.1044 0.089-0.1873 0.195-0.2439 0.313-0.0566 0.117-0.0858 0.243-0.0858 0.37 0 0.128 0.0292 0.254 0.0858 0.371 0.0566 0.118 0.1395 0.224 0.2439 0.313s0.2281 0.159 0.364 0.207c0.1359 0.047 0.2812 0.07 0.4274 0.067h32.968c0.146 3e-3 0.291-0.02 0.427-0.067 0.136-0.048 0.26-0.118 0.364-0.207 0.105-0.089 0.187-0.195 0.244-0.313 0.057-0.117 0.086-0.243 0.086-0.371 0-0.127-0.029-0.253-0.086-0.37-0.057-0.118-0.139-0.224-0.244-0.313-0.104-0.09-0.228-0.16-0.364-0.207s-0.281-0.07-0.427-0.067h-32.968zm0 3.778c-0.1462-2e-3 -0.2914 0.021-0.4273 0.068-0.1358 0.047-0.2595 0.117-0.3638 0.206-0.1044 0.09-0.1873 0.196-0.2438 0.313-0.0566 0.118-0.0858 0.244-0.0858 0.371s0.0292 0.253 0.0858 0.371c0.0565 0.117 0.1394 0.223 0.2438 0.313 0.1043 0.089 0.228 0.159 0.3638 0.206 0.1359 0.047 0.2811 0.07 0.4273 0.068h32.968c0.146 2e-3 0.291-0.021 0.427-0.068s0.26-0.117 0.364-0.206c0.104-0.09 0.187-0.196 0.244-0.313 0.056-0.118 0.085-0.244 0.085-0.371s-0.029-0.253-0.085-0.371c-0.057-0.117-0.14-0.223-0.244-0.313-0.104-0.089-0.228-0.159-0.364-0.206s-0.281-0.07-0.427-0.068h-32.968zm0 3.81c-0.1445 0-0.2876 0.024-0.4211 0.072-0.1335 0.049-0.2548 0.119-0.357 0.208s-0.1833 0.195-0.2386 0.311-0.0838 0.241-0.0838 0.366c0 0.126 0.0285 0.251 0.0838 0.367s0.1364 0.222 0.2386 0.311 0.2235 0.159 0.357 0.207c0.1335 0.049 0.2766 0.073 0.4211 0.073h32.968c0.144 0 0.287-0.024 0.421-0.073 0.133-0.048 0.255-0.118 0.357-0.207s0.183-0.195 0.238-0.311c0.056-0.116 0.084-0.241 0.084-0.367 0-0.125-0.028-0.25-0.084-0.366-0.055-0.116-0.136-0.222-0.238-0.311s-0.224-0.159-0.357-0.208c-0.134-0.048-0.277-0.072-0.421-0.072h-32.968z" fill="#008DC9"/>
<path d="m68.882 58.598c-2.6853 0-4.882 1.9117-4.882 4.25v83.438c0 2.338 2.1958 4.25 4.882 4.25h67.238c2.685 0 4.88-1.912 4.88-4.25v-74.118c1e-3 -0.0954-0.014-0.1914-0.045-0.283l-2e-3 -0.0035c-6e-3 -0.0197-0.013-0.0392-0.021-0.0585-4e-3 -0.0062-8e-3 -0.0123-0.013-0.0183-6e-3 -0.0197-0.013-0.0393-0.021-0.0586-5e-3 -0.0061-0.011-0.0122-0.017-0.0182-0.014-0.02-0.029-0.0396-0.045-0.0586-4e-3 -0.0049-8e-3 -0.0098-0.012-0.0146-0.014-0.02-0.029-0.0395-0.045-0.0585-7e-3 -0.0062-0.014-0.0123-0.021-0.0183-0.014-0.0201-0.029-0.0398-0.045-0.0589l-14.485-12.613c-0.157-0.1369-0.359-0.2289-0.577-0.2641-0.038-0.0053-0.075-9e-3 -0.113-0.011h-2e-3c-0.03-0.0022-0.06-0.0034-0.09-0.0035l-56.564-0.0291zm0 1.9157h55.432v8.3628c0 2.3377 2.196 4.2502 4.882 4.2502h9.605v73.159c0 1.309-1.178 2.335-2.681 2.335h-67.238c-1.5036 0-2.6817-1.026-2.6817-2.335v-83.438c0-1.3091 1.1777-2.3343 2.6817-2.3343zm57.632 1.3559 8.572 7.462 2.16 1.8805h-8.051c-1.503 0-2.681-1.0254-2.681-2.3348v-7.0077zm-40.153 10.024c-0.2157 0.0064-0.4244 0.0679-0.6003 0.1768-0.1758 0.1089-0.311 0.2604-0.3886 0.4357l-0.5417 1.1759h-9.204c-1.8024 0-3.2876 1.2934-3.2876 2.8624v9.5981c0 1.5693 1.4856 2.8623 3.2876 2.8623h11.026c1.8024 0 3.2861-1.2934 3.2861-2.8623v-9.5981c0-1.4128-1.2025-2.5978-2.7566-2.8215l0.2314-0.5048c0.0706-0.148 0.0975-0.309 0.0781-0.4684-0.0194-0.1593-0.0844-0.3119-0.1891-0.4437-0.1046-0.1318-0.2456-0.2386-0.4099-0.3107-0.1644-0.0721-0.3478-0.1069-0.5317-0.1017zm34.304 2.7715c-7e-3 3e-4 -0.015 6e-4 -0.022 1e-3h-24.005c-0.1485-0.0058-0.2967 0.0147-0.4358 0.0602-0.139 0.0455-0.2661 0.1151-0.3735 0.2045-0.1073 0.0895-0.1927 0.1969-0.2511 0.3158-0.0584 0.119-0.0885 0.247-0.0885 0.3763 0 0.1294 0.0301 0.2573 0.0885 0.3763 0.0584 0.1189 0.1438 0.2264 0.2511 0.3158 0.1074 0.0894 0.2345 0.159 0.3735 0.2045 0.1391 0.0455 0.2873 0.066 0.4358 0.0603h24.005c0.149 0.0068 0.297-0.0126 0.437-0.057 0.139-0.0444 0.267-0.1129 0.375-0.2015 0.108-0.0885 0.195-0.1951 0.254-0.3135 0.06-0.1184 0.091-0.2461 0.093-0.3753 1e-3 -0.1293-0.028-0.2575-0.085-0.3768-0.057-0.1194-0.141-0.2275-0.247-0.3178s-0.232-0.1609-0.371-0.2077c-0.138-0.0467-0.286-0.0694-0.434-0.0651zm-45.04 0.9314h8.3216l-3.14 6.8155-1.8744-3.1658c-0.066-0.1122-0.1568-0.2119-0.2672-0.2934-0.1103-0.0816-0.2381-0.1434-0.3759-0.1819-0.1378-0.0384-0.283-0.0529-0.4273-0.0424-0.1442 0.0104-0.2847 0.0455-0.4133 0.1033s-0.2429 0.1372-0.3362 0.2335c-0.0934 0.0963-0.164 0.2077-0.2078 0.3278s-0.06 0.2465-0.0475 0.3721c0.0124 0.1255 0.0531 0.2478 0.1199 0.3596l2.9777 5.0256c0.0963 0.1631 0.2443 0.2987 0.4265 0.3907s0.3909 0.1365 0.6013 0.1282c0.2104-0.0082 0.4137-0.0688 0.5857-0.1747s0.3054-0.2525 0.3845-0.4224l4.3642-9.4708h0.3348c0.6203 0 1.0878 0.4051 1.0878 0.947v9.5982c0 0.542-0.4652 0.9471-1.0878 0.9471h-11.026c-0.6203 0-1.0877-0.4051-1.0877-0.9471v-9.5982c0-0.5419 0.4652-0.947 1.0877-0.947l-3e-4 -0.0049zm54.003 2.9212c-7e-3 1e-4 -0.014 2e-4 -0.021 4e-4h-32.968c-0.1485-0.0058-0.2968 0.0147-0.4359 0.0602s-0.2662 0.115-0.3736 0.2044-0.1929 0.1968-0.2513 0.3158-0.0885 0.247-0.0885 0.3764 0.0301 0.2574 0.0885 0.3764 0.1439 0.2264 0.2513 0.3158c0.1074 0.0895 0.2345 0.159 0.3736 0.2045s0.2874 0.0659 0.4359 0.0602h32.968c0.148 0.0068 0.296-0.0125 0.436-0.0569 0.139-0.0443 0.267-0.1129 0.375-0.2014 0.109-0.0885 0.195-0.1952 0.255-0.3136s0.091-0.2461 0.092-0.3754c2e-3 -0.1293-0.027-0.2575-0.084-0.3769s-0.141-0.2275-0.247-0.3178c-0.107-0.0903-0.233-0.1609-0.371-0.2076-0.139-0.0467-0.287-0.0689-0.435-0.0645zm-32.997 3.7771c-0.1449-6e-4 -0.2884 0.0238-0.4224 0.0717-0.1341 0.0479-0.2559 0.1184-0.3586 0.2074-0.1026 0.089-0.1841 0.1947-0.2396 0.3112-0.0556 0.1165-0.0842 0.2413-0.0842 0.3675 0 0.1261 0.0286 0.251 0.0842 0.3675 0.0555 0.1165 0.137 0.2222 0.2396 0.3112 0.1027 0.089 0.2245 0.1594 0.3586 0.2073 0.134 0.0479 0.2775 0.0723 0.4224 0.0718h32.968c0.145 5e-4 0.288-0.0239 0.422-0.0718s0.256-0.1183 0.359-0.2073c0.102-0.089 0.184-0.1947 0.239-0.3112 0.056-0.1165 0.085-0.2414 0.085-0.3675 0-0.1262-0.029-0.251-0.085-0.3675-0.055-0.1165-0.137-0.2222-0.239-0.3112-0.103-0.089-0.225-0.1595-0.359-0.2074s-0.277-0.0723-0.422-0.0717h-32.968zm32.997 3.8105c-7e-3 1e-4 -0.014 2e-4 -0.021 4e-4h-32.968c-0.1485-0.0058-0.2968 0.0147-0.4359 0.0602-0.1391 0.0454-0.2662 0.115-0.3736 0.2044s-0.1929 0.1969-0.2513 0.3158c-0.0584 0.119-0.0885 0.2471-0.0885 0.3764 0 0.1294 0.0301 0.2575 0.0885 0.3764 0.0584 0.119 0.1439 0.2265 0.2513 0.3159s0.2345 0.1589 0.3736 0.2044 0.2874 0.066 0.4359 0.0602h32.968c0.148 0.0069 0.296-0.0125 0.436-0.0569 0.139-0.0444 0.267-0.1129 0.375-0.2014 0.109-0.0885 0.195-0.1952 0.255-0.3136s0.091-0.2461 0.092-0.3754c2e-3 -0.1293-0.027-0.2575-0.084-0.3769s-0.141-0.2275-0.247-0.3178c-0.107-0.0903-0.233-0.1609-0.371-0.2076-0.139-0.0467-0.287-0.0689-0.435-0.0645zm-54.003 14.39c-1.8025 0-3.2877 1.293-3.2877 2.862v9.6c0 1.57 1.4856 2.863 3.2877 2.863h11.026c1.8025 0 3.2861-1.294 3.2861-2.863v-9.6c0-1.569-1.4833-2.862-3.2861-2.862h-11.026zm21.006 0.984c-0.1462-2e-3 -0.2915 0.021-0.4274 0.068s-0.2596 0.117-0.364 0.206-0.1873 0.196-0.2439 0.313c-0.0566 0.118-0.0858 0.244-0.0858 0.371s0.0292 0.253 0.0858 0.371c0.0566 0.117 0.1395 0.224 0.2439 0.313s0.2281 0.159 0.364 0.206 0.2812 0.07 0.4274 0.068h24.005c0.146 2e-3 0.292-0.021 0.428-0.068 0.135-0.047 0.259-0.117 0.364-0.206 0.104-0.089 0.187-0.196 0.243-0.313 0.057-0.118 0.086-0.244 0.086-0.371s-0.029-0.253-0.086-0.371c-0.056-0.117-0.139-0.224-0.243-0.313-0.105-0.089-0.229-0.159-0.364-0.206-0.136-0.047-0.282-0.07-0.428-0.068h-24.005zm-21.006 0.932h11.026c0.6203 0 1.0878 0.405 1.0878 0.947v9.6c0 0.542-0.4652 0.947-1.0878 0.947h-11.026c-0.6203 0-1.0878-0.405-1.0878-0.947v-9.6c0-0.54 0.4652-0.947 1.0878-0.947zm21.006 2.922c-0.1449-1e-3 -0.2884 0.023-0.4224 0.071-0.1341 0.048-0.2559 0.119-0.3586 0.208-0.1026 0.089-0.1841 0.194-0.2396 0.311-0.0556 0.116-0.0842 0.241-0.0842 0.367 0 0.127 0.0286 0.251 0.0842 0.368 0.0555 0.116 0.137 0.222 0.2396 0.311 0.1027 0.089 0.2245 0.16 0.3586 0.208 0.134 0.047 0.2775 0.072 0.4224 0.071h32.968c0.145 1e-3 0.288-0.024 0.422-0.071 0.134-0.048 0.256-0.119 0.359-0.208 0.102-0.089 0.184-0.195 0.239-0.311 0.056-0.117 0.085-0.241 0.085-0.368 0-0.126-0.029-0.251-0.085-0.367-0.055-0.117-0.137-0.222-0.239-0.311-0.103-0.089-0.225-0.16-0.359-0.208s-0.277-0.072-0.422-0.071h-32.968zm0 3.778c-0.1449-1e-3 -0.2884 0.024-0.4224 0.072-0.1341 0.048-0.2559 0.118-0.3586 0.207-0.1026 0.089-0.1841 0.195-0.2396 0.311-0.0556 0.117-0.0842 0.242-0.0842 0.368s0.0286 0.251 0.0842 0.367c0.0555 0.117 0.137 0.223 0.2396 0.312 0.1027 0.089 0.2245 0.159 0.3586 0.207 0.134 0.048 0.2775 0.072 0.4224 0.072h32.968c0.145 0 0.288-0.024 0.422-0.072s0.256-0.118 0.359-0.207c0.102-0.089 0.184-0.195 0.239-0.312 0.056-0.116 0.085-0.241 0.085-0.367s-0.029-0.251-0.085-0.368c-0.055-0.116-0.137-0.222-0.239-0.311-0.103-0.089-0.225-0.159-0.359-0.207s-0.277-0.073-0.422-0.072h-32.968zm0 3.809c-0.1449 0-0.2884 0.024-0.4224 0.072-0.1341 0.048-0.2559 0.118-0.3586 0.207-0.1026 0.089-0.1841 0.195-0.2396 0.312-0.0556 0.116-0.0842 0.241-0.0842 0.367s0.0286 0.251 0.0842 0.367c0.0555 0.117 0.137 0.223 0.2396 0.312 0.1027 0.089 0.2245 0.159 0.3586 0.207 0.134 0.048 0.2775 0.072 0.4224 0.072h32.968c0.145 0 0.288-0.024 0.422-0.072s0.256-0.118 0.359-0.207c0.102-0.089 0.184-0.195 0.239-0.312 0.056-0.116 0.085-0.241 0.085-0.367s-0.029-0.251-0.085-0.367c-0.055-0.117-0.137-0.223-0.239-0.312-0.103-0.089-0.225-0.159-0.359-0.207s-0.277-0.072-0.422-0.072h-32.968zm-21.006 14.391c-1.8025 0-3.2877 1.294-3.2877 2.863v9.598c0 1.569 1.4856 2.862 3.2877 2.862h11.026c1.8025 0 3.2861-1.293 3.2861-2.862v-9.598c0-1.57-1.4833-2.863-3.2861-2.863h-11.026zm21.006 0.983c-0.1449-1e-3 -0.2884 0.023-0.4224 0.071-0.1341 0.048-0.2559 0.119-0.3586 0.208-0.1026 0.089-0.1841 0.194-0.2396 0.311-0.0556 0.116-0.0842 0.241-0.0842 0.367 0 0.127 0.0286 0.251 0.0842 0.368 0.0555 0.116 0.137 0.222 0.2396 0.311 0.1027 0.089 0.2245 0.16 0.3586 0.208 0.134 0.047 0.2775 0.072 0.4224 0.071h24.005c0.145 1e-3 0.289-0.024 0.423-0.071 0.134-0.048 0.255-0.119 0.358-0.208s0.184-0.195 0.24-0.311c0.055-0.117 0.084-0.241 0.084-0.368 0-0.126-0.029-0.251-0.084-0.367-0.056-0.117-0.137-0.222-0.24-0.311s-0.224-0.16-0.358-0.208-0.278-0.072-0.423-0.071h-24.005zm-21.006 0.933h11.026c0.6203 0 1.0878 0.405 1.0878 0.947v9.598c0 0.542-0.4652 0.947-1.0878 0.947h-11.026c-0.6203 0-1.0878-0.405-1.0878-0.947v-9.598c0-0.54 0.4652-0.947 1.0878-0.947zm21.006 2.92c-0.1462-3e-3 -0.2915 0.02-0.4274 0.067s-0.2596 0.117-0.364 0.207c-0.1044 0.089-0.1873 0.195-0.2439 0.313-0.0566 0.117-0.0858 0.243-0.0858 0.37 0 0.128 0.0292 0.254 0.0858 0.371 0.0566 0.118 0.1395 0.224 0.2439 0.313s0.2281 0.159 0.364 0.207c0.1359 0.047 0.2812 0.07 0.4274 0.067h32.968c0.146 3e-3 0.291-0.02 0.427-0.067 0.136-0.048 0.26-0.118 0.364-0.207 0.105-0.089 0.187-0.195 0.244-0.313 0.057-0.117 0.086-0.243 0.086-0.371 0-0.127-0.029-0.253-0.086-0.37-0.057-0.118-0.139-0.224-0.244-0.313-0.104-0.09-0.228-0.16-0.364-0.207s-0.281-0.07-0.427-0.067h-32.968zm0 3.778c-0.1462-2e-3 -0.2914 0.021-0.4273 0.068-0.1358 0.047-0.2595 0.117-0.3638 0.206-0.1044 0.09-0.1873 0.196-0.2438 0.313-0.0566 0.118-0.0858 0.244-0.0858 0.371s0.0292 0.253 0.0858 0.371c0.0565 0.117 0.1394 0.223 0.2438 0.313 0.1043 0.089 0.228 0.159 0.3638 0.206 0.1359 0.047 0.2811 0.07 0.4273 0.068h32.968c0.146 2e-3 0.291-0.021 0.427-0.068s0.26-0.117 0.364-0.206c0.104-0.09 0.187-0.196 0.244-0.313 0.056-0.118 0.085-0.244 0.085-0.371s-0.029-0.253-0.085-0.371c-0.057-0.117-0.14-0.223-0.244-0.313-0.104-0.089-0.228-0.159-0.364-0.206s-0.281-0.07-0.427-0.068h-32.968zm0 3.81c-0.1445 0-0.2876 0.024-0.4211 0.072-0.1335 0.049-0.2548 0.119-0.357 0.208s-0.1833 0.195-0.2386 0.311-0.0838 0.241-0.0838 0.366c0 0.126 0.0285 0.251 0.0838 0.367s0.1364 0.222 0.2386 0.311 0.2235 0.159 0.357 0.207c0.1335 0.049 0.2766 0.073 0.4211 0.073h32.968c0.144 0 0.287-0.024 0.421-0.073 0.133-0.048 0.255-0.118 0.357-0.207s0.183-0.195 0.238-0.311c0.056-0.116 0.084-0.241 0.084-0.367 0-0.125-0.028-0.25-0.084-0.366-0.055-0.116-0.136-0.222-0.238-0.311s-0.224-0.159-0.357-0.208c-0.134-0.048-0.277-0.072-0.421-0.072h-32.968z" mask="url(#a)" stroke="#008DC9" stroke-width=".2"/>
<defs>
<filter id="b" x="0" y="0" width="204" height="204" color-interpolation-filters="sRGB" filterUnits="userSpaceOnUse">
<feFlood flood-opacity="0" result="BackgroundImageFix"/>
<feColorMatrix in="SourceAlpha" values="0 0 0 0 0 0 0 0 0 0 0 0 0 0 0 0 0 0 127 0"/>
<feOffset dy="4"/>
<feGaussianBlur stdDeviation="2"/>
<feColorMatrix values="0 0 0 0 0 0 0 0 0 0 0 0 0 0 0 0 0 0 0.25 0"/>
<feBlend in2="BackgroundImageFix" result="effect1_dropShadow"/>
<feBlend in="SourceGraphic" in2="effect1_dropShadow" result="shape"/>
</filter>
</defs>
</svg>
