<svg width="200" height="200" viewBox="0 0 200 200" fill="none" xmlns="http://www.w3.org/2000/svg">
<rect width="200" height="200" rx="10" fill="#C5D3FC" fill-opacity="0.2"/>
<path d="M87.6387 172.975H81.916V179H79.4453V164.781H88.4785V166.773H81.916V171.002H87.6387V172.975ZM89.5527 173.619C89.5527 172.584 89.7578 171.653 90.168 170.826C90.5781 169.993 91.1543 169.355 91.8965 168.912C92.6387 168.463 93.4915 168.238 94.4551 168.238C95.8809 168.238 97.0365 168.697 97.9219 169.615C98.8138 170.533 99.2956 171.751 99.3672 173.268L99.377 173.824C99.377 174.866 99.1751 175.797 98.7715 176.617C98.3743 177.438 97.8014 178.072 97.0527 178.521C96.3105 178.971 95.4512 179.195 94.4746 179.195C92.9837 179.195 91.7891 178.701 90.8906 177.711C89.9987 176.715 89.5527 175.39 89.5527 173.736V173.619ZM91.9258 173.824C91.9258 174.911 92.1504 175.764 92.5996 176.383C93.0488 176.995 93.6738 177.301 94.4746 177.301C95.2754 177.301 95.8971 176.988 96.3398 176.363C96.7891 175.738 97.0137 174.824 97.0137 173.619C97.0137 172.551 96.7826 171.705 96.3203 171.08C95.8646 170.455 95.2428 170.143 94.4551 170.143C93.6803 170.143 93.0651 170.452 92.6094 171.07C92.1536 171.682 91.9258 172.6 91.9258 173.824ZM106.916 170.602C106.604 170.549 106.281 170.523 105.949 170.523C104.862 170.523 104.13 170.94 103.752 171.773V179H101.379V168.434H103.645L103.703 169.615C104.276 168.697 105.07 168.238 106.086 168.238C106.424 168.238 106.704 168.284 106.926 168.375L106.916 170.602ZM110.646 168.434L110.715 169.537C111.457 168.671 112.473 168.238 113.762 168.238C115.174 168.238 116.141 168.779 116.662 169.859C117.43 168.779 118.511 168.238 119.904 168.238C121.07 168.238 121.936 168.561 122.502 169.205C123.075 169.85 123.368 170.8 123.381 172.057V179H121.008V172.125C121.008 171.454 120.861 170.963 120.568 170.65C120.275 170.338 119.79 170.182 119.113 170.182C118.573 170.182 118.13 170.328 117.785 170.621C117.447 170.908 117.209 171.285 117.072 171.754L117.082 179H114.709V172.047C114.676 170.803 114.042 170.182 112.805 170.182C111.854 170.182 111.18 170.569 110.783 171.344V179H108.41V168.434H110.646Z" fill="#6E7478"/>
<rect x="64" y="38" width="72.6923" height="90" rx="13.3333" fill="#C5D3FC"/>
<rect x="70.9231" y="55.3076" width="13.8462" height="13.8462" rx="3.33333" fill="#A7BDFF" fill-opacity="0.9"/>
<rect x="70.9231" y="74.3462" width="13.8462" height="13.8462" rx="3.33333" fill="#A7BDFF" fill-opacity="0.7"/>
<rect x="89.9614" y="57.0386" width="39.8077" height="10.3846" rx="5.19231" fill="#A7BDFF" fill-opacity="0.7"/>
<rect x="89.9614" y="76.0767" width="39.8077" height="10.3846" rx="5.19231" fill="#A7BDFF" fill-opacity="0.7"/>
<rect x="70.9231" y="93.3848" width="13.8462" height="13.8462" rx="3.33333" fill="#A7BDFF" fill-opacity="0.7"/>
<rect x="89.9614" y="95.1152" width="39.8077" height="10.3846" rx="5.19231" fill="#A7BDFF" fill-opacity="0.7"/>
<mask id="path-10-outside-1" maskUnits="userSpaceOnUse" x="73.3845" y="54.3076" width="15" height="12" fill="black">
<rect fill="white" x="73.3845" y="54.3076" width="15" height="12"/>
<path d="M87.3132 55.6329C87.1778 55.5172 87.0209 55.4293 86.8515 55.3741C86.6821 55.319 86.5035 55.2978 86.3259 55.3118C86.1484 55.3257 85.9753 55.3745 85.8165 55.4553C85.6578 55.5361 85.5165 55.6474 85.4008 55.7829L79.5608 62.6151L76.4185 59.9914C76.1661 59.7809 75.8405 59.679 75.5131 59.7083C75.1857 59.7377 74.8833 59.8957 74.6723 60.1478C74.5681 60.2725 74.4895 60.4166 74.4409 60.5717C74.3924 60.7268 74.3749 60.89 74.3895 61.0519C74.4041 61.2138 74.4504 61.3713 74.5259 61.5152C74.6013 61.6592 74.7044 61.7869 74.8292 61.891L79.0398 65.4067C79.1698 65.515 79.3206 65.5954 79.483 65.6428C79.6453 65.6903 79.8157 65.7037 79.9835 65.6824C80.1614 65.6687 80.3348 65.62 80.4938 65.5392C80.6528 65.4583 80.7943 65.3468 80.9101 65.2111L87.4631 57.5444C87.6968 57.271 87.8123 56.9159 87.7841 56.5573C87.756 56.1988 87.5866 55.866 87.3132 55.6323"/>
</mask>
<path d="M87.3132 55.6329C87.1778 55.5172 87.0209 55.4293 86.8515 55.3741C86.6821 55.319 86.5035 55.2978 86.3259 55.3118C86.1484 55.3257 85.9753 55.3745 85.8165 55.4553C85.6578 55.5361 85.5165 55.6474 85.4008 55.7829L79.5608 62.6151L76.4185 59.9914C76.1661 59.7809 75.8405 59.679 75.5131 59.7083C75.1857 59.7377 74.8833 59.8957 74.6723 60.1478C74.5681 60.2725 74.4895 60.4166 74.4409 60.5717C74.3924 60.7268 74.3749 60.89 74.3895 61.0519C74.4041 61.2138 74.4504 61.3713 74.5259 61.5152C74.6013 61.6592 74.7044 61.7869 74.8292 61.891L79.0398 65.4067C79.1698 65.515 79.3206 65.5954 79.483 65.6428C79.6453 65.6903 79.8157 65.7037 79.9835 65.6824C80.1614 65.6687 80.3348 65.62 80.4938 65.5392C80.6528 65.4583 80.7943 65.3468 80.9101 65.2111L87.4631 57.5444C87.6968 57.271 87.8123 56.9159 87.7841 56.5573C87.756 56.1988 87.5866 55.866 87.3132 55.6323" fill="#82A2FF" fill-opacity="0.6"/>
<path d="M85.4008 55.7829L85.7809 56.1077L85.7809 56.1077L85.4008 55.7829ZM79.5608 62.6151L79.2403 62.9989L79.6197 63.3157L79.9409 62.94L79.5608 62.6151ZM76.4185 59.9914L76.739 59.6076L76.7388 59.6075L76.4185 59.9914ZM74.6723 60.1478L74.2889 59.8268L74.2886 59.8272L74.6723 60.1478ZM74.8292 61.891L75.1497 61.5072L75.1495 61.5071L74.8292 61.891ZM79.0398 65.4067L78.7194 65.7905L78.7197 65.7907L79.0398 65.4067ZM79.9835 65.6824L79.9452 65.1839L79.9328 65.1848L79.9205 65.1864L79.9835 65.6824ZM80.9101 65.2111L80.53 64.8863L80.5298 64.8865L80.9101 65.2111ZM87.4631 57.5444L87.8432 57.8693L87.8432 57.8693L87.4631 57.5444ZM87.6381 55.2529C87.4527 55.0944 87.238 54.9741 87.0062 54.8987L86.6968 55.8496C86.8038 55.8844 86.9028 55.9399 86.9883 56.013L87.6381 55.2529ZM87.0062 54.8987C86.7744 54.8233 86.5299 54.7942 86.2869 54.8133L86.365 55.8102C86.4771 55.8014 86.5899 55.8148 86.6968 55.8496L87.0062 54.8987ZM86.2869 54.8133C86.0438 54.8323 85.8069 54.8991 85.5896 55.0097L86.0434 55.9008C86.1436 55.8498 86.2529 55.819 86.365 55.8102L86.2869 54.8133ZM85.5896 55.0097C85.3724 55.1204 85.179 55.2727 85.0207 55.458L85.7809 56.1077C85.854 56.0222 85.9432 55.9519 86.0434 55.9008L85.5896 55.0097ZM85.0207 55.458L79.1807 62.2902L79.9409 62.94L85.7809 56.1077L85.0207 55.458ZM79.8812 62.2313L76.739 59.6076L76.0981 60.3752L79.2403 62.9989L79.8812 62.2313ZM76.7388 59.6075C76.3847 59.3121 75.9278 59.1692 75.4685 59.2103L75.5577 60.2064C75.7531 60.1889 75.9475 60.2496 76.0982 60.3754L76.7388 59.6075ZM75.4685 59.2103C75.0091 59.2515 74.5849 59.4732 74.2889 59.8268L75.0557 60.4687C75.1817 60.3182 75.3622 60.2238 75.5577 60.2064L75.4685 59.2103ZM74.2886 59.8272C74.1423 60.0023 74.0319 60.2046 73.9637 60.4224L74.9181 60.721C74.947 60.6285 74.9939 60.5427 75.056 60.4684L74.2886 59.8272ZM73.9637 60.4224C73.8956 60.6403 73.8711 60.8694 73.8915 61.0967L74.8875 61.0071C74.8788 60.9106 74.8892 60.8134 74.9181 60.721L73.9637 60.4224ZM73.8915 61.0967C73.912 61.3241 73.977 61.5451 74.083 61.7473L74.9687 61.2832C74.9238 61.1974 74.8962 61.1036 74.8875 61.0071L73.8915 61.0967ZM74.083 61.7473C74.1889 61.9495 74.3337 62.1288 74.5089 62.275L75.1495 61.5071C75.0751 61.445 75.0137 61.369 74.9687 61.2832L74.083 61.7473ZM74.5088 62.2749L78.7194 65.7905L79.3603 65.0229L75.1497 61.5072L74.5088 62.2749ZM78.7197 65.7907C78.9024 65.943 79.1145 66.056 79.3427 66.1227L79.6232 65.1629C79.5268 65.1347 79.4372 65.087 79.36 65.0226L78.7197 65.7907ZM79.3427 66.1227C79.571 66.1895 79.8106 66.2084 80.0466 66.1784L79.9205 65.1864C79.8208 65.1991 79.7196 65.1911 79.6232 65.1629L79.3427 66.1227ZM80.0219 66.1809C80.2654 66.1622 80.5028 66.0956 80.7205 65.9848L80.2671 65.0935C80.1668 65.1445 80.0574 65.1752 79.9452 65.1839L80.0219 66.1809ZM80.7205 65.9848C80.9382 65.8741 81.1318 65.7215 81.2904 65.5357L80.5298 64.8865C80.4567 64.9721 80.3675 65.0425 80.2671 65.0935L80.7205 65.9848ZM81.2902 65.536L87.8432 57.8693L87.083 57.2196L80.53 64.8863L81.2902 65.536ZM87.8432 57.8693C88.163 57.495 88.3211 57.009 88.2826 56.5183L87.2857 56.5964C87.3034 56.8228 87.2305 57.047 87.083 57.2196L87.8432 57.8693ZM88.2826 56.5183C88.2441 56.0275 88.0123 55.5721 87.6381 55.2523L86.9883 56.0124C87.161 56.16 87.2679 56.37 87.2857 56.5964L88.2826 56.5183Z" fill="#82A2FF" fill-opacity="0.6" mask="url(#path-10-outside-1)"/>
</svg>
