<svg width="36" height="45" viewBox="0 0 36 45" fill="none" xmlns="http://www.w3.org/2000/svg">
<path d="M0 4C0 1.79086 1.79086 0 4 0H32C34.2091 0 36 1.79086 36 4V40.5714C36 42.7806 34.2091 44.5714 32 44.5714H4C1.79086 44.5714 0 42.7806 0 40.5714V4Z" fill="#2F383E" fill-opacity="0.1"/>
<path d="M3.42871 11.9999C3.42871 10.1063 4.96373 8.57129 6.85728 8.57129C8.75083 8.57129 10.2859 10.1063 10.2859 11.9999C10.2859 13.8934 8.75083 15.4284 6.85728 15.4284C4.96373 15.4284 3.42871 13.8934 3.42871 11.9999Z" fill="#2F383E" fill-opacity="0.3"/>
<path d="M3.42871 21.4286C3.42871 19.535 4.96373 18 6.85728 18C8.75083 18 10.2859 19.535 10.2859 21.4286C10.2859 23.3221 8.75083 24.8571 6.85728 24.8571C4.96373 24.8571 3.42871 23.3221 3.42871 21.4286Z" fill="#2F383E" fill-opacity="0.3"/>
<path d="M12.8571 12.0001C12.8571 10.58 14.0083 9.42871 15.4285 9.42871H29.9999C31.4201 9.42871 32.5713 10.58 32.5713 12.0001C32.5713 13.4203 31.4201 14.5716 29.9999 14.5716H15.4285C14.0083 14.5716 12.8571 13.4203 12.8571 12.0001Z" fill="#2F383E" fill-opacity="0.3"/>
<path d="M12.8571 21.4289C12.8571 20.0087 14.0083 18.8574 15.4285 18.8574H29.9999C31.4201 18.8574 32.5713 20.0087 32.5713 21.4289C32.5713 22.849 31.4201 24.0003 29.9999 24.0003H15.4285C14.0083 24.0003 12.8571 22.849 12.8571 21.4289Z" fill="#2F383E" fill-opacity="0.3"/>
<path d="M3.42871 30.8573C3.42871 28.9637 4.96373 27.4287 6.85728 27.4287C8.75083 27.4287 10.2859 28.9637 10.2859 30.8573C10.2859 32.7508 8.75083 34.2859 6.85728 34.2859C4.96373 34.2859 3.42871 32.7508 3.42871 30.8573Z" fill="#2F383E" fill-opacity="0.3"/>
<path d="M12.8571 30.8566C12.8571 29.4364 14.0083 28.2852 15.4285 28.2852H29.9999C31.4201 28.2852 32.5713 29.4364 32.5713 30.8566C32.5713 32.2767 31.4201 33.428 29.9999 33.428H15.4285C14.0083 33.428 12.8571 32.2767 12.8571 30.8566Z" fill="#2F383E" fill-opacity="0.3"/>
<mask id="path-8-outside-1" maskUnits="userSpaceOnUse" x="4.14294" y="7.57129" width="9" height="7" fill="black">
<rect fill="white" x="4.14294" y="7.57129" width="9" height="7"/>
<path d="M11.5457 8.7324C11.4787 8.67508 11.401 8.63153 11.3171 8.60424C11.2332 8.57695 11.1447 8.56645 11.0568 8.57334C10.9688 8.58024 10.8831 8.60439 10.8045 8.64442C10.7259 8.68445 10.6559 8.73957 10.5986 8.80664L7.70643 12.1902L6.15025 10.8909C6.02526 10.7866 5.86399 10.7362 5.70185 10.7507C5.53971 10.7652 5.38995 10.8435 5.28547 10.9683C5.23385 11.0301 5.19491 11.1014 5.17088 11.1783C5.14685 11.2551 5.13819 11.3359 5.14541 11.4161C5.15263 11.4963 5.17557 11.5742 5.21294 11.6455C5.2503 11.7168 5.30135 11.7801 5.36317 11.8317L7.44843 13.5727C7.51278 13.6264 7.58748 13.6662 7.66789 13.6897C7.7483 13.7132 7.83269 13.7198 7.91579 13.7093C8.00387 13.7025 8.08975 13.6784 8.1685 13.6383C8.24724 13.5983 8.3173 13.5431 8.37466 13.4759L11.62 9.67905C11.7357 9.54363 11.7929 9.36779 11.7789 9.1902C11.765 9.01262 11.6811 8.84784 11.5457 8.73211"/>
</mask>
<path d="M11.5457 8.7324C11.4787 8.67508 11.401 8.63153 11.3171 8.60424C11.2332 8.57695 11.1447 8.56645 11.0568 8.57334C10.9688 8.58024 10.8831 8.60439 10.8045 8.64442C10.7259 8.68445 10.6559 8.73957 10.5986 8.80664L7.70643 12.1902L6.15025 10.8909C6.02526 10.7866 5.86399 10.7362 5.70185 10.7507C5.53971 10.7652 5.38995 10.8435 5.28547 10.9683C5.23385 11.0301 5.19491 11.1014 5.17088 11.1783C5.14685 11.2551 5.13819 11.3359 5.14541 11.4161C5.15263 11.4963 5.17557 11.5742 5.21294 11.6455C5.2503 11.7168 5.30135 11.7801 5.36317 11.8317L7.44843 13.5727C7.51278 13.6264 7.58748 13.6662 7.66789 13.6897C7.7483 13.7132 7.83269 13.7198 7.91579 13.7093C8.00387 13.7025 8.08975 13.6784 8.1685 13.6383C8.24724 13.5983 8.3173 13.5431 8.37466 13.4759L11.62 9.67905C11.7357 9.54363 11.7929 9.36779 11.7789 9.1902C11.765 9.01262 11.6811 8.84784 11.5457 8.73211" fill="#2F383E" fill-opacity="0.5"/>
<path d="M10.5986 8.80664L10.9787 9.13152L10.9788 9.13145L10.5986 8.80664ZM7.70643 12.1902L7.38597 12.574L7.76536 12.8908L8.0865 12.5151L7.70643 12.1902ZM6.15025 10.8909L6.47071 10.5071L6.47058 10.507L6.15025 10.8909ZM5.28547 10.9683L4.90205 10.6474L4.90178 10.6477L5.28547 10.9683ZM5.36317 11.8317L5.68363 11.4478L5.68345 11.4477L5.36317 11.8317ZM7.44843 13.5727L7.12798 13.9565L7.12827 13.9568L7.44843 13.5727ZM7.91579 13.7093L7.87743 13.2108L7.86506 13.2117L7.85276 13.2133L7.91579 13.7093ZM8.37466 13.4759L7.99458 13.151L7.99435 13.1513L8.37466 13.4759ZM11.62 9.67905L12 10.0039L12.0001 10.0039L11.62 9.67905ZM11.8706 8.35232C11.7536 8.25233 11.6181 8.17637 11.4718 8.12876L11.1624 9.07971C11.1838 9.08669 11.2037 9.09782 11.2208 9.11247L11.8706 8.35232ZM11.4718 8.12876C11.3254 8.08116 11.1711 8.06285 11.0177 8.07487L11.0959 9.07181C11.1184 9.07005 11.141 9.07274 11.1624 9.07971L11.4718 8.12876ZM11.0177 8.07487C10.8643 8.0869 10.7148 8.12903 10.5776 8.19886L11.0314 9.08998C11.0515 9.07975 11.0734 9.07358 11.0959 9.07181L11.0177 8.07487ZM10.5776 8.19886C10.4405 8.26869 10.3185 8.36484 10.2185 8.48184L10.9788 9.13145C10.9934 9.1143 11.0113 9.10021 11.0314 9.08998L10.5776 8.19886ZM10.2186 8.48177L7.32636 11.8654L8.0865 12.5151L10.9787 9.13152L10.2186 8.48177ZM8.02689 11.8064L6.47071 10.5071L5.82979 11.2747L7.38597 12.574L8.02689 11.8064ZM6.47058 10.507C6.24387 10.3178 5.95135 10.2264 5.65727 10.2527L5.74643 11.2487C5.77662 11.246 5.80665 11.2554 5.82993 11.2748L6.47058 10.507ZM5.65727 10.2527C5.36318 10.279 5.09156 10.421 4.90205 10.6474L5.66889 11.2892C5.68835 11.266 5.71623 11.2514 5.74643 11.2487L5.65727 10.2527ZM4.90178 10.6477C4.80804 10.7599 4.73733 10.8895 4.69368 11.029L5.64808 11.3275C5.6525 11.3134 5.65966 11.3003 5.66916 11.2889L4.90178 10.6477ZM4.69368 11.029C4.65004 11.1685 4.63432 11.3153 4.64742 11.4609L5.6434 11.3713C5.64207 11.3565 5.64366 11.3417 5.64808 11.3275L4.69368 11.029ZM4.64742 11.4609C4.66053 11.6065 4.7022 11.7481 4.77006 11.8776L5.65582 11.4135C5.64895 11.4004 5.64473 11.386 5.6434 11.3713L4.64742 11.4609ZM4.77006 11.8776C4.83791 12.0071 4.93063 12.122 5.04289 12.2156L5.68345 11.4477C5.67208 11.4382 5.66269 11.4266 5.65582 11.4135L4.77006 11.8776ZM5.04271 12.2155L7.12798 13.9565L7.76889 13.1889L5.68363 11.4478L5.04271 12.2155ZM7.12827 13.9568C7.24537 14.0544 7.38133 14.1268 7.52766 14.1696L7.80812 13.2097C7.79364 13.2055 7.78019 13.1983 7.7686 13.1887L7.12827 13.9568ZM7.52766 14.1696C7.674 14.2124 7.82758 14.2245 7.97882 14.2053L7.85276 13.2133C7.83779 13.2152 7.8226 13.214 7.80812 13.2097L7.52766 14.1696ZM7.95415 14.2078C8.10787 14.196 8.25775 14.1539 8.39517 14.084L7.94182 13.1927C7.92176 13.2029 7.89988 13.209 7.87743 13.2108L7.95415 14.2078ZM8.39517 14.084C8.5326 14.0141 8.65487 13.9178 8.75496 13.8005L7.99435 13.1513C7.97974 13.1684 7.96189 13.1825 7.94182 13.1927L8.39517 14.084ZM8.75474 13.8008L12 10.0039L11.2399 9.35418L7.99458 13.151L8.75474 13.8008ZM12.0001 10.0039C12.2019 9.76764 12.3017 9.4609 12.2774 9.15112L11.2805 9.22929C11.284 9.27468 11.2694 9.31962 11.2398 9.35424L12.0001 10.0039ZM12.2774 9.15112C12.2531 8.84134 12.1068 8.5539 11.8706 8.35202L11.2209 9.1122C11.2555 9.14178 11.2769 9.1839 11.2805 9.22929L12.2774 9.15112Z" fill="#2F383E" fill-opacity="0.5" mask="url(#path-8-outside-1)"/>
</svg>
