<svg width="73" height="90" viewBox="0 0 73 90" fill="none" xmlns="http://www.w3.org/2000/svg">
<rect width="72.6923" height="90" rx="13.3333" fill="#C5D3FC"/>
<rect x="6.9231" y="17.3076" width="13.8462" height="13.8462" rx="3.33333" fill="#A7BDFF" fill-opacity="0.9"/>
<rect x="6.9231" y="36.3462" width="13.8462" height="13.8462" rx="3.33333" fill="#A7BDFF" fill-opacity="0.7"/>
<rect x="25.9614" y="19.0386" width="39.8077" height="10.3846" rx="5.19231" fill="#A7BDFF" fill-opacity="0.7"/>
<rect x="25.9614" y="38.0769" width="39.8077" height="10.3846" rx="5.19231" fill="#A7BDFF" fill-opacity="0.7"/>
<rect x="6.9231" y="55.3848" width="13.8462" height="13.8462" rx="3.33333" fill="#A7BDFF" fill-opacity="0.7"/>
<rect x="25.9614" y="57.1155" width="39.8077" height="10.3846" rx="5.19231" fill="#A7BDFF" fill-opacity="0.7"/>
<mask id="path-8-outside-1" maskUnits="userSpaceOnUse" x="9.38452" y="16.3076" width="15" height="12" fill="black">
<rect fill="white" x="9.38452" y="16.3076" width="15" height="12"/>
<path d="M23.3132 17.6329C23.1778 17.5172 23.0209 17.4293 22.8515 17.3741C22.6821 17.319 22.5035 17.2978 22.3259 17.3118C22.1484 17.3257 21.9753 17.3745 21.8165 17.4553C21.6578 17.5361 21.5165 17.6474 21.4008 17.7829L15.5608 24.6151L12.4185 21.9914C12.1661 21.7809 11.8405 21.679 11.5131 21.7083C11.1857 21.7377 10.8833 21.8957 10.6723 22.1478C10.5681 22.2725 10.4895 22.4166 10.4409 22.5717C10.3924 22.7268 10.3749 22.89 10.3895 23.0519C10.4041 23.2138 10.4504 23.3713 10.5259 23.5152C10.6013 23.6592 10.7044 23.7869 10.8292 23.891L15.0398 27.4067C15.1698 27.515 15.3206 27.5954 15.483 27.6428C15.6453 27.6903 15.8157 27.7037 15.9835 27.6824C16.1614 27.6687 16.3348 27.62 16.4938 27.5392C16.6528 27.4583 16.7943 27.3468 16.9101 27.2111L23.4631 19.5444C23.6968 19.271 23.8123 18.9159 23.7841 18.5573C23.756 18.1988 23.5866 17.866 23.3132 17.6323"/>
</mask>
<path d="M23.3132 17.6329C23.1778 17.5172 23.0209 17.4293 22.8515 17.3741C22.6821 17.319 22.5035 17.2978 22.3259 17.3118C22.1484 17.3257 21.9753 17.3745 21.8165 17.4553C21.6578 17.5361 21.5165 17.6474 21.4008 17.7829L15.5608 24.6151L12.4185 21.9914C12.1661 21.7809 11.8405 21.679 11.5131 21.7083C11.1857 21.7377 10.8833 21.8957 10.6723 22.1478C10.5681 22.2725 10.4895 22.4166 10.4409 22.5717C10.3924 22.7268 10.3749 22.89 10.3895 23.0519C10.4041 23.2138 10.4504 23.3713 10.5259 23.5152C10.6013 23.6592 10.7044 23.7869 10.8292 23.891L15.0398 27.4067C15.1698 27.515 15.3206 27.5954 15.483 27.6428C15.6453 27.6903 15.8157 27.7037 15.9835 27.6824C16.1614 27.6687 16.3348 27.62 16.4938 27.5392C16.6528 27.4583 16.7943 27.3468 16.9101 27.2111L23.4631 19.5444C23.6968 19.271 23.8123 18.9159 23.7841 18.5573C23.756 18.1988 23.5866 17.866 23.3132 17.6323" fill="#82A2FF" fill-opacity="0.6"/>
<path d="M21.4008 17.7829L21.7809 18.1077L21.7809 18.1077L21.4008 17.7829ZM15.5608 24.6151L15.2403 24.9989L15.6197 25.3157L15.9409 24.94L15.5608 24.6151ZM12.4185 21.9914L12.739 21.6076L12.7388 21.6075L12.4185 21.9914ZM10.6723 22.1478L10.2889 21.8268L10.2886 21.8272L10.6723 22.1478ZM10.8292 23.891L11.1497 23.5072L11.1495 23.5071L10.8292 23.891ZM15.0398 27.4067L14.7194 27.7905L14.7197 27.7907L15.0398 27.4067ZM15.9835 27.6824L15.9452 27.1839L15.9328 27.1848L15.9205 27.1864L15.9835 27.6824ZM16.9101 27.2111L16.53 26.8863L16.5298 26.8865L16.9101 27.2111ZM23.4631 19.5444L23.8432 19.8693L23.8432 19.8693L23.4631 19.5444ZM23.6381 17.2529C23.4527 17.0944 23.238 16.9741 23.0062 16.8987L22.6968 17.8496C22.8038 17.8844 22.9028 17.9399 22.9883 18.013L23.6381 17.2529ZM23.0062 16.8987C22.7744 16.8233 22.5299 16.7942 22.2869 16.8133L22.365 17.8102C22.4771 17.8014 22.5899 17.8148 22.6968 17.8496L23.0062 16.8987ZM22.2869 16.8133C22.0438 16.8323 21.8069 16.8991 21.5896 17.0097L22.0434 17.9008C22.1436 17.8498 22.2529 17.819 22.365 17.8102L22.2869 16.8133ZM21.5896 17.0097C21.3724 17.1204 21.179 17.2727 21.0207 17.458L21.7809 18.1077C21.854 18.0222 21.9432 17.9519 22.0434 17.9008L21.5896 17.0097ZM21.0207 17.458L15.1807 24.2902L15.9409 24.94L21.7809 18.1077L21.0207 17.458ZM15.8812 24.2313L12.739 21.6076L12.0981 22.3752L15.2403 24.9989L15.8812 24.2313ZM12.7388 21.6075C12.3847 21.3121 11.9278 21.1692 11.4685 21.2103L11.5577 22.2064C11.7531 22.1889 11.9475 22.2496 12.0982 22.3754L12.7388 21.6075ZM11.4685 21.2103C11.0091 21.2515 10.5849 21.4732 10.2889 21.8268L11.0557 22.4687C11.1817 22.3182 11.3622 22.2238 11.5577 22.2064L11.4685 21.2103ZM10.2886 21.8272C10.1423 22.0023 10.0319 22.2046 9.96373 22.4224L10.9181 22.721C10.947 22.6285 10.9939 22.5427 11.056 22.4684L10.2886 21.8272ZM9.96373 22.4224C9.8956 22.6403 9.87105 22.8694 9.89151 23.0967L10.8875 23.0071C10.8788 22.9106 10.8892 22.8134 10.9181 22.721L9.96373 22.4224ZM9.89151 23.0967C9.91197 23.3241 9.97703 23.5451 10.083 23.7473L10.9687 23.2832C10.9238 23.1974 10.8962 23.1036 10.8875 23.0071L9.89151 23.0967ZM10.083 23.7473C10.1889 23.9495 10.3337 24.1288 10.5089 24.275L11.1495 23.5071C11.0751 23.445 11.0137 23.369 10.9687 23.2832L10.083 23.7473ZM10.5088 24.2749L14.7194 27.7905L15.3603 27.0229L11.1497 23.5072L10.5088 24.2749ZM14.7197 27.7907C14.9024 27.943 15.1145 28.056 15.3427 28.1227L15.6232 27.1629C15.5268 27.1347 15.4372 27.087 15.36 27.0226L14.7197 27.7907ZM15.3427 28.1227C15.571 28.1895 15.8106 28.2084 16.0466 28.1784L15.9205 27.1864C15.8208 27.1991 15.7196 27.1911 15.6232 27.1629L15.3427 28.1227ZM16.0219 28.1809C16.2654 28.1622 16.5028 28.0956 16.7205 27.9848L16.2671 27.0935C16.1668 27.1445 16.0574 27.1752 15.9452 27.1839L16.0219 28.1809ZM16.7205 27.9848C16.9382 27.8741 17.1318 27.7215 17.2904 27.5357L16.5298 26.8865C16.4567 26.9721 16.3675 27.0425 16.2671 27.0935L16.7205 27.9848ZM17.2902 27.536L23.8432 19.8693L23.083 19.2196L16.53 26.8863L17.2902 27.536ZM23.8432 19.8693C24.163 19.495 24.3211 19.009 24.2826 18.5183L23.2857 18.5964C23.3034 18.8228 23.2305 19.047 23.083 19.2196L23.8432 19.8693ZM24.2826 18.5183C24.2441 18.0275 24.0123 17.5721 23.6381 17.2523L22.9883 18.0124C23.161 18.16 23.2679 18.37 23.2857 18.5964L24.2826 18.5183Z" fill="#82A2FF" fill-opacity="0.6" mask="url(#path-8-outside-1)"/>
</svg>
