<svg width="80" height="80" viewBox="0 0 80 80" fill="none" xmlns="http://www.w3.org/2000/svg">
<g clip-path="url(#clip0_147_826)">
<rect y="9.67432" width="80" height="61.0233" rx="3.96899" fill="#F6EA81" fill-opacity="0.4"/>
<path d="M77.5814 0C78.9172 0 80 1.08285 80 2.4186V2.4186C80 3.75436 78.9172 4.83721 77.5814 4.83721L2.4186 4.83721C1.08285 4.83721 0 3.75436 0 2.4186V2.4186C0 1.08285 1.08285 0 2.4186 0L77.5814 0Z" fill="#F6EA81"/>
<path d="M16.1861 14.5117C17.5219 14.5117 18.6047 15.5946 18.6047 16.9303V16.9303C18.6047 18.2661 17.5219 19.3489 16.1861 19.3489H7.2559C5.92014 19.3489 4.83729 18.2661 4.83729 16.9303V16.9303C4.83729 15.5946 5.92014 14.5117 7.2559 14.5117L16.1861 14.5117Z" fill="#F6EA81" fill-opacity="0.7"/>
<path d="M77.5814 75.1628C78.9172 75.1628 80 76.2457 80 77.5814V77.5814C80 78.9172 78.9172 80.0001 77.5814 80.0001L2.4186 80.0001C1.08285 80.0001 0 78.9172 0 77.5814V77.5814C0 76.2457 1.08285 75.1628 2.4186 75.1628L77.5814 75.1628Z" fill="#F6EA81"/>
</g>
</svg>