<svg width="200" height="200" viewBox="0 0 200 200" fill="none" xmlns="http://www.w3.org/2000/svg">
<rect width="200" height="200" rx="10" fill="#C6E6EA" fill-opacity="0.2"/>
<circle cx="101" cy="59" r="16" fill="#8CCDD5"/>
<rect x="111" y="96" width="32" height="32" rx="4" fill="#C6E6EA"/>
<circle cx="73" cy="112" r="16" fill="#C6E6EA"/>
<path d="M71 112C71 113.105 71.8954 114 73 114C74.1046 114 75 113.105 75 112H71ZM73 88.781V86.781C71.8954 86.781 71 87.6764 71 88.781H73ZM127 88.781H129C129 87.6764 128.105 86.781 127 86.781V88.781ZM125 112C125 113.105 125.895 114 127 114C128.105 114 129 113.105 129 112H125ZM98.4576 88.2762C98.4576 89.3808 99.3531 90.2762 100.458 90.2762C101.562 90.2762 102.458 89.3808 102.458 88.2762H98.4576ZM102.458 59C102.458 57.8954 101.562 57 100.458 57C99.3531 57 98.4576 57.8954 98.4576 59H102.458ZM75 112V88.781H71V112H75ZM73 90.781H127V86.781H73V90.781ZM125 88.781V112H129V88.781H125ZM102.458 88.2762V59H98.4576V88.2762H102.458Z" fill="#6FA6AD" fill-opacity="0.5"/>
<path d="M71.5977 175.484L73.7852 164.781H76.2363L72.9551 179H70.5918L67.8867 168.619L65.123 179H62.75L59.4688 164.781H61.9199L64.127 175.465L66.8418 164.781H68.9121L71.5977 175.484ZM77.0566 173.619C77.0566 172.584 77.2617 171.653 77.6719 170.826C78.082 169.993 78.6582 169.355 79.4004 168.912C80.1426 168.463 80.9954 168.238 81.959 168.238C83.3848 168.238 84.5404 168.697 85.4258 169.615C86.3177 170.533 86.7995 171.751 86.8711 173.268L86.8809 173.824C86.8809 174.866 86.679 175.797 86.2754 176.617C85.8783 177.438 85.3053 178.072 84.5566 178.521C83.8145 178.971 82.9551 179.195 81.9785 179.195C80.4876 179.195 79.293 178.701 78.3945 177.711C77.5026 176.715 77.0566 175.39 77.0566 173.736V173.619ZM79.4297 173.824C79.4297 174.911 79.6543 175.764 80.1035 176.383C80.5527 176.995 81.1777 177.301 81.9785 177.301C82.7793 177.301 83.401 176.988 83.8438 176.363C84.293 175.738 84.5176 174.824 84.5176 173.619C84.5176 172.551 84.2865 171.705 83.8242 171.08C83.3685 170.455 82.7467 170.143 81.959 170.143C81.1842 170.143 80.569 170.452 80.1133 171.07C79.6576 171.682 79.4297 172.6 79.4297 173.824ZM94.4199 170.602C94.1074 170.549 93.7852 170.523 93.4531 170.523C92.3659 170.523 91.6335 170.94 91.2559 171.773V179H88.8828V168.434H91.1484L91.207 169.615C91.7799 168.697 92.5742 168.238 93.5898 168.238C93.9284 168.238 94.2083 168.284 94.4297 168.375L94.4199 170.602ZM99.3516 174.469L98.2969 175.553V179H95.9238V164H98.2969V172.652L99.0391 171.725L101.959 168.434H104.811L100.885 172.838L105.23 179H102.486L99.3516 174.469ZM113.209 165.885C112.545 165.794 111.972 165.748 111.49 165.748C110.214 165.748 109.576 166.347 109.576 167.545V168.434H111.725V170.191H109.576V179H107.203V170.191H105.592V168.434H107.203V167.486C107.21 166.295 107.561 165.383 108.258 164.752C108.961 164.114 109.951 163.795 111.227 163.795C112.021 163.795 113.473 163.951 115.582 164.264V179H113.209V165.885ZM117.76 173.619C117.76 172.584 117.965 171.653 118.375 170.826C118.785 169.993 119.361 169.355 120.104 168.912C120.846 168.463 121.699 168.238 122.662 168.238C124.088 168.238 125.243 168.697 126.129 169.615C127.021 170.533 127.503 171.751 127.574 173.268L127.584 173.824C127.584 174.866 127.382 175.797 126.979 176.617C126.581 177.438 126.008 178.072 125.26 178.521C124.518 178.971 123.658 179.195 122.682 179.195C121.191 179.195 119.996 178.701 119.098 177.711C118.206 176.715 117.76 175.39 117.76 173.736V173.619ZM120.133 173.824C120.133 174.911 120.357 175.764 120.807 176.383C121.256 176.995 121.881 177.301 122.682 177.301C123.482 177.301 124.104 176.988 124.547 176.363C124.996 175.738 125.221 174.824 125.221 173.619C125.221 172.551 124.99 171.705 124.527 171.08C124.072 170.455 123.45 170.143 122.662 170.143C121.887 170.143 121.272 170.452 120.816 171.07C120.361 171.682 120.133 172.6 120.133 173.824ZM138.873 175.729L140.553 168.434H142.867L139.986 179H138.033L135.768 171.744L133.541 179H131.588L128.697 168.434H131.012L132.721 175.65L134.889 168.434H136.676L138.873 175.729Z" fill="#6E7478"/>
</svg>
