<?xml version="1.0" encoding="UTF-8"?>
<svg fill="none" viewBox="0 0 204 204" xmlns="http://www.w3.org/2000/svg">
<!-- <g filter="url(#a)">
<path d="m4 8c0-4.4183 3.5817-8 8-8h180c4.418 0 8 3.5817 8 8v180c0 4.418-3.582 8-8 8h-180c-4.4183 0-8-3.582-8-8v-180z" fill="#fff"/>
<path d="m4.25 8c0-4.2802 3.4698-7.75 7.75-7.75h180c4.28 0 7.75 3.4698 7.75 7.75v180c0 4.28-3.47 7.75-7.75 7.75h-180c-4.2802 0-7.75-3.47-7.75-7.75v-180z" stroke="#B8C0C4" stroke-width=".5"/>
</g> -->
<path d="m75.272 42 3.4022-12.652h-2.7289l-2.0732 8.7183h-0.0354l-2.1619-8.7183h-2.6048l-2.1973 8.6119h-0.0354l-2.0024-8.6119h-2.782l3.349 12.652h2.8175l2.1087-8.6119h0.0354l2.1442 8.6119h2.7643zm5.6473-4.5718c0-0.3662 0.0354-0.7265 0.1063-1.0809s0.189-0.6674 0.3544-0.9391c0.1772-0.2717 0.4075-0.4903 0.6911-0.6557 0.2835-0.1772 0.6379-0.2658 1.0632-0.2658 0.4252 0 0.7796 0.0886 1.0632 0.2658 0.2953 0.1654 0.5257 0.384 0.691 0.6557 0.1772 0.2717 0.3013 0.5847 0.3722 0.9391 0.0708 0.3544 0.1063 0.7147 0.1063 1.0809 0 0.3663-0.0355 0.7266-0.1063 1.081-0.0709 0.3425-0.195 0.6556-0.3722 0.9391-0.1653 0.2717-0.3957 0.4903-0.691 0.6557-0.2836 0.1653-0.638 0.248-1.0632 0.248-0.4253 0-0.7797-0.0827-1.0632-0.248-0.2836-0.1654-0.5139-0.384-0.6911-0.6557-0.1654-0.2835-0.2835-0.5966-0.3544-0.9391-0.0709-0.3544-0.1063-0.7147-0.1063-1.081zm-2.5163 0c0 0.7325 0.1122 1.394 0.3367 1.9847 0.2245 0.5906 0.5434 1.0986 0.9569 1.5239 0.4134 0.4135 0.9096 0.7324 1.4885 0.9569 0.5788 0.2244 1.2285 0.3367 1.9492 0.3367 0.7206 0 1.3703-0.1123 1.9492-0.3367 0.5906-0.2245 1.0927-0.5434 1.5062-0.9569 0.4134-0.4253 0.7324-0.9333 0.9568-1.5239 0.2245-0.5907 0.3367-1.2522 0.3367-1.9847 0-0.7324-0.1122-1.3939-0.3367-1.9846-0.2244-0.6025-0.5434-1.1105-0.9568-1.5239-0.4135-0.4253-0.9156-0.7502-1.5062-0.9746-0.5789-0.2363-1.2286-0.3544-1.9492-0.3544-0.7207 0-1.3704 0.1181-1.9492 0.3544-0.5789 0.2244-1.0751 0.5493-1.4885 0.9746-0.4135 0.4134-0.7324 0.9214-0.9569 1.5239-0.2245 0.5907-0.3367 1.2522-0.3367 1.9846zm11.116-4.5894v9.1612h2.5162v-4.1288c0-0.4134 0.0414-0.7974 0.1241-1.1518 0.0826-0.3544 0.2185-0.6615 0.4075-0.9214 0.2008-0.2717 0.4607-0.4843 0.7797-0.6379s0.7088-0.2304 1.1695-0.2304c0.1536 0 0.3131 0.0118 0.4785 0.0355 0.1653 0.0118 0.3071 0.0295 0.4252 0.0531v-2.339c-0.2008-0.0591-0.3839-0.0886-0.5493-0.0886-0.3189 0-0.6261 0.0472-0.9214 0.1417-0.2954 0.0945-0.573 0.2304-0.8329 0.4076-0.2599 0.1654-0.4902 0.3721-0.691 0.6202-0.2009 0.2363-0.3604 0.4962-0.4785 0.7797h-0.0354v-1.7011h-2.3922zm7.1176-3.4909v12.652h2.5162v-3.1542l0.9746-0.9391 2.516 4.0933h3.048l-3.845-5.7944 3.455-3.3668h-2.977l-3.1716 3.2959v-6.7868h-2.5162zm10.494 5.1743v7.4778h2.517v-7.4778h1.736v-1.6834h-1.736v-0.5494c0-0.378 0.07-0.6438 0.212-0.7974 0.154-0.1653 0.402-0.248 0.744-0.248 0.319 0 0.627 0.0177 0.922 0.0531v-1.8783c-0.213-0.0118-0.431-0.0236-0.656-0.0354-0.224-0.0237-0.449-0.0355-0.673-0.0355-1.028 0-1.796 0.2599-2.304 0.7797s-0.762 1.1872-0.762 2.0024v0.7088h-1.506v1.6834h1.506zm5.777-5.1743v12.652h2.516v-12.652h-2.516zm6.739 8.0803c0-0.3662 0.036-0.7265 0.107-1.0809s0.189-0.6674 0.354-0.9391c0.177-0.2717 0.408-0.4903 0.691-0.6557 0.284-0.1772 0.638-0.2658 1.063-0.2658 0.426 0 0.78 0.0886 1.064 0.2658 0.295 0.1654 0.525 0.384 0.691 0.6557 0.177 0.2717 0.301 0.5847 0.372 0.9391s0.106 0.7147 0.106 1.0809c0 0.3663-0.035 0.7266-0.106 1.081-0.071 0.3425-0.195 0.6556-0.372 0.9391-0.166 0.2717-0.396 0.4903-0.691 0.6557-0.284 0.1653-0.638 0.248-1.064 0.248-0.425 0-0.779-0.0827-1.063-0.248-0.283-0.1654-0.514-0.384-0.691-0.6557-0.165-0.2835-0.283-0.5966-0.354-0.9391-0.071-0.3544-0.107-0.7147-0.107-1.081zm-2.516 0c0 0.7325 0.112 1.394 0.337 1.9847 0.224 0.5906 0.543 1.0986 0.957 1.5239 0.413 0.4135 0.909 0.7324 1.488 0.9569 0.579 0.2244 1.229 0.3367 1.949 0.3367 0.721 0 1.371-0.1123 1.95-0.3367 0.59-0.2245 1.092-0.5434 1.506-0.9569 0.413-0.4253 0.732-0.9333 0.957-1.5239 0.224-0.5907 0.336-1.2522 0.336-1.9847 0-0.7324-0.112-1.3939-0.336-1.9846-0.225-0.6025-0.544-1.1105-0.957-1.5239-0.414-0.4253-0.916-0.7502-1.506-0.9746-0.579-0.2363-1.229-0.3544-1.95-0.3544-0.72 0-1.37 0.1181-1.949 0.3544-0.579 0.2244-1.075 0.5493-1.488 0.9746-0.414 0.4134-0.733 0.9214-0.957 1.5239-0.225 0.5907-0.337 1.2522-0.337 1.9846zm21.589 4.5718 2.888-9.1612h-2.587l-1.683 6.202h-0.036l-1.559-6.202h-2.445l-1.524 6.2197h-0.036l-1.683-6.2197h-2.658l2.906 9.1612h2.605l1.559-6.1488h0.036l1.63 6.1488h2.587z" fill="#008DC9"/>
<path d="m101.75 91.339c-3.3465 0-6.6177-0.9923-9.4001-2.8514-2.7824-1.8592-4.951-4.5016-6.2316-7.5933-1.2806-3.0916-1.6157-6.4936-0.9629-9.7757 0.6529-3.282 2.2643-6.2968 4.6306-8.6631 2.3662-2.3662 5.381-3.9776 8.663-4.6305 3.282-0.6528 6.684-0.3178 9.776 0.9628 3.091 1.2806 5.734 3.4493 7.593 6.2317s2.851 6.0536 2.851 9.4c-4e-3 4.486-1.788 8.7872-4.96 11.959s-7.473 4.9561-11.959 4.9602zm0-31.478c-2.8795 0-5.6943 0.8538-8.0885 2.4536-2.3941 1.5997-4.2602 3.8734-5.3621 6.5337s-1.3902 5.5875-0.8285 8.4116c0.5618 2.8241 1.9484 5.4183 3.9844 7.4543 2.0361 2.0361 4.6302 3.4227 7.4543 3.9844 2.8244 0.5618 5.7514 0.2735 8.4114-0.8284 2.661-1.102 4.934-2.968 6.534-5.3621 1.6-2.3942 2.454-5.209 2.454-8.0884-5e-3 -3.86-1.54-7.5606-4.269-10.29-2.73-2.7294-6.43-4.2646-10.29-4.2687z" fill="#008DC9"/>
<path d="m73.42 148c-3.3464 0-6.6176-0.992-9.4-2.851-2.7824-1.86-4.9511-4.502-6.2317-7.594-1.2806-3.091-1.6156-6.493-0.9628-9.775 0.6529-3.282 2.2643-6.297 4.6305-8.664 2.3663-2.366 5.3811-3.977 8.6631-4.63 3.2821-0.653 6.6841-0.318 9.7757 0.963 3.0917 1.28 5.7341 3.449 7.5933 6.231 1.8591 2.783 2.8514 6.054 2.8514 9.4-0.0041 4.487-1.7881 8.788-4.9602 11.96s-7.4733 4.956-11.959 4.96zm0-31.478c-2.8795 0-5.6942 0.854-8.0884 2.453-2.3942 1.6-4.2602 3.874-5.3621 6.534s-1.3902 5.588-0.8285 8.412c0.5618 2.824 1.9483 5.418 3.9844 7.454s4.6302 3.423 7.4543 3.984c2.8241 0.562 5.7514 0.274 8.4116-0.828 2.6603-1.102 4.9341-2.968 6.5338-5.362s2.4536-5.209 2.4536-8.089c-0.0042-3.859-1.5394-7.56-4.2688-10.29-2.7294-2.729-6.43-4.264-10.29-4.268z" fill="#008DC9"/>
<path d="m73.419 116.52c-0.3118-4e-3 -0.6096-0.13-0.8301-0.351-0.2205-0.22-0.3462-0.518-0.3503-0.83v-12.591c0.0041-0.312 0.1298-0.61 0.3503-0.83 0.2205-0.221 0.5183-0.346 0.8301-0.35h25.183c0.313 0 0.6133 0.124 0.8347 0.345 0.2213 0.222 0.3457 0.522 0.3457 0.835s-0.1244 0.613-0.3457 0.835c-0.2214 0.221-0.5217 0.345-0.8347 0.345h-24.002v11.411c-0.0041 0.312-0.1298 0.61-0.3503 0.83-0.2205 0.221-0.5183 0.347-0.8302 0.351z" fill="#008DC9"/>
<path d="m130.08 119.67c-0.311-5e-3 -0.609-0.13-0.83-0.351-0.22-0.22-0.346-0.518-0.35-0.83v-14.559h-24.002c-0.313 0-0.614-0.124-0.835-0.345-0.221-0.222-0.346-0.522-0.346-0.835s0.125-0.613 0.346-0.835c0.221-0.221 0.522-0.345 0.835-0.345h25.182c0.312 4e-3 0.61 0.129 0.831 0.35 0.22 0.22 0.346 0.518 0.35 0.83v15.739c-4e-3 0.312-0.13 0.61-0.35 0.83-0.221 0.221-0.519 0.346-0.831 0.351z" fill="#008DC9"/>
<path d="m101.75 100.78c-0.312-4e-3 -0.61-0.13-0.83-0.351-0.221-0.22-0.346-0.518-0.35-0.8298v-9.4435c0-0.3131 0.124-0.6133 0.345-0.8347 0.222-0.2214 0.522-0.3457 0.835-0.3457s0.613 0.1243 0.835 0.3457c0.221 0.2214 0.345 0.5216 0.345 0.8347v9.4435c-4e-3 0.3118-0.129 0.6098-0.35 0.8298-0.22 0.221-0.518 0.347-0.83 0.351z" fill="#008DC9"/>
<path d="m101.75 107.08c-0.856 0-1.693-0.254-2.4048-0.729-0.7117-0.476-1.2665-1.152-1.5941-1.943s-0.4133-1.661-0.2463-2.5c0.167-0.84 0.5792-1.611 1.1845-2.2165 0.6054-0.6054 1.3767-1.0176 2.2157-1.1846 0.84-0.167 1.71-0.0813 2.501 0.2463s1.467 0.8824 1.943 1.5938c0.475 0.712 0.729 1.549 0.729 2.405 0 1.148-0.456 2.249-1.268 3.061-0.811 0.811-1.912 1.267-3.06 1.267zm0-6.295c-0.389 0-0.77 0.115-1.093 0.331-0.324 0.216-0.576 0.524-0.7247 0.883-0.1489 0.36-0.1879 0.755-0.112 1.137 0.0759 0.381 0.2637 0.732 0.5387 1.007s0.625 0.463 1.007 0.539 0.777 0.037 1.137-0.112c0.359-0.149 0.667-0.401 0.883-0.725s0.331-0.704 0.331-1.093c0-0.522-0.207-1.022-0.576-1.391s-0.869-0.576-1.391-0.576z" fill="#008DC9"/>
<rect x="113.75" y="120.19" width="28.5" height="26.562" rx="4.5625" stroke="#008DC9" stroke-width="2.5"/>
<path d="m122.19 129.59 5.812 9.687 10.656-22.281" stroke="#008DC9" stroke-linecap="round" stroke-linejoin="round" stroke-width="2.5"/>
<defs>
<filter id="a" x="0" y="0" width="204" height="204" color-interpolation-filters="sRGB" filterUnits="userSpaceOnUse">
<feFlood flood-opacity="0" result="BackgroundImageFix"/>
<feColorMatrix in="SourceAlpha" values="0 0 0 0 0 0 0 0 0 0 0 0 0 0 0 0 0 0 127 0"/>
<feOffset dy="4"/>
<feGaussianBlur stdDeviation="2"/>
<feColorMatrix values="0 0 0 0 0 0 0 0 0 0 0 0 0 0 0 0 0 0 0.25 0"/>
<feBlend in2="BackgroundImageFix" result="effect1_dropShadow"/>
<feBlend in="SourceGraphic" in2="effect1_dropShadow" result="shape"/>
</filter>
</defs>
</svg>
