<?xml version="1.0" encoding="UTF-8" standalone="no"?>
<!DOCTYPE svg PUBLIC "-//W3C//DTD SVG 1.1//EN"
 "http://www.w3.org/Graphics/SVG/1.1/DTD/svg11.dtd">
<!-- Generated by graphviz version 2.47.0 (20210316.0004)
 -->
<!-- Title: dependencies Pages: 1 -->
<svg width="504pt" height="284pt"
 viewBox="0.00 0.00 504.00 284.00" xmlns="http://www.w3.org/2000/svg" xmlns:xlink="http://www.w3.org/1999/xlink">
<g id="graph0" class="graph" transform="scale(1 1) rotate(0) translate(4 280)">
<title>dependencies</title>
<polygon fill="white" stroke="transparent" points="-4,4 -4,-280 500,-280 500,4 -4,4"/>
<text text-anchor="start" x="227.01" y="-42.4" font-family="sans-serif" font-weight="bold" font-size="14.00">Legend</text>
<polygon fill="#ffffb3" stroke="transparent" points="14,-10 14,-30 34,-30 34,-10 14,-10"/>
<text text-anchor="start" x="37.63" y="-15.4" font-family="sans-serif" font-size="14.00"> &#160;Declarations</text>
<polygon fill="#8dd3c7" stroke="transparent" points="127,-10 127,-30 147,-30 147,-10 127,-10"/>
<text text-anchor="start" x="150.73" y="-15.4" font-family="sans-serif" font-size="14.00"> &#160;Module</text>
<polygon fill="#80b1d3" stroke="transparent" points="213,-10 213,-30 233,-30 233,-10 213,-10"/>
<text text-anchor="start" x="236.78" y="-15.4" font-family="sans-serif" font-size="14.00"> &#160;Bootstrap</text>
<polygon fill="#fdb462" stroke="transparent" points="310,-10 310,-30 330,-30 330,-10 310,-10"/>
<text text-anchor="start" x="333.67" y="-15.4" font-family="sans-serif" font-size="14.00"> &#160;Providers</text>
<polygon fill="#fb8072" stroke="transparent" points="406,-10 406,-30 426,-30 426,-10 406,-10"/>
<text text-anchor="start" x="429.73" y="-15.4" font-family="sans-serif" font-size="14.00"> &#160;Exports</text>
<g id="clust1" class="cluster">
<title>cluster_ResourceModule</title>
<polygon fill="none" stroke="black" stroke-dasharray="1,5" points="75,-70 75,-268 421,-268 421,-70 75,-70"/>
</g>
<g id="clust5" class="cluster">
<title>cluster_ResourceModule_exports</title>
<polygon fill="none" stroke="black" points="167,-208 167,-260 319,-260 319,-208 167,-208"/>
</g>
<g id="clust4" class="cluster">
<title>cluster_ResourceModule_imports</title>
<polygon fill="none" stroke="black" points="241,-78 241,-130 413,-130 413,-78 241,-78"/>
</g>
<g id="clust2" class="cluster">
<title>cluster_ResourceModule_declarations</title>
<polygon fill="none" stroke="black" points="83,-78 83,-130 233,-130 233,-78 83,-78"/>
</g>
<!-- ResourceComponent -->
<g id="node1" class="node">
<title>ResourceComponent</title>
<polygon fill="#ffffb3" stroke="black" points="224.92,-122 91.08,-122 91.08,-86 224.92,-86 224.92,-122"/>
<text text-anchor="middle" x="158" y="-99.8" font-family="Times,serif" font-size="14.00">ResourceComponent</text>
</g>
<!-- ResourceModule -->
<g id="node2" class="node">
<title>ResourceModule</title>
<polygon fill="#8dd3c7" stroke="black" points="298.64,-187 295.64,-191 274.64,-191 271.64,-187 187.36,-187 187.36,-151 298.64,-151 298.64,-187"/>
<text text-anchor="middle" x="243" y="-164.8" font-family="Times,serif" font-size="14.00">ResourceModule</text>
</g>
<!-- ResourceComponent&#45;&gt;ResourceModule -->
<g id="edge1" class="edge">
<title>ResourceComponent&#45;&gt;ResourceModule</title>
<path fill="none" stroke="black" d="M205.95,-122.11C205.95,-122.11 205.95,-140.99 205.95,-140.99"/>
<polygon fill="black" stroke="black" points="202.45,-140.99 205.95,-150.99 209.45,-140.99 202.45,-140.99"/>
</g>
<!-- ResourceComponent  -->
<g id="node4" class="node">
<title>ResourceComponent </title>
<polygon fill="#fb8072" stroke="black" points="311.42,-252 174.58,-252 174.58,-216 311.42,-216 311.42,-252"/>
<text text-anchor="middle" x="243" y="-229.8" font-family="Times,serif" font-size="14.00">ResourceComponent </text>
</g>
<!-- ResourceModule&#45;&gt;ResourceComponent  -->
<g id="edge3" class="edge">
<title>ResourceModule&#45;&gt;ResourceComponent </title>
<path fill="none" stroke="black" stroke-dasharray="5,2" d="M243,-187.11C243,-187.11 243,-205.99 243,-205.99"/>
<polygon fill="black" stroke="black" points="239.5,-205.99 243,-215.99 246.5,-205.99 239.5,-205.99"/>
</g>
<!-- ResourceRoutingModule -->
<g id="node3" class="node">
<title>ResourceRoutingModule</title>
<polygon fill="#8dd3c7" stroke="black" points="405.25,-122 402.25,-126 381.25,-126 378.25,-122 248.75,-122 248.75,-86 405.25,-86 405.25,-122"/>
<text text-anchor="middle" x="327" y="-99.8" font-family="Times,serif" font-size="14.00">ResourceRoutingModule</text>
</g>
<!-- ResourceRoutingModule&#45;&gt;ResourceModule -->
<g id="edge2" class="edge">
<title>ResourceRoutingModule&#45;&gt;ResourceModule</title>
<path fill="none" stroke="black" d="M273.72,-122.11C273.72,-122.11 273.72,-140.99 273.72,-140.99"/>
<polygon fill="black" stroke="black" points="270.22,-140.99 273.72,-150.99 277.22,-140.99 270.22,-140.99"/>
</g>
</g>
</svg>
