<?xml version="1.0" encoding="UTF-8" standalone="no"?>
<!DOCTYPE svg PUBLIC "-//W3C//DTD SVG 1.1//EN"
 "http://www.w3.org/Graphics/SVG/1.1/DTD/svg11.dtd">
<!-- Generated by graphviz version 2.47.0 (20210316.0004)
 -->
<!-- Title: dependencies Pages: 1 -->
<svg width="504pt" height="284pt"
 viewBox="0.00 0.00 504.00 284.00" xmlns="http://www.w3.org/2000/svg" xmlns:xlink="http://www.w3.org/1999/xlink">
<g id="graph0" class="graph" transform="scale(1 1) rotate(0) translate(4 280)">
<title>dependencies</title>
<polygon fill="white" stroke="transparent" points="-4,4 -4,-280 500,-280 500,4 -4,4"/>
<text text-anchor="start" x="227.01" y="-42.4" font-family="sans-serif" font-weight="bold" font-size="14.00">Legend</text>
<polygon fill="#ffffb3" stroke="transparent" points="14,-10 14,-30 34,-30 34,-10 14,-10"/>
<text text-anchor="start" x="37.63" y="-15.4" font-family="sans-serif" font-size="14.00"> &#160;Declarations</text>
<polygon fill="#8dd3c7" stroke="transparent" points="127,-10 127,-30 147,-30 147,-10 127,-10"/>
<text text-anchor="start" x="150.73" y="-15.4" font-family="sans-serif" font-size="14.00"> &#160;Module</text>
<polygon fill="#80b1d3" stroke="transparent" points="213,-10 213,-30 233,-30 233,-10 213,-10"/>
<text text-anchor="start" x="236.78" y="-15.4" font-family="sans-serif" font-size="14.00"> &#160;Bootstrap</text>
<polygon fill="#fdb462" stroke="transparent" points="310,-10 310,-30 330,-30 330,-10 310,-10"/>
<text text-anchor="start" x="333.67" y="-15.4" font-family="sans-serif" font-size="14.00"> &#160;Providers</text>
<polygon fill="#fb8072" stroke="transparent" points="406,-10 406,-30 426,-30 426,-10 406,-10"/>
<text text-anchor="start" x="429.73" y="-15.4" font-family="sans-serif" font-size="14.00"> &#160;Exports</text>
<g id="clust1" class="cluster">
<title>cluster_ResourceModule</title>
<polygon fill="none" stroke="black" stroke-dasharray="1,5" points="75,-70 75,-268 421,-268 421,-70 75,-70"/>
</g>
<g id="clust5" class="cluster">
<title>cluster_ResourceModule_exports</title>
<polygon fill="none" stroke="black" points="177,-208 177,-260 329,-260 329,-208 177,-208"/>
</g>
<g id="clust2" class="cluster">
<title>cluster_ResourceModule_declarations</title>
<polygon fill="none" stroke="black" points="263,-78 263,-130 413,-130 413,-78 263,-78"/>
</g>
<g id="clust4" class="cluster">
<title>cluster_ResourceModule_imports</title>
<polygon fill="none" stroke="black" points="83,-78 83,-130 255,-130 255,-78 83,-78"/>
</g>
<!-- ResourceComponent -->
<g id="node1" class="node">
<title>ResourceComponent</title>
<polygon fill="#ffffb3" stroke="black" points="404.92,-122 271.08,-122 271.08,-86 404.92,-86 404.92,-122"/>
<text text-anchor="middle" x="338" y="-99.8" font-family="Times,serif" font-size="14.00">ResourceComponent</text>
</g>
<!-- ResourceModule -->
<g id="node2" class="node">
<title>ResourceModule</title>
<polygon fill="#8dd3c7" stroke="black" points="308.64,-187 305.64,-191 284.64,-191 281.64,-187 197.36,-187 197.36,-151 308.64,-151 308.64,-187"/>
<text text-anchor="middle" x="253" y="-164.8" font-family="Times,serif" font-size="14.00">ResourceModule</text>
</g>
<!-- ResourceComponent&#45;&gt;ResourceModule -->
<g id="edge1" class="edge">
<title>ResourceComponent&#45;&gt;ResourceModule</title>
<path fill="none" stroke="black" d="M290.05,-122.11C290.05,-122.11 290.05,-140.99 290.05,-140.99"/>
<polygon fill="black" stroke="black" points="286.55,-140.99 290.05,-150.99 293.55,-140.99 286.55,-140.99"/>
</g>
<!-- ResourceComponent  -->
<g id="node4" class="node">
<title>ResourceComponent </title>
<polygon fill="#fb8072" stroke="black" points="321.42,-252 184.58,-252 184.58,-216 321.42,-216 321.42,-252"/>
<text text-anchor="middle" x="253" y="-229.8" font-family="Times,serif" font-size="14.00">ResourceComponent </text>
</g>
<!-- ResourceModule&#45;&gt;ResourceComponent  -->
<g id="edge3" class="edge">
<title>ResourceModule&#45;&gt;ResourceComponent </title>
<path fill="none" stroke="black" stroke-dasharray="5,2" d="M253,-187.11C253,-187.11 253,-205.99 253,-205.99"/>
<polygon fill="black" stroke="black" points="249.5,-205.99 253,-215.99 256.5,-205.99 249.5,-205.99"/>
</g>
<!-- ResourceRoutingModule -->
<g id="node3" class="node">
<title>ResourceRoutingModule</title>
<polygon fill="#8dd3c7" stroke="black" points="247.25,-122 244.25,-126 223.25,-126 220.25,-122 90.75,-122 90.75,-86 247.25,-86 247.25,-122"/>
<text text-anchor="middle" x="169" y="-99.8" font-family="Times,serif" font-size="14.00">ResourceRoutingModule</text>
</g>
<!-- ResourceRoutingModule&#45;&gt;ResourceModule -->
<g id="edge2" class="edge">
<title>ResourceRoutingModule&#45;&gt;ResourceModule</title>
<path fill="none" stroke="black" d="M222.28,-122.11C222.28,-122.11 222.28,-140.99 222.28,-140.99"/>
<polygon fill="black" stroke="black" points="218.78,-140.99 222.28,-150.99 225.78,-140.99 218.78,-140.99"/>
</g>
</g>
</svg>
