<?xml version="1.0" encoding="UTF-8" standalone="no"?>
<!DOCTYPE svg PUBLIC "-//W3C//DTD SVG 1.1//EN"
 "http://www.w3.org/Graphics/SVG/1.1/DTD/svg11.dtd">
<!-- Generated by graphviz version 2.47.0 (20210316.0004)
 -->
<!-- Title: dependencies Pages: 1 -->
<svg width="2478pt" height="284pt"
 viewBox="0.00 0.00 2478.00 284.00" xmlns="http://www.w3.org/2000/svg" xmlns:xlink="http://www.w3.org/1999/xlink">
<g id="graph0" class="graph" transform="scale(1 1) rotate(0) translate(4 280)">
<title>dependencies</title>
<polygon fill="white" stroke="transparent" points="-4,4 -4,-280 2474,-280 2474,4 -4,4"/>
<text text-anchor="start" x="1214.01" y="-42.4" font-family="sans-serif" font-weight="bold" font-size="14.00">Legend</text>
<polygon fill="#ffffb3" stroke="transparent" points="1001,-10 1001,-30 1021,-30 1021,-10 1001,-10"/>
<text text-anchor="start" x="1024.63" y="-15.4" font-family="sans-serif" font-size="14.00"> &#160;Declarations</text>
<polygon fill="#8dd3c7" stroke="transparent" points="1114,-10 1114,-30 1134,-30 1134,-10 1114,-10"/>
<text text-anchor="start" x="1137.73" y="-15.4" font-family="sans-serif" font-size="14.00"> &#160;Module</text>
<polygon fill="#80b1d3" stroke="transparent" points="1200,-10 1200,-30 1220,-30 1220,-10 1200,-10"/>
<text text-anchor="start" x="1223.78" y="-15.4" font-family="sans-serif" font-size="14.00"> &#160;Bootstrap</text>
<polygon fill="#fdb462" stroke="transparent" points="1297,-10 1297,-30 1317,-30 1317,-10 1297,-10"/>
<text text-anchor="start" x="1320.67" y="-15.4" font-family="sans-serif" font-size="14.00"> &#160;Providers</text>
<polygon fill="#fb8072" stroke="transparent" points="1393,-10 1393,-30 1413,-30 1413,-10 1393,-10"/>
<text text-anchor="start" x="1416.73" y="-15.4" font-family="sans-serif" font-size="14.00"> &#160;Exports</text>
<g id="clust1" class="cluster">
<title>cluster_AppModule</title>
<polygon fill="none" stroke="black" stroke-dasharray="1,5" points="8,-70 8,-268 298,-268 298,-70 8,-70"/>
</g>
<g id="clust2" class="cluster">
<title>cluster_AppModule_declarations</title>
<polygon fill="none" stroke="black" points="168,-78 168,-130 290,-130 290,-78 168,-78"/>
</g>
<g id="clust4" class="cluster">
<title>cluster_AppModule_imports</title>
<polygon fill="none" stroke="black" points="16,-78 16,-130 160,-130 160,-78 16,-78"/>
</g>
<g id="clust6" class="cluster">
<title>cluster_AppModule_bootstrap</title>
<polygon fill="none" stroke="black" points="96,-208 96,-260 220,-260 220,-208 96,-208"/>
</g>
<g id="clust14" class="cluster">
<title>cluster_AuthModule</title>
<polygon fill="none" stroke="black" stroke-dasharray="1,5" points="306,-70 306,-195 470,-195 470,-70 306,-70"/>
</g>
<g id="clust16" class="cluster">
<title>cluster_AuthModule_imports</title>
<polygon fill="none" stroke="black" points="314,-78 314,-130 462,-130 462,-78 314,-78"/>
</g>
<g id="clust26" class="cluster">
<title>cluster_DashboardModule</title>
<polygon fill="none" stroke="black" stroke-dasharray="1,5" points="478,-70 478,-195 842,-195 842,-70 478,-70"/>
</g>
<g id="clust27" class="cluster">
<title>cluster_DashboardModule_declarations</title>
<polygon fill="none" stroke="black" points="676,-78 676,-130 834,-130 834,-78 676,-78"/>
</g>
<g id="clust29" class="cluster">
<title>cluster_DashboardModule_imports</title>
<polygon fill="none" stroke="black" points="486,-78 486,-130 668,-130 668,-78 486,-78"/>
</g>
<g id="clust39" class="cluster">
<title>cluster_FormModule</title>
<polygon fill="none" stroke="black" stroke-dasharray="1,5" points="850,-70 850,-268 1154,-268 1154,-70 850,-70"/>
</g>
<g id="clust40" class="cluster">
<title>cluster_FormModule_declarations</title>
<polygon fill="none" stroke="black" points="1018,-78 1018,-130 1146,-130 1146,-78 1018,-78"/>
</g>
<g id="clust42" class="cluster">
<title>cluster_FormModule_imports</title>
<polygon fill="none" stroke="black" points="858,-78 858,-130 1010,-130 1010,-78 858,-78"/>
</g>
<g id="clust43" class="cluster">
<title>cluster_FormModule_exports</title>
<polygon fill="none" stroke="black" points="941,-208 941,-260 1073,-260 1073,-208 941,-208"/>
</g>
<g id="clust52" class="cluster">
<title>cluster_LoginModule</title>
<polygon fill="none" stroke="black" stroke-dasharray="1,5" points="1162,-70 1162,-268 1470,-268 1470,-70 1162,-70"/>
</g>
<g id="clust53" class="cluster">
<title>cluster_LoginModule_declarations</title>
<polygon fill="none" stroke="black" points="1332,-78 1332,-130 1462,-130 1462,-78 1332,-78"/>
</g>
<g id="clust55" class="cluster">
<title>cluster_LoginModule_imports</title>
<polygon fill="none" stroke="black" points="1170,-78 1170,-130 1324,-130 1324,-78 1170,-78"/>
</g>
<g id="clust56" class="cluster">
<title>cluster_LoginModule_exports</title>
<polygon fill="none" stroke="black" points="1254,-208 1254,-260 1388,-260 1388,-208 1254,-208"/>
</g>
<g id="clust65" class="cluster">
<title>cluster_RolesModule</title>
<polygon fill="none" stroke="black" stroke-dasharray="1,5" points="1478,-70 1478,-268 1784,-268 1784,-70 1478,-70"/>
</g>
<g id="clust66" class="cluster">
<title>cluster_RolesModule_declarations</title>
<polygon fill="none" stroke="black" points="1646,-78 1646,-130 1776,-130 1776,-78 1646,-78"/>
</g>
<g id="clust68" class="cluster">
<title>cluster_RolesModule_imports</title>
<polygon fill="none" stroke="black" points="1486,-78 1486,-130 1638,-130 1638,-78 1486,-78"/>
</g>
<g id="clust69" class="cluster">
<title>cluster_RolesModule_exports</title>
<polygon fill="none" stroke="black" points="1570,-208 1570,-260 1702,-260 1702,-208 1570,-208"/>
</g>
<g id="clust78" class="cluster">
<title>cluster_UsersModule</title>
<polygon fill="none" stroke="black" stroke-dasharray="1,5" points="1792,-70 1792,-268 2098,-268 2098,-70 1792,-70"/>
</g>
<g id="clust79" class="cluster">
<title>cluster_UsersModule_declarations</title>
<polygon fill="none" stroke="black" points="1960,-78 1960,-130 2090,-130 2090,-78 1960,-78"/>
</g>
<g id="clust81" class="cluster">
<title>cluster_UsersModule_imports</title>
<polygon fill="none" stroke="black" points="1800,-78 1800,-130 1952,-130 1952,-78 1800,-78"/>
</g>
<g id="clust82" class="cluster">
<title>cluster_UsersModule_exports</title>
<polygon fill="none" stroke="black" points="1884,-208 1884,-260 2016,-260 2016,-208 1884,-208"/>
</g>
<g id="clust91" class="cluster">
<title>cluster_WorkflowModule</title>
<polygon fill="none" stroke="black" stroke-dasharray="1,5" points="2106,-70 2106,-268 2462,-268 2462,-70 2106,-70"/>
</g>
<g id="clust92" class="cluster">
<title>cluster_WorkflowModule_declarations</title>
<polygon fill="none" stroke="black" points="2300,-78 2300,-130 2454,-130 2454,-78 2300,-78"/>
</g>
<g id="clust94" class="cluster">
<title>cluster_WorkflowModule_imports</title>
<polygon fill="none" stroke="black" points="2114,-78 2114,-130 2292,-130 2292,-78 2114,-78"/>
</g>
<g id="clust95" class="cluster">
<title>cluster_WorkflowModule_exports</title>
<polygon fill="none" stroke="black" points="2210,-208 2210,-260 2368,-260 2368,-208 2210,-208"/>
</g>
<!-- AppComponent -->
<g id="node1" class="node">
<title>AppComponent</title>
<polygon fill="#ffffb3" stroke="black" points="281.94,-122 176.06,-122 176.06,-86 281.94,-86 281.94,-122"/>
<text text-anchor="middle" x="229" y="-99.8" font-family="Times,serif" font-size="14.00">AppComponent</text>
</g>
<!-- AppModule -->
<g id="node2" class="node">
<title>AppModule</title>
<polygon fill="#8dd3c7" stroke="black" points="199.66,-187 196.66,-191 175.66,-191 172.66,-187 116.34,-187 116.34,-151 199.66,-151 199.66,-187"/>
<text text-anchor="middle" x="158" y="-164.8" font-family="Times,serif" font-size="14.00">AppModule</text>
</g>
<!-- AppComponent&#45;&gt;AppModule -->
<g id="edge1" class="edge">
<title>AppComponent&#45;&gt;AppModule</title>
<path fill="none" stroke="black" d="M188.05,-122.11C188.05,-122.11 188.05,-140.99 188.05,-140.99"/>
<polygon fill="black" stroke="black" points="184.55,-140.99 188.05,-150.99 191.55,-140.99 184.55,-140.99"/>
</g>
<!-- AppComponent  -->
<g id="node4" class="node">
<title>AppComponent </title>
<polygon fill="#80b1d3" stroke="black" points="212.44,-252 103.56,-252 103.56,-216 212.44,-216 212.44,-252"/>
<text text-anchor="middle" x="158" y="-229.8" font-family="Times,serif" font-size="14.00">AppComponent </text>
</g>
<!-- AppModule&#45;&gt;AppComponent  -->
<g id="edge3" class="edge">
<title>AppModule&#45;&gt;AppComponent </title>
<path fill="none" stroke="black" stroke-dasharray="1,5" d="M158,-187.11C158,-187.11 158,-205.99 158,-205.99"/>
<polygon fill="black" stroke="black" points="154.5,-205.99 158,-215.99 161.5,-205.99 154.5,-205.99"/>
</g>
<!-- AppRoutingModule -->
<g id="node3" class="node">
<title>AppRoutingModule</title>
<polygon fill="#8dd3c7" stroke="black" points="152.27,-122 149.27,-126 128.27,-126 125.27,-122 23.73,-122 23.73,-86 152.27,-86 152.27,-122"/>
<text text-anchor="middle" x="88" y="-99.8" font-family="Times,serif" font-size="14.00">AppRoutingModule</text>
</g>
<!-- AppRoutingModule&#45;&gt;AppModule -->
<g id="edge2" class="edge">
<title>AppRoutingModule&#45;&gt;AppModule</title>
<path fill="none" stroke="black" d="M134.28,-122.11C134.28,-122.11 134.28,-140.99 134.28,-140.99"/>
<polygon fill="black" stroke="black" points="130.78,-140.99 134.28,-150.99 137.78,-140.99 130.78,-140.99"/>
</g>
<!-- AuthRoutingModule -->
<g id="node5" class="node">
<title>AuthRoutingModule</title>
<polygon fill="#8dd3c7" stroke="black" points="454.17,-122 451.17,-126 430.17,-126 427.17,-122 321.83,-122 321.83,-86 454.17,-86 454.17,-122"/>
<text text-anchor="middle" x="388" y="-99.8" font-family="Times,serif" font-size="14.00">AuthRoutingModule</text>
</g>
<!-- AuthModule -->
<g id="node6" class="node">
<title>AuthModule</title>
<polygon fill="#8dd3c7" stroke="black" points="431.55,-187 428.55,-191 407.55,-191 404.55,-187 344.45,-187 344.45,-151 431.55,-151 431.55,-187"/>
<text text-anchor="middle" x="388" y="-164.8" font-family="Times,serif" font-size="14.00">AuthModule</text>
</g>
<!-- AuthRoutingModule&#45;&gt;AuthModule -->
<g id="edge4" class="edge">
<title>AuthRoutingModule&#45;&gt;AuthModule</title>
<path fill="none" stroke="black" d="M388,-122.11C388,-122.11 388,-140.99 388,-140.99"/>
<polygon fill="black" stroke="black" points="384.5,-140.99 388,-150.99 391.5,-140.99 384.5,-140.99"/>
</g>
<!-- DashboardComponent -->
<g id="node7" class="node">
<title>DashboardComponent</title>
<polygon fill="#ffffb3" stroke="black" points="825.97,-122 684.03,-122 684.03,-86 825.97,-86 825.97,-122"/>
<text text-anchor="middle" x="755" y="-99.8" font-family="Times,serif" font-size="14.00">DashboardComponent</text>
</g>
<!-- DashboardModule -->
<g id="node8" class="node">
<title>DashboardModule</title>
<polygon fill="#8dd3c7" stroke="black" points="726.19,-187 723.19,-191 702.19,-191 699.19,-187 605.81,-187 605.81,-151 726.19,-151 726.19,-187"/>
<text text-anchor="middle" x="666" y="-164.8" font-family="Times,serif" font-size="14.00">DashboardModule</text>
</g>
<!-- DashboardComponent&#45;&gt;DashboardModule -->
<g id="edge5" class="edge">
<title>DashboardComponent&#45;&gt;DashboardModule</title>
<path fill="none" stroke="black" d="M712.07,-122.11C712.07,-122.11 712.07,-140.99 712.07,-140.99"/>
<polygon fill="black" stroke="black" points="708.57,-140.99 712.07,-150.99 715.57,-140.99 708.57,-140.99"/>
</g>
<!-- DashboardComponent&#45;&gt;DashboardModule -->
<g id="edge7" class="edge">
<title>DashboardComponent&#45;&gt;DashboardModule</title>
<path fill="none" stroke="black" d="M698.04,-122.11C698.04,-122.11 698.04,-140.99 698.04,-140.99"/>
<polygon fill="black" stroke="black" points="694.54,-140.99 698.04,-150.99 701.54,-140.99 694.54,-140.99"/>
</g>
<!-- DashboardRoutingModule -->
<g id="node9" class="node">
<title>DashboardRoutingModule</title>
<polygon fill="#8dd3c7" stroke="black" points="659.81,-122 656.81,-126 635.81,-126 632.81,-122 494.19,-122 494.19,-86 659.81,-86 659.81,-122"/>
<text text-anchor="middle" x="577" y="-99.8" font-family="Times,serif" font-size="14.00">DashboardRoutingModule</text>
</g>
<!-- DashboardRoutingModule&#45;&gt;DashboardModule -->
<g id="edge6" class="edge">
<title>DashboardRoutingModule&#45;&gt;DashboardModule</title>
<path fill="none" stroke="black" d="M623.82,-122.11C623.82,-122.11 623.82,-140.99 623.82,-140.99"/>
<polygon fill="black" stroke="black" points="620.32,-140.99 623.82,-150.99 627.32,-140.99 620.32,-140.99"/>
</g>
<!-- DashboardRoutingModule&#45;&gt;DashboardModule -->
<g id="edge8" class="edge">
<title>DashboardRoutingModule&#45;&gt;DashboardModule</title>
<path fill="none" stroke="black" d="M641.74,-122.11C641.74,-122.11 641.74,-140.99 641.74,-140.99"/>
<polygon fill="black" stroke="black" points="638.24,-140.99 641.74,-150.99 645.24,-140.99 638.24,-140.99"/>
</g>
<!-- FormComponent -->
<g id="node10" class="node">
<title>FormComponent</title>
<polygon fill="#ffffb3" stroke="black" points="1137.67,-122 1026.33,-122 1026.33,-86 1137.67,-86 1137.67,-122"/>
<text text-anchor="middle" x="1082" y="-99.8" font-family="Times,serif" font-size="14.00">FormComponent</text>
</g>
<!-- FormModule -->
<g id="node11" class="node">
<title>FormModule</title>
<polygon fill="#8dd3c7" stroke="black" points="1051.88,-187 1048.88,-191 1027.88,-191 1024.88,-187 962.12,-187 962.12,-151 1051.88,-151 1051.88,-187"/>
<text text-anchor="middle" x="1007" y="-164.8" font-family="Times,serif" font-size="14.00">FormModule</text>
</g>
<!-- FormComponent&#45;&gt;FormModule -->
<g id="edge9" class="edge">
<title>FormComponent&#45;&gt;FormModule</title>
<path fill="none" stroke="black" d="M1039.05,-122.11C1039.05,-122.11 1039.05,-140.99 1039.05,-140.99"/>
<polygon fill="black" stroke="black" points="1035.55,-140.99 1039.05,-150.99 1042.55,-140.99 1035.55,-140.99"/>
</g>
<!-- FormComponent  -->
<g id="node13" class="node">
<title>FormComponent </title>
<polygon fill="#fb8072" stroke="black" points="1064.67,-252 949.33,-252 949.33,-216 1064.67,-216 1064.67,-252"/>
<text text-anchor="middle" x="1007" y="-229.8" font-family="Times,serif" font-size="14.00">FormComponent </text>
</g>
<!-- FormModule&#45;&gt;FormComponent  -->
<g id="edge11" class="edge">
<title>FormModule&#45;&gt;FormComponent </title>
<path fill="none" stroke="black" stroke-dasharray="5,2" d="M1007,-187.11C1007,-187.11 1007,-205.99 1007,-205.99"/>
<polygon fill="black" stroke="black" points="1003.5,-205.99 1007,-215.99 1010.5,-205.99 1003.5,-205.99"/>
</g>
<!-- FormRoutingModule -->
<g id="node12" class="node">
<title>FormRoutingModule</title>
<polygon fill="#8dd3c7" stroke="black" points="1001.5,-122 998.5,-126 977.5,-126 974.5,-122 866.5,-122 866.5,-86 1001.5,-86 1001.5,-122"/>
<text text-anchor="middle" x="934" y="-99.8" font-family="Times,serif" font-size="14.00">FormRoutingModule</text>
</g>
<!-- FormRoutingModule&#45;&gt;FormModule -->
<g id="edge10" class="edge">
<title>FormRoutingModule&#45;&gt;FormModule</title>
<path fill="none" stroke="black" d="M981.78,-122.11C981.78,-122.11 981.78,-140.99 981.78,-140.99"/>
<polygon fill="black" stroke="black" points="978.28,-140.99 981.78,-150.99 985.28,-140.99 978.28,-140.99"/>
</g>
<!-- LoginComponent -->
<g id="node14" class="node">
<title>LoginComponent</title>
<polygon fill="#ffffb3" stroke="black" points="1454.28,-122 1339.72,-122 1339.72,-86 1454.28,-86 1454.28,-122"/>
<text text-anchor="middle" x="1397" y="-99.8" font-family="Times,serif" font-size="14.00">LoginComponent</text>
</g>
<!-- LoginModule -->
<g id="node15" class="node">
<title>LoginModule</title>
<polygon fill="#8dd3c7" stroke="black" points="1367.49,-187 1364.49,-191 1343.49,-191 1340.49,-187 1274.51,-187 1274.51,-151 1367.49,-151 1367.49,-187"/>
<text text-anchor="middle" x="1321" y="-164.8" font-family="Times,serif" font-size="14.00">LoginModule</text>
</g>
<!-- LoginComponent&#45;&gt;LoginModule -->
<g id="edge12" class="edge">
<title>LoginComponent&#45;&gt;LoginModule</title>
<path fill="none" stroke="black" d="M1353.55,-122.11C1353.55,-122.11 1353.55,-140.99 1353.55,-140.99"/>
<polygon fill="black" stroke="black" points="1350.05,-140.99 1353.55,-150.99 1357.05,-140.99 1350.05,-140.99"/>
</g>
<!-- LoginComponent  -->
<g id="node17" class="node">
<title>LoginComponent </title>
<polygon fill="#fb8072" stroke="black" points="1380.28,-252 1261.72,-252 1261.72,-216 1380.28,-216 1380.28,-252"/>
<text text-anchor="middle" x="1321" y="-229.8" font-family="Times,serif" font-size="14.00">LoginComponent </text>
</g>
<!-- LoginModule&#45;&gt;LoginComponent  -->
<g id="edge14" class="edge">
<title>LoginModule&#45;&gt;LoginComponent </title>
<path fill="none" stroke="black" stroke-dasharray="5,2" d="M1321,-187.11C1321,-187.11 1321,-205.99 1321,-205.99"/>
<polygon fill="black" stroke="black" points="1317.5,-205.99 1321,-215.99 1324.5,-205.99 1317.5,-205.99"/>
</g>
<!-- LoginRoutingModule -->
<g id="node16" class="node">
<title>LoginRoutingModule</title>
<polygon fill="#8dd3c7" stroke="black" points="1316.11,-122 1313.11,-126 1292.11,-126 1289.11,-122 1177.89,-122 1177.89,-86 1316.11,-86 1316.11,-122"/>
<text text-anchor="middle" x="1247" y="-99.8" font-family="Times,serif" font-size="14.00">LoginRoutingModule</text>
</g>
<!-- LoginRoutingModule&#45;&gt;LoginModule -->
<g id="edge13" class="edge">
<title>LoginRoutingModule&#45;&gt;LoginModule</title>
<path fill="none" stroke="black" d="M1295.28,-122.11C1295.28,-122.11 1295.28,-140.99 1295.28,-140.99"/>
<polygon fill="black" stroke="black" points="1291.78,-140.99 1295.28,-150.99 1298.78,-140.99 1291.78,-140.99"/>
</g>
<!-- RolesComponent -->
<g id="node18" class="node">
<title>RolesComponent</title>
<polygon fill="#ffffb3" stroke="black" points="1767.72,-122 1654.28,-122 1654.28,-86 1767.72,-86 1767.72,-122"/>
<text text-anchor="middle" x="1711" y="-99.8" font-family="Times,serif" font-size="14.00">RolesComponent</text>
</g>
<!-- RolesModule -->
<g id="node19" class="node">
<title>RolesModule</title>
<polygon fill="#8dd3c7" stroke="black" points="1681.94,-187 1678.94,-191 1657.94,-191 1654.94,-187 1590.06,-187 1590.06,-151 1681.94,-151 1681.94,-187"/>
<text text-anchor="middle" x="1636" y="-164.8" font-family="Times,serif" font-size="14.00">RolesModule</text>
</g>
<!-- RolesComponent&#45;&gt;RolesModule -->
<g id="edge15" class="edge">
<title>RolesComponent&#45;&gt;RolesModule</title>
<path fill="none" stroke="black" d="M1668.05,-122.11C1668.05,-122.11 1668.05,-140.99 1668.05,-140.99"/>
<polygon fill="black" stroke="black" points="1664.55,-140.99 1668.05,-150.99 1671.55,-140.99 1664.55,-140.99"/>
</g>
<!-- RolesComponent  -->
<g id="node21" class="node">
<title>RolesComponent </title>
<polygon fill="#fb8072" stroke="black" points="1694.22,-252 1577.78,-252 1577.78,-216 1694.22,-216 1694.22,-252"/>
<text text-anchor="middle" x="1636" y="-229.8" font-family="Times,serif" font-size="14.00">RolesComponent </text>
</g>
<!-- RolesModule&#45;&gt;RolesComponent  -->
<g id="edge17" class="edge">
<title>RolesModule&#45;&gt;RolesComponent </title>
<path fill="none" stroke="black" stroke-dasharray="5,2" d="M1636,-187.11C1636,-187.11 1636,-205.99 1636,-205.99"/>
<polygon fill="black" stroke="black" points="1632.5,-205.99 1636,-215.99 1639.5,-205.99 1632.5,-205.99"/>
</g>
<!-- RolesRoutingModule -->
<g id="node20" class="node">
<title>RolesRoutingModule</title>
<polygon fill="#8dd3c7" stroke="black" points="1630.05,-122 1627.05,-126 1606.05,-126 1603.05,-122 1493.95,-122 1493.95,-86 1630.05,-86 1630.05,-122"/>
<text text-anchor="middle" x="1562" y="-99.8" font-family="Times,serif" font-size="14.00">RolesRoutingModule</text>
</g>
<!-- RolesRoutingModule&#45;&gt;RolesModule -->
<g id="edge16" class="edge">
<title>RolesRoutingModule&#45;&gt;RolesModule</title>
<path fill="none" stroke="black" d="M1610.28,-122.11C1610.28,-122.11 1610.28,-140.99 1610.28,-140.99"/>
<polygon fill="black" stroke="black" points="1606.78,-140.99 1610.28,-150.99 1613.78,-140.99 1606.78,-140.99"/>
</g>
<!-- UsersComponent -->
<g id="node22" class="node">
<title>UsersComponent</title>
<polygon fill="#ffffb3" stroke="black" points="2081.7,-122 1968.3,-122 1968.3,-86 2081.7,-86 2081.7,-122"/>
<text text-anchor="middle" x="2025" y="-99.8" font-family="Times,serif" font-size="14.00">UsersComponent</text>
</g>
<!-- UsersModule -->
<g id="node23" class="node">
<title>UsersModule</title>
<polygon fill="#8dd3c7" stroke="black" points="1995.92,-187 1992.92,-191 1971.92,-191 1968.92,-187 1904.08,-187 1904.08,-151 1995.92,-151 1995.92,-187"/>
<text text-anchor="middle" x="1950" y="-164.8" font-family="Times,serif" font-size="14.00">UsersModule</text>
</g>
<!-- UsersComponent&#45;&gt;UsersModule -->
<g id="edge18" class="edge">
<title>UsersComponent&#45;&gt;UsersModule</title>
<path fill="none" stroke="black" d="M1982.05,-122.11C1982.05,-122.11 1982.05,-140.99 1982.05,-140.99"/>
<polygon fill="black" stroke="black" points="1978.55,-140.99 1982.05,-150.99 1985.55,-140.99 1978.55,-140.99"/>
</g>
<!-- UsersComponent  -->
<g id="node25" class="node">
<title>UsersComponent </title>
<polygon fill="#fb8072" stroke="black" points="2008.2,-252 1891.8,-252 1891.8,-216 2008.2,-216 2008.2,-252"/>
<text text-anchor="middle" x="1950" y="-229.8" font-family="Times,serif" font-size="14.00">UsersComponent </text>
</g>
<!-- UsersModule&#45;&gt;UsersComponent  -->
<g id="edge20" class="edge">
<title>UsersModule&#45;&gt;UsersComponent </title>
<path fill="none" stroke="black" stroke-dasharray="5,2" d="M1950,-187.11C1950,-187.11 1950,-205.99 1950,-205.99"/>
<polygon fill="black" stroke="black" points="1946.5,-205.99 1950,-215.99 1953.5,-205.99 1946.5,-205.99"/>
</g>
<!-- UsersRoutingModule -->
<g id="node24" class="node">
<title>UsersRoutingModule</title>
<polygon fill="#8dd3c7" stroke="black" points="1944.04,-122 1941.04,-126 1920.04,-126 1917.04,-122 1807.96,-122 1807.96,-86 1944.04,-86 1944.04,-122"/>
<text text-anchor="middle" x="1876" y="-99.8" font-family="Times,serif" font-size="14.00">UsersRoutingModule</text>
</g>
<!-- UsersRoutingModule&#45;&gt;UsersModule -->
<g id="edge19" class="edge">
<title>UsersRoutingModule&#45;&gt;UsersModule</title>
<path fill="none" stroke="black" d="M1924.28,-122.11C1924.28,-122.11 1924.28,-140.99 1924.28,-140.99"/>
<polygon fill="black" stroke="black" points="1920.78,-140.99 1924.28,-150.99 1927.78,-140.99 1920.78,-140.99"/>
</g>
<!-- WorkflowComponent -->
<g id="node26" class="node">
<title>WorkflowComponent</title>
<polygon fill="#ffffb3" stroke="black" points="2446.37,-122 2307.63,-122 2307.63,-86 2446.37,-86 2446.37,-122"/>
<text text-anchor="middle" x="2377" y="-99.8" font-family="Times,serif" font-size="14.00">WorkflowComponent</text>
</g>
<!-- WorkflowModule -->
<g id="node27" class="node">
<title>WorkflowModule</title>
<polygon fill="#8dd3c7" stroke="black" points="2347.58,-187 2344.58,-191 2323.58,-191 2320.58,-187 2230.42,-187 2230.42,-151 2347.58,-151 2347.58,-187"/>
<text text-anchor="middle" x="2289" y="-164.8" font-family="Times,serif" font-size="14.00">WorkflowModule</text>
</g>
<!-- WorkflowComponent&#45;&gt;WorkflowModule -->
<g id="edge21" class="edge">
<title>WorkflowComponent&#45;&gt;WorkflowModule</title>
<path fill="none" stroke="black" d="M2327.55,-122.11C2327.55,-122.11 2327.55,-140.99 2327.55,-140.99"/>
<polygon fill="black" stroke="black" points="2324.05,-140.99 2327.55,-150.99 2331.05,-140.99 2324.05,-140.99"/>
</g>
<!-- WorkflowComponent  -->
<g id="node29" class="node">
<title>WorkflowComponent </title>
<polygon fill="#fb8072" stroke="black" points="2360.37,-252 2217.63,-252 2217.63,-216 2360.37,-216 2360.37,-252"/>
<text text-anchor="middle" x="2289" y="-229.8" font-family="Times,serif" font-size="14.00">WorkflowComponent </text>
</g>
<!-- WorkflowModule&#45;&gt;WorkflowComponent  -->
<g id="edge23" class="edge">
<title>WorkflowModule&#45;&gt;WorkflowComponent </title>
<path fill="none" stroke="black" stroke-dasharray="5,2" d="M2289,-187.11C2289,-187.11 2289,-205.99 2289,-205.99"/>
<polygon fill="black" stroke="black" points="2285.5,-205.99 2289,-215.99 2292.5,-205.99 2285.5,-205.99"/>
</g>
<!-- WorkflowRoutingModule -->
<g id="node28" class="node">
<title>WorkflowRoutingModule</title>
<polygon fill="#8dd3c7" stroke="black" points="2284.2,-122 2281.2,-126 2260.2,-126 2257.2,-122 2121.8,-122 2121.8,-86 2284.2,-86 2284.2,-122"/>
<text text-anchor="middle" x="2203" y="-99.8" font-family="Times,serif" font-size="14.00">WorkflowRoutingModule</text>
</g>
<!-- WorkflowRoutingModule&#45;&gt;WorkflowModule -->
<g id="edge22" class="edge">
<title>WorkflowRoutingModule&#45;&gt;WorkflowModule</title>
<path fill="none" stroke="black" d="M2257.28,-122.11C2257.28,-122.11 2257.28,-140.99 2257.28,-140.99"/>
<polygon fill="black" stroke="black" points="2253.78,-140.99 2257.28,-150.99 2260.78,-140.99 2253.78,-140.99"/>
</g>
</g>
</svg>
