<?xml version="1.0" encoding="UTF-8" standalone="no"?>
<!DOCTYPE svg PUBLIC "-//W3C//DTD SVG 1.1//EN"
 "http://www.w3.org/Graphics/SVG/1.1/DTD/svg11.dtd">
<!-- Generated by graphviz version 2.47.0 (20210316.0004)
 -->
<!-- Title: dependencies Pages: 1 -->
<svg width="2804pt" height="284pt"
 viewBox="0.00 0.00 2804.00 284.00" xmlns="http://www.w3.org/2000/svg" xmlns:xlink="http://www.w3.org/1999/xlink">
<g id="graph0" class="graph" transform="scale(1 1) rotate(0) translate(4 280)">
<title>dependencies</title>
<polygon fill="white" stroke="transparent" points="-4,4 -4,-280 2800,-280 2800,4 -4,4"/>
<text text-anchor="start" x="1377.01" y="-42.4" font-family="sans-serif" font-weight="bold" font-size="14.00">Legend</text>
<polygon fill="#ffffb3" stroke="transparent" points="1164,-10 1164,-30 1184,-30 1184,-10 1164,-10"/>
<text text-anchor="start" x="1187.63" y="-15.4" font-family="sans-serif" font-size="14.00"> &#160;Declarations</text>
<polygon fill="#8dd3c7" stroke="transparent" points="1277,-10 1277,-30 1297,-30 1297,-10 1277,-10"/>
<text text-anchor="start" x="1300.73" y="-15.4" font-family="sans-serif" font-size="14.00"> &#160;Module</text>
<polygon fill="#80b1d3" stroke="transparent" points="1363,-10 1363,-30 1383,-30 1383,-10 1363,-10"/>
<text text-anchor="start" x="1386.78" y="-15.4" font-family="sans-serif" font-size="14.00"> &#160;Bootstrap</text>
<polygon fill="#fdb462" stroke="transparent" points="1460,-10 1460,-30 1480,-30 1480,-10 1460,-10"/>
<text text-anchor="start" x="1483.67" y="-15.4" font-family="sans-serif" font-size="14.00"> &#160;Providers</text>
<polygon fill="#fb8072" stroke="transparent" points="1556,-10 1556,-30 1576,-30 1576,-10 1556,-10"/>
<text text-anchor="start" x="1579.73" y="-15.4" font-family="sans-serif" font-size="14.00"> &#160;Exports</text>
<g id="clust1" class="cluster">
<title>cluster_AppModule</title>
<polygon fill="none" stroke="black" stroke-dasharray="1,5" points="8,-70 8,-268 298,-268 298,-70 8,-70"/>
</g>
<g id="clust2" class="cluster">
<title>cluster_AppModule_declarations</title>
<polygon fill="none" stroke="black" points="168,-78 168,-130 290,-130 290,-78 168,-78"/>
</g>
<g id="clust4" class="cluster">
<title>cluster_AppModule_imports</title>
<polygon fill="none" stroke="black" points="16,-78 16,-130 160,-130 160,-78 16,-78"/>
</g>
<g id="clust6" class="cluster">
<title>cluster_AppModule_bootstrap</title>
<polygon fill="none" stroke="black" points="96,-208 96,-260 220,-260 220,-208 96,-208"/>
</g>
<g id="clust14" class="cluster">
<title>cluster_AuthModule</title>
<polygon fill="none" stroke="black" stroke-dasharray="1,5" points="306,-70 306,-195 470,-195 470,-70 306,-70"/>
</g>
<g id="clust16" class="cluster">
<title>cluster_AuthModule_imports</title>
<polygon fill="none" stroke="black" points="314,-78 314,-130 462,-130 462,-78 314,-78"/>
</g>
<g id="clust26" class="cluster">
<title>cluster_DashboardModule</title>
<polygon fill="none" stroke="black" stroke-dasharray="1,5" points="478,-70 478,-195 842,-195 842,-70 478,-70"/>
</g>
<g id="clust27" class="cluster">
<title>cluster_DashboardModule_declarations</title>
<polygon fill="none" stroke="black" points="676,-78 676,-130 834,-130 834,-78 676,-78"/>
</g>
<g id="clust29" class="cluster">
<title>cluster_DashboardModule_imports</title>
<polygon fill="none" stroke="black" points="486,-78 486,-130 668,-130 668,-78 486,-78"/>
</g>
<g id="clust39" class="cluster">
<title>cluster_FormModule</title>
<polygon fill="none" stroke="black" stroke-dasharray="1,5" points="850,-70 850,-268 1154,-268 1154,-70 850,-70"/>
</g>
<g id="clust40" class="cluster">
<title>cluster_FormModule_declarations</title>
<polygon fill="none" stroke="black" points="1018,-78 1018,-130 1146,-130 1146,-78 1018,-78"/>
</g>
<g id="clust42" class="cluster">
<title>cluster_FormModule_imports</title>
<polygon fill="none" stroke="black" points="858,-78 858,-130 1010,-130 1010,-78 858,-78"/>
</g>
<g id="clust43" class="cluster">
<title>cluster_FormModule_exports</title>
<polygon fill="none" stroke="black" points="941,-208 941,-260 1073,-260 1073,-208 941,-208"/>
</g>
<g id="clust52" class="cluster">
<title>cluster_LoginModule</title>
<polygon fill="none" stroke="black" stroke-dasharray="1,5" points="1162,-70 1162,-268 1470,-268 1470,-70 1162,-70"/>
</g>
<g id="clust53" class="cluster">
<title>cluster_LoginModule_declarations</title>
<polygon fill="none" stroke="black" points="1332,-78 1332,-130 1462,-130 1462,-78 1332,-78"/>
</g>
<g id="clust55" class="cluster">
<title>cluster_LoginModule_imports</title>
<polygon fill="none" stroke="black" points="1170,-78 1170,-130 1324,-130 1324,-78 1170,-78"/>
</g>
<g id="clust56" class="cluster">
<title>cluster_LoginModule_exports</title>
<polygon fill="none" stroke="black" points="1254,-208 1254,-260 1388,-260 1388,-208 1254,-208"/>
</g>
<g id="clust65" class="cluster">
<title>cluster_ProfileModule</title>
<polygon fill="none" stroke="black" stroke-dasharray="1,5" points="1478,-70 1478,-195 1796,-195 1796,-70 1478,-70"/>
</g>
<g id="clust66" class="cluster">
<title>cluster_ProfileModule_declarations</title>
<polygon fill="none" stroke="black" points="1652,-78 1652,-130 1788,-130 1788,-78 1652,-78"/>
</g>
<g id="clust68" class="cluster">
<title>cluster_ProfileModule_imports</title>
<polygon fill="none" stroke="black" points="1486,-78 1486,-130 1644,-130 1644,-78 1486,-78"/>
</g>
<g id="clust78" class="cluster">
<title>cluster_RolesModule</title>
<polygon fill="none" stroke="black" stroke-dasharray="1,5" points="1804,-70 1804,-268 2110,-268 2110,-70 1804,-70"/>
</g>
<g id="clust79" class="cluster">
<title>cluster_RolesModule_declarations</title>
<polygon fill="none" stroke="black" points="1972,-78 1972,-130 2102,-130 2102,-78 1972,-78"/>
</g>
<g id="clust81" class="cluster">
<title>cluster_RolesModule_imports</title>
<polygon fill="none" stroke="black" points="1812,-78 1812,-130 1964,-130 1964,-78 1812,-78"/>
</g>
<g id="clust82" class="cluster">
<title>cluster_RolesModule_exports</title>
<polygon fill="none" stroke="black" points="1896,-208 1896,-260 2028,-260 2028,-208 1896,-208"/>
</g>
<g id="clust91" class="cluster">
<title>cluster_UsersModule</title>
<polygon fill="none" stroke="black" stroke-dasharray="1,5" points="2118,-70 2118,-268 2424,-268 2424,-70 2118,-70"/>
</g>
<g id="clust92" class="cluster">
<title>cluster_UsersModule_declarations</title>
<polygon fill="none" stroke="black" points="2286,-78 2286,-130 2416,-130 2416,-78 2286,-78"/>
</g>
<g id="clust94" class="cluster">
<title>cluster_UsersModule_imports</title>
<polygon fill="none" stroke="black" points="2126,-78 2126,-130 2278,-130 2278,-78 2126,-78"/>
</g>
<g id="clust95" class="cluster">
<title>cluster_UsersModule_exports</title>
<polygon fill="none" stroke="black" points="2210,-208 2210,-260 2342,-260 2342,-208 2210,-208"/>
</g>
<g id="clust104" class="cluster">
<title>cluster_WorkflowModule</title>
<polygon fill="none" stroke="black" stroke-dasharray="1,5" points="2432,-70 2432,-268 2788,-268 2788,-70 2432,-70"/>
</g>
<g id="clust105" class="cluster">
<title>cluster_WorkflowModule_declarations</title>
<polygon fill="none" stroke="black" points="2626,-78 2626,-130 2780,-130 2780,-78 2626,-78"/>
</g>
<g id="clust107" class="cluster">
<title>cluster_WorkflowModule_imports</title>
<polygon fill="none" stroke="black" points="2440,-78 2440,-130 2618,-130 2618,-78 2440,-78"/>
</g>
<g id="clust108" class="cluster">
<title>cluster_WorkflowModule_exports</title>
<polygon fill="none" stroke="black" points="2536,-208 2536,-260 2694,-260 2694,-208 2536,-208"/>
</g>
<!-- AppComponent -->
<g id="node1" class="node">
<title>AppComponent</title>
<polygon fill="#ffffb3" stroke="black" points="281.94,-122 176.06,-122 176.06,-86 281.94,-86 281.94,-122"/>
<text text-anchor="middle" x="229" y="-99.8" font-family="Times,serif" font-size="14.00">AppComponent</text>
</g>
<!-- AppModule -->
<g id="node2" class="node">
<title>AppModule</title>
<polygon fill="#8dd3c7" stroke="black" points="199.66,-187 196.66,-191 175.66,-191 172.66,-187 116.34,-187 116.34,-151 199.66,-151 199.66,-187"/>
<text text-anchor="middle" x="158" y="-164.8" font-family="Times,serif" font-size="14.00">AppModule</text>
</g>
<!-- AppComponent&#45;&gt;AppModule -->
<g id="edge1" class="edge">
<title>AppComponent&#45;&gt;AppModule</title>
<path fill="none" stroke="black" d="M188.05,-122.11C188.05,-122.11 188.05,-140.99 188.05,-140.99"/>
<polygon fill="black" stroke="black" points="184.55,-140.99 188.05,-150.99 191.55,-140.99 184.55,-140.99"/>
</g>
<!-- AppComponent  -->
<g id="node4" class="node">
<title>AppComponent </title>
<polygon fill="#80b1d3" stroke="black" points="212.44,-252 103.56,-252 103.56,-216 212.44,-216 212.44,-252"/>
<text text-anchor="middle" x="158" y="-229.8" font-family="Times,serif" font-size="14.00">AppComponent </text>
</g>
<!-- AppModule&#45;&gt;AppComponent  -->
<g id="edge3" class="edge">
<title>AppModule&#45;&gt;AppComponent </title>
<path fill="none" stroke="black" stroke-dasharray="1,5" d="M158,-187.11C158,-187.11 158,-205.99 158,-205.99"/>
<polygon fill="black" stroke="black" points="154.5,-205.99 158,-215.99 161.5,-205.99 154.5,-205.99"/>
</g>
<!-- AppRoutingModule -->
<g id="node3" class="node">
<title>AppRoutingModule</title>
<polygon fill="#8dd3c7" stroke="black" points="152.27,-122 149.27,-126 128.27,-126 125.27,-122 23.73,-122 23.73,-86 152.27,-86 152.27,-122"/>
<text text-anchor="middle" x="88" y="-99.8" font-family="Times,serif" font-size="14.00">AppRoutingModule</text>
</g>
<!-- AppRoutingModule&#45;&gt;AppModule -->
<g id="edge2" class="edge">
<title>AppRoutingModule&#45;&gt;AppModule</title>
<path fill="none" stroke="black" d="M134.28,-122.11C134.28,-122.11 134.28,-140.99 134.28,-140.99"/>
<polygon fill="black" stroke="black" points="130.78,-140.99 134.28,-150.99 137.78,-140.99 130.78,-140.99"/>
</g>
<!-- AuthRoutingModule -->
<g id="node5" class="node">
<title>AuthRoutingModule</title>
<polygon fill="#8dd3c7" stroke="black" points="454.17,-122 451.17,-126 430.17,-126 427.17,-122 321.83,-122 321.83,-86 454.17,-86 454.17,-122"/>
<text text-anchor="middle" x="388" y="-99.8" font-family="Times,serif" font-size="14.00">AuthRoutingModule</text>
</g>
<!-- AuthModule -->
<g id="node6" class="node">
<title>AuthModule</title>
<polygon fill="#8dd3c7" stroke="black" points="431.55,-187 428.55,-191 407.55,-191 404.55,-187 344.45,-187 344.45,-151 431.55,-151 431.55,-187"/>
<text text-anchor="middle" x="388" y="-164.8" font-family="Times,serif" font-size="14.00">AuthModule</text>
</g>
<!-- AuthRoutingModule&#45;&gt;AuthModule -->
<g id="edge4" class="edge">
<title>AuthRoutingModule&#45;&gt;AuthModule</title>
<path fill="none" stroke="black" d="M388,-122.11C388,-122.11 388,-140.99 388,-140.99"/>
<polygon fill="black" stroke="black" points="384.5,-140.99 388,-150.99 391.5,-140.99 384.5,-140.99"/>
</g>
<!-- DashboardComponent -->
<g id="node7" class="node">
<title>DashboardComponent</title>
<polygon fill="#ffffb3" stroke="black" points="825.97,-122 684.03,-122 684.03,-86 825.97,-86 825.97,-122"/>
<text text-anchor="middle" x="755" y="-99.8" font-family="Times,serif" font-size="14.00">DashboardComponent</text>
</g>
<!-- DashboardModule -->
<g id="node8" class="node">
<title>DashboardModule</title>
<polygon fill="#8dd3c7" stroke="black" points="726.19,-187 723.19,-191 702.19,-191 699.19,-187 605.81,-187 605.81,-151 726.19,-151 726.19,-187"/>
<text text-anchor="middle" x="666" y="-164.8" font-family="Times,serif" font-size="14.00">DashboardModule</text>
</g>
<!-- DashboardComponent&#45;&gt;DashboardModule -->
<g id="edge5" class="edge">
<title>DashboardComponent&#45;&gt;DashboardModule</title>
<path fill="none" stroke="black" d="M712.07,-122.11C712.07,-122.11 712.07,-140.99 712.07,-140.99"/>
<polygon fill="black" stroke="black" points="708.57,-140.99 712.07,-150.99 715.57,-140.99 708.57,-140.99"/>
</g>
<!-- DashboardComponent&#45;&gt;DashboardModule -->
<g id="edge7" class="edge">
<title>DashboardComponent&#45;&gt;DashboardModule</title>
<path fill="none" stroke="black" d="M698.04,-122.11C698.04,-122.11 698.04,-140.99 698.04,-140.99"/>
<polygon fill="black" stroke="black" points="694.54,-140.99 698.04,-150.99 701.54,-140.99 694.54,-140.99"/>
</g>
<!-- DashboardRoutingModule -->
<g id="node9" class="node">
<title>DashboardRoutingModule</title>
<polygon fill="#8dd3c7" stroke="black" points="659.81,-122 656.81,-126 635.81,-126 632.81,-122 494.19,-122 494.19,-86 659.81,-86 659.81,-122"/>
<text text-anchor="middle" x="577" y="-99.8" font-family="Times,serif" font-size="14.00">DashboardRoutingModule</text>
</g>
<!-- DashboardRoutingModule&#45;&gt;DashboardModule -->
<g id="edge6" class="edge">
<title>DashboardRoutingModule&#45;&gt;DashboardModule</title>
<path fill="none" stroke="black" d="M623.82,-122.11C623.82,-122.11 623.82,-140.99 623.82,-140.99"/>
<polygon fill="black" stroke="black" points="620.32,-140.99 623.82,-150.99 627.32,-140.99 620.32,-140.99"/>
</g>
<!-- DashboardRoutingModule&#45;&gt;DashboardModule -->
<g id="edge8" class="edge">
<title>DashboardRoutingModule&#45;&gt;DashboardModule</title>
<path fill="none" stroke="black" d="M641.74,-122.11C641.74,-122.11 641.74,-140.99 641.74,-140.99"/>
<polygon fill="black" stroke="black" points="638.24,-140.99 641.74,-150.99 645.24,-140.99 638.24,-140.99"/>
</g>
<!-- FormComponent -->
<g id="node10" class="node">
<title>FormComponent</title>
<polygon fill="#ffffb3" stroke="black" points="1137.67,-122 1026.33,-122 1026.33,-86 1137.67,-86 1137.67,-122"/>
<text text-anchor="middle" x="1082" y="-99.8" font-family="Times,serif" font-size="14.00">FormComponent</text>
</g>
<!-- FormModule -->
<g id="node11" class="node">
<title>FormModule</title>
<polygon fill="#8dd3c7" stroke="black" points="1051.88,-187 1048.88,-191 1027.88,-191 1024.88,-187 962.12,-187 962.12,-151 1051.88,-151 1051.88,-187"/>
<text text-anchor="middle" x="1007" y="-164.8" font-family="Times,serif" font-size="14.00">FormModule</text>
</g>
<!-- FormComponent&#45;&gt;FormModule -->
<g id="edge9" class="edge">
<title>FormComponent&#45;&gt;FormModule</title>
<path fill="none" stroke="black" d="M1039.05,-122.11C1039.05,-122.11 1039.05,-140.99 1039.05,-140.99"/>
<polygon fill="black" stroke="black" points="1035.55,-140.99 1039.05,-150.99 1042.55,-140.99 1035.55,-140.99"/>
</g>
<!-- FormComponent  -->
<g id="node13" class="node">
<title>FormComponent </title>
<polygon fill="#fb8072" stroke="black" points="1064.67,-252 949.33,-252 949.33,-216 1064.67,-216 1064.67,-252"/>
<text text-anchor="middle" x="1007" y="-229.8" font-family="Times,serif" font-size="14.00">FormComponent </text>
</g>
<!-- FormModule&#45;&gt;FormComponent  -->
<g id="edge11" class="edge">
<title>FormModule&#45;&gt;FormComponent </title>
<path fill="none" stroke="black" stroke-dasharray="5,2" d="M1007,-187.11C1007,-187.11 1007,-205.99 1007,-205.99"/>
<polygon fill="black" stroke="black" points="1003.5,-205.99 1007,-215.99 1010.5,-205.99 1003.5,-205.99"/>
</g>
<!-- FormRoutingModule -->
<g id="node12" class="node">
<title>FormRoutingModule</title>
<polygon fill="#8dd3c7" stroke="black" points="1001.5,-122 998.5,-126 977.5,-126 974.5,-122 866.5,-122 866.5,-86 1001.5,-86 1001.5,-122"/>
<text text-anchor="middle" x="934" y="-99.8" font-family="Times,serif" font-size="14.00">FormRoutingModule</text>
</g>
<!-- FormRoutingModule&#45;&gt;FormModule -->
<g id="edge10" class="edge">
<title>FormRoutingModule&#45;&gt;FormModule</title>
<path fill="none" stroke="black" d="M981.78,-122.11C981.78,-122.11 981.78,-140.99 981.78,-140.99"/>
<polygon fill="black" stroke="black" points="978.28,-140.99 981.78,-150.99 985.28,-140.99 978.28,-140.99"/>
</g>
<!-- LoginComponent -->
<g id="node14" class="node">
<title>LoginComponent</title>
<polygon fill="#ffffb3" stroke="black" points="1454.28,-122 1339.72,-122 1339.72,-86 1454.28,-86 1454.28,-122"/>
<text text-anchor="middle" x="1397" y="-99.8" font-family="Times,serif" font-size="14.00">LoginComponent</text>
</g>
<!-- LoginModule -->
<g id="node15" class="node">
<title>LoginModule</title>
<polygon fill="#8dd3c7" stroke="black" points="1367.49,-187 1364.49,-191 1343.49,-191 1340.49,-187 1274.51,-187 1274.51,-151 1367.49,-151 1367.49,-187"/>
<text text-anchor="middle" x="1321" y="-164.8" font-family="Times,serif" font-size="14.00">LoginModule</text>
</g>
<!-- LoginComponent&#45;&gt;LoginModule -->
<g id="edge12" class="edge">
<title>LoginComponent&#45;&gt;LoginModule</title>
<path fill="none" stroke="black" d="M1353.55,-122.11C1353.55,-122.11 1353.55,-140.99 1353.55,-140.99"/>
<polygon fill="black" stroke="black" points="1350.05,-140.99 1353.55,-150.99 1357.05,-140.99 1350.05,-140.99"/>
</g>
<!-- LoginComponent  -->
<g id="node17" class="node">
<title>LoginComponent </title>
<polygon fill="#fb8072" stroke="black" points="1380.28,-252 1261.72,-252 1261.72,-216 1380.28,-216 1380.28,-252"/>
<text text-anchor="middle" x="1321" y="-229.8" font-family="Times,serif" font-size="14.00">LoginComponent </text>
</g>
<!-- LoginModule&#45;&gt;LoginComponent  -->
<g id="edge14" class="edge">
<title>LoginModule&#45;&gt;LoginComponent </title>
<path fill="none" stroke="black" stroke-dasharray="5,2" d="M1321,-187.11C1321,-187.11 1321,-205.99 1321,-205.99"/>
<polygon fill="black" stroke="black" points="1317.5,-205.99 1321,-215.99 1324.5,-205.99 1317.5,-205.99"/>
</g>
<!-- LoginRoutingModule -->
<g id="node16" class="node">
<title>LoginRoutingModule</title>
<polygon fill="#8dd3c7" stroke="black" points="1316.11,-122 1313.11,-126 1292.11,-126 1289.11,-122 1177.89,-122 1177.89,-86 1316.11,-86 1316.11,-122"/>
<text text-anchor="middle" x="1247" y="-99.8" font-family="Times,serif" font-size="14.00">LoginRoutingModule</text>
</g>
<!-- LoginRoutingModule&#45;&gt;LoginModule -->
<g id="edge13" class="edge">
<title>LoginRoutingModule&#45;&gt;LoginModule</title>
<path fill="none" stroke="black" d="M1295.28,-122.11C1295.28,-122.11 1295.28,-140.99 1295.28,-140.99"/>
<polygon fill="black" stroke="black" points="1291.78,-140.99 1295.28,-150.99 1298.78,-140.99 1291.78,-140.99"/>
</g>
<!-- ProfileComponent -->
<g id="node18" class="node">
<title>ProfileComponent</title>
<polygon fill="#ffffb3" stroke="black" points="1779.93,-122 1660.07,-122 1660.07,-86 1779.93,-86 1779.93,-122"/>
<text text-anchor="middle" x="1720" y="-99.8" font-family="Times,serif" font-size="14.00">ProfileComponent</text>
</g>
<!-- ProfileModule -->
<g id="node19" class="node">
<title>ProfileModule</title>
<polygon fill="#8dd3c7" stroke="black" points="1690.65,-187 1687.65,-191 1666.65,-191 1663.65,-187 1593.35,-187 1593.35,-151 1690.65,-151 1690.65,-187"/>
<text text-anchor="middle" x="1642" y="-164.8" font-family="Times,serif" font-size="14.00">ProfileModule</text>
</g>
<!-- ProfileComponent&#45;&gt;ProfileModule -->
<g id="edge15" class="edge">
<title>ProfileComponent&#45;&gt;ProfileModule</title>
<path fill="none" stroke="black" d="M1675.55,-122.11C1675.55,-122.11 1675.55,-140.99 1675.55,-140.99"/>
<polygon fill="black" stroke="black" points="1672.05,-140.99 1675.55,-150.99 1679.05,-140.99 1672.05,-140.99"/>
</g>
<!-- ProfileRoutingModule -->
<g id="node20" class="node">
<title>ProfileRoutingModule</title>
<polygon fill="#8dd3c7" stroke="black" points="1636.27,-122 1633.27,-126 1612.27,-126 1609.27,-122 1493.73,-122 1493.73,-86 1636.27,-86 1636.27,-122"/>
<text text-anchor="middle" x="1565" y="-99.8" font-family="Times,serif" font-size="14.00">ProfileRoutingModule</text>
</g>
<!-- ProfileRoutingModule&#45;&gt;ProfileModule -->
<g id="edge16" class="edge">
<title>ProfileRoutingModule&#45;&gt;ProfileModule</title>
<path fill="none" stroke="black" d="M1614.78,-122.11C1614.78,-122.11 1614.78,-140.99 1614.78,-140.99"/>
<polygon fill="black" stroke="black" points="1611.28,-140.99 1614.78,-150.99 1618.28,-140.99 1611.28,-140.99"/>
</g>
<!-- RolesComponent -->
<g id="node21" class="node">
<title>RolesComponent</title>
<polygon fill="#ffffb3" stroke="black" points="2093.72,-122 1980.28,-122 1980.28,-86 2093.72,-86 2093.72,-122"/>
<text text-anchor="middle" x="2037" y="-99.8" font-family="Times,serif" font-size="14.00">RolesComponent</text>
</g>
<!-- RolesModule -->
<g id="node22" class="node">
<title>RolesModule</title>
<polygon fill="#8dd3c7" stroke="black" points="2007.94,-187 2004.94,-191 1983.94,-191 1980.94,-187 1916.06,-187 1916.06,-151 2007.94,-151 2007.94,-187"/>
<text text-anchor="middle" x="1962" y="-164.8" font-family="Times,serif" font-size="14.00">RolesModule</text>
</g>
<!-- RolesComponent&#45;&gt;RolesModule -->
<g id="edge17" class="edge">
<title>RolesComponent&#45;&gt;RolesModule</title>
<path fill="none" stroke="black" d="M1994.05,-122.11C1994.05,-122.11 1994.05,-140.99 1994.05,-140.99"/>
<polygon fill="black" stroke="black" points="1990.55,-140.99 1994.05,-150.99 1997.55,-140.99 1990.55,-140.99"/>
</g>
<!-- RolesComponent  -->
<g id="node24" class="node">
<title>RolesComponent </title>
<polygon fill="#fb8072" stroke="black" points="2020.22,-252 1903.78,-252 1903.78,-216 2020.22,-216 2020.22,-252"/>
<text text-anchor="middle" x="1962" y="-229.8" font-family="Times,serif" font-size="14.00">RolesComponent </text>
</g>
<!-- RolesModule&#45;&gt;RolesComponent  -->
<g id="edge19" class="edge">
<title>RolesModule&#45;&gt;RolesComponent </title>
<path fill="none" stroke="black" stroke-dasharray="5,2" d="M1962,-187.11C1962,-187.11 1962,-205.99 1962,-205.99"/>
<polygon fill="black" stroke="black" points="1958.5,-205.99 1962,-215.99 1965.5,-205.99 1958.5,-205.99"/>
</g>
<!-- RolesRoutingModule -->
<g id="node23" class="node">
<title>RolesRoutingModule</title>
<polygon fill="#8dd3c7" stroke="black" points="1956.05,-122 1953.05,-126 1932.05,-126 1929.05,-122 1819.95,-122 1819.95,-86 1956.05,-86 1956.05,-122"/>
<text text-anchor="middle" x="1888" y="-99.8" font-family="Times,serif" font-size="14.00">RolesRoutingModule</text>
</g>
<!-- RolesRoutingModule&#45;&gt;RolesModule -->
<g id="edge18" class="edge">
<title>RolesRoutingModule&#45;&gt;RolesModule</title>
<path fill="none" stroke="black" d="M1936.28,-122.11C1936.28,-122.11 1936.28,-140.99 1936.28,-140.99"/>
<polygon fill="black" stroke="black" points="1932.78,-140.99 1936.28,-150.99 1939.78,-140.99 1932.78,-140.99"/>
</g>
<!-- UsersComponent -->
<g id="node25" class="node">
<title>UsersComponent</title>
<polygon fill="#ffffb3" stroke="black" points="2407.7,-122 2294.3,-122 2294.3,-86 2407.7,-86 2407.7,-122"/>
<text text-anchor="middle" x="2351" y="-99.8" font-family="Times,serif" font-size="14.00">UsersComponent</text>
</g>
<!-- UsersModule -->
<g id="node26" class="node">
<title>UsersModule</title>
<polygon fill="#8dd3c7" stroke="black" points="2321.92,-187 2318.92,-191 2297.92,-191 2294.92,-187 2230.08,-187 2230.08,-151 2321.92,-151 2321.92,-187"/>
<text text-anchor="middle" x="2276" y="-164.8" font-family="Times,serif" font-size="14.00">UsersModule</text>
</g>
<!-- UsersComponent&#45;&gt;UsersModule -->
<g id="edge20" class="edge">
<title>UsersComponent&#45;&gt;UsersModule</title>
<path fill="none" stroke="black" d="M2308.05,-122.11C2308.05,-122.11 2308.05,-140.99 2308.05,-140.99"/>
<polygon fill="black" stroke="black" points="2304.55,-140.99 2308.05,-150.99 2311.55,-140.99 2304.55,-140.99"/>
</g>
<!-- UsersComponent  -->
<g id="node28" class="node">
<title>UsersComponent </title>
<polygon fill="#fb8072" stroke="black" points="2334.2,-252 2217.8,-252 2217.8,-216 2334.2,-216 2334.2,-252"/>
<text text-anchor="middle" x="2276" y="-229.8" font-family="Times,serif" font-size="14.00">UsersComponent </text>
</g>
<!-- UsersModule&#45;&gt;UsersComponent  -->
<g id="edge22" class="edge">
<title>UsersModule&#45;&gt;UsersComponent </title>
<path fill="none" stroke="black" stroke-dasharray="5,2" d="M2276,-187.11C2276,-187.11 2276,-205.99 2276,-205.99"/>
<polygon fill="black" stroke="black" points="2272.5,-205.99 2276,-215.99 2279.5,-205.99 2272.5,-205.99"/>
</g>
<!-- UsersRoutingModule -->
<g id="node27" class="node">
<title>UsersRoutingModule</title>
<polygon fill="#8dd3c7" stroke="black" points="2270.04,-122 2267.04,-126 2246.04,-126 2243.04,-122 2133.96,-122 2133.96,-86 2270.04,-86 2270.04,-122"/>
<text text-anchor="middle" x="2202" y="-99.8" font-family="Times,serif" font-size="14.00">UsersRoutingModule</text>
</g>
<!-- UsersRoutingModule&#45;&gt;UsersModule -->
<g id="edge21" class="edge">
<title>UsersRoutingModule&#45;&gt;UsersModule</title>
<path fill="none" stroke="black" d="M2250.28,-122.11C2250.28,-122.11 2250.28,-140.99 2250.28,-140.99"/>
<polygon fill="black" stroke="black" points="2246.78,-140.99 2250.28,-150.99 2253.78,-140.99 2246.78,-140.99"/>
</g>
<!-- WorkflowComponent -->
<g id="node29" class="node">
<title>WorkflowComponent</title>
<polygon fill="#ffffb3" stroke="black" points="2772.37,-122 2633.63,-122 2633.63,-86 2772.37,-86 2772.37,-122"/>
<text text-anchor="middle" x="2703" y="-99.8" font-family="Times,serif" font-size="14.00">WorkflowComponent</text>
</g>
<!-- WorkflowModule -->
<g id="node30" class="node">
<title>WorkflowModule</title>
<polygon fill="#8dd3c7" stroke="black" points="2673.58,-187 2670.58,-191 2649.58,-191 2646.58,-187 2556.42,-187 2556.42,-151 2673.58,-151 2673.58,-187"/>
<text text-anchor="middle" x="2615" y="-164.8" font-family="Times,serif" font-size="14.00">WorkflowModule</text>
</g>
<!-- WorkflowComponent&#45;&gt;WorkflowModule -->
<g id="edge23" class="edge">
<title>WorkflowComponent&#45;&gt;WorkflowModule</title>
<path fill="none" stroke="black" d="M2653.55,-122.11C2653.55,-122.11 2653.55,-140.99 2653.55,-140.99"/>
<polygon fill="black" stroke="black" points="2650.05,-140.99 2653.55,-150.99 2657.05,-140.99 2650.05,-140.99"/>
</g>
<!-- WorkflowComponent  -->
<g id="node32" class="node">
<title>WorkflowComponent </title>
<polygon fill="#fb8072" stroke="black" points="2686.37,-252 2543.63,-252 2543.63,-216 2686.37,-216 2686.37,-252"/>
<text text-anchor="middle" x="2615" y="-229.8" font-family="Times,serif" font-size="14.00">WorkflowComponent </text>
</g>
<!-- WorkflowModule&#45;&gt;WorkflowComponent  -->
<g id="edge25" class="edge">
<title>WorkflowModule&#45;&gt;WorkflowComponent </title>
<path fill="none" stroke="black" stroke-dasharray="5,2" d="M2615,-187.11C2615,-187.11 2615,-205.99 2615,-205.99"/>
<polygon fill="black" stroke="black" points="2611.5,-205.99 2615,-215.99 2618.5,-205.99 2611.5,-205.99"/>
</g>
<!-- WorkflowRoutingModule -->
<g id="node31" class="node">
<title>WorkflowRoutingModule</title>
<polygon fill="#8dd3c7" stroke="black" points="2610.2,-122 2607.2,-126 2586.2,-126 2583.2,-122 2447.8,-122 2447.8,-86 2610.2,-86 2610.2,-122"/>
<text text-anchor="middle" x="2529" y="-99.8" font-family="Times,serif" font-size="14.00">WorkflowRoutingModule</text>
</g>
<!-- WorkflowRoutingModule&#45;&gt;WorkflowModule -->
<g id="edge24" class="edge">
<title>WorkflowRoutingModule&#45;&gt;WorkflowModule</title>
<path fill="none" stroke="black" d="M2583.28,-122.11C2583.28,-122.11 2583.28,-140.99 2583.28,-140.99"/>
<polygon fill="black" stroke="black" points="2579.78,-140.99 2583.28,-150.99 2586.78,-140.99 2579.78,-140.99"/>
</g>
</g>
</svg>
