<?xml version="1.0" encoding="UTF-8" standalone="no"?>
<!DOCTYPE svg PUBLIC "-//W3C//DTD SVG 1.1//EN"
 "http://www.w3.org/Graphics/SVG/1.1/DTD/svg11.dtd">
<!-- Generated by graphviz version 2.47.0 (20210316.0004)
 -->
<!-- Title: dependencies Pages: 1 -->
<svg width="504pt" height="284pt"
 viewBox="0.00 0.00 504.00 284.00" xmlns="http://www.w3.org/2000/svg" xmlns:xlink="http://www.w3.org/1999/xlink">
<g id="graph0" class="graph" transform="scale(1 1) rotate(0) translate(4 280)">
<title>dependencies</title>
<polygon fill="white" stroke="transparent" points="-4,4 -4,-280 500,-280 500,4 -4,4"/>
<text text-anchor="start" x="227.01" y="-42.4" font-family="sans-serif" font-weight="bold" font-size="14.00">Legend</text>
<polygon fill="#ffffb3" stroke="transparent" points="14,-10 14,-30 34,-30 34,-10 14,-10"/>
<text text-anchor="start" x="37.63" y="-15.4" font-family="sans-serif" font-size="14.00"> &#160;Declarations</text>
<polygon fill="#8dd3c7" stroke="transparent" points="127,-10 127,-30 147,-30 147,-10 127,-10"/>
<text text-anchor="start" x="150.73" y="-15.4" font-family="sans-serif" font-size="14.00"> &#160;Module</text>
<polygon fill="#80b1d3" stroke="transparent" points="213,-10 213,-30 233,-30 233,-10 213,-10"/>
<text text-anchor="start" x="236.78" y="-15.4" font-family="sans-serif" font-size="14.00"> &#160;Bootstrap</text>
<polygon fill="#fdb462" stroke="transparent" points="310,-10 310,-30 330,-30 330,-10 310,-10"/>
<text text-anchor="start" x="333.67" y="-15.4" font-family="sans-serif" font-size="14.00"> &#160;Providers</text>
<polygon fill="#fb8072" stroke="transparent" points="406,-10 406,-30 426,-30 426,-10 406,-10"/>
<text text-anchor="start" x="429.73" y="-15.4" font-family="sans-serif" font-size="14.00"> &#160;Exports</text>
<g id="clust1" class="cluster">
<title>cluster_SafeMapSettingsModule</title>
<polygon fill="none" stroke="black" stroke-dasharray="1,5" points="51,-70 51,-268 445,-268 445,-70 51,-70"/>
</g>
<g id="clust2" class="cluster">
<title>cluster_SafeMapSettingsModule_declarations</title>
<polygon fill="none" stroke="black" points="245,-78 245,-130 437,-130 437,-78 245,-78"/>
</g>
<g id="clust4" class="cluster">
<title>cluster_SafeMapSettingsModule_imports</title>
<polygon fill="none" stroke="black" points="59,-78 59,-130 237,-130 237,-78 59,-78"/>
</g>
<g id="clust5" class="cluster">
<title>cluster_SafeMapSettingsModule_exports</title>
<polygon fill="none" stroke="black" points="150,-208 150,-260 346,-260 346,-208 150,-208"/>
</g>
<!-- SafeMapSettingsComponent -->
<g id="node1" class="node">
<title>SafeMapSettingsComponent</title>
<polygon fill="#ffffb3" stroke="black" points="429.48,-122 252.52,-122 252.52,-86 429.48,-86 429.48,-122"/>
<text text-anchor="middle" x="341" y="-99.8" font-family="Times,serif" font-size="14.00">SafeMapSettingsComponent</text>
</g>
<!-- SafeMapSettingsModule -->
<g id="node2" class="node">
<title>SafeMapSettingsModule</title>
<polygon fill="#8dd3c7" stroke="black" points="325.7,-187 322.7,-191 301.7,-191 298.7,-187 170.3,-187 170.3,-151 325.7,-151 325.7,-187"/>
<text text-anchor="middle" x="248" y="-164.8" font-family="Times,serif" font-size="14.00">SafeMapSettingsModule</text>
</g>
<!-- SafeMapSettingsComponent&#45;&gt;SafeMapSettingsModule -->
<g id="edge1" class="edge">
<title>SafeMapSettingsComponent&#45;&gt;SafeMapSettingsModule</title>
<path fill="none" stroke="black" d="M289.05,-122.11C289.05,-122.11 289.05,-140.99 289.05,-140.99"/>
<polygon fill="black" stroke="black" points="285.55,-140.99 289.05,-150.99 292.55,-140.99 285.55,-140.99"/>
</g>
<!-- SafeMapSettingsComponent  -->
<g id="node4" class="node">
<title>SafeMapSettingsComponent </title>
<polygon fill="#fb8072" stroke="black" points="338.48,-252 157.52,-252 157.52,-216 338.48,-216 338.48,-252"/>
<text text-anchor="middle" x="248" y="-229.8" font-family="Times,serif" font-size="14.00">SafeMapSettingsComponent </text>
</g>
<!-- SafeMapSettingsModule&#45;&gt;SafeMapSettingsComponent  -->
<g id="edge3" class="edge">
<title>SafeMapSettingsModule&#45;&gt;SafeMapSettingsComponent </title>
<path fill="none" stroke="black" stroke-dasharray="5,2" d="M248,-187.11C248,-187.11 248,-205.99 248,-205.99"/>
<polygon fill="black" stroke="black" points="244.5,-205.99 248,-215.99 251.5,-205.99 244.5,-205.99"/>
</g>
<!-- SafeQueryBuilderModule -->
<g id="node3" class="node">
<title>SafeQueryBuilderModule</title>
<polygon fill="#8dd3c7" stroke="black" points="228.9,-122 225.9,-126 204.9,-126 201.9,-122 67.1,-122 67.1,-86 228.9,-86 228.9,-122"/>
<text text-anchor="middle" x="148" y="-99.8" font-family="Times,serif" font-size="14.00">SafeQueryBuilderModule</text>
</g>
<!-- SafeQueryBuilderModule&#45;&gt;SafeMapSettingsModule -->
<g id="edge2" class="edge">
<title>SafeQueryBuilderModule&#45;&gt;SafeMapSettingsModule</title>
<path fill="none" stroke="black" d="M199.55,-122.11C199.55,-122.11 199.55,-140.99 199.55,-140.99"/>
<polygon fill="black" stroke="black" points="196.05,-140.99 199.55,-150.99 203.05,-140.99 196.05,-140.99"/>
</g>
</g>
</svg>
