<?xml version="1.0" encoding="UTF-8" standalone="no"?>
<!DOCTYPE svg PUBLIC "-//W3C//DTD SVG 1.1//EN"
 "http://www.w3.org/Graphics/SVG/1.1/DTD/svg11.dtd">
<!-- Generated by graphviz version 2.47.0 (20210316.0004)
 -->
<!-- Title: dependencies Pages: 1 -->
<svg width="504pt" height="284pt"
 viewBox="0.00 0.00 504.00 284.00" xmlns="http://www.w3.org/2000/svg" xmlns:xlink="http://www.w3.org/1999/xlink">
<g id="graph0" class="graph" transform="scale(1 1) rotate(0) translate(4 280)">
<title>dependencies</title>
<polygon fill="white" stroke="transparent" points="-4,4 -4,-280 500,-280 500,4 -4,4"/>
<text text-anchor="start" x="227.01" y="-42.4" font-family="sans-serif" font-weight="bold" font-size="14.00">Legend</text>
<polygon fill="#ffffb3" stroke="transparent" points="14,-10 14,-30 34,-30 34,-10 14,-10"/>
<text text-anchor="start" x="37.63" y="-15.4" font-family="sans-serif" font-size="14.00"> &#160;Declarations</text>
<polygon fill="#8dd3c7" stroke="transparent" points="127,-10 127,-30 147,-30 147,-10 127,-10"/>
<text text-anchor="start" x="150.73" y="-15.4" font-family="sans-serif" font-size="14.00"> &#160;Module</text>
<polygon fill="#80b1d3" stroke="transparent" points="213,-10 213,-30 233,-30 233,-10 213,-10"/>
<text text-anchor="start" x="236.78" y="-15.4" font-family="sans-serif" font-size="14.00"> &#160;Bootstrap</text>
<polygon fill="#fdb462" stroke="transparent" points="310,-10 310,-30 330,-30 330,-10 310,-10"/>
<text text-anchor="start" x="333.67" y="-15.4" font-family="sans-serif" font-size="14.00"> &#160;Providers</text>
<polygon fill="#fb8072" stroke="transparent" points="406,-10 406,-30 426,-30 426,-10 406,-10"/>
<text text-anchor="start" x="429.73" y="-15.4" font-family="sans-serif" font-size="14.00"> &#160;Exports</text>
<g id="clust1" class="cluster">
<title>cluster_FormRecordsModule</title>
<polygon fill="none" stroke="black" stroke-dasharray="1,5" points="51,-70 51,-268 445,-268 445,-70 51,-70"/>
</g>
<g id="clust2" class="cluster">
<title>cluster_FormRecordsModule_declarations</title>
<polygon fill="none" stroke="black" points="263,-78 263,-130 437,-130 437,-78 263,-78"/>
</g>
<g id="clust4" class="cluster">
<title>cluster_FormRecordsModule_imports</title>
<polygon fill="none" stroke="black" points="59,-78 59,-130 255,-130 255,-78 59,-78"/>
</g>
<g id="clust5" class="cluster">
<title>cluster_FormRecordsModule_exports</title>
<polygon fill="none" stroke="black" points="163,-208 163,-260 341,-260 341,-208 163,-208"/>
</g>
<!-- FormRecordsComponent -->
<g id="node1" class="node">
<title>FormRecordsComponent</title>
<polygon fill="#ffffb3" stroke="black" points="428.54,-122 271.46,-122 271.46,-86 428.54,-86 428.54,-122"/>
<text text-anchor="middle" x="350" y="-99.8" font-family="Times,serif" font-size="14.00">FormRecordsComponent</text>
</g>
<!-- FormRecordsModule -->
<g id="node2" class="node">
<title>FormRecordsModule</title>
<polygon fill="#8dd3c7" stroke="black" points="319.75,-187 316.75,-191 295.75,-191 292.75,-187 184.25,-187 184.25,-151 319.75,-151 319.75,-187"/>
<text text-anchor="middle" x="252" y="-164.8" font-family="Times,serif" font-size="14.00">FormRecordsModule</text>
</g>
<!-- FormRecordsComponent&#45;&gt;FormRecordsModule -->
<g id="edge1" class="edge">
<title>FormRecordsComponent&#45;&gt;FormRecordsModule</title>
<path fill="none" stroke="black" d="M295.55,-122.11C295.55,-122.11 295.55,-140.99 295.55,-140.99"/>
<polygon fill="black" stroke="black" points="292.05,-140.99 295.55,-150.99 299.05,-140.99 292.05,-140.99"/>
</g>
<!-- FormRecordsComponent  -->
<g id="node4" class="node">
<title>FormRecordsComponent </title>
<polygon fill="#fb8072" stroke="black" points="332.54,-252 171.46,-252 171.46,-216 332.54,-216 332.54,-252"/>
<text text-anchor="middle" x="252" y="-229.8" font-family="Times,serif" font-size="14.00">FormRecordsComponent </text>
</g>
<!-- FormRecordsModule&#45;&gt;FormRecordsComponent  -->
<g id="edge3" class="edge">
<title>FormRecordsModule&#45;&gt;FormRecordsComponent </title>
<path fill="none" stroke="black" stroke-dasharray="5,2" d="M252,-187.11C252,-187.11 252,-205.99 252,-205.99"/>
<polygon fill="black" stroke="black" points="248.5,-205.99 252,-215.99 255.5,-205.99 248.5,-205.99"/>
</g>
<!-- FormRecordsRoutingModule -->
<g id="node3" class="node">
<title>FormRecordsRoutingModule</title>
<polygon fill="#8dd3c7" stroke="black" points="247.37,-122 244.37,-126 223.37,-126 220.37,-122 66.63,-122 66.63,-86 247.37,-86 247.37,-122"/>
<text text-anchor="middle" x="157" y="-99.8" font-family="Times,serif" font-size="14.00">FormRecordsRoutingModule</text>
</g>
<!-- FormRecordsRoutingModule&#45;&gt;FormRecordsModule -->
<g id="edge2" class="edge">
<title>FormRecordsRoutingModule&#45;&gt;FormRecordsModule</title>
<path fill="none" stroke="black" d="M215.78,-122.11C215.78,-122.11 215.78,-140.99 215.78,-140.99"/>
<polygon fill="black" stroke="black" points="212.28,-140.99 215.78,-150.99 219.28,-140.99 212.28,-140.99"/>
</g>
</g>
</svg>
