<?xml version="1.0" encoding="UTF-8" standalone="no"?>
<!DOCTYPE svg PUBLIC "-//W3C//DTD SVG 1.1//EN"
 "http://www.w3.org/Graphics/SVG/1.1/DTD/svg11.dtd">
<!-- Generated by graphviz version 2.47.0 (20210316.0004)
 -->
<!-- Title: dependencies Pages: 1 -->
<svg width="504pt" height="284pt"
 viewBox="0.00 0.00 504.00 284.00" xmlns="http://www.w3.org/2000/svg" xmlns:xlink="http://www.w3.org/1999/xlink">
<g id="graph0" class="graph" transform="scale(1 1) rotate(0) translate(4 280)">
<title>dependencies</title>
<polygon fill="white" stroke="transparent" points="-4,4 -4,-280 500,-280 500,4 -4,4"/>
<text text-anchor="start" x="227.01" y="-42.4" font-family="sans-serif" font-weight="bold" font-size="14.00">Legend</text>
<polygon fill="#ffffb3" stroke="transparent" points="14,-10 14,-30 34,-30 34,-10 14,-10"/>
<text text-anchor="start" x="37.63" y="-15.4" font-family="sans-serif" font-size="14.00"> &#160;Declarations</text>
<polygon fill="#8dd3c7" stroke="transparent" points="127,-10 127,-30 147,-30 147,-10 127,-10"/>
<text text-anchor="start" x="150.73" y="-15.4" font-family="sans-serif" font-size="14.00"> &#160;Module</text>
<polygon fill="#80b1d3" stroke="transparent" points="213,-10 213,-30 233,-30 233,-10 213,-10"/>
<text text-anchor="start" x="236.78" y="-15.4" font-family="sans-serif" font-size="14.00"> &#160;Bootstrap</text>
<polygon fill="#fdb462" stroke="transparent" points="310,-10 310,-30 330,-30 330,-10 310,-10"/>
<text text-anchor="start" x="333.67" y="-15.4" font-family="sans-serif" font-size="14.00"> &#160;Providers</text>
<polygon fill="#fb8072" stroke="transparent" points="406,-10 406,-30 426,-30 426,-10 406,-10"/>
<text text-anchor="start" x="429.73" y="-15.4" font-family="sans-serif" font-size="14.00"> &#160;Exports</text>
<g id="clust1" class="cluster">
<title>cluster_FormRecordsModule</title>
<polygon fill="none" stroke="black" stroke-dasharray="1,5" points="51,-70 51,-268 445,-268 445,-70 51,-70"/>
</g>
<g id="clust4" class="cluster">
<title>cluster_FormRecordsModule_imports</title>
<polygon fill="none" stroke="black" points="241,-78 241,-130 437,-130 437,-78 241,-78"/>
</g>
<g id="clust2" class="cluster">
<title>cluster_FormRecordsModule_declarations</title>
<polygon fill="none" stroke="black" points="59,-78 59,-130 233,-130 233,-78 59,-78"/>
</g>
<g id="clust5" class="cluster">
<title>cluster_FormRecordsModule_exports</title>
<polygon fill="none" stroke="black" points="154,-208 154,-260 332,-260 332,-208 154,-208"/>
</g>
<!-- FormRecordsComponent -->
<g id="node1" class="node">
<title>FormRecordsComponent</title>
<polygon fill="#ffffb3" stroke="black" points="224.54,-122 67.46,-122 67.46,-86 224.54,-86 224.54,-122"/>
<text text-anchor="middle" x="146" y="-99.8" font-family="Times,serif" font-size="14.00">FormRecordsComponent</text>
</g>
<!-- FormRecordsModule -->
<g id="node2" class="node">
<title>FormRecordsModule</title>
<polygon fill="#8dd3c7" stroke="black" points="310.75,-187 307.75,-191 286.75,-191 283.75,-187 175.25,-187 175.25,-151 310.75,-151 310.75,-187"/>
<text text-anchor="middle" x="243" y="-164.8" font-family="Times,serif" font-size="14.00">FormRecordsModule</text>
</g>
<!-- FormRecordsComponent&#45;&gt;FormRecordsModule -->
<g id="edge1" class="edge">
<title>FormRecordsComponent&#45;&gt;FormRecordsModule</title>
<path fill="none" stroke="black" d="M199.95,-122.11C199.95,-122.11 199.95,-140.99 199.95,-140.99"/>
<polygon fill="black" stroke="black" points="196.45,-140.99 199.95,-150.99 203.45,-140.99 196.45,-140.99"/>
</g>
<!-- FormRecordsComponent  -->
<g id="node4" class="node">
<title>FormRecordsComponent </title>
<polygon fill="#fb8072" stroke="black" points="323.54,-252 162.46,-252 162.46,-216 323.54,-216 323.54,-252"/>
<text text-anchor="middle" x="243" y="-229.8" font-family="Times,serif" font-size="14.00">FormRecordsComponent </text>
</g>
<!-- FormRecordsModule&#45;&gt;FormRecordsComponent  -->
<g id="edge3" class="edge">
<title>FormRecordsModule&#45;&gt;FormRecordsComponent </title>
<path fill="none" stroke="black" stroke-dasharray="5,2" d="M243,-187.11C243,-187.11 243,-205.99 243,-205.99"/>
<polygon fill="black" stroke="black" points="239.5,-205.99 243,-215.99 246.5,-205.99 239.5,-205.99"/>
</g>
<!-- FormRecordsRoutingModule -->
<g id="node3" class="node">
<title>FormRecordsRoutingModule</title>
<polygon fill="#8dd3c7" stroke="black" points="429.37,-122 426.37,-126 405.37,-126 402.37,-122 248.63,-122 248.63,-86 429.37,-86 429.37,-122"/>
<text text-anchor="middle" x="339" y="-99.8" font-family="Times,serif" font-size="14.00">FormRecordsRoutingModule</text>
</g>
<!-- FormRecordsRoutingModule&#45;&gt;FormRecordsModule -->
<g id="edge2" class="edge">
<title>FormRecordsRoutingModule&#45;&gt;FormRecordsModule</title>
<path fill="none" stroke="black" d="M279.72,-122.11C279.72,-122.11 279.72,-140.99 279.72,-140.99"/>
<polygon fill="black" stroke="black" points="276.22,-140.99 279.72,-150.99 283.22,-140.99 276.22,-140.99"/>
</g>
</g>
</svg>
