<?xml version="1.0" encoding="UTF-8" standalone="no"?>
<!DOCTYPE svg PUBLIC "-//W3C//DTD SVG 1.1//EN"
 "http://www.w3.org/Graphics/SVG/1.1/DTD/svg11.dtd">
<!-- Generated by graphviz version 2.47.0 (20210316.0004)
 -->
<!-- Title: dependencies Pages: 1 -->
<svg width="734pt" height="284pt"
 viewBox="0.00 0.00 734.00 284.00" xmlns="http://www.w3.org/2000/svg" xmlns:xlink="http://www.w3.org/1999/xlink">
<g id="graph0" class="graph" transform="scale(1 1) rotate(0) translate(4 280)">
<title>dependencies</title>
<polygon fill="white" stroke="transparent" points="-4,4 -4,-280 730,-280 730,4 -4,4"/>
<text text-anchor="start" x="342.01" y="-42.4" font-family="sans-serif" font-weight="bold" font-size="14.00">Legend</text>
<polygon fill="#ffffb3" stroke="transparent" points="129,-10 129,-30 149,-30 149,-10 129,-10"/>
<text text-anchor="start" x="152.63" y="-15.4" font-family="sans-serif" font-size="14.00"> &#160;Declarations</text>
<polygon fill="#8dd3c7" stroke="transparent" points="242,-10 242,-30 262,-30 262,-10 242,-10"/>
<text text-anchor="start" x="265.73" y="-15.4" font-family="sans-serif" font-size="14.00"> &#160;Module</text>
<polygon fill="#80b1d3" stroke="transparent" points="328,-10 328,-30 348,-30 348,-10 328,-10"/>
<text text-anchor="start" x="351.78" y="-15.4" font-family="sans-serif" font-size="14.00"> &#160;Bootstrap</text>
<polygon fill="#fdb462" stroke="transparent" points="425,-10 425,-30 445,-30 445,-10 425,-10"/>
<text text-anchor="start" x="448.67" y="-15.4" font-family="sans-serif" font-size="14.00"> &#160;Providers</text>
<polygon fill="#fb8072" stroke="transparent" points="521,-10 521,-30 541,-30 541,-10 521,-10"/>
<text text-anchor="start" x="544.73" y="-15.4" font-family="sans-serif" font-size="14.00"> &#160;Exports</text>
<g id="clust1" class="cluster">
<title>cluster_SafeRolesModule</title>
<polygon fill="none" stroke="black" stroke-dasharray="1,5" points="8,-70 8,-268 718,-268 718,-70 8,-70"/>
</g>
<g id="clust6" class="cluster">
<title>cluster_SafeRolesModule_imports</title>
<polygon fill="none" stroke="black" points="526,-78 526,-130 710,-130 710,-78 526,-78"/>
</g>
<g id="clust2" class="cluster">
<title>cluster_SafeRolesModule_declarations</title>
<polygon fill="none" stroke="black" points="16,-78 16,-130 518,-130 518,-78 16,-78"/>
</g>
<g id="clust7" class="cluster">
<title>cluster_SafeRolesModule_exports</title>
<polygon fill="none" stroke="black" points="266,-208 266,-260 424,-260 424,-208 266,-208"/>
</g>
<!-- SafeAddRoleComponent -->
<g id="node1" class="node">
<title>SafeAddRoleComponent</title>
<polygon fill="#ffffb3" stroke="black" points="510.25,-122 353.75,-122 353.75,-86 510.25,-86 510.25,-122"/>
<text text-anchor="middle" x="432" y="-99.8" font-family="Times,serif" font-size="14.00">SafeAddRoleComponent</text>
</g>
<!-- SafeRolesModule -->
<g id="node4" class="node">
<title>SafeRolesModule</title>
<polygon fill="#8dd3c7" stroke="black" points="403.31,-187 400.31,-191 379.31,-191 376.31,-187 286.69,-187 286.69,-151 403.31,-151 403.31,-187"/>
<text text-anchor="middle" x="345" y="-164.8" font-family="Times,serif" font-size="14.00">SafeRolesModule</text>
</g>
<!-- SafeAddRoleComponent&#45;&gt;SafeRolesModule -->
<g id="edge1" class="edge">
<title>SafeAddRoleComponent&#45;&gt;SafeRolesModule</title>
<path fill="none" stroke="black" d="M378.39,-122.11C378.39,-122.11 378.39,-140.99 378.39,-140.99"/>
<polygon fill="black" stroke="black" points="374.89,-140.99 378.39,-150.99 381.89,-140.99 374.89,-140.99"/>
</g>
<!-- SafeEditRoleComponent -->
<g id="node2" class="node">
<title>SafeEditRoleComponent</title>
<polygon fill="#ffffb3" stroke="black" points="335.98,-122 180.02,-122 180.02,-86 335.98,-86 335.98,-122"/>
<text text-anchor="middle" x="258" y="-99.8" font-family="Times,serif" font-size="14.00">SafeEditRoleComponent</text>
</g>
<!-- SafeEditRoleComponent&#45;&gt;SafeRolesModule -->
<g id="edge2" class="edge">
<title>SafeEditRoleComponent&#45;&gt;SafeRolesModule</title>
<path fill="none" stroke="black" d="M311.42,-122.11C311.42,-122.11 311.42,-140.99 311.42,-140.99"/>
<polygon fill="black" stroke="black" points="307.92,-140.99 311.42,-150.99 314.92,-140.99 307.92,-140.99"/>
</g>
<!-- SafeRolesComponent -->
<g id="node3" class="node">
<title>SafeRolesComponent</title>
<polygon fill="#ffffb3" stroke="black" points="162.09,-122 23.91,-122 23.91,-86 162.09,-86 162.09,-122"/>
<text text-anchor="middle" x="93" y="-99.8" font-family="Times,serif" font-size="14.00">SafeRolesComponent</text>
</g>
<!-- SafeRolesComponent&#45;&gt;SafeRolesModule -->
<g id="edge3" class="edge">
<title>SafeRolesComponent&#45;&gt;SafeRolesModule</title>
<path fill="none" stroke="black" d="M93,-122.11C93,-141.34 93,-169 93,-169 93,-169 276.55,-169 276.55,-169"/>
<polygon fill="black" stroke="black" points="276.55,-172.5 286.55,-169 276.55,-165.5 276.55,-172.5"/>
</g>
<!-- SafeRolesComponent  -->
<g id="node6" class="node">
<title>SafeRolesComponent </title>
<polygon fill="#fb8072" stroke="black" points="415.59,-252 274.41,-252 274.41,-216 415.59,-216 415.59,-252"/>
<text text-anchor="middle" x="345" y="-229.8" font-family="Times,serif" font-size="14.00">SafeRolesComponent </text>
</g>
<!-- SafeRolesModule&#45;&gt;SafeRolesComponent  -->
<g id="edge5" class="edge">
<title>SafeRolesModule&#45;&gt;SafeRolesComponent </title>
<path fill="none" stroke="black" stroke-dasharray="5,2" d="M345,-187.11C345,-187.11 345,-205.99 345,-205.99"/>
<polygon fill="black" stroke="black" points="341.5,-205.99 345,-215.99 348.5,-205.99 341.5,-205.99"/>
</g>
<!-- SafeConfirmModalModule -->
<g id="node5" class="node">
<title>SafeConfirmModalModule</title>
<polygon fill="#8dd3c7" stroke="black" points="702.41,-122 699.41,-126 678.41,-126 675.41,-122 533.59,-122 533.59,-86 702.41,-86 702.41,-122"/>
<text text-anchor="middle" x="618" y="-99.8" font-family="Times,serif" font-size="14.00">SafeConfirmModalModule</text>
</g>
<!-- SafeConfirmModalModule&#45;&gt;SafeRolesModule -->
<g id="edge4" class="edge">
<title>SafeConfirmModalModule&#45;&gt;SafeRolesModule</title>
<path fill="none" stroke="black" d="M618,-122.11C618,-141.34 618,-169 618,-169 618,-169 413.23,-169 413.23,-169"/>
<polygon fill="black" stroke="black" points="413.23,-165.5 403.23,-169 413.23,-172.5 413.23,-165.5"/>
</g>
</g>
</svg>
