<?xml version="1.0" encoding="UTF-8" standalone="no"?>
<!DOCTYPE svg PUBLIC "-//W3C//DTD SVG 1.1//EN"
 "http://www.w3.org/Graphics/SVG/1.1/DTD/svg11.dtd">
<!-- Generated by graphviz version 2.47.0 (20210316.0004)
 -->
<!-- Title: dependencies Pages: 1 -->
<svg width="734pt" height="284pt"
 viewBox="0.00 0.00 734.00 284.00" xmlns="http://www.w3.org/2000/svg" xmlns:xlink="http://www.w3.org/1999/xlink">
<g id="graph0" class="graph" transform="scale(1 1) rotate(0) translate(4 280)">
<title>dependencies</title>
<polygon fill="white" stroke="transparent" points="-4,4 -4,-280 730,-280 730,4 -4,4"/>
<text text-anchor="start" x="342.01" y="-42.4" font-family="sans-serif" font-weight="bold" font-size="14.00">Legend</text>
<polygon fill="#ffffb3" stroke="transparent" points="129,-10 129,-30 149,-30 149,-10 129,-10"/>
<text text-anchor="start" x="152.63" y="-15.4" font-family="sans-serif" font-size="14.00"> &#160;Declarations</text>
<polygon fill="#8dd3c7" stroke="transparent" points="242,-10 242,-30 262,-30 262,-10 242,-10"/>
<text text-anchor="start" x="265.73" y="-15.4" font-family="sans-serif" font-size="14.00"> &#160;Module</text>
<polygon fill="#80b1d3" stroke="transparent" points="328,-10 328,-30 348,-30 348,-10 328,-10"/>
<text text-anchor="start" x="351.78" y="-15.4" font-family="sans-serif" font-size="14.00"> &#160;Bootstrap</text>
<polygon fill="#fdb462" stroke="transparent" points="425,-10 425,-30 445,-30 445,-10 425,-10"/>
<text text-anchor="start" x="448.67" y="-15.4" font-family="sans-serif" font-size="14.00"> &#160;Providers</text>
<polygon fill="#fb8072" stroke="transparent" points="521,-10 521,-30 541,-30 541,-10 521,-10"/>
<text text-anchor="start" x="544.73" y="-15.4" font-family="sans-serif" font-size="14.00"> &#160;Exports</text>
<g id="clust1" class="cluster">
<title>cluster_SafeRolesModule</title>
<polygon fill="none" stroke="black" stroke-dasharray="1,5" points="8,-70 8,-268 718,-268 718,-70 8,-70"/>
</g>
<g id="clust2" class="cluster">
<title>cluster_SafeRolesModule_declarations</title>
<polygon fill="none" stroke="black" points="208,-78 208,-130 710,-130 710,-78 208,-78"/>
</g>
<g id="clust7" class="cluster">
<title>cluster_SafeRolesModule_exports</title>
<polygon fill="none" stroke="black" points="288,-208 288,-260 446,-260 446,-208 288,-208"/>
</g>
<g id="clust6" class="cluster">
<title>cluster_SafeRolesModule_imports</title>
<polygon fill="none" stroke="black" points="16,-78 16,-130 200,-130 200,-78 16,-78"/>
</g>
<!-- SafeAddRoleComponent -->
<g id="node1" class="node">
<title>SafeAddRoleComponent</title>
<polygon fill="#ffffb3" stroke="black" points="702.25,-122 545.75,-122 545.75,-86 702.25,-86 702.25,-122"/>
<text text-anchor="middle" x="624" y="-99.8" font-family="Times,serif" font-size="14.00">SafeAddRoleComponent</text>
</g>
<!-- SafeRolesModule -->
<g id="node4" class="node">
<title>SafeRolesModule</title>
<polygon fill="#8dd3c7" stroke="black" points="425.31,-187 422.31,-191 401.31,-191 398.31,-187 308.69,-187 308.69,-151 425.31,-151 425.31,-187"/>
<text text-anchor="middle" x="367" y="-164.8" font-family="Times,serif" font-size="14.00">SafeRolesModule</text>
</g>
<!-- SafeAddRoleComponent&#45;&gt;SafeRolesModule -->
<g id="edge1" class="edge">
<title>SafeAddRoleComponent&#45;&gt;SafeRolesModule</title>
<path fill="none" stroke="black" d="M624,-122.11C624,-141.34 624,-169 624,-169 624,-169 435.32,-169 435.32,-169"/>
<polygon fill="black" stroke="black" points="435.32,-165.5 425.32,-169 435.32,-172.5 435.32,-165.5"/>
</g>
<!-- SafeEditRoleComponent -->
<g id="node2" class="node">
<title>SafeEditRoleComponent</title>
<polygon fill="#ffffb3" stroke="black" points="527.98,-122 372.02,-122 372.02,-86 527.98,-86 527.98,-122"/>
<text text-anchor="middle" x="450" y="-99.8" font-family="Times,serif" font-size="14.00">SafeEditRoleComponent</text>
</g>
<!-- SafeEditRoleComponent&#45;&gt;SafeRolesModule -->
<g id="edge2" class="edge">
<title>SafeEditRoleComponent&#45;&gt;SafeRolesModule</title>
<path fill="none" stroke="black" d="M398.58,-122.11C398.58,-122.11 398.58,-140.99 398.58,-140.99"/>
<polygon fill="black" stroke="black" points="395.08,-140.99 398.58,-150.99 402.08,-140.99 395.08,-140.99"/>
</g>
<!-- SafeRolesComponent -->
<g id="node3" class="node">
<title>SafeRolesComponent</title>
<polygon fill="#ffffb3" stroke="black" points="354.09,-122 215.91,-122 215.91,-86 354.09,-86 354.09,-122"/>
<text text-anchor="middle" x="285" y="-99.8" font-family="Times,serif" font-size="14.00">SafeRolesComponent</text>
</g>
<!-- SafeRolesComponent&#45;&gt;SafeRolesModule -->
<g id="edge3" class="edge">
<title>SafeRolesComponent&#45;&gt;SafeRolesModule</title>
<path fill="none" stroke="black" d="M331.45,-122.11C331.45,-122.11 331.45,-140.99 331.45,-140.99"/>
<polygon fill="black" stroke="black" points="327.95,-140.99 331.45,-150.99 334.95,-140.99 327.95,-140.99"/>
</g>
<!-- SafeRolesComponent  -->
<g id="node6" class="node">
<title>SafeRolesComponent </title>
<polygon fill="#fb8072" stroke="black" points="437.59,-252 296.41,-252 296.41,-216 437.59,-216 437.59,-252"/>
<text text-anchor="middle" x="367" y="-229.8" font-family="Times,serif" font-size="14.00">SafeRolesComponent </text>
</g>
<!-- SafeRolesModule&#45;&gt;SafeRolesComponent  -->
<g id="edge5" class="edge">
<title>SafeRolesModule&#45;&gt;SafeRolesComponent </title>
<path fill="none" stroke="black" stroke-dasharray="5,2" d="M367,-187.11C367,-187.11 367,-205.99 367,-205.99"/>
<polygon fill="black" stroke="black" points="363.5,-205.99 367,-215.99 370.5,-205.99 363.5,-205.99"/>
</g>
<!-- SafeConfirmModalModule -->
<g id="node5" class="node">
<title>SafeConfirmModalModule</title>
<polygon fill="#8dd3c7" stroke="black" points="192.41,-122 189.41,-126 168.41,-126 165.41,-122 23.59,-122 23.59,-86 192.41,-86 192.41,-122"/>
<text text-anchor="middle" x="108" y="-99.8" font-family="Times,serif" font-size="14.00">SafeConfirmModalModule</text>
</g>
<!-- SafeConfirmModalModule&#45;&gt;SafeRolesModule -->
<g id="edge4" class="edge">
<title>SafeConfirmModalModule&#45;&gt;SafeRolesModule</title>
<path fill="none" stroke="black" d="M108,-122.11C108,-141.34 108,-169 108,-169 108,-169 298.55,-169 298.55,-169"/>
<polygon fill="black" stroke="black" points="298.55,-172.5 308.55,-169 298.55,-165.5 298.55,-172.5"/>
</g>
</g>
</svg>
