<?xml version="1.0" encoding="UTF-8" standalone="no"?>
<!DOCTYPE svg PUBLIC "-//W3C//DTD SVG 1.1//EN"
 "http://www.w3.org/Graphics/SVG/1.1/DTD/svg11.dtd">
<!-- Generated by graphviz version 2.47.0 (20210316.0004)
 -->
<!-- Title: dependencies Pages: 1 -->
<svg width="504pt" height="211pt"
 viewBox="0.00 0.00 504.00 211.00" xmlns="http://www.w3.org/2000/svg" xmlns:xlink="http://www.w3.org/1999/xlink">
<g id="graph0" class="graph" transform="scale(1 1) rotate(0) translate(4 207)">
<title>dependencies</title>
<polygon fill="white" stroke="transparent" points="-4,4 -4,-207 500,-207 500,4 -4,4"/>
<text text-anchor="start" x="227.01" y="-42.4" font-family="sans-serif" font-weight="bold" font-size="14.00">Legend</text>
<polygon fill="#ffffb3" stroke="transparent" points="14,-10 14,-30 34,-30 34,-10 14,-10"/>
<text text-anchor="start" x="37.63" y="-15.4" font-family="sans-serif" font-size="14.00"> &#160;Declarations</text>
<polygon fill="#8dd3c7" stroke="transparent" points="127,-10 127,-30 147,-30 147,-10 127,-10"/>
<text text-anchor="start" x="150.73" y="-15.4" font-family="sans-serif" font-size="14.00"> &#160;Module</text>
<polygon fill="#80b1d3" stroke="transparent" points="213,-10 213,-30 233,-30 233,-10 213,-10"/>
<text text-anchor="start" x="236.78" y="-15.4" font-family="sans-serif" font-size="14.00"> &#160;Bootstrap</text>
<polygon fill="#fdb462" stroke="transparent" points="310,-10 310,-30 330,-30 330,-10 310,-10"/>
<text text-anchor="start" x="333.67" y="-15.4" font-family="sans-serif" font-size="14.00"> &#160;Providers</text>
<polygon fill="#fb8072" stroke="transparent" points="406,-10 406,-30 426,-30 426,-10 406,-10"/>
<text text-anchor="start" x="429.73" y="-15.4" font-family="sans-serif" font-size="14.00"> &#160;Exports</text>
<g id="clust1" class="cluster">
<title>cluster_AddPageModule</title>
<polygon fill="none" stroke="black" stroke-dasharray="1,5" points="19,-70 19,-195 477,-195 477,-70 19,-70"/>
</g>
<g id="clust4" class="cluster">
<title>cluster_AddPageModule_imports</title>
<polygon fill="none" stroke="black" points="183,-78 183,-130 469,-130 469,-78 183,-78"/>
</g>
<g id="clust2" class="cluster">
<title>cluster_AddPageModule_declarations</title>
<polygon fill="none" stroke="black" points="27,-78 27,-130 175,-130 175,-78 27,-78"/>
</g>
<!-- AddPageComponent -->
<g id="node1" class="node">
<title>AddPageComponent</title>
<polygon fill="#ffffb3" stroke="black" points="167.15,-122 34.85,-122 34.85,-86 167.15,-86 167.15,-122"/>
<text text-anchor="middle" x="101" y="-99.8" font-family="Times,serif" font-size="14.00">AddPageComponent</text>
</g>
<!-- AddPageModule -->
<g id="node2" class="node">
<title>AddPageModule</title>
<polygon fill="#8dd3c7" stroke="black" points="294.37,-187 291.37,-191 270.37,-191 267.37,-187 183.63,-187 183.63,-151 294.37,-151 294.37,-187"/>
<text text-anchor="middle" x="239" y="-164.8" font-family="Times,serif" font-size="14.00">AddPageModule</text>
</g>
<!-- AddPageComponent&#45;&gt;AddPageModule -->
<g id="edge1" class="edge">
<title>AddPageComponent&#45;&gt;AddPageModule</title>
<path fill="none" stroke="black" d="M167.4,-104C179.01,-104 187.45,-104 187.45,-104 187.45,-104 187.45,-140.89 187.45,-140.89"/>
<polygon fill="black" stroke="black" points="183.95,-140.89 187.45,-150.89 190.95,-140.89 183.95,-140.89"/>
</g>
<!-- AddPageRoutingModule -->
<g id="node3" class="node">
<title>AddPageRoutingModule</title>
<polygon fill="#8dd3c7" stroke="black" points="460.99,-122 457.99,-126 436.99,-126 433.99,-122 305.01,-122 305.01,-86 460.99,-86 460.99,-122"/>
<text text-anchor="middle" x="383" y="-99.8" font-family="Times,serif" font-size="14.00">AddPageRoutingModule</text>
</g>
<!-- AddPageRoutingModule&#45;&gt;AddPageModule -->
<g id="edge2" class="edge">
<title>AddPageRoutingModule&#45;&gt;AddPageModule</title>
<path fill="none" stroke="black" d="M304.99,-104C296.33,-104 290.55,-104 290.55,-104 290.55,-104 290.55,-140.89 290.55,-140.89"/>
<polygon fill="black" stroke="black" points="287.05,-140.89 290.55,-150.89 294.05,-140.89 287.05,-140.89"/>
</g>
<!-- FormsModule -->
<g id="node4" class="node">
<title>FormsModule</title>
<polygon fill="#8dd3c7" stroke="black" points="286.83,-122 283.83,-126 262.83,-126 259.83,-122 191.17,-122 191.17,-86 286.83,-86 286.83,-122"/>
<text text-anchor="middle" x="239" y="-99.8" font-family="Times,serif" font-size="14.00">FormsModule</text>
</g>
<!-- FormsModule&#45;&gt;AddPageModule -->
<g id="edge3" class="edge">
<title>FormsModule&#45;&gt;AddPageModule</title>
<path fill="none" stroke="black" d="M239,-122.11C239,-122.11 239,-140.99 239,-140.99"/>
<polygon fill="black" stroke="black" points="235.5,-140.99 239,-150.99 242.5,-140.99 235.5,-140.99"/>
</g>
</g>
</svg>
