<?xml version="1.0" encoding="UTF-8" standalone="no"?>
<!DOCTYPE svg PUBLIC "-//W3C//DTD SVG 1.1//EN"
 "http://www.w3.org/Graphics/SVG/1.1/DTD/svg11.dtd">
<!-- Generated by graphviz version 2.47.0 (20210316.0004)
 -->
<!-- Title: dependencies Pages: 1 -->
<svg width="738pt" height="211pt"
 viewBox="0.00 0.00 738.00 211.00" xmlns="http://www.w3.org/2000/svg" xmlns:xlink="http://www.w3.org/1999/xlink">
<g id="graph0" class="graph" transform="scale(1 1) rotate(0) translate(4 207)">
<title>dependencies</title>
<polygon fill="white" stroke="transparent" points="-4,4 -4,-207 734,-207 734,4 -4,4"/>
<text text-anchor="start" x="344.01" y="-42.4" font-family="sans-serif" font-weight="bold" font-size="14.00">Legend</text>
<polygon fill="#ffffb3" stroke="transparent" points="131,-10 131,-30 151,-30 151,-10 131,-10"/>
<text text-anchor="start" x="154.63" y="-15.4" font-family="sans-serif" font-size="14.00"> &#160;Declarations</text>
<polygon fill="#8dd3c7" stroke="transparent" points="244,-10 244,-30 264,-30 264,-10 244,-10"/>
<text text-anchor="start" x="267.73" y="-15.4" font-family="sans-serif" font-size="14.00"> &#160;Module</text>
<polygon fill="#80b1d3" stroke="transparent" points="330,-10 330,-30 350,-30 350,-10 330,-10"/>
<text text-anchor="start" x="353.78" y="-15.4" font-family="sans-serif" font-size="14.00"> &#160;Bootstrap</text>
<polygon fill="#fdb462" stroke="transparent" points="427,-10 427,-30 447,-30 447,-10 427,-10"/>
<text text-anchor="start" x="450.67" y="-15.4" font-family="sans-serif" font-size="14.00"> &#160;Providers</text>
<polygon fill="#fb8072" stroke="transparent" points="523,-10 523,-30 543,-30 543,-10 523,-10"/>
<text text-anchor="start" x="546.73" y="-15.4" font-family="sans-serif" font-size="14.00"> &#160;Exports</text>
<g id="clust1" class="cluster">
<title>cluster_SubscriptionsModule</title>
<polygon fill="none" stroke="black" stroke-dasharray="1,5" points="8,-70 8,-195 722,-195 722,-70 8,-70"/>
</g>
<g id="clust2" class="cluster">
<title>cluster_SubscriptionsModule_declarations</title>
<polygon fill="none" stroke="black" points="334,-78 334,-130 714,-130 714,-78 334,-78"/>
</g>
<g id="clust5" class="cluster">
<title>cluster_SubscriptionsModule_imports</title>
<polygon fill="none" stroke="black" points="16,-78 16,-130 326,-130 326,-78 16,-78"/>
</g>
<!-- SubscriptionModalComponent -->
<g id="node1" class="node">
<title>SubscriptionModalComponent</title>
<polygon fill="#ffffb3" stroke="black" points="706.16,-122 517.84,-122 517.84,-86 706.16,-86 706.16,-122"/>
<text text-anchor="middle" x="612" y="-99.8" font-family="Times,serif" font-size="14.00">SubscriptionModalComponent</text>
</g>
<!-- SubscriptionsModule -->
<g id="node3" class="node">
<title>SubscriptionsModule</title>
<polygon fill="#8dd3c7" stroke="black" points="412.77,-187 409.77,-191 388.77,-191 385.77,-187 277.23,-187 277.23,-151 412.77,-151 412.77,-187"/>
<text text-anchor="middle" x="345" y="-164.8" font-family="Times,serif" font-size="14.00">SubscriptionsModule</text>
</g>
<!-- SubscriptionModalComponent&#45;&gt;SubscriptionsModule -->
<g id="edge1" class="edge">
<title>SubscriptionModalComponent&#45;&gt;SubscriptionsModule</title>
<path fill="none" stroke="black" d="M612,-122.11C612,-141.34 612,-169 612,-169 612,-169 423.07,-169 423.07,-169"/>
<polygon fill="black" stroke="black" points="423.07,-165.5 413.07,-169 423.07,-172.5 423.07,-165.5"/>
</g>
<!-- SubscriptionsComponent -->
<g id="node2" class="node">
<title>SubscriptionsComponent</title>
<polygon fill="#ffffb3" stroke="black" points="499.55,-122 342.45,-122 342.45,-86 499.55,-86 499.55,-122"/>
<text text-anchor="middle" x="421" y="-99.8" font-family="Times,serif" font-size="14.00">SubscriptionsComponent</text>
</g>
<!-- SubscriptionsComponent&#45;&gt;SubscriptionsModule -->
<g id="edge2" class="edge">
<title>SubscriptionsComponent&#45;&gt;SubscriptionsModule</title>
<path fill="none" stroke="black" d="M377.55,-122.11C377.55,-122.11 377.55,-140.99 377.55,-140.99"/>
<polygon fill="black" stroke="black" points="374.05,-140.99 377.55,-150.99 381.05,-140.99 374.05,-140.99"/>
</g>
<!-- FormsModule -->
<g id="node4" class="node">
<title>FormsModule</title>
<polygon fill="#8dd3c7" stroke="black" points="317.83,-122 314.83,-126 293.83,-126 290.83,-122 222.17,-122 222.17,-86 317.83,-86 317.83,-122"/>
<text text-anchor="middle" x="270" y="-99.8" font-family="Times,serif" font-size="14.00">FormsModule</text>
</g>
<!-- FormsModule&#45;&gt;SubscriptionsModule -->
<g id="edge3" class="edge">
<title>FormsModule&#45;&gt;SubscriptionsModule</title>
<path fill="none" stroke="black" d="M297.39,-122.11C297.39,-122.11 297.39,-140.99 297.39,-140.99"/>
<polygon fill="black" stroke="black" points="293.89,-140.99 297.39,-150.99 300.89,-140.99 293.89,-140.99"/>
</g>
<!-- SubscriptionsRoutingModule -->
<g id="node5" class="node">
<title>SubscriptionsRoutingModule</title>
<polygon fill="#8dd3c7" stroke="black" points="204.39,-122 201.39,-126 180.39,-126 177.39,-122 23.61,-122 23.61,-86 204.39,-86 204.39,-122"/>
<text text-anchor="middle" x="114" y="-99.8" font-family="Times,serif" font-size="14.00">SubscriptionsRoutingModule</text>
</g>
<!-- SubscriptionsRoutingModule&#45;&gt;SubscriptionsModule -->
<g id="edge4" class="edge">
<title>SubscriptionsRoutingModule&#45;&gt;SubscriptionsModule</title>
<path fill="none" stroke="black" d="M114,-122.11C114,-141.34 114,-169 114,-169 114,-169 266.94,-169 266.94,-169"/>
<polygon fill="black" stroke="black" points="266.94,-172.5 276.94,-169 266.94,-165.5 266.94,-172.5"/>
</g>
</g>
</svg>
