<?xml version="1.0" encoding="UTF-8" standalone="no"?>
<!DOCTYPE svg PUBLIC "-//W3C//DTD SVG 1.1//EN"
 "http://www.w3.org/Graphics/SVG/1.1/DTD/svg11.dtd">
<!-- Generated by graphviz version 2.47.0 (20210316.0004)
 -->
<!-- Title: dependencies Pages: 1 -->
<svg width="738pt" height="211pt"
 viewBox="0.00 0.00 738.00 211.00" xmlns="http://www.w3.org/2000/svg" xmlns:xlink="http://www.w3.org/1999/xlink">
<g id="graph0" class="graph" transform="scale(1 1) rotate(0) translate(4 207)">
<title>dependencies</title>
<polygon fill="white" stroke="transparent" points="-4,4 -4,-207 734,-207 734,4 -4,4"/>
<text text-anchor="start" x="344.01" y="-42.4" font-family="sans-serif" font-weight="bold" font-size="14.00">Legend</text>
<polygon fill="#ffffb3" stroke="transparent" points="131,-10 131,-30 151,-30 151,-10 131,-10"/>
<text text-anchor="start" x="154.63" y="-15.4" font-family="sans-serif" font-size="14.00"> &#160;Declarations</text>
<polygon fill="#8dd3c7" stroke="transparent" points="244,-10 244,-30 264,-30 264,-10 244,-10"/>
<text text-anchor="start" x="267.73" y="-15.4" font-family="sans-serif" font-size="14.00"> &#160;Module</text>
<polygon fill="#80b1d3" stroke="transparent" points="330,-10 330,-30 350,-30 350,-10 330,-10"/>
<text text-anchor="start" x="353.78" y="-15.4" font-family="sans-serif" font-size="14.00"> &#160;Bootstrap</text>
<polygon fill="#fdb462" stroke="transparent" points="427,-10 427,-30 447,-30 447,-10 427,-10"/>
<text text-anchor="start" x="450.67" y="-15.4" font-family="sans-serif" font-size="14.00"> &#160;Providers</text>
<polygon fill="#fb8072" stroke="transparent" points="523,-10 523,-30 543,-30 543,-10 523,-10"/>
<text text-anchor="start" x="546.73" y="-15.4" font-family="sans-serif" font-size="14.00"> &#160;Exports</text>
<g id="clust1" class="cluster">
<title>cluster_SubscriptionsModule</title>
<polygon fill="none" stroke="black" stroke-dasharray="1,5" points="8,-70 8,-195 722,-195 722,-70 8,-70"/>
</g>
<g id="clust5" class="cluster">
<title>cluster_SubscriptionsModule_imports</title>
<polygon fill="none" stroke="black" points="404,-78 404,-130 714,-130 714,-78 404,-78"/>
</g>
<g id="clust2" class="cluster">
<title>cluster_SubscriptionsModule_declarations</title>
<polygon fill="none" stroke="black" points="16,-78 16,-130 396,-130 396,-78 16,-78"/>
</g>
<!-- SubscriptionModalComponent -->
<g id="node1" class="node">
<title>SubscriptionModalComponent</title>
<polygon fill="#ffffb3" stroke="black" points="388.16,-122 199.84,-122 199.84,-86 388.16,-86 388.16,-122"/>
<text text-anchor="middle" x="294" y="-99.8" font-family="Times,serif" font-size="14.00">SubscriptionModalComponent</text>
</g>
<!-- SubscriptionsModule -->
<g id="node3" class="node">
<title>SubscriptionsModule</title>
<polygon fill="#8dd3c7" stroke="black" points="465.77,-187 462.77,-191 441.77,-191 438.77,-187 330.23,-187 330.23,-151 465.77,-151 465.77,-187"/>
<text text-anchor="middle" x="398" y="-164.8" font-family="Times,serif" font-size="14.00">SubscriptionsModule</text>
</g>
<!-- SubscriptionModalComponent&#45;&gt;SubscriptionsModule -->
<g id="edge1" class="edge">
<title>SubscriptionModalComponent&#45;&gt;SubscriptionsModule</title>
<path fill="none" stroke="black" d="M359.22,-122.11C359.22,-122.11 359.22,-140.99 359.22,-140.99"/>
<polygon fill="black" stroke="black" points="355.72,-140.99 359.22,-150.99 362.72,-140.99 355.72,-140.99"/>
</g>
<!-- SubscriptionsComponent -->
<g id="node2" class="node">
<title>SubscriptionsComponent</title>
<polygon fill="#ffffb3" stroke="black" points="181.55,-122 24.45,-122 24.45,-86 181.55,-86 181.55,-122"/>
<text text-anchor="middle" x="103" y="-99.8" font-family="Times,serif" font-size="14.00">SubscriptionsComponent</text>
</g>
<!-- SubscriptionsComponent&#45;&gt;SubscriptionsModule -->
<g id="edge2" class="edge">
<title>SubscriptionsComponent&#45;&gt;SubscriptionsModule</title>
<path fill="none" stroke="black" d="M103,-122.11C103,-141.34 103,-169 103,-169 103,-169 319.95,-169 319.95,-169"/>
<polygon fill="black" stroke="black" points="319.95,-172.5 329.95,-169 319.95,-165.5 319.95,-172.5"/>
</g>
<!-- FormsModule -->
<g id="node4" class="node">
<title>FormsModule</title>
<polygon fill="#8dd3c7" stroke="black" points="705.83,-122 702.83,-126 681.83,-126 678.83,-122 610.17,-122 610.17,-86 705.83,-86 705.83,-122"/>
<text text-anchor="middle" x="658" y="-99.8" font-family="Times,serif" font-size="14.00">FormsModule</text>
</g>
<!-- FormsModule&#45;&gt;SubscriptionsModule -->
<g id="edge3" class="edge">
<title>FormsModule&#45;&gt;SubscriptionsModule</title>
<path fill="none" stroke="black" d="M658,-122.11C658,-141.34 658,-169 658,-169 658,-169 475.97,-169 475.97,-169"/>
<polygon fill="black" stroke="black" points="475.97,-165.5 465.97,-169 475.97,-172.5 475.97,-165.5"/>
</g>
<!-- SubscriptionsRoutingModule -->
<g id="node5" class="node">
<title>SubscriptionsRoutingModule</title>
<polygon fill="#8dd3c7" stroke="black" points="592.39,-122 589.39,-126 568.39,-126 565.39,-122 411.61,-122 411.61,-86 592.39,-86 592.39,-122"/>
<text text-anchor="middle" x="502" y="-99.8" font-family="Times,serif" font-size="14.00">SubscriptionsRoutingModule</text>
</g>
<!-- SubscriptionsRoutingModule&#45;&gt;SubscriptionsModule -->
<g id="edge4" class="edge">
<title>SubscriptionsRoutingModule&#45;&gt;SubscriptionsModule</title>
<path fill="none" stroke="black" d="M438.72,-122.11C438.72,-122.11 438.72,-140.99 438.72,-140.99"/>
<polygon fill="black" stroke="black" points="435.22,-140.99 438.72,-150.99 442.22,-140.99 435.22,-140.99"/>
</g>
</g>
</svg>
