<?xml version="1.0" encoding="UTF-8" standalone="no"?>
<!DOCTYPE svg PUBLIC "-//W3C//DTD SVG 1.1//EN"
 "http://www.w3.org/Graphics/SVG/1.1/DTD/svg11.dtd">
<!-- Generated by graphviz version 2.47.0 (20210316.0004)
 -->
<!-- Title: dependencies Pages: 1 -->
<svg width="895pt" height="284pt"
 viewBox="0.00 0.00 895.00 284.00" xmlns="http://www.w3.org/2000/svg" xmlns:xlink="http://www.w3.org/1999/xlink">
<g id="graph0" class="graph" transform="scale(1 1) rotate(0) translate(4 280)">
<title>dependencies</title>
<polygon fill="white" stroke="transparent" points="-4,4 -4,-280 891,-280 891,4 -4,4"/>
<text text-anchor="start" x="422.51" y="-42.4" font-family="sans-serif" font-weight="bold" font-size="14.00">Legend</text>
<polygon fill="#ffffb3" stroke="transparent" points="209.5,-10 209.5,-30 229.5,-30 229.5,-10 209.5,-10"/>
<text text-anchor="start" x="233.13" y="-15.4" font-family="sans-serif" font-size="14.00"> &#160;Declarations</text>
<polygon fill="#8dd3c7" stroke="transparent" points="322.5,-10 322.5,-30 342.5,-30 342.5,-10 322.5,-10"/>
<text text-anchor="start" x="346.23" y="-15.4" font-family="sans-serif" font-size="14.00"> &#160;Module</text>
<polygon fill="#80b1d3" stroke="transparent" points="408.5,-10 408.5,-30 428.5,-30 428.5,-10 408.5,-10"/>
<text text-anchor="start" x="432.28" y="-15.4" font-family="sans-serif" font-size="14.00"> &#160;Bootstrap</text>
<polygon fill="#fdb462" stroke="transparent" points="505.5,-10 505.5,-30 525.5,-30 525.5,-10 505.5,-10"/>
<text text-anchor="start" x="529.17" y="-15.4" font-family="sans-serif" font-size="14.00"> &#160;Providers</text>
<polygon fill="#fb8072" stroke="transparent" points="601.5,-10 601.5,-30 621.5,-30 621.5,-10 601.5,-10"/>
<text text-anchor="start" x="625.23" y="-15.4" font-family="sans-serif" font-size="14.00"> &#160;Exports</text>
<g id="clust1" class="cluster">
<title>cluster_SafeWidgetModule</title>
<polygon fill="none" stroke="black" stroke-dasharray="1,5" points="8,-70 8,-268 879,-268 879,-70 8,-70"/>
</g>
<g id="clust4" class="cluster">
<title>cluster_SafeWidgetModule_imports</title>
<polygon fill="none" stroke="black" points="188,-78 188,-130 871,-130 871,-78 188,-78"/>
</g>
<g id="clust2" class="cluster">
<title>cluster_SafeWidgetModule_declarations</title>
<polygon fill="none" stroke="black" points="16,-78 16,-130 180,-130 180,-78 16,-78"/>
</g>
<g id="clust5" class="cluster">
<title>cluster_SafeWidgetModule_exports</title>
<polygon fill="none" stroke="black" points="390,-208 390,-260 556,-260 556,-208 390,-208"/>
</g>
<!-- SafeWidgetComponent -->
<g id="node1" class="node">
<title>SafeWidgetComponent</title>
<polygon fill="#ffffb3" stroke="black" points="171.92,-122 24.08,-122 24.08,-86 171.92,-86 171.92,-122"/>
<text text-anchor="middle" x="98" y="-99.8" font-family="Times,serif" font-size="14.00">SafeWidgetComponent</text>
</g>
<!-- SafeWidgetModule -->
<g id="node2" class="node">
<title>SafeWidgetModule</title>
<polygon fill="#8dd3c7" stroke="black" points="535.63,-187 532.63,-191 511.63,-191 508.63,-187 410.37,-187 410.37,-151 535.63,-151 535.63,-187"/>
<text text-anchor="middle" x="473" y="-164.8" font-family="Times,serif" font-size="14.00">SafeWidgetModule</text>
</g>
<!-- SafeWidgetComponent&#45;&gt;SafeWidgetModule -->
<g id="edge1" class="edge">
<title>SafeWidgetComponent&#45;&gt;SafeWidgetModule</title>
<path fill="none" stroke="black" d="M98,-122.28C98,-143.32 98,-175 98,-175 98,-175 400.23,-175 400.23,-175"/>
<polygon fill="black" stroke="black" points="400.23,-178.5 410.23,-175 400.23,-171.5 400.23,-178.5"/>
</g>
<!-- SafeWidgetComponent  -->
<g id="node8" class="node">
<title>SafeWidgetComponent </title>
<polygon fill="#fb8072" stroke="black" points="548.42,-252 397.58,-252 397.58,-216 548.42,-216 548.42,-252"/>
<text text-anchor="middle" x="473" y="-229.8" font-family="Times,serif" font-size="14.00">SafeWidgetComponent </text>
</g>
<!-- SafeWidgetModule&#45;&gt;SafeWidgetComponent  -->
<g id="edge7" class="edge">
<title>SafeWidgetModule&#45;&gt;SafeWidgetComponent </title>
<path fill="none" stroke="black" stroke-dasharray="5,2" d="M473,-187.11C473,-187.11 473,-205.99 473,-205.99"/>
<polygon fill="black" stroke="black" points="469.5,-205.99 473,-215.99 476.5,-205.99 469.5,-205.99"/>
</g>
<!-- SafeChartModule -->
<g id="node3" class="node">
<title>SafeChartModule</title>
<polygon fill="#8dd3c7" stroke="black" points="862.53,-122 859.53,-126 838.53,-126 835.53,-122 747.47,-122 747.47,-86 862.53,-86 862.53,-122"/>
<text text-anchor="middle" x="805" y="-99.8" font-family="Times,serif" font-size="14.00">SafeChartModule</text>
</g>
<!-- SafeChartModule&#45;&gt;SafeWidgetModule -->
<g id="edge2" class="edge">
<title>SafeChartModule&#45;&gt;SafeWidgetModule</title>
<path fill="none" stroke="black" d="M805,-122.28C805,-143.32 805,-175 805,-175 805,-175 545.84,-175 545.84,-175"/>
<polygon fill="black" stroke="black" points="545.84,-171.5 535.84,-175 545.84,-178.5 545.84,-171.5"/>
</g>
<!-- SafeEditorModule -->
<g id="node4" class="node">
<title>SafeEditorModule</title>
<polygon fill="#8dd3c7" stroke="black" points="729.92,-122 726.92,-126 705.92,-126 702.92,-122 610.08,-122 610.08,-86 729.92,-86 729.92,-122"/>
<text text-anchor="middle" x="670" y="-99.8" font-family="Times,serif" font-size="14.00">SafeEditorModule</text>
</g>
<!-- SafeEditorModule&#45;&gt;SafeWidgetModule -->
<g id="edge3" class="edge">
<title>SafeEditorModule&#45;&gt;SafeWidgetModule</title>
<path fill="none" stroke="black" d="M670,-122.02C670,-139.37 670,-163 670,-163 670,-163 545.87,-163 545.87,-163"/>
<polygon fill="black" stroke="black" points="545.87,-159.5 535.87,-163 545.87,-166.5 545.87,-159.5"/>
</g>
<!-- SafeGridModule -->
<g id="node5" class="node">
<title>SafeGridModule</title>
<polygon fill="#8dd3c7" stroke="black" points="592.08,-122 589.08,-126 568.08,-126 565.08,-122 481.92,-122 481.92,-86 592.08,-86 592.08,-122"/>
<text text-anchor="middle" x="537" y="-99.8" font-family="Times,serif" font-size="14.00">SafeGridModule</text>
</g>
<!-- SafeGridModule&#45;&gt;SafeWidgetModule -->
<g id="edge4" class="edge">
<title>SafeGridModule&#45;&gt;SafeWidgetModule</title>
<path fill="none" stroke="black" d="M508.89,-122.11C508.89,-122.11 508.89,-140.99 508.89,-140.99"/>
<polygon fill="black" stroke="black" points="505.39,-140.99 508.89,-150.99 512.39,-140.99 505.39,-140.99"/>
</g>
<!-- SafeMapModule -->
<g id="node6" class="node">
<title>SafeMapModule</title>
<polygon fill="#8dd3c7" stroke="black" points="464.08,-122 461.08,-126 440.08,-126 437.08,-122 353.92,-122 353.92,-86 464.08,-86 464.08,-122"/>
<text text-anchor="middle" x="409" y="-99.8" font-family="Times,serif" font-size="14.00">SafeMapModule</text>
</g>
<!-- SafeMapModule&#45;&gt;SafeWidgetModule -->
<g id="edge5" class="edge">
<title>SafeMapModule&#45;&gt;SafeWidgetModule</title>
<path fill="none" stroke="black" d="M437.11,-122.11C437.11,-122.11 437.11,-140.99 437.11,-140.99"/>
<polygon fill="black" stroke="black" points="433.61,-140.99 437.11,-150.99 440.61,-140.99 433.61,-140.99"/>
</g>
<!-- SafeSchedulerModule -->
<g id="node7" class="node">
<title>SafeSchedulerModule</title>
<polygon fill="#8dd3c7" stroke="black" points="336.4,-122 333.4,-126 312.4,-126 309.4,-122 195.6,-122 195.6,-86 336.4,-86 336.4,-122"/>
<text text-anchor="middle" x="266" y="-99.8" font-family="Times,serif" font-size="14.00">SafeSchedulerModule</text>
</g>
<!-- SafeSchedulerModule&#45;&gt;SafeWidgetModule -->
<g id="edge6" class="edge">
<title>SafeSchedulerModule&#45;&gt;SafeWidgetModule</title>
<path fill="none" stroke="black" d="M266,-122.02C266,-139.37 266,-163 266,-163 266,-163 400.33,-163 400.33,-163"/>
<polygon fill="black" stroke="black" points="400.33,-166.5 410.33,-163 400.33,-159.5 400.33,-166.5"/>
</g>
</g>
</svg>
