<?xml version="1.0" encoding="UTF-8" standalone="no"?>
<!DOCTYPE svg PUBLIC "-//W3C//DTD SVG 1.1//EN"
 "http://www.w3.org/Graphics/SVG/1.1/DTD/svg11.dtd">
<!-- Generated by graphviz version 2.47.0 (20210316.0004)
 -->
<!-- Title: dependencies Pages: 1 -->
<svg width="895pt" height="284pt"
 viewBox="0.00 0.00 895.00 284.00" xmlns="http://www.w3.org/2000/svg" xmlns:xlink="http://www.w3.org/1999/xlink">
<g id="graph0" class="graph" transform="scale(1 1) rotate(0) translate(4 280)">
<title>dependencies</title>
<polygon fill="white" stroke="transparent" points="-4,4 -4,-280 891,-280 891,4 -4,4"/>
<text text-anchor="start" x="422.51" y="-42.4" font-family="sans-serif" font-weight="bold" font-size="14.00">Legend</text>
<polygon fill="#ffffb3" stroke="transparent" points="209.5,-10 209.5,-30 229.5,-30 229.5,-10 209.5,-10"/>
<text text-anchor="start" x="233.13" y="-15.4" font-family="sans-serif" font-size="14.00"> &#160;Declarations</text>
<polygon fill="#8dd3c7" stroke="transparent" points="322.5,-10 322.5,-30 342.5,-30 342.5,-10 322.5,-10"/>
<text text-anchor="start" x="346.23" y="-15.4" font-family="sans-serif" font-size="14.00"> &#160;Module</text>
<polygon fill="#80b1d3" stroke="transparent" points="408.5,-10 408.5,-30 428.5,-30 428.5,-10 408.5,-10"/>
<text text-anchor="start" x="432.28" y="-15.4" font-family="sans-serif" font-size="14.00"> &#160;Bootstrap</text>
<polygon fill="#fdb462" stroke="transparent" points="505.5,-10 505.5,-30 525.5,-30 525.5,-10 505.5,-10"/>
<text text-anchor="start" x="529.17" y="-15.4" font-family="sans-serif" font-size="14.00"> &#160;Providers</text>
<polygon fill="#fb8072" stroke="transparent" points="601.5,-10 601.5,-30 621.5,-30 621.5,-10 601.5,-10"/>
<text text-anchor="start" x="625.23" y="-15.4" font-family="sans-serif" font-size="14.00"> &#160;Exports</text>
<g id="clust1" class="cluster">
<title>cluster_SafeWidgetModule</title>
<polygon fill="none" stroke="black" stroke-dasharray="1,5" points="8,-70 8,-268 879,-268 879,-70 8,-70"/>
</g>
<g id="clust2" class="cluster">
<title>cluster_SafeWidgetModule_declarations</title>
<polygon fill="none" stroke="black" points="707,-78 707,-130 871,-130 871,-78 707,-78"/>
</g>
<g id="clust5" class="cluster">
<title>cluster_SafeWidgetModule_exports</title>
<polygon fill="none" stroke="black" points="348,-208 348,-260 514,-260 514,-208 348,-208"/>
</g>
<g id="clust4" class="cluster">
<title>cluster_SafeWidgetModule_imports</title>
<polygon fill="none" stroke="black" points="16,-78 16,-130 699,-130 699,-78 16,-78"/>
</g>
<!-- SafeWidgetComponent -->
<g id="node1" class="node">
<title>SafeWidgetComponent</title>
<polygon fill="#ffffb3" stroke="black" points="862.92,-122 715.08,-122 715.08,-86 862.92,-86 862.92,-122"/>
<text text-anchor="middle" x="789" y="-99.8" font-family="Times,serif" font-size="14.00">SafeWidgetComponent</text>
</g>
<!-- SafeWidgetModule -->
<g id="node2" class="node">
<title>SafeWidgetModule</title>
<polygon fill="#8dd3c7" stroke="black" points="493.63,-187 490.63,-191 469.63,-191 466.63,-187 368.37,-187 368.37,-151 493.63,-151 493.63,-187"/>
<text text-anchor="middle" x="431" y="-164.8" font-family="Times,serif" font-size="14.00">SafeWidgetModule</text>
</g>
<!-- SafeWidgetComponent&#45;&gt;SafeWidgetModule -->
<g id="edge1" class="edge">
<title>SafeWidgetComponent&#45;&gt;SafeWidgetModule</title>
<path fill="none" stroke="black" d="M789,-122.28C789,-143.32 789,-175 789,-175 789,-175 503.77,-175 503.77,-175"/>
<polygon fill="black" stroke="black" points="503.77,-171.5 493.77,-175 503.77,-178.5 503.77,-171.5"/>
</g>
<!-- SafeWidgetComponent  -->
<g id="node8" class="node">
<title>SafeWidgetComponent </title>
<polygon fill="#fb8072" stroke="black" points="506.42,-252 355.58,-252 355.58,-216 506.42,-216 506.42,-252"/>
<text text-anchor="middle" x="431" y="-229.8" font-family="Times,serif" font-size="14.00">SafeWidgetComponent </text>
</g>
<!-- SafeWidgetModule&#45;&gt;SafeWidgetComponent  -->
<g id="edge7" class="edge">
<title>SafeWidgetModule&#45;&gt;SafeWidgetComponent </title>
<path fill="none" stroke="black" stroke-dasharray="5,2" d="M431,-187.11C431,-187.11 431,-205.99 431,-205.99"/>
<polygon fill="black" stroke="black" points="427.5,-205.99 431,-215.99 434.5,-205.99 427.5,-205.99"/>
</g>
<!-- SafeChartModule -->
<g id="node3" class="node">
<title>SafeChartModule</title>
<polygon fill="#8dd3c7" stroke="black" points="690.53,-122 687.53,-126 666.53,-126 663.53,-122 575.47,-122 575.47,-86 690.53,-86 690.53,-122"/>
<text text-anchor="middle" x="633" y="-99.8" font-family="Times,serif" font-size="14.00">SafeChartModule</text>
</g>
<!-- SafeChartModule&#45;&gt;SafeWidgetModule -->
<g id="edge2" class="edge">
<title>SafeChartModule&#45;&gt;SafeWidgetModule</title>
<path fill="none" stroke="black" d="M633,-122.02C633,-139.37 633,-163 633,-163 633,-163 503.81,-163 503.81,-163"/>
<polygon fill="black" stroke="black" points="503.81,-159.5 493.81,-163 503.81,-166.5 503.81,-159.5"/>
</g>
<!-- SafeEditorModule -->
<g id="node4" class="node">
<title>SafeEditorModule</title>
<polygon fill="#8dd3c7" stroke="black" points="557.92,-122 554.92,-126 533.92,-126 530.92,-122 438.08,-122 438.08,-86 557.92,-86 557.92,-122"/>
<text text-anchor="middle" x="498" y="-99.8" font-family="Times,serif" font-size="14.00">SafeEditorModule</text>
</g>
<!-- SafeEditorModule&#45;&gt;SafeWidgetModule -->
<g id="edge3" class="edge">
<title>SafeEditorModule&#45;&gt;SafeWidgetModule</title>
<path fill="none" stroke="black" d="M466.05,-122.11C466.05,-122.11 466.05,-140.99 466.05,-140.99"/>
<polygon fill="black" stroke="black" points="462.55,-140.99 466.05,-150.99 469.55,-140.99 462.55,-140.99"/>
</g>
<!-- SafeGridModule -->
<g id="node5" class="node">
<title>SafeGridModule</title>
<polygon fill="#8dd3c7" stroke="black" points="420.08,-122 417.08,-126 396.08,-126 393.08,-122 309.92,-122 309.92,-86 420.08,-86 420.08,-122"/>
<text text-anchor="middle" x="365" y="-99.8" font-family="Times,serif" font-size="14.00">SafeGridModule</text>
</g>
<!-- SafeGridModule&#45;&gt;SafeWidgetModule -->
<g id="edge4" class="edge">
<title>SafeGridModule&#45;&gt;SafeWidgetModule</title>
<path fill="none" stroke="black" d="M394.11,-122.11C394.11,-122.11 394.11,-140.99 394.11,-140.99"/>
<polygon fill="black" stroke="black" points="390.61,-140.99 394.11,-150.99 397.61,-140.99 390.61,-140.99"/>
</g>
<!-- SafeMapModule -->
<g id="node6" class="node">
<title>SafeMapModule</title>
<polygon fill="#8dd3c7" stroke="black" points="292.08,-122 289.08,-126 268.08,-126 265.08,-122 181.92,-122 181.92,-86 292.08,-86 292.08,-122"/>
<text text-anchor="middle" x="237" y="-99.8" font-family="Times,serif" font-size="14.00">SafeMapModule</text>
</g>
<!-- SafeMapModule&#45;&gt;SafeWidgetModule -->
<g id="edge5" class="edge">
<title>SafeMapModule&#45;&gt;SafeWidgetModule</title>
<path fill="none" stroke="black" d="M237,-122.02C237,-139.37 237,-163 237,-163 237,-163 358.28,-163 358.28,-163"/>
<polygon fill="black" stroke="black" points="358.28,-166.5 368.28,-163 358.28,-159.5 358.28,-166.5"/>
</g>
<!-- SafeSchedulerModule -->
<g id="node7" class="node">
<title>SafeSchedulerModule</title>
<polygon fill="#8dd3c7" stroke="black" points="164.4,-122 161.4,-126 140.4,-126 137.4,-122 23.6,-122 23.6,-86 164.4,-86 164.4,-122"/>
<text text-anchor="middle" x="94" y="-99.8" font-family="Times,serif" font-size="14.00">SafeSchedulerModule</text>
</g>
<!-- SafeSchedulerModule&#45;&gt;SafeWidgetModule -->
<g id="edge6" class="edge">
<title>SafeSchedulerModule&#45;&gt;SafeWidgetModule</title>
<path fill="none" stroke="black" d="M94,-122.28C94,-143.32 94,-175 94,-175 94,-175 358.01,-175 358.01,-175"/>
<polygon fill="black" stroke="black" points="358.01,-178.5 368.01,-175 358.01,-171.5 358.01,-178.5"/>
</g>
</g>
</svg>
