<?xml version="1.0" encoding="UTF-8" standalone="no"?>
<!DOCTYPE svg PUBLIC "-//W3C//DTD SVG 1.1//EN"
 "http://www.w3.org/Graphics/SVG/1.1/DTD/svg11.dtd">
<!-- Generated by graphviz version 2.47.0 (20210316.0004)
 -->
<!-- Title: dependencies Pages: 1 -->
<svg width="978pt" height="349pt"
 viewBox="0.00 0.00 978.00 349.00" xmlns="http://www.w3.org/2000/svg" xmlns:xlink="http://www.w3.org/1999/xlink">
<g id="graph0" class="graph" transform="scale(1 1) rotate(0) translate(4 345)">
<title>dependencies</title>
<polygon fill="white" stroke="transparent" points="-4,4 -4,-345 974,-345 974,4 -4,4"/>
<text text-anchor="start" x="464.01" y="-42.4" font-family="sans-serif" font-weight="bold" font-size="14.00">Legend</text>
<polygon fill="#ffffb3" stroke="transparent" points="251,-10 251,-30 271,-30 271,-10 251,-10"/>
<text text-anchor="start" x="274.63" y="-15.4" font-family="sans-serif" font-size="14.00"> &#160;Declarations</text>
<polygon fill="#8dd3c7" stroke="transparent" points="364,-10 364,-30 384,-30 384,-10 364,-10"/>
<text text-anchor="start" x="387.73" y="-15.4" font-family="sans-serif" font-size="14.00"> &#160;Module</text>
<polygon fill="#80b1d3" stroke="transparent" points="450,-10 450,-30 470,-30 470,-10 450,-10"/>
<text text-anchor="start" x="473.78" y="-15.4" font-family="sans-serif" font-size="14.00"> &#160;Bootstrap</text>
<polygon fill="#fdb462" stroke="transparent" points="547,-10 547,-30 567,-30 567,-10 547,-10"/>
<text text-anchor="start" x="570.67" y="-15.4" font-family="sans-serif" font-size="14.00"> &#160;Providers</text>
<polygon fill="#fb8072" stroke="transparent" points="643,-10 643,-30 663,-30 663,-10 643,-10"/>
<text text-anchor="start" x="666.73" y="-15.4" font-family="sans-serif" font-size="14.00"> &#160;Exports</text>
<g id="clust1" class="cluster">
<title>cluster_SafeSurveyGridModule</title>
<polygon fill="none" stroke="black" stroke-dasharray="1,5" points="8,-70 8,-333 962,-333 962,-70 8,-70"/>
</g>
<g id="clust2" class="cluster">
<title>cluster_SafeSurveyGridModule_declarations</title>
<polygon fill="none" stroke="black" points="540,-143 540,-195 728,-195 728,-143 540,-143"/>
</g>
<g id="clust3" class="cluster">
<title>cluster_SafeSurveyGridModule_SafeSurveyGridComponent_providers</title>
<polygon fill="none" stroke="black" points="16,-78 16,-130 954,-130 954,-78 16,-78"/>
</g>
<g id="clust5" class="cluster">
<title>cluster_SafeSurveyGridModule_exports</title>
<polygon fill="none" stroke="black" points="538,-273 538,-325 730,-325 730,-273 538,-273"/>
</g>
<!-- SafeSurveyGridComponent -->
<g id="node1" class="node">
<title>SafeSurveyGridComponent</title>
<polygon fill="#ffffb3" stroke="black" points="719.52,-187 548.48,-187 548.48,-151 719.52,-151 719.52,-187"/>
<text text-anchor="middle" x="634" y="-164.8" font-family="Times,serif" font-size="14.00">SafeSurveyGridComponent</text>
</g>
<!-- SafeSurveyGridModule -->
<g id="node2" class="node">
<title>SafeSurveyGridModule</title>
<polygon fill="#8dd3c7" stroke="black" points="708.74,-252 705.74,-256 684.74,-256 681.74,-252 559.26,-252 559.26,-216 708.74,-216 708.74,-252"/>
<text text-anchor="middle" x="634" y="-229.8" font-family="Times,serif" font-size="14.00">SafeSurveyGridModule</text>
</g>
<!-- SafeSurveyGridComponent&#45;&gt;SafeSurveyGridModule -->
<g id="edge1" class="edge">
<title>SafeSurveyGridComponent&#45;&gt;SafeSurveyGridModule</title>
<path fill="none" stroke="black" d="M634,-187.11C634,-187.11 634,-205.99 634,-205.99"/>
<polygon fill="black" stroke="black" points="630.5,-205.99 634,-215.99 637.5,-205.99 630.5,-205.99"/>
</g>
<!-- SafeSurveyGridComponent  -->
<g id="node5" class="node">
<title>SafeSurveyGridComponent </title>
<polygon fill="#fb8072" stroke="black" points="721.52,-317 546.48,-317 546.48,-281 721.52,-281 721.52,-317"/>
<text text-anchor="middle" x="634" y="-294.8" font-family="Times,serif" font-size="14.00">SafeSurveyGridComponent </text>
</g>
<!-- SafeSurveyGridModule&#45;&gt;SafeSurveyGridComponent  -->
<g id="edge4" class="edge">
<title>SafeSurveyGridModule&#45;&gt;SafeSurveyGridComponent </title>
<path fill="none" stroke="black" stroke-dasharray="5,2" d="M634,-252.11C634,-252.11 634,-270.99 634,-270.99"/>
<polygon fill="black" stroke="black" points="630.5,-270.99 634,-280.99 637.5,-270.99 630.5,-270.99"/>
</g>
<!-- PopupService -->
<g id="node3" class="node">
<title>PopupService</title>
<ellipse fill="#fdb462" stroke="black" cx="881" cy="-104" rx="64.85" ry="18"/>
<text text-anchor="middle" x="881" y="-99.8" font-family="Times,serif" font-size="14.00">PopupService</text>
</g>
<!-- PopupService&#45;&gt;SafeSurveyGridComponent -->
<g id="edge2" class="edge">
<title>PopupService&#45;&gt;SafeSurveyGridComponent</title>
<path fill="none" stroke="black" d="M881,-122.11C881,-141.34 881,-169 881,-169 881,-169 729.7,-169 729.7,-169"/>
<polygon fill="black" stroke="black" points="729.7,-165.5 719.7,-169 729.7,-172.5 729.7,-165.5"/>
</g>
<!-- { provide: MAT_SELECT_SCROLL_STRATEGY, useFactory: scrollFactory, deps: [Overlay] } -->
<g id="node4" class="node">
<title>{ provide: MAT_SELECT_SCROLL_STRATEGY, useFactory: scrollFactory, deps: [Overlay] }</title>
<ellipse fill="#fdb462" stroke="black" cx="411" cy="-104" rx="386.83" ry="18"/>
<text text-anchor="middle" x="411" y="-99.8" font-family="Times,serif" font-size="14.00">{ provide: MAT_SELECT_SCROLL_STRATEGY, useFactory: scrollFactory, deps: [Overlay] }</text>
</g>
<!-- { provide: MAT_SELECT_SCROLL_STRATEGY, useFactory: scrollFactory, deps: [Overlay] }&#45;&gt;SafeSurveyGridComponent -->
<g id="edge3" class="edge">
<title>{ provide: MAT_SELECT_SCROLL_STRATEGY, useFactory: scrollFactory, deps: [Overlay] }&#45;&gt;SafeSurveyGridComponent</title>
<path fill="none" stroke="black" d="M634,-118.75C634,-118.75 634,-140.59 634,-140.59"/>
<polygon fill="black" stroke="black" points="630.5,-140.59 634,-150.59 637.5,-140.59 630.5,-140.59"/>
</g>
</g>
</svg>
