<?xml version="1.0" encoding="UTF-8" standalone="no"?>
<!DOCTYPE svg PUBLIC "-//W3C//DTD SVG 1.1//EN"
 "http://www.w3.org/Graphics/SVG/1.1/DTD/svg11.dtd">
<!-- Generated by graphviz version 2.47.0 (20210316.0004)
 -->
<!-- Title: dependencies Pages: 1 -->
<svg width="1071pt" height="284pt"
 viewBox="0.00 0.00 1071.00 284.00" xmlns="http://www.w3.org/2000/svg" xmlns:xlink="http://www.w3.org/1999/xlink">
<g id="graph0" class="graph" transform="scale(1 1) rotate(0) translate(4 280)">
<title>dependencies</title>
<polygon fill="white" stroke="transparent" points="-4,4 -4,-280 1067,-280 1067,4 -4,4"/>
<text text-anchor="start" x="510.51" y="-42.4" font-family="sans-serif" font-weight="bold" font-size="14.00">Legend</text>
<polygon fill="#ffffb3" stroke="transparent" points="297.5,-10 297.5,-30 317.5,-30 317.5,-10 297.5,-10"/>
<text text-anchor="start" x="321.13" y="-15.4" font-family="sans-serif" font-size="14.00"> &#160;Declarations</text>
<polygon fill="#8dd3c7" stroke="transparent" points="410.5,-10 410.5,-30 430.5,-30 430.5,-10 410.5,-10"/>
<text text-anchor="start" x="434.23" y="-15.4" font-family="sans-serif" font-size="14.00"> &#160;Module</text>
<polygon fill="#80b1d3" stroke="transparent" points="496.5,-10 496.5,-30 516.5,-30 516.5,-10 496.5,-10"/>
<text text-anchor="start" x="520.28" y="-15.4" font-family="sans-serif" font-size="14.00"> &#160;Bootstrap</text>
<polygon fill="#fdb462" stroke="transparent" points="593.5,-10 593.5,-30 613.5,-30 613.5,-10 593.5,-10"/>
<text text-anchor="start" x="617.17" y="-15.4" font-family="sans-serif" font-size="14.00"> &#160;Providers</text>
<polygon fill="#fb8072" stroke="transparent" points="689.5,-10 689.5,-30 709.5,-30 709.5,-10 689.5,-10"/>
<text text-anchor="start" x="713.23" y="-15.4" font-family="sans-serif" font-size="14.00"> &#160;Exports</text>
<g id="clust1" class="cluster">
<title>cluster_ApplicationsModule</title>
<polygon fill="none" stroke="black" stroke-dasharray="1,5" points="8,-70 8,-268 1055,-268 1055,-70 8,-70"/>
</g>
<g id="clust6" class="cluster">
<title>cluster_ApplicationsModule_imports</title>
<polygon fill="none" stroke="black" points="543,-78 543,-130 1047,-130 1047,-78 543,-78"/>
</g>
<g id="clust7" class="cluster">
<title>cluster_ApplicationsModule_exports</title>
<polygon fill="none" stroke="black" points="434,-208 434,-260 606,-260 606,-208 434,-208"/>
</g>
<g id="clust2" class="cluster">
<title>cluster_ApplicationsModule_declarations</title>
<polygon fill="none" stroke="black" points="16,-78 16,-130 535,-130 535,-78 16,-78"/>
</g>
<!-- AddApplicationComponent -->
<g id="node1" class="node">
<title>AddApplicationComponent</title>
<polygon fill="#ffffb3" stroke="black" points="526.54,-122 355.46,-122 355.46,-86 526.54,-86 526.54,-122"/>
<text text-anchor="middle" x="441" y="-99.8" font-family="Times,serif" font-size="14.00">AddApplicationComponent</text>
</g>
<!-- ApplicationsModule -->
<g id="node4" class="node">
<title>ApplicationsModule</title>
<polygon fill="#8dd3c7" stroke="black" points="585.59,-187 582.59,-191 561.59,-191 558.59,-187 454.41,-187 454.41,-151 585.59,-151 585.59,-187"/>
<text text-anchor="middle" x="520" y="-164.8" font-family="Times,serif" font-size="14.00">ApplicationsModule</text>
</g>
<!-- AddApplicationComponent&#45;&gt;ApplicationsModule -->
<g id="edge1" class="edge">
<title>AddApplicationComponent&#45;&gt;ApplicationsModule</title>
<path fill="none" stroke="black" d="M490.61,-122.11C490.61,-122.11 490.61,-140.99 490.61,-140.99"/>
<polygon fill="black" stroke="black" points="487.11,-140.99 490.61,-150.99 494.11,-140.99 487.11,-140.99"/>
</g>
<!-- ApplicationsComponent -->
<g id="node2" class="node">
<title>ApplicationsComponent</title>
<polygon fill="#ffffb3" stroke="black" points="337.38,-122 184.62,-122 184.62,-86 337.38,-86 337.38,-122"/>
<text text-anchor="middle" x="261" y="-99.8" font-family="Times,serif" font-size="14.00">ApplicationsComponent</text>
</g>
<!-- ApplicationsComponent&#45;&gt;ApplicationsModule -->
<g id="edge2" class="edge">
<title>ApplicationsComponent&#45;&gt;ApplicationsModule</title>
<path fill="none" stroke="black" d="M261,-122.02C261,-139.37 261,-163 261,-163 261,-163 444.31,-163 444.31,-163"/>
<polygon fill="black" stroke="black" points="444.31,-166.5 454.31,-163 444.31,-159.5 444.31,-166.5"/>
</g>
<!-- ChoseRoleComponent -->
<g id="node3" class="node">
<title>ChoseRoleComponent</title>
<polygon fill="#ffffb3" stroke="black" points="166.27,-122 23.73,-122 23.73,-86 166.27,-86 166.27,-122"/>
<text text-anchor="middle" x="95" y="-99.8" font-family="Times,serif" font-size="14.00">ChoseRoleComponent</text>
</g>
<!-- ChoseRoleComponent&#45;&gt;ApplicationsModule -->
<g id="edge3" class="edge">
<title>ChoseRoleComponent&#45;&gt;ApplicationsModule</title>
<path fill="none" stroke="black" d="M95,-122.28C95,-143.32 95,-175 95,-175 95,-175 444.06,-175 444.06,-175"/>
<polygon fill="black" stroke="black" points="444.06,-178.5 454.06,-175 444.06,-171.5 444.06,-178.5"/>
</g>
<!-- ApplicationsComponent  -->
<g id="node8" class="node">
<title>ApplicationsComponent </title>
<polygon fill="#fb8072" stroke="black" points="598.38,-252 441.62,-252 441.62,-216 598.38,-216 598.38,-252"/>
<text text-anchor="middle" x="520" y="-229.8" font-family="Times,serif" font-size="14.00">ApplicationsComponent </text>
</g>
<!-- ApplicationsModule&#45;&gt;ApplicationsComponent  -->
<g id="edge7" class="edge">
<title>ApplicationsModule&#45;&gt;ApplicationsComponent </title>
<path fill="none" stroke="black" stroke-dasharray="5,2" d="M520,-187.11C520,-187.11 520,-205.99 520,-205.99"/>
<polygon fill="black" stroke="black" points="516.5,-205.99 520,-215.99 523.5,-205.99 516.5,-205.99"/>
</g>
<!-- ApplicationsRoutingModule -->
<g id="node5" class="node">
<title>ApplicationsRoutingModule</title>
<polygon fill="#8dd3c7" stroke="black" points="1039.21,-122 1036.21,-126 1015.21,-126 1012.21,-122 862.79,-122 862.79,-86 1039.21,-86 1039.21,-122"/>
<text text-anchor="middle" x="951" y="-99.8" font-family="Times,serif" font-size="14.00">ApplicationsRoutingModule</text>
</g>
<!-- ApplicationsRoutingModule&#45;&gt;ApplicationsModule -->
<g id="edge4" class="edge">
<title>ApplicationsRoutingModule&#45;&gt;ApplicationsModule</title>
<path fill="none" stroke="black" d="M951,-122.28C951,-143.32 951,-175 951,-175 951,-175 595.93,-175 595.93,-175"/>
<polygon fill="black" stroke="black" points="595.93,-171.5 585.93,-175 595.93,-178.5 595.93,-171.5"/>
</g>
<!-- DuplicateApplicationModule -->
<g id="node6" class="node">
<title>DuplicateApplicationModule</title>
<polygon fill="#8dd3c7" stroke="black" points="845.07,-122 842.07,-126 821.07,-126 818.07,-122 664.93,-122 664.93,-86 845.07,-86 845.07,-122"/>
<text text-anchor="middle" x="755" y="-99.8" font-family="Times,serif" font-size="14.00">DuplicateApplicationModule</text>
</g>
<!-- DuplicateApplicationModule&#45;&gt;ApplicationsModule -->
<g id="edge5" class="edge">
<title>DuplicateApplicationModule&#45;&gt;ApplicationsModule</title>
<path fill="none" stroke="black" d="M755,-122.02C755,-139.37 755,-163 755,-163 755,-163 595.77,-163 595.77,-163"/>
<polygon fill="black" stroke="black" points="595.77,-159.5 585.77,-163 595.77,-166.5 595.77,-159.5"/>
</g>
<!-- FormsModule -->
<g id="node7" class="node">
<title>FormsModule</title>
<polygon fill="#8dd3c7" stroke="black" points="646.83,-122 643.83,-126 622.83,-126 619.83,-122 551.17,-122 551.17,-86 646.83,-86 646.83,-122"/>
<text text-anchor="middle" x="599" y="-99.8" font-family="Times,serif" font-size="14.00">FormsModule</text>
</g>
<!-- FormsModule&#45;&gt;ApplicationsModule -->
<g id="edge6" class="edge">
<title>FormsModule&#45;&gt;ApplicationsModule</title>
<path fill="none" stroke="black" d="M568.44,-122.11C568.44,-122.11 568.44,-140.99 568.44,-140.99"/>
<polygon fill="black" stroke="black" points="564.94,-140.99 568.44,-150.99 571.94,-140.99 564.94,-140.99"/>
</g>
</g>
</svg>
