<?xml version="1.0" encoding="UTF-8" standalone="no"?>
<!DOCTYPE svg PUBLIC "-//W3C//DTD SVG 1.1//EN"
 "http://www.w3.org/Graphics/SVG/1.1/DTD/svg11.dtd">
<!-- Generated by graphviz version 2.47.0 (20210316.0004)
 -->
<!-- Title: dependencies Pages: 1 -->
<svg width="1071pt" height="284pt"
 viewBox="0.00 0.00 1071.00 284.00" xmlns="http://www.w3.org/2000/svg" xmlns:xlink="http://www.w3.org/1999/xlink">
<g id="graph0" class="graph" transform="scale(1 1) rotate(0) translate(4 280)">
<title>dependencies</title>
<polygon fill="white" stroke="transparent" points="-4,4 -4,-280 1067,-280 1067,4 -4,4"/>
<text text-anchor="start" x="510.51" y="-42.4" font-family="sans-serif" font-weight="bold" font-size="14.00">Legend</text>
<polygon fill="#ffffb3" stroke="transparent" points="297.5,-10 297.5,-30 317.5,-30 317.5,-10 297.5,-10"/>
<text text-anchor="start" x="321.13" y="-15.4" font-family="sans-serif" font-size="14.00"> &#160;Declarations</text>
<polygon fill="#8dd3c7" stroke="transparent" points="410.5,-10 410.5,-30 430.5,-30 430.5,-10 410.5,-10"/>
<text text-anchor="start" x="434.23" y="-15.4" font-family="sans-serif" font-size="14.00"> &#160;Module</text>
<polygon fill="#80b1d3" stroke="transparent" points="496.5,-10 496.5,-30 516.5,-30 516.5,-10 496.5,-10"/>
<text text-anchor="start" x="520.28" y="-15.4" font-family="sans-serif" font-size="14.00"> &#160;Bootstrap</text>
<polygon fill="#fdb462" stroke="transparent" points="593.5,-10 593.5,-30 613.5,-30 613.5,-10 593.5,-10"/>
<text text-anchor="start" x="617.17" y="-15.4" font-family="sans-serif" font-size="14.00"> &#160;Providers</text>
<polygon fill="#fb8072" stroke="transparent" points="689.5,-10 689.5,-30 709.5,-30 709.5,-10 689.5,-10"/>
<text text-anchor="start" x="713.23" y="-15.4" font-family="sans-serif" font-size="14.00"> &#160;Exports</text>
<g id="clust1" class="cluster">
<title>cluster_ApplicationsModule</title>
<polygon fill="none" stroke="black" stroke-dasharray="1,5" points="8,-70 8,-268 1055,-268 1055,-70 8,-70"/>
</g>
<g id="clust7" class="cluster">
<title>cluster_ApplicationsModule_exports</title>
<polygon fill="none" stroke="black" points="429,-208 429,-260 601,-260 601,-208 429,-208"/>
</g>
<g id="clust2" class="cluster">
<title>cluster_ApplicationsModule_declarations</title>
<polygon fill="none" stroke="black" points="528,-78 528,-130 1047,-130 1047,-78 528,-78"/>
</g>
<g id="clust6" class="cluster">
<title>cluster_ApplicationsModule_imports</title>
<polygon fill="none" stroke="black" points="16,-78 16,-130 520,-130 520,-78 16,-78"/>
</g>
<!-- AddApplicationComponent -->
<g id="node1" class="node">
<title>AddApplicationComponent</title>
<polygon fill="#ffffb3" stroke="black" points="1038.54,-122 867.46,-122 867.46,-86 1038.54,-86 1038.54,-122"/>
<text text-anchor="middle" x="953" y="-99.8" font-family="Times,serif" font-size="14.00">AddApplicationComponent</text>
</g>
<!-- ApplicationsModule -->
<g id="node4" class="node">
<title>ApplicationsModule</title>
<polygon fill="#8dd3c7" stroke="black" points="580.59,-187 577.59,-191 556.59,-191 553.59,-187 449.41,-187 449.41,-151 580.59,-151 580.59,-187"/>
<text text-anchor="middle" x="515" y="-164.8" font-family="Times,serif" font-size="14.00">ApplicationsModule</text>
</g>
<!-- AddApplicationComponent&#45;&gt;ApplicationsModule -->
<g id="edge1" class="edge">
<title>AddApplicationComponent&#45;&gt;ApplicationsModule</title>
<path fill="none" stroke="black" d="M953,-122.28C953,-143.32 953,-175 953,-175 953,-175 590.57,-175 590.57,-175"/>
<polygon fill="black" stroke="black" points="590.57,-171.5 580.57,-175 590.57,-178.5 590.57,-171.5"/>
</g>
<!-- ApplicationsComponent -->
<g id="node2" class="node">
<title>ApplicationsComponent</title>
<polygon fill="#ffffb3" stroke="black" points="849.38,-122 696.62,-122 696.62,-86 849.38,-86 849.38,-122"/>
<text text-anchor="middle" x="773" y="-99.8" font-family="Times,serif" font-size="14.00">ApplicationsComponent</text>
</g>
<!-- ApplicationsComponent&#45;&gt;ApplicationsModule -->
<g id="edge2" class="edge">
<title>ApplicationsComponent&#45;&gt;ApplicationsModule</title>
<path fill="none" stroke="black" d="M773,-122.02C773,-139.37 773,-163 773,-163 773,-163 590.77,-163 590.77,-163"/>
<polygon fill="black" stroke="black" points="590.77,-159.5 580.77,-163 590.77,-166.5 590.77,-159.5"/>
</g>
<!-- ChoseRoleComponent -->
<g id="node3" class="node">
<title>ChoseRoleComponent</title>
<polygon fill="#ffffb3" stroke="black" points="678.27,-122 535.73,-122 535.73,-86 678.27,-86 678.27,-122"/>
<text text-anchor="middle" x="607" y="-99.8" font-family="Times,serif" font-size="14.00">ChoseRoleComponent</text>
</g>
<!-- ChoseRoleComponent&#45;&gt;ApplicationsModule -->
<g id="edge3" class="edge">
<title>ChoseRoleComponent&#45;&gt;ApplicationsModule</title>
<path fill="none" stroke="black" d="M558.08,-122.11C558.08,-122.11 558.08,-140.99 558.08,-140.99"/>
<polygon fill="black" stroke="black" points="554.58,-140.99 558.08,-150.99 561.58,-140.99 554.58,-140.99"/>
</g>
<!-- ApplicationsComponent  -->
<g id="node8" class="node">
<title>ApplicationsComponent </title>
<polygon fill="#fb8072" stroke="black" points="593.38,-252 436.62,-252 436.62,-216 593.38,-216 593.38,-252"/>
<text text-anchor="middle" x="515" y="-229.8" font-family="Times,serif" font-size="14.00">ApplicationsComponent </text>
</g>
<!-- ApplicationsModule&#45;&gt;ApplicationsComponent  -->
<g id="edge7" class="edge">
<title>ApplicationsModule&#45;&gt;ApplicationsComponent </title>
<path fill="none" stroke="black" stroke-dasharray="5,2" d="M515,-187.11C515,-187.11 515,-205.99 515,-205.99"/>
<polygon fill="black" stroke="black" points="511.5,-205.99 515,-215.99 518.5,-205.99 511.5,-205.99"/>
</g>
<!-- ApplicationsRoutingModule -->
<g id="node5" class="node">
<title>ApplicationsRoutingModule</title>
<polygon fill="#8dd3c7" stroke="black" points="512.21,-122 509.21,-126 488.21,-126 485.21,-122 335.79,-122 335.79,-86 512.21,-86 512.21,-122"/>
<text text-anchor="middle" x="424" y="-99.8" font-family="Times,serif" font-size="14.00">ApplicationsRoutingModule</text>
</g>
<!-- ApplicationsRoutingModule&#45;&gt;ApplicationsModule -->
<g id="edge4" class="edge">
<title>ApplicationsRoutingModule&#45;&gt;ApplicationsModule</title>
<path fill="none" stroke="black" d="M480.78,-122.11C480.78,-122.11 480.78,-140.99 480.78,-140.99"/>
<polygon fill="black" stroke="black" points="477.28,-140.99 480.78,-150.99 484.28,-140.99 477.28,-140.99"/>
</g>
<!-- DuplicateApplicationModule -->
<g id="node6" class="node">
<title>DuplicateApplicationModule</title>
<polygon fill="#8dd3c7" stroke="black" points="318.07,-122 315.07,-126 294.07,-126 291.07,-122 137.93,-122 137.93,-86 318.07,-86 318.07,-122"/>
<text text-anchor="middle" x="228" y="-99.8" font-family="Times,serif" font-size="14.00">DuplicateApplicationModule</text>
</g>
<!-- DuplicateApplicationModule&#45;&gt;ApplicationsModule -->
<g id="edge5" class="edge">
<title>DuplicateApplicationModule&#45;&gt;ApplicationsModule</title>
<path fill="none" stroke="black" d="M228,-122.02C228,-139.37 228,-163 228,-163 228,-163 439.16,-163 439.16,-163"/>
<polygon fill="black" stroke="black" points="439.16,-166.5 449.16,-163 439.16,-159.5 439.16,-166.5"/>
</g>
<!-- FormsModule -->
<g id="node7" class="node">
<title>FormsModule</title>
<polygon fill="#8dd3c7" stroke="black" points="119.83,-122 116.83,-126 95.83,-126 92.83,-122 24.17,-122 24.17,-86 119.83,-86 119.83,-122"/>
<text text-anchor="middle" x="72" y="-99.8" font-family="Times,serif" font-size="14.00">FormsModule</text>
</g>
<!-- FormsModule&#45;&gt;ApplicationsModule -->
<g id="edge6" class="edge">
<title>FormsModule&#45;&gt;ApplicationsModule</title>
<path fill="none" stroke="black" d="M72,-122.28C72,-143.32 72,-175 72,-175 72,-175 439.16,-175 439.16,-175"/>
<polygon fill="black" stroke="black" points="439.16,-178.5 449.16,-175 439.16,-171.5 439.16,-178.5"/>
</g>
</g>
</svg>
