<svg width="79" height="80" viewBox="0 0 79 80" fill="none" xmlns="http://www.w3.org/2000/svg">
<rect width="36.3636" height="36.3636" rx="4" fill="#F6C481" fill-opacity="0.5"/>
<rect y="43.6365" width="36.3636" height="36.3636" rx="4" fill="#F6C481" fill-opacity="0.7"/>
<rect x="41.8181" width="36.3636" height="80" rx="4" fill="#F6C481"/>
<path d="M5 23.5C5 22.1193 6.11929 21 7.5 21V21C8.88071 21 10 22.1193 10 23.5V33H5V23.5Z" fill="#F6C481"/>
<path d="M12 15.5C12 14.1193 13.1193 13 14.5 13V13C15.8807 13 17 14.1193 17 15.5V33H12V15.5Z" fill="#F6C481"/>
<path d="M19 10.5C19 9.11929 20.1193 8 21.5 8V8C22.8807 8 24 9.11929 24 10.5V33H19V10.5Z" fill="#F6C481"/>
<path d="M26 6.5C26 5.11929 27.1193 4 28.5 4V4C29.8807 4 31 5.11929 31 6.5V33H26V6.5Z" fill="#F6C481"/>
</svg>
