<svg width="36" height="36" viewBox="0 0 36 36" fill="none" xmlns="http://www.w3.org/2000/svg">
<path d="M26.3601 33.2L22.3401 26.24C24.3001 24.8 25.6601 22.56 25.9401 20H34.0001C33.8349 22.6414 33.0589 25.2084 31.7332 27.4989C30.4075 29.7895 28.5681 31.741 26.3601 33.2ZM20.0001 8.06V0C28.6001 0.52 35.4801 7.4 36.0001 16H27.9401C27.7167 13.9709 26.8084 12.0786 25.3649 10.6351C23.9215 9.19167 22.0291 8.28335 20.0001 8.06ZM8.00006 19C8.00006 20.28 8.26006 21.5 8.76006 22.6L1.80006 26.62C0.609709 24.2567 -0.00695836 21.6461 5.92295e-05 19C5.92295e-05 9.94 7.08006 2.54 16.0001 2V10.06C11.5001 10.56 8.00006 14.36 8.00006 19ZM17.0001 36C11.0601 36 5.84006 33 2.80006 28.36L9.76006 24.34C10.5928 25.4777 11.6827 26.4024 12.941 27.0385C14.1993 27.6746 15.5902 28.0041 17.0001 28C18.2801 28 19.5001 27.74 20.6001 27.24L24.6201 34.2C22.3201 35.36 19.7401 36 17.0001 36Z" fill="#3B8CC4"/>
</svg>
