<svg width="44" height="24" viewBox="0 0 44 24" fill="none" xmlns="http://www.w3.org/2000/svg">
<path d="M4 16L5 16.14L14.14 7C13.9566 6.3284 13.9564 5.61996 14.1392 4.94822C14.3221 4.27649 14.6815 3.66595 15.18 3.18C16.74 1.6 19.26 1.6 20.82 3.18C21.88 4.22 22.22 5.7 21.86 7L27 12.14L28 12C28.36 12 28.7 12 29 12.14L36.14 5C36 4.7 36 4.36 36 4C36 2.93913 36.4214 1.92172 37.1716 1.17157C37.9217 0.421427 38.9391 0 40 0C41.0609 0 42.0783 0.421427 42.8284 1.17157C43.5786 1.92172 44 2.93913 44 4C44 5.06087 43.5786 6.07828 42.8284 6.82843C42.0783 7.57857 41.0609 8 40 8C39.64 8 39.3 8 39 7.86L31.86 15C32 15.3 32 15.64 32 16C32 17.0609 31.5786 18.0783 30.8284 18.8284C30.0783 19.5786 29.0609 20 28 20C26.9391 20 25.9217 19.5786 25.1716 18.8284C24.4214 18.0783 24 17.0609 24 16L24.14 15L19 9.86C18.36 10 17.64 10 17 9.86L7.86 19L8 20C8 21.0609 7.57857 22.0783 6.82843 22.8284C6.07828 23.5786 5.06087 24 4 24C2.93913 24 1.92172 23.5786 1.17157 22.8284C0.421427 22.0783 0 21.0609 0 20C0 18.9391 0.421427 17.9217 1.17157 17.1716C1.92172 16.4214 2.93913 16 4 16Z" fill="#F6C481"/>
</svg>
