<svg width="40" height="40" viewBox="0 0 40 40" fill="none" xmlns="http://www.w3.org/2000/svg">
<path d="M24.38 24.38L8 32L15.62 15.62L32 8L24.38 24.38ZM20 0C17.3736 0 14.7728 0.517315 12.3463 1.52241C9.91982 2.5275 7.71504 4.00069 5.85786 5.85786C2.10714 9.60859 0 14.6957 0 20C0 25.3043 2.10714 30.3914 5.85786 34.1421C7.71504 35.9993 9.91982 37.4725 12.3463 38.4776C14.7728 39.4827 17.3736 40 20 40C25.3043 40 30.3914 37.8929 34.1421 34.1421C37.8929 30.3914 40 25.3043 40 20C40 17.3736 39.4827 14.7728 38.4776 12.3463C37.4725 9.91982 35.9993 7.71504 34.1421 5.85786C32.285 4.00069 30.0802 2.5275 27.6537 1.52241C25.2272 0.517315 22.6264 0 20 0ZM20 17.8C19.4165 17.8 18.8569 18.0318 18.4444 18.4444C18.0318 18.8569 17.8 19.4165 17.8 20C17.8 20.5835 18.0318 21.1431 18.4444 21.5556C18.8569 21.9682 19.4165 22.2 20 22.2C20.5835 22.2 21.1431 21.9682 21.5556 21.5556C21.9682 21.1431 22.2 20.5835 22.2 20C22.2 19.4165 21.9682 18.8569 21.5556 18.4444C21.1431 18.0318 20.5835 17.8 20 17.8Z" fill="#D58CA6"/>
</svg>
