<svg width="32" height="30" viewBox="0 0 32 30" fill="none" xmlns="http://www.w3.org/2000/svg">
<path d="M29.0002 0L31.3202 8.7L29.4002 9.22C28.5002 7.48 27.5802 5.74 26.5202 4.86C25.4602 4 24.2202 4 23.0002 4H18.0002V25C18.0002 26 18.0002 27 18.6602 27.5C19.3402 28 20.6602 28 22.0002 28V30H10.0002V28C11.3402 28 12.6602 28 13.3402 27.5C14.0002 27 14.0002 26 14.0002 25V4H9.00018C7.78018 4 6.54017 4 5.48018 4.86C4.42018 5.74 3.50018 7.48 2.60018 9.22L0.680176 8.7L3.00018 0H29.0002Z" fill="#2F383E"/>
</svg>
