<?xml version="1.0" encoding="UTF-8" standalone="no"?>
<!DOCTYPE svg PUBLIC "-//W3C//DTD SVG 1.1//EN"
 "http://www.w3.org/Graphics/SVG/1.1/DTD/svg11.dtd">
<!-- Generated by graphviz version 2.47.0 (20210316.0004)
 -->
<!-- Title: dependencies Pages: 1 -->
<svg width="557pt" height="284pt"
 viewBox="0.00 0.00 557.00 284.00" xmlns="http://www.w3.org/2000/svg" xmlns:xlink="http://www.w3.org/1999/xlink">
<g id="graph0" class="graph" transform="scale(1 1) rotate(0) translate(4 280)">
<title>dependencies</title>
<polygon fill="white" stroke="transparent" points="-4,4 -4,-280 553,-280 553,4 -4,4"/>
<text text-anchor="start" x="253.51" y="-42.4" font-family="sans-serif" font-weight="bold" font-size="14.00">Legend</text>
<polygon fill="#ffffb3" stroke="transparent" points="40.5,-10 40.5,-30 60.5,-30 60.5,-10 40.5,-10"/>
<text text-anchor="start" x="64.13" y="-15.4" font-family="sans-serif" font-size="14.00"> &#160;Declarations</text>
<polygon fill="#8dd3c7" stroke="transparent" points="153.5,-10 153.5,-30 173.5,-30 173.5,-10 153.5,-10"/>
<text text-anchor="start" x="177.23" y="-15.4" font-family="sans-serif" font-size="14.00"> &#160;Module</text>
<polygon fill="#80b1d3" stroke="transparent" points="239.5,-10 239.5,-30 259.5,-30 259.5,-10 239.5,-10"/>
<text text-anchor="start" x="263.28" y="-15.4" font-family="sans-serif" font-size="14.00"> &#160;Bootstrap</text>
<polygon fill="#fdb462" stroke="transparent" points="336.5,-10 336.5,-30 356.5,-30 356.5,-10 336.5,-10"/>
<text text-anchor="start" x="360.17" y="-15.4" font-family="sans-serif" font-size="14.00"> &#160;Providers</text>
<polygon fill="#fb8072" stroke="transparent" points="432.5,-10 432.5,-30 452.5,-30 452.5,-10 432.5,-10"/>
<text text-anchor="start" x="456.23" y="-15.4" font-family="sans-serif" font-size="14.00"> &#160;Exports</text>
<g id="clust1" class="cluster">
<title>cluster_SafeChartSettingsModule</title>
<polygon fill="none" stroke="black" stroke-dasharray="1,5" points="8,-70 8,-268 541,-268 541,-70 8,-70"/>
</g>
<g id="clust2" class="cluster">
<title>cluster_SafeChartSettingsModule_declarations</title>
<polygon fill="none" stroke="black" points="335,-78 335,-130 533,-130 533,-78 335,-78"/>
</g>
<g id="clust5" class="cluster">
<title>cluster_SafeChartSettingsModule_exports</title>
<polygon fill="none" stroke="black" points="160,-208 160,-260 362,-260 362,-208 160,-208"/>
</g>
<g id="clust4" class="cluster">
<title>cluster_SafeChartSettingsModule_imports</title>
<polygon fill="none" stroke="black" points="16,-78 16,-130 327,-130 327,-78 16,-78"/>
</g>
<!-- SafeChartSettingsComponent -->
<g id="node1" class="node">
<title>SafeChartSettingsComponent</title>
<polygon fill="#ffffb3" stroke="black" points="525.42,-122 342.58,-122 342.58,-86 525.42,-86 525.42,-122"/>
<text text-anchor="middle" x="434" y="-99.8" font-family="Times,serif" font-size="14.00">SafeChartSettingsComponent</text>
</g>
<!-- SafeChartSettingsModule -->
<g id="node2" class="node">
<title>SafeChartSettingsModule</title>
<polygon fill="#8dd3c7" stroke="black" points="341.14,-187 338.14,-191 317.14,-191 314.14,-187 180.86,-187 180.86,-151 341.14,-151 341.14,-187"/>
<text text-anchor="middle" x="261" y="-164.8" font-family="Times,serif" font-size="14.00">SafeChartSettingsModule</text>
</g>
<!-- SafeChartSettingsComponent&#45;&gt;SafeChartSettingsModule -->
<g id="edge1" class="edge">
<title>SafeChartSettingsComponent&#45;&gt;SafeChartSettingsModule</title>
<path fill="none" stroke="black" d="M348.38,-122.11C348.38,-141.34 348.38,-169 348.38,-169 348.38,-169 347.66,-169 347.66,-169"/>
<polygon fill="black" stroke="black" points="351.22,-165.5 341.22,-169 351.22,-172.5 351.22,-165.5"/>
</g>
<!-- SafeChartSettingsComponent  -->
<g id="node5" class="node">
<title>SafeChartSettingsComponent </title>
<polygon fill="#fb8072" stroke="black" points="353.92,-252 168.08,-252 168.08,-216 353.92,-216 353.92,-252"/>
<text text-anchor="middle" x="261" y="-229.8" font-family="Times,serif" font-size="14.00">SafeChartSettingsComponent </text>
</g>
<!-- SafeChartSettingsModule&#45;&gt;SafeChartSettingsComponent  -->
<g id="edge4" class="edge">
<title>SafeChartSettingsModule&#45;&gt;SafeChartSettingsComponent </title>
<path fill="none" stroke="black" stroke-dasharray="5,2" d="M261,-187.11C261,-187.11 261,-205.99 261,-205.99"/>
<polygon fill="black" stroke="black" points="257.5,-205.99 261,-215.99 264.5,-205.99 257.5,-205.99"/>
</g>
<!-- SafeChartModule -->
<g id="node3" class="node">
<title>SafeChartModule</title>
<polygon fill="#8dd3c7" stroke="black" points="318.53,-122 315.53,-126 294.53,-126 291.53,-122 203.47,-122 203.47,-86 318.53,-86 318.53,-122"/>
<text text-anchor="middle" x="261" y="-99.8" font-family="Times,serif" font-size="14.00">SafeChartModule</text>
</g>
<!-- SafeChartModule&#45;&gt;SafeChartSettingsModule -->
<g id="edge2" class="edge">
<title>SafeChartModule&#45;&gt;SafeChartSettingsModule</title>
<path fill="none" stroke="black" d="M261,-122.11C261,-122.11 261,-140.99 261,-140.99"/>
<polygon fill="black" stroke="black" points="257.5,-140.99 261,-150.99 264.5,-140.99 257.5,-140.99"/>
</g>
<!-- SafeQueryBuilderModule -->
<g id="node4" class="node">
<title>SafeQueryBuilderModule</title>
<polygon fill="#8dd3c7" stroke="black" points="185.9,-122 182.9,-126 161.9,-126 158.9,-122 24.1,-122 24.1,-86 185.9,-86 185.9,-122"/>
<text text-anchor="middle" x="105" y="-99.8" font-family="Times,serif" font-size="14.00">SafeQueryBuilderModule</text>
</g>
<!-- SafeQueryBuilderModule&#45;&gt;SafeChartSettingsModule -->
<g id="edge3" class="edge">
<title>SafeQueryBuilderModule&#45;&gt;SafeChartSettingsModule</title>
<path fill="none" stroke="black" d="M174.36,-122.11C174.36,-141.34 174.36,-169 174.36,-169 174.36,-169 174.98,-169 174.98,-169"/>
<polygon fill="black" stroke="black" points="170.59,-172.5 180.59,-169 170.59,-165.5 170.59,-172.5"/>
</g>
</g>
</svg>
