<?xml version="1.0" encoding="UTF-8" standalone="no"?>
<!DOCTYPE svg PUBLIC "-//W3C//DTD SVG 1.1//EN"
 "http://www.w3.org/Graphics/SVG/1.1/DTD/svg11.dtd">
<!-- Generated by graphviz version 2.47.0 (20210316.0004)
 -->
<!-- Title: dependencies Pages: 1 -->
<svg width="578pt" height="284pt"
 viewBox="0.00 0.00 578.00 284.00" xmlns="http://www.w3.org/2000/svg" xmlns:xlink="http://www.w3.org/1999/xlink">
<g id="graph0" class="graph" transform="scale(1 1) rotate(0) translate(4 280)">
<title>dependencies</title>
<polygon fill="white" stroke="transparent" points="-4,4 -4,-280 574,-280 574,4 -4,4"/>
<text text-anchor="start" x="264.01" y="-42.4" font-family="sans-serif" font-weight="bold" font-size="14.00">Legend</text>
<polygon fill="#ffffb3" stroke="transparent" points="51,-10 51,-30 71,-30 71,-10 51,-10"/>
<text text-anchor="start" x="74.63" y="-15.4" font-family="sans-serif" font-size="14.00"> &#160;Declarations</text>
<polygon fill="#8dd3c7" stroke="transparent" points="164,-10 164,-30 184,-30 184,-10 164,-10"/>
<text text-anchor="start" x="187.73" y="-15.4" font-family="sans-serif" font-size="14.00"> &#160;Module</text>
<polygon fill="#80b1d3" stroke="transparent" points="250,-10 250,-30 270,-30 270,-10 250,-10"/>
<text text-anchor="start" x="273.78" y="-15.4" font-family="sans-serif" font-size="14.00"> &#160;Bootstrap</text>
<polygon fill="#fdb462" stroke="transparent" points="347,-10 347,-30 367,-30 367,-10 347,-10"/>
<text text-anchor="start" x="370.67" y="-15.4" font-family="sans-serif" font-size="14.00"> &#160;Providers</text>
<polygon fill="#fb8072" stroke="transparent" points="443,-10 443,-30 463,-30 463,-10 443,-10"/>
<text text-anchor="start" x="466.73" y="-15.4" font-family="sans-serif" font-size="14.00"> &#160;Exports</text>
<g id="clust1" class="cluster">
<title>cluster_SafeFormBuilderModule</title>
<polygon fill="none" stroke="black" stroke-dasharray="1,5" points="8,-70 8,-268 562,-268 562,-70 8,-70"/>
</g>
<g id="clust2" class="cluster">
<title>cluster_SafeFormBuilderModule_declarations</title>
<polygon fill="none" stroke="black" points="360,-78 360,-130 554,-130 554,-78 360,-78"/>
</g>
<g id="clust4" class="cluster">
<title>cluster_SafeFormBuilderModule_imports</title>
<polygon fill="none" stroke="black" points="16,-78 16,-130 352,-130 352,-78 16,-78"/>
</g>
<g id="clust5" class="cluster">
<title>cluster_SafeFormBuilderModule_exports</title>
<polygon fill="none" stroke="black" points="169,-208 169,-260 367,-260 367,-208 169,-208"/>
</g>
<!-- SafeFormBuilderComponent -->
<g id="node1" class="node">
<title>SafeFormBuilderComponent</title>
<polygon fill="#ffffb3" stroke="black" points="546.03,-122 367.97,-122 367.97,-86 546.03,-86 546.03,-122"/>
<text text-anchor="middle" x="457" y="-99.8" font-family="Times,serif" font-size="14.00">SafeFormBuilderComponent</text>
</g>
<!-- SafeFormBuilderModule -->
<g id="node2" class="node">
<title>SafeFormBuilderModule</title>
<polygon fill="#8dd3c7" stroke="black" points="346.25,-187 343.25,-191 322.25,-191 319.25,-187 189.75,-187 189.75,-151 346.25,-151 346.25,-187"/>
<text text-anchor="middle" x="268" y="-164.8" font-family="Times,serif" font-size="14.00">SafeFormBuilderModule</text>
</g>
<!-- SafeFormBuilderComponent&#45;&gt;SafeFormBuilderModule -->
<g id="edge1" class="edge">
<title>SafeFormBuilderComponent&#45;&gt;SafeFormBuilderModule</title>
<path fill="none" stroke="black" d="M457,-122.11C457,-141.34 457,-169 457,-169 457,-169 356.51,-169 356.51,-169"/>
<polygon fill="black" stroke="black" points="356.51,-165.5 346.51,-169 356.51,-172.5 356.51,-165.5"/>
</g>
<!-- SafeFormBuilderComponent  -->
<g id="node5" class="node">
<title>SafeFormBuilderComponent </title>
<polygon fill="#fb8072" stroke="black" points="359.03,-252 176.97,-252 176.97,-216 359.03,-216 359.03,-252"/>
<text text-anchor="middle" x="268" y="-229.8" font-family="Times,serif" font-size="14.00">SafeFormBuilderComponent </text>
</g>
<!-- SafeFormBuilderModule&#45;&gt;SafeFormBuilderComponent  -->
<g id="edge4" class="edge">
<title>SafeFormBuilderModule&#45;&gt;SafeFormBuilderComponent </title>
<path fill="none" stroke="black" stroke-dasharray="5,2" d="M268,-187.11C268,-187.11 268,-205.99 268,-205.99"/>
<polygon fill="black" stroke="black" points="264.5,-205.99 268,-215.99 271.5,-205.99 264.5,-205.99"/>
</g>
<!-- SafeFormModalModule -->
<g id="node3" class="node">
<title>SafeFormModalModule</title>
<polygon fill="#8dd3c7" stroke="black" points="343.81,-122 340.81,-126 319.81,-126 316.81,-122 192.19,-122 192.19,-86 343.81,-86 343.81,-122"/>
<text text-anchor="middle" x="268" y="-99.8" font-family="Times,serif" font-size="14.00">SafeFormModalModule</text>
</g>
<!-- SafeFormModalModule&#45;&gt;SafeFormBuilderModule -->
<g id="edge2" class="edge">
<title>SafeFormModalModule&#45;&gt;SafeFormBuilderModule</title>
<path fill="none" stroke="black" d="M268,-122.11C268,-122.11 268,-140.99 268,-140.99"/>
<polygon fill="black" stroke="black" points="264.5,-140.99 268,-150.99 271.5,-140.99 264.5,-140.99"/>
</g>
<!-- SafeSurveyGridModule -->
<g id="node4" class="node">
<title>SafeSurveyGridModule</title>
<polygon fill="#8dd3c7" stroke="black" points="173.74,-122 170.74,-126 149.74,-126 146.74,-122 24.26,-122 24.26,-86 173.74,-86 173.74,-122"/>
<text text-anchor="middle" x="99" y="-99.8" font-family="Times,serif" font-size="14.00">SafeSurveyGridModule</text>
</g>
<!-- SafeSurveyGridModule&#45;&gt;SafeFormBuilderModule -->
<g id="edge3" class="edge">
<title>SafeSurveyGridModule&#45;&gt;SafeFormBuilderModule</title>
<path fill="none" stroke="black" d="M99,-122.11C99,-141.34 99,-169 99,-169 99,-169 179.44,-169 179.44,-169"/>
<polygon fill="black" stroke="black" points="179.44,-172.5 189.44,-169 179.44,-165.5 179.44,-172.5"/>
</g>
</g>
</svg>
