<?xml version="1.0" encoding="UTF-8" standalone="no"?>
<!DOCTYPE svg PUBLIC "-//W3C//DTD SVG 1.1//EN"
 "http://www.w3.org/Graphics/SVG/1.1/DTD/svg11.dtd">
<!-- Generated by graphviz version 2.47.0 (20210316.0004)
 -->
<!-- Title: dependencies Pages: 1 -->
<svg width="578pt" height="284pt"
 viewBox="0.00 0.00 578.00 284.00" xmlns="http://www.w3.org/2000/svg" xmlns:xlink="http://www.w3.org/1999/xlink">
<g id="graph0" class="graph" transform="scale(1 1) rotate(0) translate(4 280)">
<title>dependencies</title>
<polygon fill="white" stroke="transparent" points="-4,4 -4,-280 574,-280 574,4 -4,4"/>
<text text-anchor="start" x="264.01" y="-42.4" font-family="sans-serif" font-weight="bold" font-size="14.00">Legend</text>
<polygon fill="#ffffb3" stroke="transparent" points="51,-10 51,-30 71,-30 71,-10 51,-10"/>
<text text-anchor="start" x="74.63" y="-15.4" font-family="sans-serif" font-size="14.00"> &#160;Declarations</text>
<polygon fill="#8dd3c7" stroke="transparent" points="164,-10 164,-30 184,-30 184,-10 164,-10"/>
<text text-anchor="start" x="187.73" y="-15.4" font-family="sans-serif" font-size="14.00"> &#160;Module</text>
<polygon fill="#80b1d3" stroke="transparent" points="250,-10 250,-30 270,-30 270,-10 250,-10"/>
<text text-anchor="start" x="273.78" y="-15.4" font-family="sans-serif" font-size="14.00"> &#160;Bootstrap</text>
<polygon fill="#fdb462" stroke="transparent" points="347,-10 347,-30 367,-30 367,-10 347,-10"/>
<text text-anchor="start" x="370.67" y="-15.4" font-family="sans-serif" font-size="14.00"> &#160;Providers</text>
<polygon fill="#fb8072" stroke="transparent" points="443,-10 443,-30 463,-30 463,-10 443,-10"/>
<text text-anchor="start" x="466.73" y="-15.4" font-family="sans-serif" font-size="14.00"> &#160;Exports</text>
<g id="clust1" class="cluster">
<title>cluster_SafeFormBuilderModule</title>
<polygon fill="none" stroke="black" stroke-dasharray="1,5" points="8,-70 8,-268 562,-268 562,-70 8,-70"/>
</g>
<g id="clust4" class="cluster">
<title>cluster_SafeFormBuilderModule_imports</title>
<polygon fill="none" stroke="black" points="218,-78 218,-130 554,-130 554,-78 218,-78"/>
</g>
<g id="clust5" class="cluster">
<title>cluster_SafeFormBuilderModule_exports</title>
<polygon fill="none" stroke="black" points="202,-208 202,-260 400,-260 400,-208 202,-208"/>
</g>
<g id="clust2" class="cluster">
<title>cluster_SafeFormBuilderModule_declarations</title>
<polygon fill="none" stroke="black" points="16,-78 16,-130 210,-130 210,-78 16,-78"/>
</g>
<!-- SafeFormBuilderComponent -->
<g id="node1" class="node">
<title>SafeFormBuilderComponent</title>
<polygon fill="#ffffb3" stroke="black" points="202.03,-122 23.97,-122 23.97,-86 202.03,-86 202.03,-122"/>
<text text-anchor="middle" x="113" y="-99.8" font-family="Times,serif" font-size="14.00">SafeFormBuilderComponent</text>
</g>
<!-- SafeFormBuilderModule -->
<g id="node2" class="node">
<title>SafeFormBuilderModule</title>
<polygon fill="#8dd3c7" stroke="black" points="379.25,-187 376.25,-191 355.25,-191 352.25,-187 222.75,-187 222.75,-151 379.25,-151 379.25,-187"/>
<text text-anchor="middle" x="301" y="-164.8" font-family="Times,serif" font-size="14.00">SafeFormBuilderModule</text>
</g>
<!-- SafeFormBuilderComponent&#45;&gt;SafeFormBuilderModule -->
<g id="edge1" class="edge">
<title>SafeFormBuilderComponent&#45;&gt;SafeFormBuilderModule</title>
<path fill="none" stroke="black" d="M113,-122.11C113,-141.34 113,-169 113,-169 113,-169 212.63,-169 212.63,-169"/>
<polygon fill="black" stroke="black" points="212.63,-172.5 222.63,-169 212.63,-165.5 212.63,-172.5"/>
</g>
<!-- SafeFormBuilderComponent  -->
<g id="node5" class="node">
<title>SafeFormBuilderComponent </title>
<polygon fill="#fb8072" stroke="black" points="392.03,-252 209.97,-252 209.97,-216 392.03,-216 392.03,-252"/>
<text text-anchor="middle" x="301" y="-229.8" font-family="Times,serif" font-size="14.00">SafeFormBuilderComponent </text>
</g>
<!-- SafeFormBuilderModule&#45;&gt;SafeFormBuilderComponent  -->
<g id="edge4" class="edge">
<title>SafeFormBuilderModule&#45;&gt;SafeFormBuilderComponent </title>
<path fill="none" stroke="black" stroke-dasharray="5,2" d="M301,-187.11C301,-187.11 301,-205.99 301,-205.99"/>
<polygon fill="black" stroke="black" points="297.5,-205.99 301,-215.99 304.5,-205.99 297.5,-205.99"/>
</g>
<!-- SafeFormModalModule -->
<g id="node3" class="node">
<title>SafeFormModalModule</title>
<polygon fill="#8dd3c7" stroke="black" points="545.81,-122 542.81,-126 521.81,-126 518.81,-122 394.19,-122 394.19,-86 545.81,-86 545.81,-122"/>
<text text-anchor="middle" x="470" y="-99.8" font-family="Times,serif" font-size="14.00">SafeFormModalModule</text>
</g>
<!-- SafeFormModalModule&#45;&gt;SafeFormBuilderModule -->
<g id="edge2" class="edge">
<title>SafeFormModalModule&#45;&gt;SafeFormBuilderModule</title>
<path fill="none" stroke="black" d="M470,-122.11C470,-141.34 470,-169 470,-169 470,-169 389.56,-169 389.56,-169"/>
<polygon fill="black" stroke="black" points="389.56,-165.5 379.56,-169 389.56,-172.5 389.56,-165.5"/>
</g>
<!-- SafeSurveyGridModule -->
<g id="node4" class="node">
<title>SafeSurveyGridModule</title>
<polygon fill="#8dd3c7" stroke="black" points="375.74,-122 372.74,-126 351.74,-126 348.74,-122 226.26,-122 226.26,-86 375.74,-86 375.74,-122"/>
<text text-anchor="middle" x="301" y="-99.8" font-family="Times,serif" font-size="14.00">SafeSurveyGridModule</text>
</g>
<!-- SafeSurveyGridModule&#45;&gt;SafeFormBuilderModule -->
<g id="edge3" class="edge">
<title>SafeSurveyGridModule&#45;&gt;SafeFormBuilderModule</title>
<path fill="none" stroke="black" d="M301,-122.11C301,-122.11 301,-140.99 301,-140.99"/>
<polygon fill="black" stroke="black" points="297.5,-140.99 301,-150.99 304.5,-140.99 297.5,-140.99"/>
</g>
</g>
</svg>
