<svg width="80" height="80" viewBox="0 0 80 80" fill="none" xmlns="http://www.w3.org/2000/svg">
<path d="M58.5778 73.7777L49.6445 58.311C54 55.111 57.0223 50.1333 57.6445 44.4444H75.5556C75.1886 50.3141 73.4642 56.0186 70.5181 61.1086C67.572 66.1987 63.4847 70.5355 58.5778 73.7777ZM44.4445 17.9111V0C63.5556 1.15555 78.8445 16.4444 80 35.5555H62.0889C61.5926 31.0464 59.5741 26.8412 56.3664 23.6336C53.1588 20.4259 48.9536 18.4074 44.4445 17.9111ZM17.7779 42.2222C17.7779 45.0666 18.3557 47.7777 19.4668 50.2221L4.00013 59.1555C1.35491 53.9037 -0.015463 48.1025 0.000131621 42.2222C0.000131621 22.0889 15.7334 5.64443 35.5556 4.44444V22.3555C25.5556 23.4666 17.7779 31.9111 17.7779 42.2222ZM37.7778 79.9999C24.5779 79.9999 12.9779 73.3332 6.22234 63.0221L21.689 54.0888C23.5394 56.6171 25.9616 58.6719 28.7577 60.0855C31.5539 61.499 34.6447 62.2311 37.7778 62.2221C40.6223 62.2221 43.3334 61.6443 45.7778 60.5332L54.7112 75.9999C49.6001 78.5777 43.8667 79.9999 37.7778 79.9999Z" fill="#3B8CC4"/>
</svg>
