<?xml version="1.0" encoding="UTF-8" standalone="no"?>
<!DOCTYPE svg PUBLIC "-//W3C//DTD SVG 1.1//EN"
 "http://www.w3.org/Graphics/SVG/1.1/DTD/svg11.dtd">
<!-- Generated by graphviz version 2.47.0 (20210316.0004)
 -->
<!-- Title: dependencies Pages: 1 -->
<svg width="504pt" height="284pt"
 viewBox="0.00 0.00 504.00 284.00" xmlns="http://www.w3.org/2000/svg" xmlns:xlink="http://www.w3.org/1999/xlink">
<g id="graph0" class="graph" transform="scale(1 1) rotate(0) translate(4 280)">
<title>dependencies</title>
<polygon fill="white" stroke="transparent" points="-4,4 -4,-280 500,-280 500,4 -4,4"/>
<text text-anchor="start" x="227.01" y="-42.4" font-family="sans-serif" font-weight="bold" font-size="14.00">Legend</text>
<polygon fill="#ffffb3" stroke="transparent" points="14,-10 14,-30 34,-30 34,-10 14,-10"/>
<text text-anchor="start" x="37.63" y="-15.4" font-family="sans-serif" font-size="14.00"> &#160;Declarations</text>
<polygon fill="#8dd3c7" stroke="transparent" points="127,-10 127,-30 147,-30 147,-10 127,-10"/>
<text text-anchor="start" x="150.73" y="-15.4" font-family="sans-serif" font-size="14.00"> &#160;Module</text>
<polygon fill="#80b1d3" stroke="transparent" points="213,-10 213,-30 233,-30 233,-10 213,-10"/>
<text text-anchor="start" x="236.78" y="-15.4" font-family="sans-serif" font-size="14.00"> &#160;Bootstrap</text>
<polygon fill="#fdb462" stroke="transparent" points="310,-10 310,-30 330,-30 330,-10 310,-10"/>
<text text-anchor="start" x="333.67" y="-15.4" font-family="sans-serif" font-size="14.00"> &#160;Providers</text>
<polygon fill="#fb8072" stroke="transparent" points="406,-10 406,-30 426,-30 426,-10 406,-10"/>
<text text-anchor="start" x="429.73" y="-15.4" font-family="sans-serif" font-size="14.00"> &#160;Exports</text>
<g id="clust1" class="cluster">
<title>cluster_DuplicateApplicationModule</title>
<polygon fill="none" stroke="black" stroke-dasharray="1,5" points="71,-70 71,-268 425,-268 425,-70 71,-70"/>
</g>
<g id="clust4" class="cluster">
<title>cluster_DuplicateApplicationModule_imports</title>
<polygon fill="none" stroke="black" points="305,-78 305,-130 417,-130 417,-78 305,-78"/>
</g>
<g id="clust5" class="cluster">
<title>cluster_DuplicateApplicationModule_exports</title>
<polygon fill="none" stroke="black" points="137,-208 137,-260 359,-260 359,-208 137,-208"/>
</g>
<g id="clust2" class="cluster">
<title>cluster_DuplicateApplicationModule_declarations</title>
<polygon fill="none" stroke="black" points="79,-78 79,-130 297,-130 297,-78 79,-78"/>
</g>
<!-- DuplicateApplicationComponent -->
<g id="node1" class="node">
<title>DuplicateApplicationComponent</title>
<polygon fill="#ffffb3" stroke="black" points="288.85,-122 87.15,-122 87.15,-86 288.85,-86 288.85,-122"/>
<text text-anchor="middle" x="188" y="-99.8" font-family="Times,serif" font-size="14.00">DuplicateApplicationComponent</text>
</g>
<!-- DuplicateApplicationModule -->
<g id="node2" class="node">
<title>DuplicateApplicationModule</title>
<polygon fill="#8dd3c7" stroke="black" points="338.07,-187 335.07,-191 314.07,-191 311.07,-187 157.93,-187 157.93,-151 338.07,-151 338.07,-187"/>
<text text-anchor="middle" x="248" y="-164.8" font-family="Times,serif" font-size="14.00">DuplicateApplicationModule</text>
</g>
<!-- DuplicateApplicationComponent&#45;&gt;DuplicateApplicationModule -->
<g id="edge1" class="edge">
<title>DuplicateApplicationComponent&#45;&gt;DuplicateApplicationModule</title>
<path fill="none" stroke="black" d="M223.45,-122.11C223.45,-122.11 223.45,-140.99 223.45,-140.99"/>
<polygon fill="black" stroke="black" points="219.95,-140.99 223.45,-150.99 226.95,-140.99 219.95,-140.99"/>
</g>
<!-- DuplicateApplicationComponent  -->
<g id="node4" class="node">
<title>DuplicateApplicationComponent </title>
<polygon fill="#fb8072" stroke="black" points="350.85,-252 145.15,-252 145.15,-216 350.85,-216 350.85,-252"/>
<text text-anchor="middle" x="248" y="-229.8" font-family="Times,serif" font-size="14.00">DuplicateApplicationComponent </text>
</g>
<!-- DuplicateApplicationModule&#45;&gt;DuplicateApplicationComponent  -->
<g id="edge3" class="edge">
<title>DuplicateApplicationModule&#45;&gt;DuplicateApplicationComponent </title>
<path fill="none" stroke="black" stroke-dasharray="5,2" d="M248,-187.11C248,-187.11 248,-205.99 248,-205.99"/>
<polygon fill="black" stroke="black" points="244.5,-205.99 248,-215.99 251.5,-205.99 244.5,-205.99"/>
</g>
<!-- FormsModule -->
<g id="node3" class="node">
<title>FormsModule</title>
<polygon fill="#8dd3c7" stroke="black" points="408.83,-122 405.83,-126 384.83,-126 381.83,-122 313.17,-122 313.17,-86 408.83,-86 408.83,-122"/>
<text text-anchor="middle" x="361" y="-99.8" font-family="Times,serif" font-size="14.00">FormsModule</text>
</g>
<!-- FormsModule&#45;&gt;DuplicateApplicationModule -->
<g id="edge2" class="edge">
<title>FormsModule&#45;&gt;DuplicateApplicationModule</title>
<path fill="none" stroke="black" d="M325.69,-122.11C325.69,-122.11 325.69,-140.99 325.69,-140.99"/>
<polygon fill="black" stroke="black" points="322.19,-140.99 325.69,-150.99 329.19,-140.99 322.19,-140.99"/>
</g>
</g>
</svg>
