<svg viewBox="7.7 7.1 11.775 17.6" xmlns="http://www.w3.org/2000/svg">
  <path fill="#A3A3A3"
    d="m17.2 19.1v1.7c0 1-.8 1.7-1.7 1.7h-3.7c-1 0-1.7-.8-1.7-1.7v-9.6c0-1 .8-1.7 1.7-1.7h3.7c1 0 1.7.8 1.7 1.7v.2c.3-.1.7-.2 1-.2.4 0 .8.1 1.2.2v-.3c0-2.2-1.8-4-4-4h-3.7c-2.2 0-4 1.8-4 4v9.6c0 2.2 1.8 4 4 4h3.7c2.2 0 4-1.8 4-4v-4.3z" />
  <path fill="#A3A3A3"
    d="m15.4 18.5 4-4.6c.1-.1.1-.4 0-.5-.7-.6-1.8-.5-2.4.2l-2.5 2.9c-.1.1-.2.1-.2 0l-.9-1.1c-.2-.2-.5-.2-.7 0-.6.6-.6 1.6-.1 2.3l.8.9c.4.6 1.4.6 2-.1z" />
</svg>