<svg width="81" height="80" viewBox="0 0 81 80" fill="none" xmlns="http://www.w3.org/2000/svg">
<path d="M10.2004 46.6667L11.867 46.9L27.1004 31.6667C26.7947 30.5473 26.7943 29.3666 27.0991 28.247C27.4039 27.1275 28.0028 26.1099 28.8337 25.3C31.4337 22.6667 35.6337 22.6667 38.2337 25.3C40.0004 27.0333 40.567 29.5 39.967 31.6667L48.5337 40.2333L50.2004 40C50.8004 40 51.367 40 51.867 40.2333L63.767 28.3333C63.5337 27.8333 63.5337 27.2667 63.5337 26.6667C63.5337 24.8986 64.2361 23.2029 65.4863 21.9526C66.7365 20.7024 68.4322 20 70.2003 20C71.9685 20 73.6642 20.7024 74.9144 21.9526C76.1646 23.2029 76.867 24.8986 76.867 26.6667C76.867 28.4348 76.1646 30.1305 74.9144 31.3807C73.6642 32.631 71.9685 33.3333 70.2003 33.3333C69.6003 33.3333 69.0337 33.3333 68.5337 33.1L56.6337 45C56.867 45.5 56.867 46.0667 56.867 46.6667C56.867 48.4348 56.1646 50.1305 54.9144 51.3807C53.6642 52.631 51.9685 53.3333 50.2004 53.3333C48.4322 53.3333 46.7366 52.631 45.4863 51.3807C44.2361 50.1305 43.5337 48.4348 43.5337 46.6667L43.767 45L35.2004 36.4333C34.1337 36.6667 32.9337 36.6667 31.867 36.4333L16.6337 51.6667L16.867 53.3333C16.867 55.1014 16.1646 56.7971 14.9144 58.0474C13.6642 59.2976 11.9685 60 10.2004 60C8.43225 60 6.73656 59.2976 5.48631 58.0474C4.23607 56.7971 3.53369 55.1014 3.53369 53.3333C3.53369 51.5652 4.23607 49.8695 5.48631 48.6193C6.73656 47.369 8.43225 46.6667 10.2004 46.6667Z" fill="#F6C481"/>
</svg>
