<svg width="81" height="80" viewBox="0 0 81 80" fill="none" xmlns="http://www.w3.org/2000/svg">
<path d="M48.1001 47.3003L20.8001 60.0003L33.5001 32.7003L60.8001 20.0003L48.1001 47.3003ZM40.8001 6.66699C36.4227 6.66699 32.0882 7.52918 28.044 9.20434C23.9998 10.8795 20.3252 13.3348 17.2299 16.4301C10.9787 22.6813 7.4668 31.1598 7.4668 40.0003C7.4668 48.8409 10.9787 57.3193 17.2299 63.5706C20.3252 66.6658 23.9998 69.1212 28.044 70.7963C32.0882 72.4715 36.4227 73.3337 40.8001 73.3337C49.6407 73.3337 58.1191 69.8218 64.3704 63.5706C70.6216 57.3193 74.1335 48.8409 74.1335 40.0003C74.1335 35.6229 73.2713 31.2884 71.5961 27.2442C69.921 23.2 67.4656 19.5254 64.3704 16.4301C61.2751 13.3348 57.6004 10.8795 53.5562 9.20434C49.5121 7.52918 45.1775 6.66699 40.8001 6.66699ZM40.8001 36.3337C39.8277 36.3337 38.895 36.72 38.2074 37.4076C37.5198 38.0952 37.1335 39.0279 37.1335 40.0003C37.1335 40.9728 37.5198 41.9054 38.2074 42.5931C38.895 43.2807 39.8277 43.667 40.8001 43.667C41.7726 43.667 42.7052 43.2807 43.3929 42.5931C44.0805 41.9054 44.4668 40.9728 44.4668 40.0003C44.4668 39.0279 44.0805 38.0952 43.3929 37.4076C42.7052 36.72 41.7726 36.3337 40.8001 36.3337Z" fill="#D58CA6"/>
</svg>
