<?xml version="1.0" encoding="UTF-8" standalone="no"?>
<!DOCTYPE svg PUBLIC "-//W3C//DTD SVG 1.1//EN"
 "http://www.w3.org/Graphics/SVG/1.1/DTD/svg11.dtd">
<!-- Generated by graphviz version 2.47.0 (20210316.0004)
 -->
<!-- Title: dependencies Pages: 1 -->
<svg width="504pt" height="284pt"
 viewBox="0.00 0.00 504.00 284.00" xmlns="http://www.w3.org/2000/svg" xmlns:xlink="http://www.w3.org/1999/xlink">
<g id="graph0" class="graph" transform="scale(1 1) rotate(0) translate(4 280)">
<title>dependencies</title>
<polygon fill="white" stroke="transparent" points="-4,4 -4,-280 500,-280 500,4 -4,4"/>
<text text-anchor="start" x="227.01" y="-42.4" font-family="sans-serif" font-weight="bold" font-size="14.00">Legend</text>
<polygon fill="#ffffb3" stroke="transparent" points="14,-10 14,-30 34,-30 34,-10 14,-10"/>
<text text-anchor="start" x="37.63" y="-15.4" font-family="sans-serif" font-size="14.00"> &#160;Declarations</text>
<polygon fill="#8dd3c7" stroke="transparent" points="127,-10 127,-30 147,-30 147,-10 127,-10"/>
<text text-anchor="start" x="150.73" y="-15.4" font-family="sans-serif" font-size="14.00"> &#160;Module</text>
<polygon fill="#80b1d3" stroke="transparent" points="213,-10 213,-30 233,-30 233,-10 213,-10"/>
<text text-anchor="start" x="236.78" y="-15.4" font-family="sans-serif" font-size="14.00"> &#160;Bootstrap</text>
<polygon fill="#fdb462" stroke="transparent" points="310,-10 310,-30 330,-30 330,-10 310,-10"/>
<text text-anchor="start" x="333.67" y="-15.4" font-family="sans-serif" font-size="14.00"> &#160;Providers</text>
<polygon fill="#fb8072" stroke="transparent" points="406,-10 406,-30 426,-30 426,-10 406,-10"/>
<text text-anchor="start" x="429.73" y="-15.4" font-family="sans-serif" font-size="14.00"> &#160;Exports</text>
<g id="clust1" class="cluster">
<title>cluster_WorkflowModule</title>
<polygon fill="none" stroke="black" stroke-dasharray="1,5" points="70,-70 70,-268 426,-268 426,-70 70,-70"/>
</g>
<g id="clust5" class="cluster">
<title>cluster_WorkflowModule_exports</title>
<polygon fill="none" stroke="black" points="174,-208 174,-260 332,-260 332,-208 174,-208"/>
</g>
<g id="clust2" class="cluster">
<title>cluster_WorkflowModule_declarations</title>
<polygon fill="none" stroke="black" points="264,-78 264,-130 418,-130 418,-78 264,-78"/>
</g>
<g id="clust4" class="cluster">
<title>cluster_WorkflowModule_imports</title>
<polygon fill="none" stroke="black" points="78,-78 78,-130 256,-130 256,-78 78,-78"/>
</g>
<!-- WorkflowComponent -->
<g id="node1" class="node">
<title>WorkflowComponent</title>
<polygon fill="#ffffb3" stroke="black" points="410.37,-122 271.63,-122 271.63,-86 410.37,-86 410.37,-122"/>
<text text-anchor="middle" x="341" y="-99.8" font-family="Times,serif" font-size="14.00">WorkflowComponent</text>
</g>
<!-- WorkflowModule -->
<g id="node2" class="node">
<title>WorkflowModule</title>
<polygon fill="#8dd3c7" stroke="black" points="311.58,-187 308.58,-191 287.58,-191 284.58,-187 194.42,-187 194.42,-151 311.58,-151 311.58,-187"/>
<text text-anchor="middle" x="253" y="-164.8" font-family="Times,serif" font-size="14.00">WorkflowModule</text>
</g>
<!-- WorkflowComponent&#45;&gt;WorkflowModule -->
<g id="edge1" class="edge">
<title>WorkflowComponent&#45;&gt;WorkflowModule</title>
<path fill="none" stroke="black" d="M291.55,-122.11C291.55,-122.11 291.55,-140.99 291.55,-140.99"/>
<polygon fill="black" stroke="black" points="288.05,-140.99 291.55,-150.99 295.05,-140.99 288.05,-140.99"/>
</g>
<!-- WorkflowComponent  -->
<g id="node4" class="node">
<title>WorkflowComponent </title>
<polygon fill="#fb8072" stroke="black" points="324.37,-252 181.63,-252 181.63,-216 324.37,-216 324.37,-252"/>
<text text-anchor="middle" x="253" y="-229.8" font-family="Times,serif" font-size="14.00">WorkflowComponent </text>
</g>
<!-- WorkflowModule&#45;&gt;WorkflowComponent  -->
<g id="edge3" class="edge">
<title>WorkflowModule&#45;&gt;WorkflowComponent </title>
<path fill="none" stroke="black" stroke-dasharray="5,2" d="M253,-187.11C253,-187.11 253,-205.99 253,-205.99"/>
<polygon fill="black" stroke="black" points="249.5,-205.99 253,-215.99 256.5,-205.99 249.5,-205.99"/>
</g>
<!-- WorkflowRoutingModule -->
<g id="node3" class="node">
<title>WorkflowRoutingModule</title>
<polygon fill="#8dd3c7" stroke="black" points="248.2,-122 245.2,-126 224.2,-126 221.2,-122 85.8,-122 85.8,-86 248.2,-86 248.2,-122"/>
<text text-anchor="middle" x="167" y="-99.8" font-family="Times,serif" font-size="14.00">WorkflowRoutingModule</text>
</g>
<!-- WorkflowRoutingModule&#45;&gt;WorkflowModule -->
<g id="edge2" class="edge">
<title>WorkflowRoutingModule&#45;&gt;WorkflowModule</title>
<path fill="none" stroke="black" d="M221.28,-122.11C221.28,-122.11 221.28,-140.99 221.28,-140.99"/>
<polygon fill="black" stroke="black" points="217.78,-140.99 221.28,-150.99 224.78,-140.99 217.78,-140.99"/>
</g>
</g>
</svg>
