<?xml version="1.0" encoding="UTF-8" standalone="no"?>
<!DOCTYPE svg PUBLIC "-//W3C//DTD SVG 1.1//EN"
 "http://www.w3.org/Graphics/SVG/1.1/DTD/svg11.dtd">
<!-- Generated by graphviz version 2.47.0 (20210316.0004)
 -->
<!-- Title: dependencies Pages: 1 -->
<svg width="978pt" height="284pt"
 viewBox="0.00 0.00 978.00 284.00" xmlns="http://www.w3.org/2000/svg" xmlns:xlink="http://www.w3.org/1999/xlink">
<g id="graph0" class="graph" transform="scale(1 1) rotate(0) translate(4 280)">
<title>dependencies</title>
<polygon fill="white" stroke="transparent" points="-4,4 -4,-280 974,-280 974,4 -4,4"/>
<text text-anchor="start" x="464.01" y="-42.4" font-family="sans-serif" font-weight="bold" font-size="14.00">Legend</text>
<polygon fill="#ffffb3" stroke="transparent" points="251,-10 251,-30 271,-30 271,-10 251,-10"/>
<text text-anchor="start" x="274.63" y="-15.4" font-family="sans-serif" font-size="14.00"> &#160;Declarations</text>
<polygon fill="#8dd3c7" stroke="transparent" points="364,-10 364,-30 384,-30 384,-10 364,-10"/>
<text text-anchor="start" x="387.73" y="-15.4" font-family="sans-serif" font-size="14.00"> &#160;Module</text>
<polygon fill="#80b1d3" stroke="transparent" points="450,-10 450,-30 470,-30 470,-10 450,-10"/>
<text text-anchor="start" x="473.78" y="-15.4" font-family="sans-serif" font-size="14.00"> &#160;Bootstrap</text>
<polygon fill="#fdb462" stroke="transparent" points="547,-10 547,-30 567,-30 567,-10 547,-10"/>
<text text-anchor="start" x="570.67" y="-15.4" font-family="sans-serif" font-size="14.00"> &#160;Providers</text>
<polygon fill="#fb8072" stroke="transparent" points="643,-10 643,-30 663,-30 663,-10 643,-10"/>
<text text-anchor="start" x="666.73" y="-15.4" font-family="sans-serif" font-size="14.00"> &#160;Exports</text>
<g id="clust1" class="cluster">
<title>cluster_SafeGridModule</title>
<polygon fill="none" stroke="black" stroke-dasharray="1,5" points="8,-70 8,-268 962,-268 962,-70 8,-70"/>
</g>
<g id="clust5" class="cluster">
<title>cluster_SafeGridModule_exports</title>
<polygon fill="none" stroke="black" points="394,-208 394,-260 546,-260 546,-208 394,-208"/>
</g>
<g id="clust2" class="cluster">
<title>cluster_SafeGridModule_declarations</title>
<polygon fill="none" stroke="black" points="806,-78 806,-130 954,-130 954,-78 806,-78"/>
</g>
<g id="clust4" class="cluster">
<title>cluster_SafeGridModule_imports</title>
<polygon fill="none" stroke="black" points="16,-78 16,-130 798,-130 798,-78 16,-78"/>
</g>
<!-- SafeGridComponent -->
<g id="node1" class="node">
<title>SafeGridComponent</title>
<polygon fill="#ffffb3" stroke="black" points="945.86,-122 814.14,-122 814.14,-86 945.86,-86 945.86,-122"/>
<text text-anchor="middle" x="880" y="-99.8" font-family="Times,serif" font-size="14.00">SafeGridComponent</text>
</g>
<!-- SafeGridModule -->
<g id="node2" class="node">
<title>SafeGridModule</title>
<polygon fill="#8dd3c7" stroke="black" points="525.08,-187 522.08,-191 501.08,-191 498.08,-187 414.92,-187 414.92,-151 525.08,-151 525.08,-187"/>
<text text-anchor="middle" x="470" y="-164.8" font-family="Times,serif" font-size="14.00">SafeGridModule</text>
</g>
<!-- SafeGridComponent&#45;&gt;SafeGridModule -->
<g id="edge1" class="edge">
<title>SafeGridComponent&#45;&gt;SafeGridModule</title>
<path fill="none" stroke="black" d="M880,-122.28C880,-143.32 880,-175 880,-175 880,-175 535.29,-175 535.29,-175"/>
<polygon fill="black" stroke="black" points="535.29,-171.5 525.29,-175 535.29,-178.5 535.29,-171.5"/>
</g>
<!-- SafeGridComponent  -->
<g id="node7" class="node">
<title>SafeGridComponent </title>
<polygon fill="#fb8072" stroke="black" points="537.86,-252 402.14,-252 402.14,-216 537.86,-216 537.86,-252"/>
<text text-anchor="middle" x="470" y="-229.8" font-family="Times,serif" font-size="14.00">SafeGridComponent </text>
</g>
<!-- SafeGridModule&#45;&gt;SafeGridComponent  -->
<g id="edge6" class="edge">
<title>SafeGridModule&#45;&gt;SafeGridComponent </title>
<path fill="none" stroke="black" stroke-dasharray="5,2" d="M470,-187.11C470,-187.11 470,-205.99 470,-205.99"/>
<polygon fill="black" stroke="black" points="466.5,-205.99 470,-215.99 473.5,-205.99 466.5,-205.99"/>
</g>
<!-- SafeChooseRecordModalModule -->
<g id="node3" class="node">
<title>SafeChooseRecordModalModule</title>
<polygon fill="#8dd3c7" stroke="black" points="789.89,-122 786.89,-126 765.89,-126 762.89,-122 586.11,-122 586.11,-86 789.89,-86 789.89,-122"/>
<text text-anchor="middle" x="688" y="-99.8" font-family="Times,serif" font-size="14.00">SafeChooseRecordModalModule</text>
</g>
<!-- SafeChooseRecordModalModule&#45;&gt;SafeGridModule -->
<g id="edge2" class="edge">
<title>SafeChooseRecordModalModule&#45;&gt;SafeGridModule</title>
<path fill="none" stroke="black" d="M688,-122.02C688,-139.37 688,-163 688,-163 688,-163 535.29,-163 535.29,-163"/>
<polygon fill="black" stroke="black" points="535.29,-159.5 525.29,-163 535.29,-166.5 535.29,-159.5"/>
</g>
<!-- SafeExpandedCommentModule -->
<g id="node4" class="node">
<title>SafeExpandedCommentModule</title>
<polygon fill="#8dd3c7" stroke="black" points="567.63,-122 564.63,-126 543.63,-126 540.63,-122 372.37,-122 372.37,-86 567.63,-86 567.63,-122"/>
<text text-anchor="middle" x="470" y="-99.8" font-family="Times,serif" font-size="14.00">SafeExpandedCommentModule</text>
</g>
<!-- SafeExpandedCommentModule&#45;&gt;SafeGridModule -->
<g id="edge3" class="edge">
<title>SafeExpandedCommentModule&#45;&gt;SafeGridModule</title>
<path fill="none" stroke="black" d="M470,-122.11C470,-122.11 470,-140.99 470,-140.99"/>
<polygon fill="black" stroke="black" points="466.5,-140.99 470,-150.99 473.5,-140.99 466.5,-140.99"/>
</g>
<!-- SafeFormModalModule -->
<g id="node5" class="node">
<title>SafeFormModalModule</title>
<polygon fill="#8dd3c7" stroke="black" points="354.81,-122 351.81,-126 330.81,-126 327.81,-122 203.19,-122 203.19,-86 354.81,-86 354.81,-122"/>
<text text-anchor="middle" x="279" y="-99.8" font-family="Times,serif" font-size="14.00">SafeFormModalModule</text>
</g>
<!-- SafeFormModalModule&#45;&gt;SafeGridModule -->
<g id="edge4" class="edge">
<title>SafeFormModalModule&#45;&gt;SafeGridModule</title>
<path fill="none" stroke="black" d="M279,-122.02C279,-139.37 279,-163 279,-163 279,-163 404.75,-163 404.75,-163"/>
<polygon fill="black" stroke="black" points="404.75,-166.5 414.75,-163 404.75,-159.5 404.75,-166.5"/>
</g>
<!-- SafeRecordModalModule -->
<g id="node6" class="node">
<title>SafeRecordModalModule</title>
<polygon fill="#8dd3c7" stroke="black" points="185.9,-122 182.9,-126 161.9,-126 158.9,-122 24.1,-122 24.1,-86 185.9,-86 185.9,-122"/>
<text text-anchor="middle" x="105" y="-99.8" font-family="Times,serif" font-size="14.00">SafeRecordModalModule</text>
</g>
<!-- SafeRecordModalModule&#45;&gt;SafeGridModule -->
<g id="edge5" class="edge">
<title>SafeRecordModalModule&#45;&gt;SafeGridModule</title>
<path fill="none" stroke="black" d="M105,-122.28C105,-143.32 105,-175 105,-175 105,-175 404.56,-175 404.56,-175"/>
<polygon fill="black" stroke="black" points="404.56,-178.5 414.56,-175 404.56,-171.5 404.56,-178.5"/>
</g>
</g>
</svg>
