<?xml version="1.0" encoding="UTF-8" standalone="no"?>
<!DOCTYPE svg PUBLIC "-//W3C//DTD SVG 1.1//EN"
 "http://www.w3.org/Graphics/SVG/1.1/DTD/svg11.dtd">
<!-- Generated by graphviz version 2.47.0 (20210316.0004)
 -->
<!-- Title: dependencies Pages: 1 -->
<svg width="665pt" height="284pt"
 viewBox="0.00 0.00 665.00 284.00" xmlns="http://www.w3.org/2000/svg" xmlns:xlink="http://www.w3.org/1999/xlink">
<g id="graph0" class="graph" transform="scale(1 1) rotate(0) translate(4 280)">
<title>dependencies</title>
<polygon fill="white" stroke="transparent" points="-4,4 -4,-280 661,-280 661,4 -4,4"/>
<text text-anchor="start" x="307.51" y="-42.4" font-family="sans-serif" font-weight="bold" font-size="14.00">Legend</text>
<polygon fill="#ffffb3" stroke="transparent" points="94.5,-10 94.5,-30 114.5,-30 114.5,-10 94.5,-10"/>
<text text-anchor="start" x="118.13" y="-15.4" font-family="sans-serif" font-size="14.00"> &#160;Declarations</text>
<polygon fill="#8dd3c7" stroke="transparent" points="207.5,-10 207.5,-30 227.5,-30 227.5,-10 207.5,-10"/>
<text text-anchor="start" x="231.23" y="-15.4" font-family="sans-serif" font-size="14.00"> &#160;Module</text>
<polygon fill="#80b1d3" stroke="transparent" points="293.5,-10 293.5,-30 313.5,-30 313.5,-10 293.5,-10"/>
<text text-anchor="start" x="317.28" y="-15.4" font-family="sans-serif" font-size="14.00"> &#160;Bootstrap</text>
<polygon fill="#fdb462" stroke="transparent" points="390.5,-10 390.5,-30 410.5,-30 410.5,-10 390.5,-10"/>
<text text-anchor="start" x="414.17" y="-15.4" font-family="sans-serif" font-size="14.00"> &#160;Providers</text>
<polygon fill="#fb8072" stroke="transparent" points="486.5,-10 486.5,-30 506.5,-30 506.5,-10 486.5,-10"/>
<text text-anchor="start" x="510.23" y="-15.4" font-family="sans-serif" font-size="14.00"> &#160;Exports</text>
<g id="clust1" class="cluster">
<title>cluster_FormBuilderModule</title>
<polygon fill="none" stroke="black" stroke-dasharray="1,5" points="8,-70 8,-268 649,-268 649,-70 8,-70"/>
</g>
<g id="clust6" class="cluster">
<title>cluster_FormBuilderModule_exports</title>
<polygon fill="none" stroke="black" points="229,-208 229,-260 403,-260 403,-208 229,-208"/>
</g>
<g id="clust5" class="cluster">
<title>cluster_FormBuilderModule_imports</title>
<polygon fill="none" stroke="black" points="335,-78 335,-130 641,-130 641,-78 335,-78"/>
</g>
<g id="clust2" class="cluster">
<title>cluster_FormBuilderModule_declarations</title>
<polygon fill="none" stroke="black" points="16,-78 16,-130 327,-130 327,-78 16,-78"/>
</g>
<!-- FormBuilderComponent -->
<g id="node1" class="node">
<title>FormBuilderComponent</title>
<polygon fill="#ffffb3" stroke="black" points="318.66,-122 165.34,-122 165.34,-86 318.66,-86 318.66,-122"/>
<text text-anchor="middle" x="242" y="-99.8" font-family="Times,serif" font-size="14.00">FormBuilderComponent</text>
</g>
<!-- FormBuilderModule -->
<g id="node3" class="node">
<title>FormBuilderModule</title>
<polygon fill="#8dd3c7" stroke="black" points="381.88,-187 378.88,-191 357.88,-191 354.88,-187 250.12,-187 250.12,-151 381.88,-151 381.88,-187"/>
<text text-anchor="middle" x="316" y="-164.8" font-family="Times,serif" font-size="14.00">FormBuilderModule</text>
</g>
<!-- FormBuilderComponent&#45;&gt;FormBuilderModule -->
<g id="edge1" class="edge">
<title>FormBuilderComponent&#45;&gt;FormBuilderModule</title>
<path fill="none" stroke="black" d="M284.45,-122.11C284.45,-122.11 284.45,-140.99 284.45,-140.99"/>
<polygon fill="black" stroke="black" points="280.95,-140.99 284.45,-150.99 287.95,-140.99 280.95,-140.99"/>
</g>
<!-- HistoryComponent -->
<g id="node2" class="node">
<title>HistoryComponent</title>
<polygon fill="#ffffb3" stroke="black" points="147.83,-122 24.17,-122 24.17,-86 147.83,-86 147.83,-122"/>
<text text-anchor="middle" x="86" y="-99.8" font-family="Times,serif" font-size="14.00">HistoryComponent</text>
</g>
<!-- HistoryComponent&#45;&gt;FormBuilderModule -->
<g id="edge2" class="edge">
<title>HistoryComponent&#45;&gt;FormBuilderModule</title>
<path fill="none" stroke="black" d="M86,-122.11C86,-141.34 86,-169 86,-169 86,-169 240.09,-169 240.09,-169"/>
<polygon fill="black" stroke="black" points="240.09,-172.5 250.09,-169 240.09,-165.5 240.09,-172.5"/>
</g>
<!-- FormBuilderComponent  -->
<g id="node6" class="node">
<title>FormBuilderComponent </title>
<polygon fill="#fb8072" stroke="black" points="394.66,-252 237.34,-252 237.34,-216 394.66,-216 394.66,-252"/>
<text text-anchor="middle" x="316" y="-229.8" font-family="Times,serif" font-size="14.00">FormBuilderComponent </text>
</g>
<!-- FormBuilderModule&#45;&gt;FormBuilderComponent  -->
<g id="edge5" class="edge">
<title>FormBuilderModule&#45;&gt;FormBuilderComponent </title>
<path fill="none" stroke="black" stroke-dasharray="5,2" d="M316,-187.11C316,-187.11 316,-205.99 316,-205.99"/>
<polygon fill="black" stroke="black" points="312.5,-205.99 316,-215.99 319.5,-205.99 312.5,-205.99"/>
</g>
<!-- FormBuilderRoutingModule -->
<g id="node4" class="node">
<title>FormBuilderRoutingModule</title>
<polygon fill="#8dd3c7" stroke="black" points="633.49,-122 630.49,-126 609.49,-126 606.49,-122 456.51,-122 456.51,-86 633.49,-86 633.49,-122"/>
<text text-anchor="middle" x="545" y="-99.8" font-family="Times,serif" font-size="14.00">FormBuilderRoutingModule</text>
</g>
<!-- FormBuilderRoutingModule&#45;&gt;FormBuilderModule -->
<g id="edge3" class="edge">
<title>FormBuilderRoutingModule&#45;&gt;FormBuilderModule</title>
<path fill="none" stroke="black" d="M545,-122.11C545,-141.34 545,-169 545,-169 545,-169 391.93,-169 391.93,-169"/>
<polygon fill="black" stroke="black" points="391.93,-165.5 381.93,-169 391.93,-172.5 391.93,-165.5"/>
</g>
<!-- FormsModule -->
<g id="node5" class="node">
<title>FormsModule</title>
<polygon fill="#8dd3c7" stroke="black" points="438.83,-122 435.83,-126 414.83,-126 411.83,-122 343.17,-122 343.17,-86 438.83,-86 438.83,-122"/>
<text text-anchor="middle" x="391" y="-99.8" font-family="Times,serif" font-size="14.00">FormsModule</text>
</g>
<!-- FormsModule&#45;&gt;FormBuilderModule -->
<g id="edge4" class="edge">
<title>FormsModule&#45;&gt;FormBuilderModule</title>
<path fill="none" stroke="black" d="M362.64,-122.11C362.64,-122.11 362.64,-140.99 362.64,-140.99"/>
<polygon fill="black" stroke="black" points="359.14,-140.99 362.64,-150.99 366.14,-140.99 359.14,-140.99"/>
</g>
</g>
</svg>
