<?xml version="1.0" encoding="UTF-8" standalone="no"?>
<!DOCTYPE svg PUBLIC "-//W3C//DTD SVG 1.1//EN"
 "http://www.w3.org/Graphics/SVG/1.1/DTD/svg11.dtd">
<!-- Generated by graphviz version 2.47.0 (20210316.0004)
 -->
<!-- Title: dependencies Pages: 1 -->
<svg width="641pt" height="284pt"
 viewBox="0.00 0.00 641.00 284.00" xmlns="http://www.w3.org/2000/svg" xmlns:xlink="http://www.w3.org/1999/xlink">
<g id="graph0" class="graph" transform="scale(1 1) rotate(0) translate(4 280)">
<title>dependencies</title>
<polygon fill="white" stroke="transparent" points="-4,4 -4,-280 637,-280 637,4 -4,4"/>
<text text-anchor="start" x="295.51" y="-42.4" font-family="sans-serif" font-weight="bold" font-size="14.00">Legend</text>
<polygon fill="#ffffb3" stroke="transparent" points="82.5,-10 82.5,-30 102.5,-30 102.5,-10 82.5,-10"/>
<text text-anchor="start" x="106.13" y="-15.4" font-family="sans-serif" font-size="14.00"> &#160;Declarations</text>
<polygon fill="#8dd3c7" stroke="transparent" points="195.5,-10 195.5,-30 215.5,-30 215.5,-10 195.5,-10"/>
<text text-anchor="start" x="219.23" y="-15.4" font-family="sans-serif" font-size="14.00"> &#160;Module</text>
<polygon fill="#80b1d3" stroke="transparent" points="281.5,-10 281.5,-30 301.5,-30 301.5,-10 281.5,-10"/>
<text text-anchor="start" x="305.28" y="-15.4" font-family="sans-serif" font-size="14.00"> &#160;Bootstrap</text>
<polygon fill="#fdb462" stroke="transparent" points="378.5,-10 378.5,-30 398.5,-30 398.5,-10 378.5,-10"/>
<text text-anchor="start" x="402.17" y="-15.4" font-family="sans-serif" font-size="14.00"> &#160;Providers</text>
<polygon fill="#fb8072" stroke="transparent" points="474.5,-10 474.5,-30 494.5,-30 494.5,-10 474.5,-10"/>
<text text-anchor="start" x="498.23" y="-15.4" font-family="sans-serif" font-size="14.00"> &#160;Exports</text>
<g id="clust1" class="cluster">
<title>cluster_PositionModule</title>
<polygon fill="none" stroke="black" stroke-dasharray="1,5" points="8,-70 8,-268 625,-268 625,-70 8,-70"/>
</g>
<g id="clust2" class="cluster">
<title>cluster_PositionModule_declarations</title>
<polygon fill="none" stroke="black" points="304,-78 304,-130 617,-130 617,-78 304,-78"/>
</g>
<g id="clust5" class="cluster">
<title>cluster_PositionModule_imports</title>
<polygon fill="none" stroke="black" points="16,-78 16,-130 296,-130 296,-78 16,-78"/>
</g>
<g id="clust6" class="cluster">
<title>cluster_PositionModule_exports</title>
<polygon fill="none" stroke="black" points="235,-208 235,-260 381,-260 381,-208 235,-208"/>
</g>
<!-- AddPositionComponent -->
<g id="node1" class="node">
<title>AddPositionComponent</title>
<polygon fill="#ffffb3" stroke="black" points="608.84,-122 457.16,-122 457.16,-86 608.84,-86 608.84,-122"/>
<text text-anchor="middle" x="533" y="-99.8" font-family="Times,serif" font-size="14.00">AddPositionComponent</text>
</g>
<!-- PositionModule -->
<g id="node3" class="node">
<title>PositionModule</title>
<polygon fill="#8dd3c7" stroke="black" points="360.95,-187 357.95,-191 336.95,-191 333.95,-187 255.05,-187 255.05,-151 360.95,-151 360.95,-187"/>
<text text-anchor="middle" x="308" y="-164.8" font-family="Times,serif" font-size="14.00">PositionModule</text>
</g>
<!-- AddPositionComponent&#45;&gt;PositionModule -->
<g id="edge1" class="edge">
<title>AddPositionComponent&#45;&gt;PositionModule</title>
<path fill="none" stroke="black" d="M533,-122.11C533,-141.34 533,-169 533,-169 533,-169 370.75,-169 370.75,-169"/>
<polygon fill="black" stroke="black" points="370.75,-165.5 360.75,-169 370.75,-172.5 370.75,-165.5"/>
</g>
<!-- PositionComponent -->
<g id="node2" class="node">
<title>PositionComponent</title>
<polygon fill="#ffffb3" stroke="black" points="439.73,-122 312.27,-122 312.27,-86 439.73,-86 439.73,-122"/>
<text text-anchor="middle" x="376" y="-99.8" font-family="Times,serif" font-size="14.00">PositionComponent</text>
</g>
<!-- PositionComponent&#45;&gt;PositionModule -->
<g id="edge2" class="edge">
<title>PositionComponent&#45;&gt;PositionModule</title>
<path fill="none" stroke="black" d="M336.55,-122.11C336.55,-122.11 336.55,-140.99 336.55,-140.99"/>
<polygon fill="black" stroke="black" points="333.05,-140.99 336.55,-150.99 340.05,-140.99 333.05,-140.99"/>
</g>
<!-- PositionComponent  -->
<g id="node6" class="node">
<title>PositionComponent </title>
<polygon fill="#fb8072" stroke="black" points="373.23,-252 242.77,-252 242.77,-216 373.23,-216 373.23,-252"/>
<text text-anchor="middle" x="308" y="-229.8" font-family="Times,serif" font-size="14.00">PositionComponent </text>
</g>
<!-- PositionModule&#45;&gt;PositionComponent  -->
<g id="edge5" class="edge">
<title>PositionModule&#45;&gt;PositionComponent </title>
<path fill="none" stroke="black" stroke-dasharray="5,2" d="M308,-187.11C308,-187.11 308,-205.99 308,-205.99"/>
<polygon fill="black" stroke="black" points="304.5,-205.99 308,-215.99 311.5,-205.99 304.5,-205.99"/>
</g>
<!-- FormsModule -->
<g id="node4" class="node">
<title>FormsModule</title>
<polygon fill="#8dd3c7" stroke="black" points="287.83,-122 284.83,-126 263.83,-126 260.83,-122 192.17,-122 192.17,-86 287.83,-86 287.83,-122"/>
<text text-anchor="middle" x="240" y="-99.8" font-family="Times,serif" font-size="14.00">FormsModule</text>
</g>
<!-- FormsModule&#45;&gt;PositionModule -->
<g id="edge3" class="edge">
<title>FormsModule&#45;&gt;PositionModule</title>
<path fill="none" stroke="black" d="M271.47,-122.11C271.47,-122.11 271.47,-140.99 271.47,-140.99"/>
<polygon fill="black" stroke="black" points="267.97,-140.99 271.47,-150.99 274.97,-140.99 267.97,-140.99"/>
</g>
<!-- PositionRoutingModule -->
<g id="node5" class="node">
<title>PositionRoutingModule</title>
<polygon fill="#8dd3c7" stroke="black" points="174.07,-122 171.07,-126 150.07,-126 147.07,-122 23.93,-122 23.93,-86 174.07,-86 174.07,-122"/>
<text text-anchor="middle" x="99" y="-99.8" font-family="Times,serif" font-size="14.00">PositionRoutingModule</text>
</g>
<!-- PositionRoutingModule&#45;&gt;PositionModule -->
<g id="edge4" class="edge">
<title>PositionRoutingModule&#45;&gt;PositionModule</title>
<path fill="none" stroke="black" d="M99,-122.11C99,-141.34 99,-169 99,-169 99,-169 245.26,-169 245.26,-169"/>
<polygon fill="black" stroke="black" points="245.26,-172.5 255.26,-169 245.26,-165.5 245.26,-172.5"/>
</g>
</g>
</svg>
