<?xml version="1.0" encoding="UTF-8" standalone="no"?>
<!DOCTYPE svg PUBLIC "-//W3C//DTD SVG 1.1//EN"
 "http://www.w3.org/Graphics/SVG/1.1/DTD/svg11.dtd">
<!-- Generated by graphviz version 2.47.0 (20210316.0004)
 -->
<!-- Title: dependencies Pages: 1 -->
<svg width="504pt" height="284pt"
 viewBox="0.00 0.00 504.00 284.00" xmlns="http://www.w3.org/2000/svg" xmlns:xlink="http://www.w3.org/1999/xlink">
<g id="graph0" class="graph" transform="scale(1 1) rotate(0) translate(4 280)">
<title>dependencies</title>
<polygon fill="white" stroke="transparent" points="-4,4 -4,-280 500,-280 500,4 -4,4"/>
<text text-anchor="start" x="227.01" y="-42.4" font-family="sans-serif" font-weight="bold" font-size="14.00">Legend</text>
<polygon fill="#ffffb3" stroke="transparent" points="14,-10 14,-30 34,-30 34,-10 14,-10"/>
<text text-anchor="start" x="37.63" y="-15.4" font-family="sans-serif" font-size="14.00"> &#160;Declarations</text>
<polygon fill="#8dd3c7" stroke="transparent" points="127,-10 127,-30 147,-30 147,-10 127,-10"/>
<text text-anchor="start" x="150.73" y="-15.4" font-family="sans-serif" font-size="14.00"> &#160;Module</text>
<polygon fill="#80b1d3" stroke="transparent" points="213,-10 213,-30 233,-30 233,-10 213,-10"/>
<text text-anchor="start" x="236.78" y="-15.4" font-family="sans-serif" font-size="14.00"> &#160;Bootstrap</text>
<polygon fill="#fdb462" stroke="transparent" points="310,-10 310,-30 330,-30 330,-10 310,-10"/>
<text text-anchor="start" x="333.67" y="-15.4" font-family="sans-serif" font-size="14.00"> &#160;Providers</text>
<polygon fill="#fb8072" stroke="transparent" points="406,-10 406,-30 426,-30 426,-10 406,-10"/>
<text text-anchor="start" x="429.73" y="-15.4" font-family="sans-serif" font-size="14.00"> &#160;Exports</text>
<g id="clust1" class="cluster">
<title>cluster_ResourcesModule</title>
<polygon fill="none" stroke="black" stroke-dasharray="1,5" points="13,-70 13,-268 483,-268 483,-70 13,-70"/>
</g>
<g id="clust5" class="cluster">
<title>cluster_ResourcesModule_exports</title>
<polygon fill="none" stroke="black" points="178,-208 178,-260 336,-260 336,-208 178,-208"/>
</g>
<g id="clust2" class="cluster">
<title>cluster_ResourcesModule_declarations</title>
<polygon fill="none" stroke="black" points="321,-78 321,-130 475,-130 475,-78 321,-78"/>
</g>
<g id="clust4" class="cluster">
<title>cluster_ResourcesModule_imports</title>
<polygon fill="none" stroke="black" points="21,-78 21,-130 313,-130 313,-78 21,-78"/>
</g>
<!-- ResourcesComponent -->
<g id="node1" class="node">
<title>ResourcesComponent</title>
<polygon fill="#ffffb3" stroke="black" points="467.36,-122 328.64,-122 328.64,-86 467.36,-86 467.36,-122"/>
<text text-anchor="middle" x="398" y="-99.8" font-family="Times,serif" font-size="14.00">ResourcesComponent</text>
</g>
<!-- ResourcesModule -->
<g id="node2" class="node">
<title>ResourcesModule</title>
<polygon fill="#8dd3c7" stroke="black" points="315.58,-187 312.58,-191 291.58,-191 288.58,-187 198.42,-187 198.42,-151 315.58,-151 315.58,-187"/>
<text text-anchor="middle" x="257" y="-164.8" font-family="Times,serif" font-size="14.00">ResourcesModule</text>
</g>
<!-- ResourcesComponent&#45;&gt;ResourcesModule -->
<g id="edge1" class="edge">
<title>ResourcesComponent&#45;&gt;ResourcesModule</title>
<path fill="none" stroke="black" d="M328.31,-104C317.65,-104 310.1,-104 310.1,-104 310.1,-104 310.1,-140.89 310.1,-140.89"/>
<polygon fill="black" stroke="black" points="306.6,-140.89 310.1,-150.89 313.6,-140.89 306.6,-140.89"/>
</g>
<!-- ResourcesComponent  -->
<g id="node5" class="node">
<title>ResourcesComponent </title>
<polygon fill="#fb8072" stroke="black" points="328.36,-252 185.64,-252 185.64,-216 328.36,-216 328.36,-252"/>
<text text-anchor="middle" x="257" y="-229.8" font-family="Times,serif" font-size="14.00">ResourcesComponent </text>
</g>
<!-- ResourcesModule&#45;&gt;ResourcesComponent  -->
<g id="edge4" class="edge">
<title>ResourcesModule&#45;&gt;ResourcesComponent </title>
<path fill="none" stroke="black" stroke-dasharray="5,2" d="M257,-187.11C257,-187.11 257,-205.99 257,-205.99"/>
<polygon fill="black" stroke="black" points="253.5,-205.99 257,-215.99 260.5,-205.99 253.5,-205.99"/>
</g>
<!-- FormsModule -->
<g id="node3" class="node">
<title>FormsModule</title>
<polygon fill="#8dd3c7" stroke="black" points="304.83,-122 301.83,-126 280.83,-126 277.83,-122 209.17,-122 209.17,-86 304.83,-86 304.83,-122"/>
<text text-anchor="middle" x="257" y="-99.8" font-family="Times,serif" font-size="14.00">FormsModule</text>
</g>
<!-- FormsModule&#45;&gt;ResourcesModule -->
<g id="edge2" class="edge">
<title>FormsModule&#45;&gt;ResourcesModule</title>
<path fill="none" stroke="black" d="M257,-122.11C257,-122.11 257,-140.99 257,-140.99"/>
<polygon fill="black" stroke="black" points="253.5,-140.99 257,-150.99 260.5,-140.99 253.5,-140.99"/>
</g>
<!-- ResourcesRoutingModule -->
<g id="node4" class="node">
<title>ResourcesRoutingModule</title>
<polygon fill="#8dd3c7" stroke="black" points="191.2,-122 188.2,-126 167.2,-126 164.2,-122 28.8,-122 28.8,-86 191.2,-86 191.2,-122"/>
<text text-anchor="middle" x="110" y="-99.8" font-family="Times,serif" font-size="14.00">ResourcesRoutingModule</text>
</g>
<!-- ResourcesRoutingModule&#45;&gt;ResourcesModule -->
<g id="edge3" class="edge">
<title>ResourcesRoutingModule&#45;&gt;ResourcesModule</title>
<path fill="none" stroke="black" d="M191.23,-104C198.91,-104 203.9,-104 203.9,-104 203.9,-104 203.9,-140.89 203.9,-140.89"/>
<polygon fill="black" stroke="black" points="200.4,-140.89 203.9,-150.89 207.4,-140.89 200.4,-140.89"/>
</g>
</g>
</svg>
