<?xml version="1.0" encoding="UTF-8" standalone="no"?>
<!DOCTYPE svg PUBLIC "-//W3C//DTD SVG 1.1//EN"
 "http://www.w3.org/Graphics/SVG/1.1/DTD/svg11.dtd">
<!-- Generated by graphviz version 2.47.0 (20210316.0004)
 -->
<!-- Title: dependencies Pages: 1 -->
<svg width="586pt" height="284pt"
 viewBox="0.00 0.00 586.00 284.00" xmlns="http://www.w3.org/2000/svg" xmlns:xlink="http://www.w3.org/1999/xlink">
<g id="graph0" class="graph" transform="scale(1 1) rotate(0) translate(4 280)">
<title>dependencies</title>
<polygon fill="white" stroke="transparent" points="-4,4 -4,-280 582,-280 582,4 -4,4"/>
<text text-anchor="start" x="268.01" y="-42.4" font-family="sans-serif" font-weight="bold" font-size="14.00">Legend</text>
<polygon fill="#ffffb3" stroke="transparent" points="55,-10 55,-30 75,-30 75,-10 55,-10"/>
<text text-anchor="start" x="78.63" y="-15.4" font-family="sans-serif" font-size="14.00"> &#160;Declarations</text>
<polygon fill="#8dd3c7" stroke="transparent" points="168,-10 168,-30 188,-30 188,-10 168,-10"/>
<text text-anchor="start" x="191.73" y="-15.4" font-family="sans-serif" font-size="14.00"> &#160;Module</text>
<polygon fill="#80b1d3" stroke="transparent" points="254,-10 254,-30 274,-30 274,-10 254,-10"/>
<text text-anchor="start" x="277.78" y="-15.4" font-family="sans-serif" font-size="14.00"> &#160;Bootstrap</text>
<polygon fill="#fdb462" stroke="transparent" points="351,-10 351,-30 371,-30 371,-10 351,-10"/>
<text text-anchor="start" x="374.67" y="-15.4" font-family="sans-serif" font-size="14.00"> &#160;Providers</text>
<polygon fill="#fb8072" stroke="transparent" points="447,-10 447,-30 467,-30 467,-10 447,-10"/>
<text text-anchor="start" x="470.73" y="-15.4" font-family="sans-serif" font-size="14.00"> &#160;Exports</text>
<g id="clust1" class="cluster">
<title>cluster_ApplicationModule</title>
<polygon fill="none" stroke="black" stroke-dasharray="1,5" points="8,-70 8,-268 570,-268 570,-70 8,-70"/>
</g>
<g id="clust2" class="cluster">
<title>cluster_ApplicationModule_declarations</title>
<polygon fill="none" stroke="black" points="398,-78 398,-130 562,-130 562,-78 398,-78"/>
</g>
<g id="clust5" class="cluster">
<title>cluster_ApplicationModule_exports</title>
<polygon fill="none" stroke="black" points="214,-208 214,-260 380,-260 380,-208 214,-208"/>
</g>
<g id="clust4" class="cluster">
<title>cluster_ApplicationModule_imports</title>
<polygon fill="none" stroke="black" points="16,-78 16,-130 390,-130 390,-78 16,-78"/>
</g>
<!-- ApplicationComponent -->
<g id="node1" class="node">
<title>ApplicationComponent</title>
<polygon fill="#ffffb3" stroke="black" points="553.93,-122 406.07,-122 406.07,-86 553.93,-86 553.93,-122"/>
<text text-anchor="middle" x="480" y="-99.8" font-family="Times,serif" font-size="14.00">ApplicationComponent</text>
</g>
<!-- ApplicationModule -->
<g id="node2" class="node">
<title>ApplicationModule</title>
<polygon fill="#8dd3c7" stroke="black" points="359.65,-187 356.65,-191 335.65,-191 332.65,-187 234.35,-187 234.35,-151 359.65,-151 359.65,-187"/>
<text text-anchor="middle" x="297" y="-164.8" font-family="Times,serif" font-size="14.00">ApplicationModule</text>
</g>
<!-- ApplicationComponent&#45;&gt;ApplicationModule -->
<g id="edge1" class="edge">
<title>ApplicationComponent&#45;&gt;ApplicationModule</title>
<path fill="none" stroke="black" d="M480,-122.11C480,-141.34 480,-169 480,-169 480,-169 369.72,-169 369.72,-169"/>
<polygon fill="black" stroke="black" points="369.72,-165.5 359.72,-169 369.72,-172.5 369.72,-165.5"/>
</g>
<!-- ApplicationComponent  -->
<g id="node5" class="node">
<title>ApplicationComponent </title>
<polygon fill="#fb8072" stroke="black" points="372.43,-252 221.57,-252 221.57,-216 372.43,-216 372.43,-252"/>
<text text-anchor="middle" x="297" y="-229.8" font-family="Times,serif" font-size="14.00">ApplicationComponent </text>
</g>
<!-- ApplicationModule&#45;&gt;ApplicationComponent  -->
<g id="edge4" class="edge">
<title>ApplicationModule&#45;&gt;ApplicationComponent </title>
<path fill="none" stroke="black" stroke-dasharray="5,2" d="M297,-187.11C297,-187.11 297,-205.99 297,-205.99"/>
<polygon fill="black" stroke="black" points="293.5,-205.99 297,-215.99 300.5,-205.99 293.5,-205.99"/>
</g>
<!-- ApplicationRoutingModule -->
<g id="node3" class="node">
<title>ApplicationRoutingModule</title>
<polygon fill="#8dd3c7" stroke="black" points="382.27,-122 379.27,-126 358.27,-126 355.27,-122 211.73,-122 211.73,-86 382.27,-86 382.27,-122"/>
<text text-anchor="middle" x="297" y="-99.8" font-family="Times,serif" font-size="14.00">ApplicationRoutingModule</text>
</g>
<!-- ApplicationRoutingModule&#45;&gt;ApplicationModule -->
<g id="edge2" class="edge">
<title>ApplicationRoutingModule&#45;&gt;ApplicationModule</title>
<path fill="none" stroke="black" d="M297,-122.11C297,-122.11 297,-140.99 297,-140.99"/>
<polygon fill="black" stroke="black" points="293.5,-140.99 297,-150.99 300.5,-140.99 293.5,-140.99"/>
</g>
<!-- ApplicationToolbarModule -->
<g id="node4" class="node">
<title>ApplicationToolbarModule</title>
<polygon fill="#8dd3c7" stroke="black" points="193.97,-122 190.97,-126 169.97,-126 166.97,-122 24.03,-122 24.03,-86 193.97,-86 193.97,-122"/>
<text text-anchor="middle" x="109" y="-99.8" font-family="Times,serif" font-size="14.00">ApplicationToolbarModule</text>
</g>
<!-- ApplicationToolbarModule&#45;&gt;ApplicationModule -->
<g id="edge3" class="edge">
<title>ApplicationToolbarModule&#45;&gt;ApplicationModule</title>
<path fill="none" stroke="black" d="M109,-122.11C109,-141.34 109,-169 109,-169 109,-169 224.14,-169 224.14,-169"/>
<polygon fill="black" stroke="black" points="224.14,-172.5 234.14,-169 224.14,-165.5 224.14,-172.5"/>
</g>
</g>
</svg>
