<?xml version="1.0" encoding="UTF-8" standalone="no"?>
<!DOCTYPE svg PUBLIC "-//W3C//DTD SVG 1.1//EN"
 "http://www.w3.org/Graphics/SVG/1.1/DTD/svg11.dtd">
<!-- Generated by graphviz version 2.47.0 (20210316.0004)
 -->
<!-- Title: dependencies Pages: 1 -->
<svg width="504pt" height="284pt"
 viewBox="0.00 0.00 504.00 284.00" xmlns="http://www.w3.org/2000/svg" xmlns:xlink="http://www.w3.org/1999/xlink">
<g id="graph0" class="graph" transform="scale(1 1) rotate(0) translate(4 280)">
<title>dependencies</title>
<polygon fill="white" stroke="transparent" points="-4,4 -4,-280 500,-280 500,4 -4,4"/>
<text text-anchor="start" x="227.01" y="-42.4" font-family="sans-serif" font-weight="bold" font-size="14.00">Legend</text>
<polygon fill="#ffffb3" stroke="transparent" points="14,-10 14,-30 34,-30 34,-10 14,-10"/>
<text text-anchor="start" x="37.63" y="-15.4" font-family="sans-serif" font-size="14.00"> &#160;Declarations</text>
<polygon fill="#8dd3c7" stroke="transparent" points="127,-10 127,-30 147,-30 147,-10 127,-10"/>
<text text-anchor="start" x="150.73" y="-15.4" font-family="sans-serif" font-size="14.00"> &#160;Module</text>
<polygon fill="#80b1d3" stroke="transparent" points="213,-10 213,-30 233,-30 233,-10 213,-10"/>
<text text-anchor="start" x="236.78" y="-15.4" font-family="sans-serif" font-size="14.00"> &#160;Bootstrap</text>
<polygon fill="#fdb462" stroke="transparent" points="310,-10 310,-30 330,-30 330,-10 310,-10"/>
<text text-anchor="start" x="333.67" y="-15.4" font-family="sans-serif" font-size="14.00"> &#160;Providers</text>
<polygon fill="#fb8072" stroke="transparent" points="406,-10 406,-30 426,-30 426,-10 406,-10"/>
<text text-anchor="start" x="429.73" y="-15.4" font-family="sans-serif" font-size="14.00"> &#160;Exports</text>
<g id="clust1" class="cluster">
<title>cluster_PositionAttributesModule</title>
<polygon fill="none" stroke="black" stroke-dasharray="1,5" points="25,-70 25,-268 471,-268 471,-70 25,-70"/>
</g>
<g id="clust4" class="cluster">
<title>cluster_PositionAttributesModule_imports</title>
<polygon fill="none" stroke="black" points="241,-78 241,-130 463,-130 463,-78 241,-78"/>
</g>
<g id="clust2" class="cluster">
<title>cluster_PositionAttributesModule_declarations</title>
<polygon fill="none" stroke="black" points="33,-78 33,-130 233,-130 233,-78 33,-78"/>
</g>
<g id="clust5" class="cluster">
<title>cluster_PositionAttributesModule_exports</title>
<polygon fill="none" stroke="black" points="142,-208 142,-260 344,-260 344,-208 142,-208"/>
</g>
<!-- PositionAttributesComponent -->
<g id="node1" class="node">
<title>PositionAttributesComponent</title>
<polygon fill="#ffffb3" stroke="black" points="224.72,-122 41.28,-122 41.28,-86 224.72,-86 224.72,-122"/>
<text text-anchor="middle" x="133" y="-99.8" font-family="Times,serif" font-size="14.00">PositionAttributesComponent</text>
</g>
<!-- PositionAttributesModule -->
<g id="node2" class="node">
<title>PositionAttributesModule</title>
<polygon fill="#8dd3c7" stroke="black" points="323.94,-187 320.94,-191 299.94,-191 296.94,-187 162.06,-187 162.06,-151 323.94,-151 323.94,-187"/>
<text text-anchor="middle" x="243" y="-164.8" font-family="Times,serif" font-size="14.00">PositionAttributesModule</text>
</g>
<!-- PositionAttributesComponent&#45;&gt;PositionAttributesModule -->
<g id="edge1" class="edge">
<title>PositionAttributesComponent&#45;&gt;PositionAttributesModule</title>
<path fill="none" stroke="black" d="M193.45,-122.11C193.45,-122.11 193.45,-140.99 193.45,-140.99"/>
<polygon fill="black" stroke="black" points="189.95,-140.99 193.45,-150.99 196.95,-140.99 189.95,-140.99"/>
</g>
<!-- PositionAttributesComponent  -->
<g id="node4" class="node">
<title>PositionAttributesComponent </title>
<polygon fill="#fb8072" stroke="black" points="336.22,-252 149.78,-252 149.78,-216 336.22,-216 336.22,-252"/>
<text text-anchor="middle" x="243" y="-229.8" font-family="Times,serif" font-size="14.00">PositionAttributesComponent </text>
</g>
<!-- PositionAttributesModule&#45;&gt;PositionAttributesComponent  -->
<g id="edge3" class="edge">
<title>PositionAttributesModule&#45;&gt;PositionAttributesComponent </title>
<path fill="none" stroke="black" stroke-dasharray="5,2" d="M243,-187.11C243,-187.11 243,-205.99 243,-205.99"/>
<polygon fill="black" stroke="black" points="239.5,-205.99 243,-215.99 246.5,-205.99 239.5,-205.99"/>
</g>
<!-- PositionAttributesRoutingModule -->
<g id="node3" class="node">
<title>PositionAttributesRoutingModule</title>
<polygon fill="#8dd3c7" stroke="black" points="455.06,-122 452.06,-126 431.06,-126 428.06,-122 248.94,-122 248.94,-86 455.06,-86 455.06,-122"/>
<text text-anchor="middle" x="352" y="-99.8" font-family="Times,serif" font-size="14.00">PositionAttributesRoutingModule</text>
</g>
<!-- PositionAttributesRoutingModule&#45;&gt;PositionAttributesModule -->
<g id="edge2" class="edge">
<title>PositionAttributesRoutingModule&#45;&gt;PositionAttributesModule</title>
<path fill="none" stroke="black" d="M286.22,-122.11C286.22,-122.11 286.22,-140.99 286.22,-140.99"/>
<polygon fill="black" stroke="black" points="282.72,-140.99 286.22,-150.99 289.72,-140.99 282.72,-140.99"/>
</g>
</g>
</svg>
