<svg width="320" height="320" viewBox="0 0 320 320" fill="none" xmlns="http://www.w3.org/2000/svg">
<rect x="18" y="38" width="58.2805" height="58.2805" rx="9.87805" fill="#99CBEF"/>
<rect x="18" y="130.36" width="58.2805" height="58.2805" rx="9.87805" fill="#99CBEF"/>
<rect x="18" y="222.72" width="58.2805" height="58.2805" rx="9.87805" fill="#99CBEF"/>
<path d="M70.8477 70.1035H107.396C108.488 70.1035 109.372 70.988 109.372 72.0791V250.872C109.372 251.963 108.488 252.847 107.396 252.847H70.8477" stroke="#99CBEF" stroke-width="14"/>
<path d="M76 160.116H166.988M166.988 160.116L135.131 129M166.988 160.116L135.131 191.973" stroke="#99CBEF" stroke-width="14" stroke-linecap="round"/>
<mask id="path-6-inside-1_803_1618" fill="white">
<path fill-rule="evenodd" clip-rule="evenodd" d="M192.878 101C187.423 101 183 105.423 183 110.878V209.659C183 215.114 187.423 219.537 192.878 219.537H291.659C297.114 219.537 301.537 215.114 301.537 209.659V110.878C301.537 105.423 297.114 101 291.659 101H192.878ZM217 128C213.134 128 210 131.134 210 135C210 138.866 213.134 142 217 142H268C271.866 142 275 138.866 275 135C275 131.134 271.866 128 268 128H217ZM210 160.5C210 156.634 213.134 153.5 217 153.5H268C271.866 153.5 275 156.634 275 160.5C275 164.366 271.866 167.5 268 167.5H217C213.134 167.5 210 164.366 210 160.5ZM217 178.5C213.134 178.5 210 181.634 210 185.5C210 189.366 213.134 192.5 217 192.5H268C271.866 192.5 275 189.366 275 185.5C275 181.634 271.866 178.5 268 178.5H217Z"/>
</mask>
<path fill-rule="evenodd" clip-rule="evenodd" d="M192.878 101C187.423 101 183 105.423 183 110.878V209.659C183 215.114 187.423 219.537 192.878 219.537H291.659C297.114 219.537 301.537 215.114 301.537 209.659V110.878C301.537 105.423 297.114 101 291.659 101H192.878ZM217 128C213.134 128 210 131.134 210 135C210 138.866 213.134 142 217 142H268C271.866 142 275 138.866 275 135C275 131.134 271.866 128 268 128H217ZM210 160.5C210 156.634 213.134 153.5 217 153.5H268C271.866 153.5 275 156.634 275 160.5C275 164.366 271.866 167.5 268 167.5H217C213.134 167.5 210 164.366 210 160.5ZM217 178.5C213.134 178.5 210 181.634 210 185.5C210 189.366 213.134 192.5 217 192.5H268C271.866 192.5 275 189.366 275 185.5C275 181.634 271.866 178.5 268 178.5H217Z" fill="#99CBEF"/>
<path d="M197 110.878C197 113.155 195.155 115 192.878 115V87C179.691 87 169 97.6906 169 110.878H197ZM197 209.659V110.878H169V209.659H197ZM192.878 205.537C195.155 205.537 197 207.382 197 209.659H169C169 222.846 179.691 233.537 192.878 233.537V205.537ZM291.659 205.537H192.878V233.537H291.659V205.537ZM287.537 209.659C287.537 207.382 289.382 205.537 291.659 205.537V233.537C304.846 233.537 315.537 222.846 315.537 209.659H287.537ZM287.537 110.878V209.659H315.537V110.878H287.537ZM291.659 115C289.382 115 287.537 113.155 287.537 110.878H315.537C315.537 97.6906 304.846 87 291.659 87V115ZM192.878 115H291.659V87H192.878V115ZM224 135C224 138.866 220.866 142 217 142V114C205.402 114 196 123.402 196 135H224ZM217 128C220.866 128 224 131.134 224 135H196C196 146.598 205.402 156 217 156V128ZM268 128H217V156H268V128ZM261 135C261 131.134 264.134 128 268 128V156C279.598 156 289 146.598 289 135H261ZM268 142C264.134 142 261 138.866 261 135H289C289 123.402 279.598 114 268 114V142ZM217 142H268V114H217V142ZM217 139.5C205.402 139.5 196 148.902 196 160.5H224C224 164.366 220.866 167.5 217 167.5V139.5ZM268 139.5H217V167.5H268V139.5ZM289 160.5C289 148.902 279.598 139.5 268 139.5V167.5C264.134 167.5 261 164.366 261 160.5H289ZM268 181.5C279.598 181.5 289 172.098 289 160.5H261C261 156.634 264.134 153.5 268 153.5V181.5ZM217 181.5H268V153.5H217V181.5ZM196 160.5C196 172.098 205.402 181.5 217 181.5V153.5C220.866 153.5 224 156.634 224 160.5H196ZM224 185.5C224 189.366 220.866 192.5 217 192.5V164.5C205.402 164.5 196 173.902 196 185.5H224ZM217 178.5C220.866 178.5 224 181.634 224 185.5H196C196 197.098 205.402 206.5 217 206.5V178.5ZM268 178.5H217V206.5H268V178.5ZM261 185.5C261 181.634 264.134 178.5 268 178.5V206.5C279.598 206.5 289 197.098 289 185.5H261ZM268 192.5C264.134 192.5 261 189.366 261 185.5H289C289 173.902 279.598 164.5 268 164.5V192.5ZM217 192.5H268V164.5H217V192.5Z" fill="#99CBEF" mask="url(#path-6-inside-1_803_1618)"/>
</svg>
