<svg width="80" height="80" viewBox="0 0 80 80" fill="none" xmlns="http://www.w3.org/2000/svg">
<path d="M61.6668 13.333L65.5335 27.833L62.3335 28.6997C60.8335 25.7997 59.3001 22.8997 57.5335 21.433C55.7668 19.9997 53.7001 19.9997 51.6668 19.9997H43.3335V54.9997C43.3335 56.6663 43.3335 58.333 44.4335 59.1663C45.5668 59.9997 47.7668 59.9997 50.0001 59.9997V63.333H30.0001V59.9997C32.2335 59.9997 34.4335 59.9997 35.5668 59.1663C36.6668 58.333 36.6668 56.6663 36.6668 54.9997V19.9997H28.3335C26.3001 19.9997 24.2335 19.9997 22.4668 21.433C20.7001 22.8997 19.1668 25.7997 17.6668 28.6997L14.4668 27.833L18.3335 13.333H61.6668Z" fill="#2F383E"/>
</svg>
