<svg width="86" height="85" viewBox="0 0 86 85" fill="none" xmlns="http://www.w3.org/2000/svg">
<circle cx="44" cy="16" r="16" fill="#8CCDD5"/>
<rect x="54" y="53" width="32" height="32" rx="4" fill="#C6E6EA"/>
<circle cx="16" cy="69" r="16" fill="#C6E6EA"/>
<path d="M14 69C14 70.1046 14.8954 71 16 71C17.1046 71 18 70.1046 18 69H14ZM16 45.781V43.781C14.8954 43.781 14 44.6764 14 45.781H16ZM70 45.781H72C72 44.6764 71.1046 43.781 70 43.781V45.781ZM68 69C68 70.1046 68.8954 71 70 71C71.1046 71 72 70.1046 72 69H68ZM41.4576 45.2762C41.4576 46.3808 42.3531 47.2762 43.4576 47.2762C44.5622 47.2762 45.4576 46.3808 45.4576 45.2762H41.4576ZM45.4576 16C45.4576 14.8954 44.5622 14 43.4576 14C42.3531 14 41.4576 14.8954 41.4576 16H45.4576ZM18 69V45.781H14V69H18ZM16 47.781H70V43.781H16V47.781ZM68 45.781V69H72V45.781H68ZM45.4576 45.2762V16H41.4576V45.2762H45.4576Z" fill="#6FA6AD" fill-opacity="0.5"/>
</svg>
