<?xml version="1.0" encoding="UTF-8" standalone="no"?>
<!DOCTYPE svg PUBLIC "-//W3C//DTD SVG 1.1//EN"
 "http://www.w3.org/Graphics/SVG/1.1/DTD/svg11.dtd">
<!-- Generated by graphviz version 2.47.0 (20210316.0004)
 -->
<!-- Title: dependencies Pages: 1 -->
<svg width="504pt" height="284pt"
 viewBox="0.00 0.00 504.00 284.00" xmlns="http://www.w3.org/2000/svg" xmlns:xlink="http://www.w3.org/1999/xlink">
<g id="graph0" class="graph" transform="scale(1 1) rotate(0) translate(4 280)">
<title>dependencies</title>
<polygon fill="white" stroke="transparent" points="-4,4 -4,-280 500,-280 500,4 -4,4"/>
<text text-anchor="start" x="227.01" y="-42.4" font-family="sans-serif" font-weight="bold" font-size="14.00">Legend</text>
<polygon fill="#ffffb3" stroke="transparent" points="14,-10 14,-30 34,-30 34,-10 14,-10"/>
<text text-anchor="start" x="37.63" y="-15.4" font-family="sans-serif" font-size="14.00"> &#160;Declarations</text>
<polygon fill="#8dd3c7" stroke="transparent" points="127,-10 127,-30 147,-30 147,-10 127,-10"/>
<text text-anchor="start" x="150.73" y="-15.4" font-family="sans-serif" font-size="14.00"> &#160;Module</text>
<polygon fill="#80b1d3" stroke="transparent" points="213,-10 213,-30 233,-30 233,-10 213,-10"/>
<text text-anchor="start" x="236.78" y="-15.4" font-family="sans-serif" font-size="14.00"> &#160;Bootstrap</text>
<polygon fill="#fdb462" stroke="transparent" points="310,-10 310,-30 330,-30 330,-10 310,-10"/>
<text text-anchor="start" x="333.67" y="-15.4" font-family="sans-serif" font-size="14.00"> &#160;Providers</text>
<polygon fill="#fb8072" stroke="transparent" points="406,-10 406,-30 426,-30 426,-10 406,-10"/>
<text text-anchor="start" x="429.73" y="-15.4" font-family="sans-serif" font-size="14.00"> &#160;Exports</text>
<g id="clust1" class="cluster">
<title>cluster_UpdateRecordModule</title>
<polygon fill="none" stroke="black" stroke-dasharray="1,5" points="46,-70 46,-268 450,-268 450,-70 46,-70"/>
</g>
<g id="clust4" class="cluster">
<title>cluster_UpdateRecordModule_imports</title>
<polygon fill="none" stroke="black" points="240,-78 240,-130 442,-130 442,-78 240,-78"/>
</g>
<g id="clust2" class="cluster">
<title>cluster_UpdateRecordModule_declarations</title>
<polygon fill="none" stroke="black" points="54,-78 54,-130 232,-130 232,-78 54,-78"/>
</g>
<g id="clust5" class="cluster">
<title>cluster_UpdateRecordModule_exports</title>
<polygon fill="none" stroke="black" points="152,-208 152,-260 334,-260 334,-208 152,-208"/>
</g>
<!-- UpdateRecordComponent -->
<g id="node1" class="node">
<title>UpdateRecordComponent</title>
<polygon fill="#ffffb3" stroke="black" points="224.19,-122 61.81,-122 61.81,-86 224.19,-86 224.19,-122"/>
<text text-anchor="middle" x="143" y="-99.8" font-family="Times,serif" font-size="14.00">UpdateRecordComponent</text>
</g>
<!-- UpdateRecordModule -->
<g id="node2" class="node">
<title>UpdateRecordModule</title>
<polygon fill="#8dd3c7" stroke="black" points="313.4,-187 310.4,-191 289.4,-191 286.4,-187 172.6,-187 172.6,-151 313.4,-151 313.4,-187"/>
<text text-anchor="middle" x="243" y="-164.8" font-family="Times,serif" font-size="14.00">UpdateRecordModule</text>
</g>
<!-- UpdateRecordComponent&#45;&gt;UpdateRecordModule -->
<g id="edge1" class="edge">
<title>UpdateRecordComponent&#45;&gt;UpdateRecordModule</title>
<path fill="none" stroke="black" d="M198.45,-122.11C198.45,-122.11 198.45,-140.99 198.45,-140.99"/>
<polygon fill="black" stroke="black" points="194.95,-140.99 198.45,-150.99 201.95,-140.99 194.95,-140.99"/>
</g>
<!-- UpdateRecordComponent  -->
<g id="node4" class="node">
<title>UpdateRecordComponent </title>
<polygon fill="#fb8072" stroke="black" points="325.69,-252 160.31,-252 160.31,-216 325.69,-216 325.69,-252"/>
<text text-anchor="middle" x="243" y="-229.8" font-family="Times,serif" font-size="14.00">UpdateRecordComponent </text>
</g>
<!-- UpdateRecordModule&#45;&gt;UpdateRecordComponent  -->
<g id="edge3" class="edge">
<title>UpdateRecordModule&#45;&gt;UpdateRecordComponent </title>
<path fill="none" stroke="black" stroke-dasharray="5,2" d="M243,-187.11C243,-187.11 243,-205.99 243,-205.99"/>
<polygon fill="black" stroke="black" points="239.5,-205.99 243,-215.99 246.5,-205.99 239.5,-205.99"/>
</g>
<!-- UpdateRecordRoutingModule -->
<g id="node3" class="node">
<title>UpdateRecordRoutingModule</title>
<polygon fill="#8dd3c7" stroke="black" points="433.52,-122 430.52,-126 409.52,-126 406.52,-122 248.48,-122 248.48,-86 433.52,-86 433.52,-122"/>
<text text-anchor="middle" x="341" y="-99.8" font-family="Times,serif" font-size="14.00">UpdateRecordRoutingModule</text>
</g>
<!-- UpdateRecordRoutingModule&#45;&gt;UpdateRecordModule -->
<g id="edge2" class="edge">
<title>UpdateRecordRoutingModule&#45;&gt;UpdateRecordModule</title>
<path fill="none" stroke="black" d="M280.72,-122.11C280.72,-122.11 280.72,-140.99 280.72,-140.99"/>
<polygon fill="black" stroke="black" points="277.22,-140.99 280.72,-150.99 284.22,-140.99 277.22,-140.99"/>
</g>
</g>
</svg>
