<?xml version="1.0" encoding="UTF-8" standalone="no"?>
<!DOCTYPE svg PUBLIC "-//W3C//DTD SVG 1.1//EN"
 "http://www.w3.org/Graphics/SVG/1.1/DTD/svg11.dtd">
<!-- Generated by graphviz version 2.47.0 (20210316.0004)
 -->
<!-- Title: dependencies Pages: 1 -->
<svg width="504pt" height="284pt"
 viewBox="0.00 0.00 504.00 284.00" xmlns="http://www.w3.org/2000/svg" xmlns:xlink="http://www.w3.org/1999/xlink">
<g id="graph0" class="graph" transform="scale(1 1) rotate(0) translate(4 280)">
<title>dependencies</title>
<polygon fill="white" stroke="transparent" points="-4,4 -4,-280 500,-280 500,4 -4,4"/>
<text text-anchor="start" x="227.01" y="-42.4" font-family="sans-serif" font-weight="bold" font-size="14.00">Legend</text>
<polygon fill="#ffffb3" stroke="transparent" points="14,-10 14,-30 34,-30 34,-10 14,-10"/>
<text text-anchor="start" x="37.63" y="-15.4" font-family="sans-serif" font-size="14.00"> &#160;Declarations</text>
<polygon fill="#8dd3c7" stroke="transparent" points="127,-10 127,-30 147,-30 147,-10 127,-10"/>
<text text-anchor="start" x="150.73" y="-15.4" font-family="sans-serif" font-size="14.00"> &#160;Module</text>
<polygon fill="#80b1d3" stroke="transparent" points="213,-10 213,-30 233,-30 233,-10 213,-10"/>
<text text-anchor="start" x="236.78" y="-15.4" font-family="sans-serif" font-size="14.00"> &#160;Bootstrap</text>
<polygon fill="#fdb462" stroke="transparent" points="310,-10 310,-30 330,-30 330,-10 310,-10"/>
<text text-anchor="start" x="333.67" y="-15.4" font-family="sans-serif" font-size="14.00"> &#160;Providers</text>
<polygon fill="#fb8072" stroke="transparent" points="406,-10 406,-30 426,-30 426,-10 406,-10"/>
<text text-anchor="start" x="429.73" y="-15.4" font-family="sans-serif" font-size="14.00"> &#160;Exports</text>
<g id="clust1" class="cluster">
<title>cluster_UpdateRecordModule</title>
<polygon fill="none" stroke="black" stroke-dasharray="1,5" points="46,-70 46,-268 450,-268 450,-70 46,-70"/>
</g>
<g id="clust5" class="cluster">
<title>cluster_UpdateRecordModule_exports</title>
<polygon fill="none" stroke="black" points="162,-208 162,-260 344,-260 344,-208 162,-208"/>
</g>
<g id="clust2" class="cluster">
<title>cluster_UpdateRecordModule_declarations</title>
<polygon fill="none" stroke="black" points="264,-78 264,-130 442,-130 442,-78 264,-78"/>
</g>
<g id="clust4" class="cluster">
<title>cluster_UpdateRecordModule_imports</title>
<polygon fill="none" stroke="black" points="54,-78 54,-130 256,-130 256,-78 54,-78"/>
</g>
<!-- UpdateRecordComponent -->
<g id="node1" class="node">
<title>UpdateRecordComponent</title>
<polygon fill="#ffffb3" stroke="black" points="434.19,-122 271.81,-122 271.81,-86 434.19,-86 434.19,-122"/>
<text text-anchor="middle" x="353" y="-99.8" font-family="Times,serif" font-size="14.00">UpdateRecordComponent</text>
</g>
<!-- UpdateRecordModule -->
<g id="node2" class="node">
<title>UpdateRecordModule</title>
<polygon fill="#8dd3c7" stroke="black" points="323.4,-187 320.4,-191 299.4,-191 296.4,-187 182.6,-187 182.6,-151 323.4,-151 323.4,-187"/>
<text text-anchor="middle" x="253" y="-164.8" font-family="Times,serif" font-size="14.00">UpdateRecordModule</text>
</g>
<!-- UpdateRecordComponent&#45;&gt;UpdateRecordModule -->
<g id="edge1" class="edge">
<title>UpdateRecordComponent&#45;&gt;UpdateRecordModule</title>
<path fill="none" stroke="black" d="M297.55,-122.11C297.55,-122.11 297.55,-140.99 297.55,-140.99"/>
<polygon fill="black" stroke="black" points="294.05,-140.99 297.55,-150.99 301.05,-140.99 294.05,-140.99"/>
</g>
<!-- UpdateRecordComponent  -->
<g id="node4" class="node">
<title>UpdateRecordComponent </title>
<polygon fill="#fb8072" stroke="black" points="335.69,-252 170.31,-252 170.31,-216 335.69,-216 335.69,-252"/>
<text text-anchor="middle" x="253" y="-229.8" font-family="Times,serif" font-size="14.00">UpdateRecordComponent </text>
</g>
<!-- UpdateRecordModule&#45;&gt;UpdateRecordComponent  -->
<g id="edge3" class="edge">
<title>UpdateRecordModule&#45;&gt;UpdateRecordComponent </title>
<path fill="none" stroke="black" stroke-dasharray="5,2" d="M253,-187.11C253,-187.11 253,-205.99 253,-205.99"/>
<polygon fill="black" stroke="black" points="249.5,-205.99 253,-215.99 256.5,-205.99 249.5,-205.99"/>
</g>
<!-- UpdateRecordRoutingModule -->
<g id="node3" class="node">
<title>UpdateRecordRoutingModule</title>
<polygon fill="#8dd3c7" stroke="black" points="247.52,-122 244.52,-126 223.52,-126 220.52,-122 62.48,-122 62.48,-86 247.52,-86 247.52,-122"/>
<text text-anchor="middle" x="155" y="-99.8" font-family="Times,serif" font-size="14.00">UpdateRecordRoutingModule</text>
</g>
<!-- UpdateRecordRoutingModule&#45;&gt;UpdateRecordModule -->
<g id="edge2" class="edge">
<title>UpdateRecordRoutingModule&#45;&gt;UpdateRecordModule</title>
<path fill="none" stroke="black" d="M215.28,-122.11C215.28,-122.11 215.28,-140.99 215.28,-140.99"/>
<polygon fill="black" stroke="black" points="211.78,-140.99 215.28,-150.99 218.78,-140.99 211.78,-140.99"/>
</g>
</g>
</svg>
