<?xml version="1.0" encoding="UTF-8" standalone="no"?>
<!DOCTYPE svg PUBLIC "-//W3C//DTD SVG 1.1//EN"
 "http://www.w3.org/Graphics/SVG/1.1/DTD/svg11.dtd">
<!-- Generated by graphviz version 2.47.0 (20210316.0004)
 -->
<!-- Title: dependencies Pages: 1 -->
<svg width="504pt" height="284pt"
 viewBox="0.00 0.00 504.00 284.00" xmlns="http://www.w3.org/2000/svg" xmlns:xlink="http://www.w3.org/1999/xlink">
<g id="graph0" class="graph" transform="scale(1 1) rotate(0) translate(4 280)">
<title>dependencies</title>
<polygon fill="white" stroke="transparent" points="-4,4 -4,-280 500,-280 500,4 -4,4"/>
<text text-anchor="start" x="227.01" y="-42.4" font-family="sans-serif" font-weight="bold" font-size="14.00">Legend</text>
<polygon fill="#ffffb3" stroke="transparent" points="14,-10 14,-30 34,-30 34,-10 14,-10"/>
<text text-anchor="start" x="37.63" y="-15.4" font-family="sans-serif" font-size="14.00"> &#160;Declarations</text>
<polygon fill="#8dd3c7" stroke="transparent" points="127,-10 127,-30 147,-30 147,-10 127,-10"/>
<text text-anchor="start" x="150.73" y="-15.4" font-family="sans-serif" font-size="14.00"> &#160;Module</text>
<polygon fill="#80b1d3" stroke="transparent" points="213,-10 213,-30 233,-30 233,-10 213,-10"/>
<text text-anchor="start" x="236.78" y="-15.4" font-family="sans-serif" font-size="14.00"> &#160;Bootstrap</text>
<polygon fill="#fdb462" stroke="transparent" points="310,-10 310,-30 330,-30 330,-10 310,-10"/>
<text text-anchor="start" x="333.67" y="-15.4" font-family="sans-serif" font-size="14.00"> &#160;Providers</text>
<polygon fill="#fb8072" stroke="transparent" points="406,-10 406,-30 426,-30 426,-10 406,-10"/>
<text text-anchor="start" x="429.73" y="-15.4" font-family="sans-serif" font-size="14.00"> &#160;Exports</text>
<g id="clust1" class="cluster">
<title>cluster_FormsModule</title>
<polygon fill="none" stroke="black" stroke-dasharray="1,5" points="25,-70 25,-268 471,-268 471,-70 25,-70"/>
</g>
<g id="clust4" class="cluster">
<title>cluster_FormsModule_imports</title>
<polygon fill="none" stroke="black" points="175,-78 175,-130 463,-130 463,-78 175,-78"/>
</g>
<g id="clust5" class="cluster">
<title>cluster_FormsModule_exports</title>
<polygon fill="none" stroke="black" points="185,-208 185,-260 321,-260 321,-208 185,-208"/>
</g>
<g id="clust2" class="cluster">
<title>cluster_FormsModule_declarations</title>
<polygon fill="none" stroke="black" points="33,-78 33,-130 167,-130 167,-78 33,-78"/>
</g>
<!-- FormsComponent -->
<g id="node1" class="node">
<title>FormsComponent</title>
<polygon fill="#ffffb3" stroke="black" points="158.61,-122 41.39,-122 41.39,-86 158.61,-86 158.61,-122"/>
<text text-anchor="middle" x="100" y="-99.8" font-family="Times,serif" font-size="14.00">FormsComponent</text>
</g>
<!-- FormsModule -->
<g id="node2" class="node">
<title>FormsModule</title>
<polygon fill="#8dd3c7" stroke="black" points="300.83,-187 297.83,-191 276.83,-191 273.83,-187 205.17,-187 205.17,-151 300.83,-151 300.83,-187"/>
<text text-anchor="middle" x="253" y="-164.8" font-family="Times,serif" font-size="14.00">FormsModule</text>
</g>
<!-- FormsComponent&#45;&gt;FormsModule -->
<g id="edge1" class="edge">
<title>FormsComponent&#45;&gt;FormsModule</title>
<path fill="none" stroke="black" d="M100,-122.11C100,-141.34 100,-169 100,-169 100,-169 195.01,-169 195.01,-169"/>
<polygon fill="black" stroke="black" points="195.01,-172.5 205.01,-169 195.01,-165.5 195.01,-172.5"/>
</g>
<!-- FormsComponent  -->
<g id="node5" class="node">
<title>FormsComponent </title>
<polygon fill="#fb8072" stroke="black" points="313.11,-252 192.89,-252 192.89,-216 313.11,-216 313.11,-252"/>
<text text-anchor="middle" x="253" y="-229.8" font-family="Times,serif" font-size="14.00">FormsComponent </text>
</g>
<!-- FormsModule&#45;&gt;FormsComponent  -->
<g id="edge4" class="edge">
<title>FormsModule&#45;&gt;FormsComponent </title>
<path fill="none" stroke="black" stroke-dasharray="5,2" d="M253,-187.11C253,-187.11 253,-205.99 253,-205.99"/>
<polygon fill="black" stroke="black" points="249.5,-205.99 253,-215.99 256.5,-205.99 249.5,-205.99"/>
</g>
<!-- AddFormModule -->
<g id="node3" class="node">
<title>AddFormModule</title>
<polygon fill="#8dd3c7" stroke="black" points="454.99,-122 451.99,-126 430.99,-126 427.99,-122 341.01,-122 341.01,-86 454.99,-86 454.99,-122"/>
<text text-anchor="middle" x="398" y="-99.8" font-family="Times,serif" font-size="14.00">AddFormModule</text>
</g>
<!-- AddFormModule&#45;&gt;FormsModule -->
<g id="edge2" class="edge">
<title>AddFormModule&#45;&gt;FormsModule</title>
<path fill="none" stroke="black" d="M398,-122.11C398,-141.34 398,-169 398,-169 398,-169 310.88,-169 310.88,-169"/>
<polygon fill="black" stroke="black" points="310.88,-165.5 300.88,-169 310.88,-172.5 310.88,-165.5"/>
</g>
<!-- FormsRoutingModule -->
<g id="node4" class="node">
<title>FormsRoutingModule</title>
<polygon fill="#8dd3c7" stroke="black" points="323.45,-122 320.45,-126 299.45,-126 296.45,-122 182.55,-122 182.55,-86 323.45,-86 323.45,-122"/>
<text text-anchor="middle" x="253" y="-99.8" font-family="Times,serif" font-size="14.00">FormsRoutingModule</text>
</g>
<!-- FormsRoutingModule&#45;&gt;FormsModule -->
<g id="edge3" class="edge">
<title>FormsRoutingModule&#45;&gt;FormsModule</title>
<path fill="none" stroke="black" d="M253,-122.11C253,-122.11 253,-140.99 253,-140.99"/>
<polygon fill="black" stroke="black" points="249.5,-140.99 253,-150.99 256.5,-140.99 249.5,-140.99"/>
</g>
</g>
</svg>
