<?xml version="1.0" encoding="UTF-8" standalone="no"?>
<!DOCTYPE svg PUBLIC "-//W3C//DTD SVG 1.1//EN"
 "http://www.w3.org/Graphics/SVG/1.1/DTD/svg11.dtd">
<!-- Generated by graphviz version 2.47.0 (20210316.0004)
 -->
<!-- Title: dependencies Pages: 1 -->
<svg width="4133pt" height="211pt"
 viewBox="0.00 0.00 4133.00 211.00" xmlns="http://www.w3.org/2000/svg" xmlns:xlink="http://www.w3.org/1999/xlink">
<g id="graph0" class="graph" transform="scale(1 1) rotate(0) translate(4 207)">
<title>dependencies</title>
<polygon fill="white" stroke="transparent" points="-4,4 -4,-207 4129,-207 4129,4 -4,4"/>
<text text-anchor="start" x="2041.51" y="-42.4" font-family="sans-serif" font-weight="bold" font-size="14.00">Legend</text>
<polygon fill="#ffffb3" stroke="transparent" points="1828.5,-10 1828.5,-30 1848.5,-30 1848.5,-10 1828.5,-10"/>
<text text-anchor="start" x="1852.13" y="-15.4" font-family="sans-serif" font-size="14.00"> &#160;Declarations</text>
<polygon fill="#8dd3c7" stroke="transparent" points="1941.5,-10 1941.5,-30 1961.5,-30 1961.5,-10 1941.5,-10"/>
<text text-anchor="start" x="1965.23" y="-15.4" font-family="sans-serif" font-size="14.00"> &#160;Module</text>
<polygon fill="#80b1d3" stroke="transparent" points="2027.5,-10 2027.5,-30 2047.5,-30 2047.5,-10 2027.5,-10"/>
<text text-anchor="start" x="2051.28" y="-15.4" font-family="sans-serif" font-size="14.00"> &#160;Bootstrap</text>
<polygon fill="#fdb462" stroke="transparent" points="2124.5,-10 2124.5,-30 2144.5,-30 2144.5,-10 2124.5,-10"/>
<text text-anchor="start" x="2148.17" y="-15.4" font-family="sans-serif" font-size="14.00"> &#160;Providers</text>
<polygon fill="#fb8072" stroke="transparent" points="2220.5,-10 2220.5,-30 2240.5,-30 2240.5,-10 2220.5,-10"/>
<text text-anchor="start" x="2244.23" y="-15.4" font-family="sans-serif" font-size="14.00"> &#160;Exports</text>
<g id="clust1" class="cluster">
<title>cluster_SafeModule</title>
<polygon fill="none" stroke="black" stroke-dasharray="1,5" points="8,-70 8,-195 4117,-195 4117,-70 8,-70"/>
</g>
<g id="clust4" class="cluster">
<title>cluster_SafeModule_exports</title>
<polygon fill="none" stroke="black" points="16,-135 16,-187 4109,-187 4109,-135 16,-135"/>
</g>
<!-- SafeAccessModule  -->
<g id="node1" class="node">
<title>SafeAccessModule </title>
<polygon fill="#fb8072" stroke="black" points="4100.56,-179 3973.44,-179 3973.44,-143 4100.56,-143 4100.56,-179"/>
<text text-anchor="middle" x="4037" y="-156.8" font-family="Times,serif" font-size="14.00">SafeAccessModule </text>
</g>
<!-- SafeChartModule  -->
<g id="node2" class="node">
<title>SafeChartModule </title>
<polygon fill="#fb8072" stroke="black" points="3955.52,-179 3836.48,-179 3836.48,-143 3955.52,-143 3955.52,-179"/>
<text text-anchor="middle" x="3896" y="-156.8" font-family="Times,serif" font-size="14.00">SafeChartModule </text>
</g>
<!-- SafeChartSettingsModule  -->
<g id="node3" class="node">
<title>SafeChartSettingsModule </title>
<polygon fill="#fb8072" stroke="black" points="3818.14,-179 3653.86,-179 3653.86,-143 3818.14,-143 3818.14,-179"/>
<text text-anchor="middle" x="3736" y="-156.8" font-family="Times,serif" font-size="14.00">SafeChartSettingsModule </text>
</g>
<!-- SafeConfirmModalModule  -->
<g id="node4" class="node">
<title>SafeConfirmModalModule </title>
<polygon fill="#fb8072" stroke="black" points="3635.91,-179 3464.09,-179 3464.09,-143 3635.91,-143 3635.91,-179"/>
<text text-anchor="middle" x="3550" y="-156.8" font-family="Times,serif" font-size="14.00">SafeConfirmModalModule </text>
</g>
<!-- SafeConvertModalModule  -->
<g id="node5" class="node">
<title>SafeConvertModalModule </title>
<polygon fill="#fb8072" stroke="black" points="3445.57,-179 3276.43,-179 3276.43,-143 3445.57,-143 3445.57,-179"/>
<text text-anchor="middle" x="3361" y="-156.8" font-family="Times,serif" font-size="14.00">SafeConvertModalModule </text>
</g>
<!-- SafeEditorModule  -->
<g id="node6" class="node">
<title>SafeEditorModule </title>
<polygon fill="#fb8072" stroke="black" points="3258.42,-179 3135.58,-179 3135.58,-143 3258.42,-143 3258.42,-179"/>
<text text-anchor="middle" x="3197" y="-156.8" font-family="Times,serif" font-size="14.00">SafeEditorModule </text>
</g>
<!-- SafeEditorSettingsModule  -->
<g id="node7" class="node">
<title>SafeEditorSettingsModule </title>
<polygon fill="#fb8072" stroke="black" points="3118.03,-179 2949.97,-179 2949.97,-143 3118.03,-143 3118.03,-179"/>
<text text-anchor="middle" x="3034" y="-156.8" font-family="Times,serif" font-size="14.00">SafeEditorSettingsModule </text>
</g>
<!-- SafeFormBuilderModule  -->
<g id="node8" class="node">
<title>SafeFormBuilderModule </title>
<polygon fill="#fb8072" stroke="black" points="2932.25,-179 2771.75,-179 2771.75,-143 2932.25,-143 2932.25,-179"/>
<text text-anchor="middle" x="2852" y="-156.8" font-family="Times,serif" font-size="14.00">SafeFormBuilderModule </text>
</g>
<!-- SafeFormModule  -->
<g id="node9" class="node">
<title>SafeFormModule </title>
<polygon fill="#fb8072" stroke="black" points="2754.26,-179 2635.74,-179 2635.74,-143 2754.26,-143 2754.26,-179"/>
<text text-anchor="middle" x="2695" y="-156.8" font-family="Times,serif" font-size="14.00">SafeFormModule </text>
</g>
<!-- SafeGridModule  -->
<g id="node10" class="node">
<title>SafeGridModule </title>
<polygon fill="#fb8072" stroke="black" points="2617.58,-179 2504.42,-179 2504.42,-143 2617.58,-143 2617.58,-179"/>
<text text-anchor="middle" x="2561" y="-156.8" font-family="Times,serif" font-size="14.00">SafeGridModule </text>
</g>
<!-- SafeGridSettingsModule  -->
<g id="node11" class="node">
<title>SafeGridSettingsModule </title>
<polygon fill="#fb8072" stroke="black" points="2486.19,-179 2327.81,-179 2327.81,-143 2486.19,-143 2486.19,-179"/>
<text text-anchor="middle" x="2407" y="-156.8" font-family="Times,serif" font-size="14.00">SafeGridSettingsModule </text>
</g>
<!-- SafeLayoutModule  -->
<g id="node12" class="node">
<title>SafeLayoutModule </title>
<polygon fill="#fb8072" stroke="black" points="2309.58,-179 2182.42,-179 2182.42,-143 2309.58,-143 2309.58,-179"/>
<text text-anchor="middle" x="2246" y="-156.8" font-family="Times,serif" font-size="14.00">SafeLayoutModule </text>
</g>
<!-- SafeMapModule  -->
<g id="node13" class="node">
<title>SafeMapModule </title>
<polygon fill="#fb8072" stroke="black" points="2163.58,-179 2050.42,-179 2050.42,-143 2163.58,-143 2163.58,-179"/>
<text text-anchor="middle" x="2107" y="-156.8" font-family="Times,serif" font-size="14.00">SafeMapModule </text>
</g>
<!-- SafeMapSettingsModule  -->
<g id="node14" class="node">
<title>SafeMapSettingsModule </title>
<polygon fill="#fb8072" stroke="black" points="2032.2,-179 1873.8,-179 1873.8,-143 2032.2,-143 2032.2,-179"/>
<text text-anchor="middle" x="1953" y="-156.8" font-family="Times,serif" font-size="14.00">SafeMapSettingsModule </text>
</g>
<!-- SafePreviousButtonModule  -->
<g id="node15" class="node">
<title>SafePreviousButtonModule </title>
<polygon fill="#fb8072" stroke="black" points="1855.53,-179 1680.47,-179 1680.47,-143 1855.53,-143 1855.53,-179"/>
<text text-anchor="middle" x="1768" y="-156.8" font-family="Times,serif" font-size="14.00">SafePreviousButtonModule </text>
</g>
<!-- SafeProfileModule  -->
<g id="node16" class="node">
<title>SafeProfileModule </title>
<polygon fill="#fb8072" stroke="black" points="1662.02,-179 1535.98,-179 1535.98,-143 1662.02,-143 1662.02,-179"/>
<text text-anchor="middle" x="1599" y="-156.8" font-family="Times,serif" font-size="14.00">SafeProfileModule </text>
</g>
<!-- SafeRecordHistoryModule  -->
<g id="node17" class="node">
<title>SafeRecordHistoryModule </title>
<polygon fill="#fb8072" stroke="black" points="1518.34,-179 1347.66,-179 1347.66,-143 1518.34,-143 1518.34,-179"/>
<text text-anchor="middle" x="1433" y="-156.8" font-family="Times,serif" font-size="14.00">SafeRecordHistoryModule </text>
</g>
<!-- SafeRecordModalModule  -->
<g id="node18" class="node">
<title>SafeRecordModalModule </title>
<polygon fill="#fb8072" stroke="black" points="1329.4,-179 1164.6,-179 1164.6,-143 1329.4,-143 1329.4,-179"/>
<text text-anchor="middle" x="1247" y="-156.8" font-family="Times,serif" font-size="14.00">SafeRecordModalModule </text>
</g>
<!-- SafeRolesModule  -->
<g id="node19" class="node">
<title>SafeRolesModule </title>
<polygon fill="#fb8072" stroke="black" points="1146.81,-179 1027.19,-179 1027.19,-143 1146.81,-143 1146.81,-179"/>
<text text-anchor="middle" x="1087" y="-156.8" font-family="Times,serif" font-size="14.00">SafeRolesModule </text>
</g>
<!-- SafeSchedulerModule  -->
<g id="node20" class="node">
<title>SafeSchedulerModule </title>
<polygon fill="#fb8072" stroke="black" points="1008.9,-179 865.1,-179 865.1,-143 1008.9,-143 1008.9,-179"/>
<text text-anchor="middle" x="937" y="-156.8" font-family="Times,serif" font-size="14.00">SafeSchedulerModule </text>
</g>
<!-- SafeSchedulerSettingsModule  -->
<g id="node21" class="node">
<title>SafeSchedulerSettingsModule </title>
<polygon fill="#fb8072" stroke="black" points="847.51,-179 658.49,-179 658.49,-143 847.51,-143 847.51,-179"/>
<text text-anchor="middle" x="753" y="-156.8" font-family="Times,serif" font-size="14.00">SafeSchedulerSettingsModule </text>
</g>
<!-- SafeStatusModalModule  -->
<g id="node22" class="node">
<title>SafeStatusModalModule </title>
<polygon fill="#fb8072" stroke="black" points="640.2,-179 481.8,-179 481.8,-143 640.2,-143 640.2,-179"/>
<text text-anchor="middle" x="561" y="-156.8" font-family="Times,serif" font-size="14.00">SafeStatusModalModule </text>
</g>
<!-- SafeUsersModule  -->
<g id="node23" class="node">
<title>SafeUsersModule </title>
<polygon fill="#fb8072" stroke="black" points="463.79,-179 344.21,-179 344.21,-143 463.79,-143 463.79,-179"/>
<text text-anchor="middle" x="404" y="-156.8" font-family="Times,serif" font-size="14.00">SafeUsersModule </text>
</g>
<!-- SafeWidgetGridModule  -->
<g id="node24" class="node">
<title>SafeWidgetGridModule </title>
<polygon fill="#fb8072" stroke="black" points="326.29,-179 171.71,-179 171.71,-143 326.29,-143 326.29,-179"/>
<text text-anchor="middle" x="249" y="-156.8" font-family="Times,serif" font-size="14.00">SafeWidgetGridModule </text>
</g>
<!-- SafeWidgetModule  -->
<g id="node25" class="node">
<title>SafeWidgetModule </title>
<polygon fill="#fb8072" stroke="black" points="153.63,-179 24.37,-179 24.37,-143 153.63,-143 153.63,-179"/>
<text text-anchor="middle" x="89" y="-156.8" font-family="Times,serif" font-size="14.00">SafeWidgetModule </text>
</g>
<!-- SafeModule -->
<g id="node26" class="node">
<title>SafeModule</title>
<polygon fill="#8dd3c7" stroke="black" points="2149.42,-114 2146.42,-118 2125.42,-118 2122.42,-114 2064.58,-114 2064.58,-78 2149.42,-78 2149.42,-114"/>
<text text-anchor="middle" x="2107" y="-91.8" font-family="Times,serif" font-size="14.00">SafeModule</text>
</g>
<!-- SafeModule&#45;&gt;SafeAccessModule  -->
<g id="edge1" class="edge">
<title>SafeModule&#45;&gt;SafeAccessModule </title>
<path fill="none" stroke="black" stroke-dasharray="5,2" d="M2149.56,-81C2433.07,-81 4037,-81 4037,-81 4037,-81 4037,-132.85 4037,-132.85"/>
<polygon fill="black" stroke="black" points="4033.5,-132.85 4037,-142.85 4040.5,-132.85 4033.5,-132.85"/>
</g>
<!-- SafeModule&#45;&gt;SafeChartModule  -->
<g id="edge2" class="edge">
<title>SafeModule&#45;&gt;SafeChartModule </title>
<path fill="none" stroke="black" stroke-dasharray="5,2" d="M2149.46,-84C2420.37,-84 3896,-84 3896,-84 3896,-84 3896,-132.75 3896,-132.75"/>
<polygon fill="black" stroke="black" points="3892.5,-132.75 3896,-142.75 3899.5,-132.75 3892.5,-132.75"/>
</g>
<!-- SafeModule&#45;&gt;SafeChartSettingsModule  -->
<g id="edge3" class="edge">
<title>SafeModule&#45;&gt;SafeChartSettingsModule </title>
<path fill="none" stroke="black" stroke-dasharray="5,2" d="M2149.32,-87C2405.32,-87 3736,-87 3736,-87 3736,-87 3736,-132.71 3736,-132.71"/>
<polygon fill="black" stroke="black" points="3732.5,-132.71 3736,-142.71 3739.5,-132.71 3732.5,-132.71"/>
</g>
<!-- SafeModule&#45;&gt;SafeConfirmModalModule  -->
<g id="edge4" class="edge">
<title>SafeModule&#45;&gt;SafeConfirmModalModule </title>
<path fill="none" stroke="black" stroke-dasharray="5,2" d="M2149.4,-90C2387.76,-90 3550,-90 3550,-90 3550,-90 3550,-132.72 3550,-132.72"/>
<polygon fill="black" stroke="black" points="3546.5,-132.72 3550,-142.72 3553.5,-132.72 3546.5,-132.72"/>
</g>
<!-- SafeModule&#45;&gt;SafeConvertModalModule  -->
<g id="edge5" class="edge">
<title>SafeModule&#45;&gt;SafeConvertModalModule </title>
<path fill="none" stroke="black" stroke-dasharray="5,2" d="M2149.44,-92C2368.49,-92 3361,-92 3361,-92 3361,-92 3361,-132.87 3361,-132.87"/>
<polygon fill="black" stroke="black" points="3357.5,-132.87 3361,-142.87 3364.5,-132.87 3357.5,-132.87"/>
</g>
<!-- SafeModule&#45;&gt;SafeEditorModule  -->
<g id="edge6" class="edge">
<title>SafeModule&#45;&gt;SafeEditorModule </title>
<path fill="none" stroke="black" stroke-dasharray="5,2" d="M2149.39,-95C2350.32,-95 3197,-95 3197,-95 3197,-95 3197,-132.97 3197,-132.97"/>
<polygon fill="black" stroke="black" points="3193.5,-132.97 3197,-142.97 3200.5,-132.97 3193.5,-132.97"/>
</g>
<!-- SafeModule&#45;&gt;SafeEditorSettingsModule  -->
<g id="edge7" class="edge">
<title>SafeModule&#45;&gt;SafeEditorSettingsModule </title>
<path fill="none" stroke="black" stroke-dasharray="5,2" d="M2149.24,-98C2330.59,-98 3034,-98 3034,-98 3034,-98 3034,-132.78 3034,-132.78"/>
<polygon fill="black" stroke="black" points="3030.5,-132.78 3034,-142.78 3037.5,-132.78 3030.5,-132.78"/>
</g>
<!-- SafeModule&#45;&gt;SafeFormBuilderModule  -->
<g id="edge8" class="edge">
<title>SafeModule&#45;&gt;SafeFormBuilderModule </title>
<path fill="none" stroke="black" stroke-dasharray="5,2" d="M2149.46,-101C2307.41,-101 2852,-101 2852,-101 2852,-101 2852,-133 2852,-133"/>
<polygon fill="black" stroke="black" points="2848.5,-133 2852,-143 2855.5,-133 2848.5,-133"/>
</g>
<!-- SafeModule&#45;&gt;SafeFormModule  -->
<g id="edge9" class="edge">
<title>SafeModule&#45;&gt;SafeFormModule </title>
<path fill="none" stroke="black" stroke-dasharray="5,2" d="M2149.29,-103C2284.11,-103 2695,-103 2695,-103 2695,-103 2695,-132.97 2695,-132.97"/>
<polygon fill="black" stroke="black" points="2691.5,-132.97 2695,-142.97 2698.5,-132.97 2691.5,-132.97"/>
</g>
<!-- SafeModule&#45;&gt;SafeGridModule  -->
<g id="edge10" class="edge">
<title>SafeModule&#45;&gt;SafeGridModule </title>
<path fill="none" stroke="black" stroke-dasharray="5,2" d="M2149.3,-106C2262.01,-106 2561,-106 2561,-106 2561,-106 2561,-132.99 2561,-132.99"/>
<polygon fill="black" stroke="black" points="2557.5,-132.99 2561,-142.99 2564.5,-132.99 2557.5,-132.99"/>
</g>
<!-- SafeModule&#45;&gt;SafeGridSettingsModule  -->
<g id="edge11" class="edge">
<title>SafeModule&#45;&gt;SafeGridSettingsModule </title>
<path fill="none" stroke="black" stroke-dasharray="5,2" d="M2149.35,-109C2232.04,-109 2407,-109 2407,-109 2407,-109 2407,-132.81 2407,-132.81"/>
<polygon fill="black" stroke="black" points="2403.5,-132.81 2407,-142.81 2410.5,-132.81 2403.5,-132.81"/>
</g>
<!-- SafeModule&#45;&gt;SafeLayoutModule  -->
<g id="edge12" class="edge">
<title>SafeModule&#45;&gt;SafeLayoutModule </title>
<path fill="none" stroke="black" stroke-dasharray="5,2" d="M2149.46,-112C2190.34,-112 2246,-112 2246,-112 2246,-112 2246,-132.75 2246,-132.75"/>
<polygon fill="black" stroke="black" points="2242.5,-132.75 2246,-142.75 2249.5,-132.75 2242.5,-132.75"/>
</g>
<!-- SafeModule&#45;&gt;SafeMapModule  -->
<g id="edge13" class="edge">
<title>SafeModule&#45;&gt;SafeMapModule </title>
<path fill="none" stroke="black" stroke-dasharray="5,2" d="M2107,-114.11C2107,-114.11 2107,-132.99 2107,-132.99"/>
<polygon fill="black" stroke="black" points="2103.5,-132.99 2107,-142.99 2110.5,-132.99 2103.5,-132.99"/>
</g>
<!-- SafeModule&#45;&gt;SafeMapSettingsModule  -->
<g id="edge14" class="edge">
<title>SafeModule&#45;&gt;SafeMapSettingsModule </title>
<path fill="none" stroke="black" stroke-dasharray="5,2" d="M2064.51,-112C2018.93,-112 1953,-112 1953,-112 1953,-112 1953,-132.75 1953,-132.75"/>
<polygon fill="black" stroke="black" points="1949.5,-132.75 1953,-142.75 1956.5,-132.75 1949.5,-132.75"/>
</g>
<!-- SafeModule&#45;&gt;SafePreviousButtonModule  -->
<g id="edge15" class="edge">
<title>SafeModule&#45;&gt;SafePreviousButtonModule </title>
<path fill="none" stroke="black" stroke-dasharray="5,2" d="M2064.75,-109C1973.88,-109 1768,-109 1768,-109 1768,-109 1768,-132.81 1768,-132.81"/>
<polygon fill="black" stroke="black" points="1764.5,-132.81 1768,-142.81 1771.5,-132.81 1764.5,-132.81"/>
</g>
<!-- SafeModule&#45;&gt;SafeProfileModule  -->
<g id="edge16" class="edge">
<title>SafeModule&#45;&gt;SafeProfileModule </title>
<path fill="none" stroke="black" stroke-dasharray="5,2" d="M2064.56,-106C1942.47,-106 1599,-106 1599,-106 1599,-106 1599,-132.99 1599,-132.99"/>
<polygon fill="black" stroke="black" points="1595.5,-132.99 1599,-142.99 1602.5,-132.99 1595.5,-132.99"/>
</g>
<!-- SafeModule&#45;&gt;SafeRecordHistoryModule  -->
<g id="edge17" class="edge">
<title>SafeModule&#45;&gt;SafeRecordHistoryModule </title>
<path fill="none" stroke="black" stroke-dasharray="5,2" d="M2064.58,-103C1916.73,-103 1433,-103 1433,-103 1433,-103 1433,-132.97 1433,-132.97"/>
<polygon fill="black" stroke="black" points="1429.5,-132.97 1433,-142.97 1436.5,-132.97 1429.5,-132.97"/>
</g>
<!-- SafeModule&#45;&gt;SafeRecordModalModule  -->
<g id="edge18" class="edge">
<title>SafeModule&#45;&gt;SafeRecordModalModule </title>
<path fill="none" stroke="black" stroke-dasharray="5,2" d="M2064.65,-101C1891.55,-101 1247,-101 1247,-101 1247,-101 1247,-133 1247,-133"/>
<polygon fill="black" stroke="black" points="1243.5,-133 1247,-143 1250.5,-133 1243.5,-133"/>
</g>
<!-- SafeModule&#45;&gt;SafeRolesModule  -->
<g id="edge19" class="edge">
<title>SafeModule&#45;&gt;SafeRolesModule </title>
<path fill="none" stroke="black" stroke-dasharray="5,2" d="M2064.47,-98C1871.43,-98 1087,-98 1087,-98 1087,-98 1087,-132.78 1087,-132.78"/>
<polygon fill="black" stroke="black" points="1083.5,-132.78 1087,-142.78 1090.5,-132.78 1083.5,-132.78"/>
</g>
<!-- SafeModule&#45;&gt;SafeSchedulerModule  -->
<g id="edge20" class="edge">
<title>SafeModule&#45;&gt;SafeSchedulerModule </title>
<path fill="none" stroke="black" stroke-dasharray="5,2" d="M2064.67,-95C1854.91,-95 937,-95 937,-95 937,-95 937,-132.97 937,-132.97"/>
<polygon fill="black" stroke="black" points="933.5,-132.97 937,-142.97 940.5,-132.97 933.5,-132.97"/>
</g>
<!-- SafeModule&#45;&gt;SafeSchedulerSettingsModule  -->
<g id="edge21" class="edge">
<title>SafeModule&#45;&gt;SafeSchedulerSettingsModule </title>
<path fill="none" stroke="black" stroke-dasharray="5,2" d="M2064.62,-92C1835.27,-92 753,-92 753,-92 753,-92 753,-132.87 753,-132.87"/>
<polygon fill="black" stroke="black" points="749.5,-132.87 753,-142.87 756.5,-132.87 749.5,-132.87"/>
</g>
<!-- SafeModule&#45;&gt;SafeStatusModalModule  -->
<g id="edge22" class="edge">
<title>SafeModule&#45;&gt;SafeStatusModalModule </title>
<path fill="none" stroke="black" stroke-dasharray="5,2" d="M2064.44,-90C1815.71,-90 561,-90 561,-90 561,-90 561,-132.72 561,-132.72"/>
<polygon fill="black" stroke="black" points="557.5,-132.72 561,-142.72 564.5,-132.72 557.5,-132.72"/>
</g>
<!-- SafeModule&#45;&gt;SafeUsersModule  -->
<g id="edge23" class="edge">
<title>SafeModule&#45;&gt;SafeUsersModule </title>
<path fill="none" stroke="black" stroke-dasharray="5,2" d="M2064.48,-87C1801.15,-87 404,-87 404,-87 404,-87 404,-132.71 404,-132.71"/>
<polygon fill="black" stroke="black" points="400.5,-132.71 404,-142.71 407.5,-132.71 400.5,-132.71"/>
</g>
<!-- SafeModule&#45;&gt;SafeWidgetGridModule  -->
<g id="edge24" class="edge">
<title>SafeModule&#45;&gt;SafeWidgetGridModule </title>
<path fill="none" stroke="black" stroke-dasharray="5,2" d="M2064.7,-84C1788.14,-84 249,-84 249,-84 249,-84 249,-132.75 249,-132.75"/>
<polygon fill="black" stroke="black" points="245.5,-132.75 249,-142.75 252.5,-132.75 245.5,-132.75"/>
</g>
<!-- SafeModule&#45;&gt;SafeWidgetModule  -->
<g id="edge25" class="edge">
<title>SafeModule&#45;&gt;SafeWidgetModule </title>
<path fill="none" stroke="black" stroke-dasharray="5,2" d="M2064.39,-81C1773.26,-81 89,-81 89,-81 89,-81 89,-132.85 89,-132.85"/>
<polygon fill="black" stroke="black" points="85.5,-132.85 89,-142.85 92.5,-132.85 85.5,-132.85"/>
</g>
</g>
</svg>
