<?xml version="1.0" encoding="UTF-8" standalone="no"?>
<!DOCTYPE svg PUBLIC "-//W3C//DTD SVG 1.1//EN"
 "http://www.w3.org/Graphics/SVG/1.1/DTD/svg11.dtd">
<!-- Generated by graphviz version 2.47.0 (20210316.0004)
 -->
<!-- Title: dependencies Pages: 1 -->
<svg width="3989pt" height="211pt"
 viewBox="0.00 0.00 3989.00 211.00" xmlns="http://www.w3.org/2000/svg" xmlns:xlink="http://www.w3.org/1999/xlink">
<g id="graph0" class="graph" transform="scale(1 1) rotate(0) translate(4 207)">
<title>dependencies</title>
<polygon fill="white" stroke="transparent" points="-4,4 -4,-207 3985,-207 3985,4 -4,4"/>
<text text-anchor="start" x="1969.51" y="-42.4" font-family="sans-serif" font-weight="bold" font-size="14.00">Legend</text>
<polygon fill="#ffffb3" stroke="transparent" points="1756.5,-10 1756.5,-30 1776.5,-30 1776.5,-10 1756.5,-10"/>
<text text-anchor="start" x="1780.13" y="-15.4" font-family="sans-serif" font-size="14.00"> &#160;Declarations</text>
<polygon fill="#8dd3c7" stroke="transparent" points="1869.5,-10 1869.5,-30 1889.5,-30 1889.5,-10 1869.5,-10"/>
<text text-anchor="start" x="1893.23" y="-15.4" font-family="sans-serif" font-size="14.00"> &#160;Module</text>
<polygon fill="#80b1d3" stroke="transparent" points="1955.5,-10 1955.5,-30 1975.5,-30 1975.5,-10 1955.5,-10"/>
<text text-anchor="start" x="1979.28" y="-15.4" font-family="sans-serif" font-size="14.00"> &#160;Bootstrap</text>
<polygon fill="#fdb462" stroke="transparent" points="2052.5,-10 2052.5,-30 2072.5,-30 2072.5,-10 2052.5,-10"/>
<text text-anchor="start" x="2076.17" y="-15.4" font-family="sans-serif" font-size="14.00"> &#160;Providers</text>
<polygon fill="#fb8072" stroke="transparent" points="2148.5,-10 2148.5,-30 2168.5,-30 2168.5,-10 2148.5,-10"/>
<text text-anchor="start" x="2172.23" y="-15.4" font-family="sans-serif" font-size="14.00"> &#160;Exports</text>
<g id="clust1" class="cluster">
<title>cluster_SafeModule</title>
<polygon fill="none" stroke="black" stroke-dasharray="1,5" points="8,-70 8,-195 3973,-195 3973,-70 8,-70"/>
</g>
<g id="clust4" class="cluster">
<title>cluster_SafeModule_exports</title>
<polygon fill="none" stroke="black" points="16,-135 16,-187 3965,-187 3965,-135 16,-135"/>
</g>
<!-- SafeAccessModule  -->
<g id="node1" class="node">
<title>SafeAccessModule </title>
<polygon fill="#fb8072" stroke="black" points="3956.56,-179 3829.44,-179 3829.44,-143 3956.56,-143 3956.56,-179"/>
<text text-anchor="middle" x="3893" y="-156.8" font-family="Times,serif" font-size="14.00">SafeAccessModule </text>
</g>
<!-- SafeChartModule  -->
<g id="node2" class="node">
<title>SafeChartModule </title>
<polygon fill="#fb8072" stroke="black" points="3811.52,-179 3692.48,-179 3692.48,-143 3811.52,-143 3811.52,-179"/>
<text text-anchor="middle" x="3752" y="-156.8" font-family="Times,serif" font-size="14.00">SafeChartModule </text>
</g>
<!-- SafeChartSettingsModule  -->
<g id="node3" class="node">
<title>SafeChartSettingsModule </title>
<polygon fill="#fb8072" stroke="black" points="3674.14,-179 3509.86,-179 3509.86,-143 3674.14,-143 3674.14,-179"/>
<text text-anchor="middle" x="3592" y="-156.8" font-family="Times,serif" font-size="14.00">SafeChartSettingsModule </text>
</g>
<!-- SafeConfirmModalModule  -->
<g id="node4" class="node">
<title>SafeConfirmModalModule </title>
<polygon fill="#fb8072" stroke="black" points="3491.91,-179 3320.09,-179 3320.09,-143 3491.91,-143 3491.91,-179"/>
<text text-anchor="middle" x="3406" y="-156.8" font-family="Times,serif" font-size="14.00">SafeConfirmModalModule </text>
</g>
<!-- SafeConvertModalModule  -->
<g id="node5" class="node">
<title>SafeConvertModalModule </title>
<polygon fill="#fb8072" stroke="black" points="3301.57,-179 3132.43,-179 3132.43,-143 3301.57,-143 3301.57,-179"/>
<text text-anchor="middle" x="3217" y="-156.8" font-family="Times,serif" font-size="14.00">SafeConvertModalModule </text>
</g>
<!-- SafeEditorModule  -->
<g id="node6" class="node">
<title>SafeEditorModule </title>
<polygon fill="#fb8072" stroke="black" points="3114.42,-179 2991.58,-179 2991.58,-143 3114.42,-143 3114.42,-179"/>
<text text-anchor="middle" x="3053" y="-156.8" font-family="Times,serif" font-size="14.00">SafeEditorModule </text>
</g>
<!-- SafeEditorSettingsModule  -->
<g id="node7" class="node">
<title>SafeEditorSettingsModule </title>
<polygon fill="#fb8072" stroke="black" points="2974.03,-179 2805.97,-179 2805.97,-143 2974.03,-143 2974.03,-179"/>
<text text-anchor="middle" x="2890" y="-156.8" font-family="Times,serif" font-size="14.00">SafeEditorSettingsModule </text>
</g>
<!-- SafeFormBuilderModule  -->
<g id="node8" class="node">
<title>SafeFormBuilderModule </title>
<polygon fill="#fb8072" stroke="black" points="2788.25,-179 2627.75,-179 2627.75,-143 2788.25,-143 2788.25,-179"/>
<text text-anchor="middle" x="2708" y="-156.8" font-family="Times,serif" font-size="14.00">SafeFormBuilderModule </text>
</g>
<!-- SafeFormModule  -->
<g id="node9" class="node">
<title>SafeFormModule </title>
<polygon fill="#fb8072" stroke="black" points="2610.26,-179 2491.74,-179 2491.74,-143 2610.26,-143 2610.26,-179"/>
<text text-anchor="middle" x="2551" y="-156.8" font-family="Times,serif" font-size="14.00">SafeFormModule </text>
</g>
<!-- SafeGridModule  -->
<g id="node10" class="node">
<title>SafeGridModule </title>
<polygon fill="#fb8072" stroke="black" points="2473.58,-179 2360.42,-179 2360.42,-143 2473.58,-143 2473.58,-179"/>
<text text-anchor="middle" x="2417" y="-156.8" font-family="Times,serif" font-size="14.00">SafeGridModule </text>
</g>
<!-- SafeGridSettingsModule  -->
<g id="node11" class="node">
<title>SafeGridSettingsModule </title>
<polygon fill="#fb8072" stroke="black" points="2342.19,-179 2183.81,-179 2183.81,-143 2342.19,-143 2342.19,-179"/>
<text text-anchor="middle" x="2263" y="-156.8" font-family="Times,serif" font-size="14.00">SafeGridSettingsModule </text>
</g>
<!-- SafeLayoutModule  -->
<g id="node12" class="node">
<title>SafeLayoutModule </title>
<polygon fill="#fb8072" stroke="black" points="2165.58,-179 2038.42,-179 2038.42,-143 2165.58,-143 2165.58,-179"/>
<text text-anchor="middle" x="2102" y="-156.8" font-family="Times,serif" font-size="14.00">SafeLayoutModule </text>
</g>
<!-- SafeMapModule  -->
<g id="node13" class="node">
<title>SafeMapModule </title>
<polygon fill="#fb8072" stroke="black" points="2019.58,-179 1906.42,-179 1906.42,-143 2019.58,-143 2019.58,-179"/>
<text text-anchor="middle" x="1963" y="-156.8" font-family="Times,serif" font-size="14.00">SafeMapModule </text>
</g>
<!-- SafeMapSettingsModule  -->
<g id="node14" class="node">
<title>SafeMapSettingsModule </title>
<polygon fill="#fb8072" stroke="black" points="1888.2,-179 1729.8,-179 1729.8,-143 1888.2,-143 1888.2,-179"/>
<text text-anchor="middle" x="1809" y="-156.8" font-family="Times,serif" font-size="14.00">SafeMapSettingsModule </text>
</g>
<!-- SafePreviousButtonModule  -->
<g id="node15" class="node">
<title>SafePreviousButtonModule </title>
<polygon fill="#fb8072" stroke="black" points="1711.53,-179 1536.47,-179 1536.47,-143 1711.53,-143 1711.53,-179"/>
<text text-anchor="middle" x="1624" y="-156.8" font-family="Times,serif" font-size="14.00">SafePreviousButtonModule </text>
</g>
<!-- SafeRecordHistoryModule  -->
<g id="node16" class="node">
<title>SafeRecordHistoryModule </title>
<polygon fill="#fb8072" stroke="black" points="1518.34,-179 1347.66,-179 1347.66,-143 1518.34,-143 1518.34,-179"/>
<text text-anchor="middle" x="1433" y="-156.8" font-family="Times,serif" font-size="14.00">SafeRecordHistoryModule </text>
</g>
<!-- SafeRecordModalModule  -->
<g id="node17" class="node">
<title>SafeRecordModalModule </title>
<polygon fill="#fb8072" stroke="black" points="1329.4,-179 1164.6,-179 1164.6,-143 1329.4,-143 1329.4,-179"/>
<text text-anchor="middle" x="1247" y="-156.8" font-family="Times,serif" font-size="14.00">SafeRecordModalModule </text>
</g>
<!-- SafeRolesModule  -->
<g id="node18" class="node">
<title>SafeRolesModule </title>
<polygon fill="#fb8072" stroke="black" points="1146.81,-179 1027.19,-179 1027.19,-143 1146.81,-143 1146.81,-179"/>
<text text-anchor="middle" x="1087" y="-156.8" font-family="Times,serif" font-size="14.00">SafeRolesModule </text>
</g>
<!-- SafeSchedulerModule  -->
<g id="node19" class="node">
<title>SafeSchedulerModule </title>
<polygon fill="#fb8072" stroke="black" points="1008.9,-179 865.1,-179 865.1,-143 1008.9,-143 1008.9,-179"/>
<text text-anchor="middle" x="937" y="-156.8" font-family="Times,serif" font-size="14.00">SafeSchedulerModule </text>
</g>
<!-- SafeSchedulerSettingsModule  -->
<g id="node20" class="node">
<title>SafeSchedulerSettingsModule </title>
<polygon fill="#fb8072" stroke="black" points="847.51,-179 658.49,-179 658.49,-143 847.51,-143 847.51,-179"/>
<text text-anchor="middle" x="753" y="-156.8" font-family="Times,serif" font-size="14.00">SafeSchedulerSettingsModule </text>
</g>
<!-- SafeStatusModalModule  -->
<g id="node21" class="node">
<title>SafeStatusModalModule </title>
<polygon fill="#fb8072" stroke="black" points="640.2,-179 481.8,-179 481.8,-143 640.2,-143 640.2,-179"/>
<text text-anchor="middle" x="561" y="-156.8" font-family="Times,serif" font-size="14.00">SafeStatusModalModule </text>
</g>
<!-- SafeUsersModule  -->
<g id="node22" class="node">
<title>SafeUsersModule </title>
<polygon fill="#fb8072" stroke="black" points="463.79,-179 344.21,-179 344.21,-143 463.79,-143 463.79,-179"/>
<text text-anchor="middle" x="404" y="-156.8" font-family="Times,serif" font-size="14.00">SafeUsersModule </text>
</g>
<!-- SafeWidgetGridModule  -->
<g id="node23" class="node">
<title>SafeWidgetGridModule </title>
<polygon fill="#fb8072" stroke="black" points="326.29,-179 171.71,-179 171.71,-143 326.29,-143 326.29,-179"/>
<text text-anchor="middle" x="249" y="-156.8" font-family="Times,serif" font-size="14.00">SafeWidgetGridModule </text>
</g>
<!-- SafeWidgetModule  -->
<g id="node24" class="node">
<title>SafeWidgetModule </title>
<polygon fill="#fb8072" stroke="black" points="153.63,-179 24.37,-179 24.37,-143 153.63,-143 153.63,-179"/>
<text text-anchor="middle" x="89" y="-156.8" font-family="Times,serif" font-size="14.00">SafeWidgetModule </text>
</g>
<!-- SafeModule -->
<g id="node25" class="node">
<title>SafeModule</title>
<polygon fill="#8dd3c7" stroke="black" points="2074.42,-114 2071.42,-118 2050.42,-118 2047.42,-114 1989.58,-114 1989.58,-78 2074.42,-78 2074.42,-114"/>
<text text-anchor="middle" x="2032" y="-91.8" font-family="Times,serif" font-size="14.00">SafeModule</text>
</g>
<!-- SafeModule&#45;&gt;SafeAccessModule  -->
<g id="edge1" class="edge">
<title>SafeModule&#45;&gt;SafeAccessModule </title>
<path fill="none" stroke="black" stroke-dasharray="5,2" d="M2074.37,-81C2351.38,-81 3893,-81 3893,-81 3893,-81 3893,-132.85 3893,-132.85"/>
<polygon fill="black" stroke="black" points="3889.5,-132.85 3893,-142.85 3896.5,-132.85 3889.5,-132.85"/>
</g>
<!-- SafeModule&#45;&gt;SafeChartModule  -->
<g id="edge2" class="edge">
<title>SafeModule&#45;&gt;SafeChartModule </title>
<path fill="none" stroke="black" stroke-dasharray="5,2" d="M2074.52,-84C2339.38,-84 3752,-84 3752,-84 3752,-84 3752,-132.75 3752,-132.75"/>
<polygon fill="black" stroke="black" points="3748.5,-132.75 3752,-142.75 3755.5,-132.75 3748.5,-132.75"/>
</g>
<!-- SafeModule&#45;&gt;SafeChartSettingsModule  -->
<g id="edge3" class="edge">
<title>SafeModule&#45;&gt;SafeChartSettingsModule </title>
<path fill="none" stroke="black" stroke-dasharray="5,2" d="M2074.54,-87C2324.56,-87 3592,-87 3592,-87 3592,-87 3592,-132.71 3592,-132.71"/>
<polygon fill="black" stroke="black" points="3588.5,-132.71 3592,-142.71 3595.5,-132.71 3588.5,-132.71"/>
</g>
<!-- SafeModule&#45;&gt;SafeConfirmModalModule  -->
<g id="edge4" class="edge">
<title>SafeModule&#45;&gt;SafeConfirmModalModule </title>
<path fill="none" stroke="black" stroke-dasharray="5,2" d="M2074.25,-90C2305.34,-90 3406,-90 3406,-90 3406,-90 3406,-132.72 3406,-132.72"/>
<polygon fill="black" stroke="black" points="3402.5,-132.72 3406,-142.72 3409.5,-132.72 3402.5,-132.72"/>
</g>
<!-- SafeModule&#45;&gt;SafeConvertModalModule  -->
<g id="edge5" class="edge">
<title>SafeModule&#45;&gt;SafeConvertModalModule </title>
<path fill="none" stroke="black" stroke-dasharray="5,2" d="M2074.52,-93C2286.3,-93 3217,-93 3217,-93 3217,-93 3217,-132.78 3217,-132.78"/>
<polygon fill="black" stroke="black" points="3213.5,-132.78 3217,-142.78 3220.5,-132.78 3213.5,-132.78"/>
</g>
<!-- SafeModule&#45;&gt;SafeEditorModule  -->
<g id="edge6" class="edge">
<title>SafeModule&#45;&gt;SafeEditorModule </title>
<path fill="none" stroke="black" stroke-dasharray="5,2" d="M2074.25,-96C2266.93,-96 3053,-96 3053,-96 3053,-96 3053,-132.89 3053,-132.89"/>
<polygon fill="black" stroke="black" points="3049.5,-132.89 3053,-142.89 3056.5,-132.89 3049.5,-132.89"/>
</g>
<!-- SafeModule&#45;&gt;SafeEditorSettingsModule  -->
<g id="edge7" class="edge">
<title>SafeModule&#45;&gt;SafeEditorSettingsModule </title>
<path fill="none" stroke="black" stroke-dasharray="5,2" d="M2074.26,-99C2246.95,-99 2890,-99 2890,-99 2890,-99 2890,-132.73 2890,-132.73"/>
<polygon fill="black" stroke="black" points="2886.5,-132.73 2890,-142.73 2893.5,-132.73 2886.5,-132.73"/>
</g>
<!-- SafeModule&#45;&gt;SafeFormBuilderModule  -->
<g id="edge8" class="edge">
<title>SafeModule&#45;&gt;SafeFormBuilderModule </title>
<path fill="none" stroke="black" stroke-dasharray="5,2" d="M2074.29,-102C2222.28,-102 2708,-102 2708,-102 2708,-102 2708,-132.98 2708,-132.98"/>
<polygon fill="black" stroke="black" points="2704.5,-132.98 2708,-142.98 2711.5,-132.98 2704.5,-132.98"/>
</g>
<!-- SafeModule&#45;&gt;SafeFormModule  -->
<g id="edge9" class="edge">
<title>SafeModule&#45;&gt;SafeFormModule </title>
<path fill="none" stroke="black" stroke-dasharray="5,2" d="M2074.47,-105C2198.42,-105 2551,-105 2551,-105 2551,-105 2551,-132.97 2551,-132.97"/>
<polygon fill="black" stroke="black" points="2547.5,-132.97 2551,-142.97 2554.5,-132.97 2547.5,-132.97"/>
</g>
<!-- SafeModule&#45;&gt;SafeGridModule  -->
<g id="edge10" class="edge">
<title>SafeModule&#45;&gt;SafeGridModule </title>
<path fill="none" stroke="black" stroke-dasharray="5,2" d="M2074.3,-108C2174.32,-108 2417,-108 2417,-108 2417,-108 2417,-132.76 2417,-132.76"/>
<polygon fill="black" stroke="black" points="2413.5,-132.76 2417,-142.76 2420.5,-132.76 2413.5,-132.76"/>
</g>
<!-- SafeModule&#45;&gt;SafeGridSettingsModule  -->
<g id="edge11" class="edge">
<title>SafeModule&#45;&gt;SafeGridSettingsModule </title>
<path fill="none" stroke="black" stroke-dasharray="5,2" d="M2074.37,-111C2141.06,-111 2263,-111 2263,-111 2263,-111 2263,-132.95 2263,-132.95"/>
<polygon fill="black" stroke="black" points="2259.5,-132.95 2263,-142.95 2266.5,-132.95 2259.5,-132.95"/>
</g>
<!-- SafeModule&#45;&gt;SafeLayoutModule  -->
<g id="edge12" class="edge">
<title>SafeModule&#45;&gt;SafeLayoutModule </title>
<path fill="none" stroke="black" stroke-dasharray="5,2" d="M2056.21,-114.11C2056.21,-114.11 2056.21,-132.99 2056.21,-132.99"/>
<polygon fill="black" stroke="black" points="2052.71,-132.99 2056.21,-142.99 2059.71,-132.99 2052.71,-132.99"/>
</g>
<!-- SafeModule&#45;&gt;SafeMapModule  -->
<g id="edge13" class="edge">
<title>SafeModule&#45;&gt;SafeMapModule </title>
<path fill="none" stroke="black" stroke-dasharray="5,2" d="M2004.79,-114.11C2004.79,-114.11 2004.79,-132.99 2004.79,-132.99"/>
<polygon fill="black" stroke="black" points="2001.29,-132.99 2004.79,-142.99 2008.29,-132.99 2001.29,-132.99"/>
</g>
<!-- SafeModule&#45;&gt;SafeMapSettingsModule  -->
<g id="edge14" class="edge">
<title>SafeModule&#45;&gt;SafeMapSettingsModule </title>
<path fill="none" stroke="black" stroke-dasharray="5,2" d="M1989.53,-111C1924.83,-111 1809,-111 1809,-111 1809,-111 1809,-132.95 1809,-132.95"/>
<polygon fill="black" stroke="black" points="1805.5,-132.95 1809,-142.95 1812.5,-132.95 1805.5,-132.95"/>
</g>
<!-- SafeModule&#45;&gt;SafePreviousButtonModule  -->
<g id="edge15" class="edge">
<title>SafeModule&#45;&gt;SafePreviousButtonModule </title>
<path fill="none" stroke="black" stroke-dasharray="5,2" d="M1989.49,-108C1884.99,-108 1624,-108 1624,-108 1624,-108 1624,-132.76 1624,-132.76"/>
<polygon fill="black" stroke="black" points="1620.5,-132.76 1624,-142.76 1627.5,-132.76 1620.5,-132.76"/>
</g>
<!-- SafeModule&#45;&gt;SafeRecordHistoryModule  -->
<g id="edge16" class="edge">
<title>SafeModule&#45;&gt;SafeRecordHistoryModule </title>
<path fill="none" stroke="black" stroke-dasharray="5,2" d="M1989.4,-105C1852.55,-105 1433,-105 1433,-105 1433,-105 1433,-132.97 1433,-132.97"/>
<polygon fill="black" stroke="black" points="1429.5,-132.97 1433,-142.97 1436.5,-132.97 1429.5,-132.97"/>
</g>
<!-- SafeModule&#45;&gt;SafeRecordModalModule  -->
<g id="edge17" class="edge">
<title>SafeModule&#45;&gt;SafeRecordModalModule </title>
<path fill="none" stroke="black" stroke-dasharray="5,2" d="M1989.52,-102C1826.08,-102 1247,-102 1247,-102 1247,-102 1247,-132.98 1247,-132.98"/>
<polygon fill="black" stroke="black" points="1243.5,-132.98 1247,-142.98 1250.5,-132.98 1243.5,-132.98"/>
</g>
<!-- SafeModule&#45;&gt;SafeRolesModule  -->
<g id="edge18" class="edge">
<title>SafeModule&#45;&gt;SafeRolesModule </title>
<path fill="none" stroke="black" stroke-dasharray="5,2" d="M1989.56,-99C1805.68,-99 1087,-99 1087,-99 1087,-99 1087,-132.73 1087,-132.73"/>
<polygon fill="black" stroke="black" points="1083.5,-132.73 1087,-142.73 1090.5,-132.73 1083.5,-132.73"/>
</g>
<!-- SafeModule&#45;&gt;SafeSchedulerModule  -->
<g id="edge19" class="edge">
<title>SafeModule&#45;&gt;SafeSchedulerModule </title>
<path fill="none" stroke="black" stroke-dasharray="5,2" d="M1989.75,-96C1788.51,-96 937,-96 937,-96 937,-96 937,-132.89 937,-132.89"/>
<polygon fill="black" stroke="black" points="933.5,-132.89 937,-142.89 940.5,-132.89 933.5,-132.89"/>
</g>
<!-- SafeModule&#45;&gt;SafeSchedulerSettingsModule  -->
<g id="edge20" class="edge">
<title>SafeModule&#45;&gt;SafeSchedulerSettingsModule </title>
<path fill="none" stroke="black" stroke-dasharray="5,2" d="M1989.45,-93C1767.52,-93 753,-93 753,-93 753,-93 753,-132.78 753,-132.78"/>
<polygon fill="black" stroke="black" points="749.5,-132.78 753,-142.78 756.5,-132.78 749.5,-132.78"/>
</g>
<!-- SafeModule&#45;&gt;SafeStatusModalModule  -->
<g id="edge21" class="edge">
<title>SafeModule&#45;&gt;SafeStatusModalModule </title>
<path fill="none" stroke="black" stroke-dasharray="5,2" d="M1989.56,-90C1748.38,-90 561,-90 561,-90 561,-90 561,-132.72 561,-132.72"/>
<polygon fill="black" stroke="black" points="557.5,-132.72 561,-142.72 564.5,-132.72 557.5,-132.72"/>
</g>
<!-- SafeModule&#45;&gt;SafeUsersModule  -->
<g id="edge22" class="edge">
<title>SafeModule&#45;&gt;SafeUsersModule </title>
<path fill="none" stroke="black" stroke-dasharray="5,2" d="M1989.71,-87C1733.86,-87 404,-87 404,-87 404,-87 404,-132.71 404,-132.71"/>
<polygon fill="black" stroke="black" points="400.5,-132.71 404,-142.71 407.5,-132.71 400.5,-132.71"/>
</g>
<!-- SafeModule&#45;&gt;SafeWidgetGridModule  -->
<g id="edge23" class="edge">
<title>SafeModule&#45;&gt;SafeWidgetGridModule </title>
<path fill="none" stroke="black" stroke-dasharray="5,2" d="M1989.68,-84C1719.68,-84 249,-84 249,-84 249,-84 249,-132.75 249,-132.75"/>
<polygon fill="black" stroke="black" points="245.5,-132.75 249,-142.75 252.5,-132.75 245.5,-132.75"/>
</g>
<!-- SafeModule&#45;&gt;SafeWidgetModule  -->
<g id="edge24" class="edge">
<title>SafeModule&#45;&gt;SafeWidgetModule </title>
<path fill="none" stroke="black" stroke-dasharray="5,2" d="M1989.61,-81C1705.47,-81 89,-81 89,-81 89,-81 89,-132.85 89,-132.85"/>
<polygon fill="black" stroke="black" points="85.5,-132.85 89,-142.85 92.5,-132.85 85.5,-132.85"/>
</g>
</g>
</svg>
