<?xml version="1.0" encoding="UTF-8" standalone="no"?>
<!DOCTYPE svg PUBLIC "-//W3C//DTD SVG 1.1//EN"
 "http://www.w3.org/Graphics/SVG/1.1/DTD/svg11.dtd">
<!-- Generated by graphviz version 2.47.0 (20210316.0004)
 -->
<!-- Title: dependencies Pages: 1 -->
<svg width="673pt" height="284pt"
 viewBox="0.00 0.00 673.00 284.00" xmlns="http://www.w3.org/2000/svg" xmlns:xlink="http://www.w3.org/1999/xlink">
<g id="graph0" class="graph" transform="scale(1 1) rotate(0) translate(4 280)">
<title>dependencies</title>
<polygon fill="white" stroke="transparent" points="-4,4 -4,-280 669,-280 669,4 -4,4"/>
<text text-anchor="start" x="311.51" y="-42.4" font-family="sans-serif" font-weight="bold" font-size="14.00">Legend</text>
<polygon fill="#ffffb3" stroke="transparent" points="98.5,-10 98.5,-30 118.5,-30 118.5,-10 98.5,-10"/>
<text text-anchor="start" x="122.13" y="-15.4" font-family="sans-serif" font-size="14.00"> &#160;Declarations</text>
<polygon fill="#8dd3c7" stroke="transparent" points="211.5,-10 211.5,-30 231.5,-30 231.5,-10 211.5,-10"/>
<text text-anchor="start" x="235.23" y="-15.4" font-family="sans-serif" font-size="14.00"> &#160;Module</text>
<polygon fill="#80b1d3" stroke="transparent" points="297.5,-10 297.5,-30 317.5,-30 317.5,-10 297.5,-10"/>
<text text-anchor="start" x="321.28" y="-15.4" font-family="sans-serif" font-size="14.00"> &#160;Bootstrap</text>
<polygon fill="#fdb462" stroke="transparent" points="394.5,-10 394.5,-30 414.5,-30 414.5,-10 394.5,-10"/>
<text text-anchor="start" x="418.17" y="-15.4" font-family="sans-serif" font-size="14.00"> &#160;Providers</text>
<polygon fill="#fb8072" stroke="transparent" points="490.5,-10 490.5,-30 510.5,-30 510.5,-10 490.5,-10"/>
<text text-anchor="start" x="514.23" y="-15.4" font-family="sans-serif" font-size="14.00"> &#160;Exports</text>
<g id="clust1" class="cluster">
<title>cluster_SafeGridSettingsModule</title>
<polygon fill="none" stroke="black" stroke-dasharray="1,5" points="8,-70 8,-268 657,-268 657,-70 8,-70"/>
</g>
<g id="clust5" class="cluster">
<title>cluster_SafeGridSettingsModule_imports</title>
<polygon fill="none" stroke="black" points="471,-78 471,-130 649,-130 649,-78 471,-78"/>
</g>
<g id="clust2" class="cluster">
<title>cluster_SafeGridSettingsModule_declarations</title>
<polygon fill="none" stroke="black" points="16,-78 16,-130 463,-130 463,-78 16,-78"/>
</g>
<g id="clust6" class="cluster">
<title>cluster_SafeGridSettingsModule_exports</title>
<polygon fill="none" stroke="black" points="239,-208 239,-260 435,-260 435,-208 239,-208"/>
</g>
<!-- SafeFloatingButtonSettingsComponent -->
<g id="node1" class="node">
<title>SafeFloatingButtonSettingsComponent</title>
<polygon fill="#ffffb3" stroke="black" points="455.11,-122 218.89,-122 218.89,-86 455.11,-86 455.11,-122"/>
<text text-anchor="middle" x="337" y="-99.8" font-family="Times,serif" font-size="14.00">SafeFloatingButtonSettingsComponent</text>
</g>
<!-- SafeGridSettingsModule -->
<g id="node3" class="node">
<title>SafeGridSettingsModule</title>
<polygon fill="#8dd3c7" stroke="black" points="414.69,-187 411.69,-191 390.69,-191 387.69,-187 259.31,-187 259.31,-151 414.69,-151 414.69,-187"/>
<text text-anchor="middle" x="337" y="-164.8" font-family="Times,serif" font-size="14.00">SafeGridSettingsModule</text>
</g>
<!-- SafeFloatingButtonSettingsComponent&#45;&gt;SafeGridSettingsModule -->
<g id="edge1" class="edge">
<title>SafeFloatingButtonSettingsComponent&#45;&gt;SafeGridSettingsModule</title>
<path fill="none" stroke="black" d="M337,-122.11C337,-122.11 337,-140.99 337,-140.99"/>
<polygon fill="black" stroke="black" points="333.5,-140.99 337,-150.99 340.5,-140.99 333.5,-140.99"/>
</g>
<!-- SafeGridSettingsComponent -->
<g id="node2" class="node">
<title>SafeGridSettingsComponent</title>
<polygon fill="#ffffb3" stroke="black" points="200.48,-122 23.52,-122 23.52,-86 200.48,-86 200.48,-122"/>
<text text-anchor="middle" x="112" y="-99.8" font-family="Times,serif" font-size="14.00">SafeGridSettingsComponent</text>
</g>
<!-- SafeGridSettingsComponent&#45;&gt;SafeGridSettingsModule -->
<g id="edge2" class="edge">
<title>SafeGridSettingsComponent&#45;&gt;SafeGridSettingsModule</title>
<path fill="none" stroke="black" d="M112,-122.11C112,-141.34 112,-169 112,-169 112,-169 249.25,-169 249.25,-169"/>
<polygon fill="black" stroke="black" points="249.25,-172.5 259.25,-169 249.25,-165.5 249.25,-172.5"/>
</g>
<!-- SafeGridSettingsComponent  -->
<g id="node5" class="node">
<title>SafeGridSettingsComponent </title>
<polygon fill="#fb8072" stroke="black" points="427.48,-252 246.52,-252 246.52,-216 427.48,-216 427.48,-252"/>
<text text-anchor="middle" x="337" y="-229.8" font-family="Times,serif" font-size="14.00">SafeGridSettingsComponent </text>
</g>
<!-- SafeGridSettingsModule&#45;&gt;SafeGridSettingsComponent  -->
<g id="edge4" class="edge">
<title>SafeGridSettingsModule&#45;&gt;SafeGridSettingsComponent </title>
<path fill="none" stroke="black" stroke-dasharray="5,2" d="M337,-187.11C337,-187.11 337,-205.99 337,-205.99"/>
<polygon fill="black" stroke="black" points="333.5,-205.99 337,-215.99 340.5,-205.99 333.5,-205.99"/>
</g>
<!-- SafeQueryBuilderModule -->
<g id="node4" class="node">
<title>SafeQueryBuilderModule</title>
<polygon fill="#8dd3c7" stroke="black" points="640.9,-122 637.9,-126 616.9,-126 613.9,-122 479.1,-122 479.1,-86 640.9,-86 640.9,-122"/>
<text text-anchor="middle" x="560" y="-99.8" font-family="Times,serif" font-size="14.00">SafeQueryBuilderModule</text>
</g>
<!-- SafeQueryBuilderModule&#45;&gt;SafeGridSettingsModule -->
<g id="edge3" class="edge">
<title>SafeQueryBuilderModule&#45;&gt;SafeGridSettingsModule</title>
<path fill="none" stroke="black" d="M560,-122.11C560,-141.34 560,-169 560,-169 560,-169 424.68,-169 424.68,-169"/>
<polygon fill="black" stroke="black" points="424.68,-165.5 414.68,-169 424.68,-172.5 424.68,-165.5"/>
</g>
</g>
</svg>
