<?xml version="1.0" encoding="UTF-8" standalone="no"?>
<!DOCTYPE svg PUBLIC "-//W3C//DTD SVG 1.1//EN"
 "http://www.w3.org/Graphics/SVG/1.1/DTD/svg11.dtd">
<!-- Generated by graphviz version 2.47.0 (20210316.0004)
 -->
<!-- Title: dependencies Pages: 1 -->
<svg width="696pt" height="284pt"
 viewBox="0.00 0.00 696.00 284.00" xmlns="http://www.w3.org/2000/svg" xmlns:xlink="http://www.w3.org/1999/xlink">
<g id="graph0" class="graph" transform="scale(1 1) rotate(0) translate(4 280)">
<title>dependencies</title>
<polygon fill="white" stroke="transparent" points="-4,4 -4,-280 692,-280 692,4 -4,4"/>
<text text-anchor="start" x="323.01" y="-42.4" font-family="sans-serif" font-weight="bold" font-size="14.00">Legend</text>
<polygon fill="#ffffb3" stroke="transparent" points="110,-10 110,-30 130,-30 130,-10 110,-10"/>
<text text-anchor="start" x="133.63" y="-15.4" font-family="sans-serif" font-size="14.00"> &#160;Declarations</text>
<polygon fill="#8dd3c7" stroke="transparent" points="223,-10 223,-30 243,-30 243,-10 223,-10"/>
<text text-anchor="start" x="246.73" y="-15.4" font-family="sans-serif" font-size="14.00"> &#160;Module</text>
<polygon fill="#80b1d3" stroke="transparent" points="309,-10 309,-30 329,-30 329,-10 309,-10"/>
<text text-anchor="start" x="332.78" y="-15.4" font-family="sans-serif" font-size="14.00"> &#160;Bootstrap</text>
<polygon fill="#fdb462" stroke="transparent" points="406,-10 406,-30 426,-30 426,-10 406,-10"/>
<text text-anchor="start" x="429.67" y="-15.4" font-family="sans-serif" font-size="14.00"> &#160;Providers</text>
<polygon fill="#fb8072" stroke="transparent" points="502,-10 502,-30 522,-30 522,-10 502,-10"/>
<text text-anchor="start" x="525.73" y="-15.4" font-family="sans-serif" font-size="14.00"> &#160;Exports</text>
<g id="clust1" class="cluster">
<title>cluster_DashboardsModule</title>
<polygon fill="none" stroke="black" stroke-dasharray="1,5" points="8,-70 8,-268 680,-268 680,-70 8,-70"/>
</g>
<g id="clust5" class="cluster">
<title>cluster_DashboardsModule_imports</title>
<polygon fill="none" stroke="black" points="372,-78 372,-130 672,-130 672,-78 372,-78"/>
</g>
<g id="clust6" class="cluster">
<title>cluster_DashboardsModule_exports</title>
<polygon fill="none" stroke="black" points="267,-208 267,-260 433,-260 433,-208 267,-208"/>
</g>
<g id="clust2" class="cluster">
<title>cluster_DashboardsModule_declarations</title>
<polygon fill="none" stroke="black" points="16,-78 16,-130 364,-130 364,-78 16,-78"/>
</g>
<!-- AddDashboardComponent -->
<g id="node1" class="node">
<title>AddDashboardComponent</title>
<polygon fill="#ffffb3" stroke="black" points="356.08,-122 189.92,-122 189.92,-86 356.08,-86 356.08,-122"/>
<text text-anchor="middle" x="273" y="-99.8" font-family="Times,serif" font-size="14.00">AddDashboardComponent</text>
</g>
<!-- DashboardsModule -->
<g id="node3" class="node">
<title>DashboardsModule</title>
<polygon fill="#8dd3c7" stroke="black" points="412.64,-187 409.64,-191 388.64,-191 385.64,-187 287.36,-187 287.36,-151 412.64,-151 412.64,-187"/>
<text text-anchor="middle" x="350" y="-164.8" font-family="Times,serif" font-size="14.00">DashboardsModule</text>
</g>
<!-- AddDashboardComponent&#45;&gt;DashboardsModule -->
<g id="edge1" class="edge">
<title>AddDashboardComponent&#45;&gt;DashboardsModule</title>
<path fill="none" stroke="black" d="M321.61,-122.11C321.61,-122.11 321.61,-140.99 321.61,-140.99"/>
<polygon fill="black" stroke="black" points="318.11,-140.99 321.61,-150.99 325.11,-140.99 318.11,-140.99"/>
</g>
<!-- DashboardsComponent -->
<g id="node2" class="node">
<title>DashboardsComponent</title>
<polygon fill="#ffffb3" stroke="black" points="171.92,-122 24.08,-122 24.08,-86 171.92,-86 171.92,-122"/>
<text text-anchor="middle" x="98" y="-99.8" font-family="Times,serif" font-size="14.00">DashboardsComponent</text>
</g>
<!-- DashboardsComponent&#45;&gt;DashboardsModule -->
<g id="edge2" class="edge">
<title>DashboardsComponent&#45;&gt;DashboardsModule</title>
<path fill="none" stroke="black" d="M98,-122.11C98,-141.34 98,-169 98,-169 98,-169 277.06,-169 277.06,-169"/>
<polygon fill="black" stroke="black" points="277.06,-172.5 287.06,-169 277.06,-165.5 277.06,-172.5"/>
</g>
<!-- DashboardsComponent  -->
<g id="node6" class="node">
<title>DashboardsComponent </title>
<polygon fill="#fb8072" stroke="black" points="425.42,-252 274.58,-252 274.58,-216 425.42,-216 425.42,-252"/>
<text text-anchor="middle" x="350" y="-229.8" font-family="Times,serif" font-size="14.00">DashboardsComponent </text>
</g>
<!-- DashboardsModule&#45;&gt;DashboardsComponent  -->
<g id="edge5" class="edge">
<title>DashboardsModule&#45;&gt;DashboardsComponent </title>
<path fill="none" stroke="black" stroke-dasharray="5,2" d="M350,-187.11C350,-187.11 350,-205.99 350,-205.99"/>
<polygon fill="black" stroke="black" points="346.5,-205.99 350,-215.99 353.5,-205.99 346.5,-205.99"/>
</g>
<!-- DashboardsRoutingModule -->
<g id="node4" class="node">
<title>DashboardsRoutingModule</title>
<polygon fill="#8dd3c7" stroke="black" points="664.25,-122 661.25,-126 640.25,-126 637.25,-122 493.75,-122 493.75,-86 664.25,-86 664.25,-122"/>
<text text-anchor="middle" x="579" y="-99.8" font-family="Times,serif" font-size="14.00">DashboardsRoutingModule</text>
</g>
<!-- DashboardsRoutingModule&#45;&gt;DashboardsModule -->
<g id="edge3" class="edge">
<title>DashboardsRoutingModule&#45;&gt;DashboardsModule</title>
<path fill="none" stroke="black" d="M579,-122.11C579,-141.34 579,-169 579,-169 579,-169 422.88,-169 422.88,-169"/>
<polygon fill="black" stroke="black" points="422.88,-165.5 412.88,-169 422.88,-172.5 422.88,-165.5"/>
</g>
<!-- FormsModule -->
<g id="node5" class="node">
<title>FormsModule</title>
<polygon fill="#8dd3c7" stroke="black" points="475.83,-122 472.83,-126 451.83,-126 448.83,-122 380.17,-122 380.17,-86 475.83,-86 475.83,-122"/>
<text text-anchor="middle" x="428" y="-99.8" font-family="Times,serif" font-size="14.00">FormsModule</text>
</g>
<!-- FormsModule&#45;&gt;DashboardsModule -->
<g id="edge4" class="edge">
<title>FormsModule&#45;&gt;DashboardsModule</title>
<path fill="none" stroke="black" d="M396.58,-122.11C396.58,-122.11 396.58,-140.99 396.58,-140.99"/>
<polygon fill="black" stroke="black" points="393.08,-140.99 396.58,-150.99 400.08,-140.99 393.08,-140.99"/>
</g>
</g>
</svg>
