<?xml version="1.0" encoding="UTF-8" standalone="no"?>
<!DOCTYPE svg PUBLIC "-//W3C//DTD SVG 1.1//EN"
 "http://www.w3.org/Graphics/SVG/1.1/DTD/svg11.dtd">
<!-- Generated by graphviz version 2.47.0 (20210316.0004)
 -->
<!-- Title: dependencies Pages: 1 -->
<svg width="504pt" height="284pt"
 viewBox="0.00 0.00 504.00 284.00" xmlns="http://www.w3.org/2000/svg" xmlns:xlink="http://www.w3.org/1999/xlink">
<g id="graph0" class="graph" transform="scale(1 1) rotate(0) translate(4 280)">
<title>dependencies</title>
<polygon fill="white" stroke="transparent" points="-4,4 -4,-280 500,-280 500,4 -4,4"/>
<text text-anchor="start" x="227.01" y="-42.4" font-family="sans-serif" font-weight="bold" font-size="14.00">Legend</text>
<polygon fill="#ffffb3" stroke="transparent" points="14,-10 14,-30 34,-30 34,-10 14,-10"/>
<text text-anchor="start" x="37.63" y="-15.4" font-family="sans-serif" font-size="14.00"> &#160;Declarations</text>
<polygon fill="#8dd3c7" stroke="transparent" points="127,-10 127,-30 147,-30 147,-10 127,-10"/>
<text text-anchor="start" x="150.73" y="-15.4" font-family="sans-serif" font-size="14.00"> &#160;Module</text>
<polygon fill="#80b1d3" stroke="transparent" points="213,-10 213,-30 233,-30 233,-10 213,-10"/>
<text text-anchor="start" x="236.78" y="-15.4" font-family="sans-serif" font-size="14.00"> &#160;Bootstrap</text>
<polygon fill="#fdb462" stroke="transparent" points="310,-10 310,-30 330,-30 330,-10 310,-10"/>
<text text-anchor="start" x="333.67" y="-15.4" font-family="sans-serif" font-size="14.00"> &#160;Providers</text>
<polygon fill="#fb8072" stroke="transparent" points="406,-10 406,-30 426,-30 426,-10 406,-10"/>
<text text-anchor="start" x="429.73" y="-15.4" font-family="sans-serif" font-size="14.00"> &#160;Exports</text>
<g id="clust1" class="cluster">
<title>cluster_FormModule</title>
<polygon fill="none" stroke="black" stroke-dasharray="1,5" points="39.5,-70 39.5,-268 456.5,-268 456.5,-70 39.5,-70"/>
</g>
<g id="clust4" class="cluster">
<title>cluster_FormModule_imports</title>
<polygon fill="none" stroke="black" points="183.5,-78 183.5,-130 448.5,-130 448.5,-78 183.5,-78"/>
</g>
<g id="clust2" class="cluster">
<title>cluster_FormModule_declarations</title>
<polygon fill="none" stroke="black" points="47.5,-78 47.5,-130 175.5,-130 175.5,-78 47.5,-78"/>
</g>
<g id="clust5" class="cluster">
<title>cluster_FormModule_exports</title>
<polygon fill="none" stroke="black" points="173.5,-208 173.5,-260 305.5,-260 305.5,-208 173.5,-208"/>
</g>
<!-- FormComponent -->
<g id="node1" class="node">
<title>FormComponent</title>
<polygon fill="#ffffb3" stroke="black" points="167.17,-122 55.83,-122 55.83,-86 167.17,-86 167.17,-122"/>
<text text-anchor="middle" x="111.5" y="-99.8" font-family="Times,serif" font-size="14.00">FormComponent</text>
</g>
<!-- FormModule -->
<g id="node2" class="node">
<title>FormModule</title>
<polygon fill="#8dd3c7" stroke="black" points="284.38,-187 281.38,-191 260.38,-191 257.38,-187 194.62,-187 194.62,-151 284.38,-151 284.38,-187"/>
<text text-anchor="middle" x="239.5" y="-164.8" font-family="Times,serif" font-size="14.00">FormModule</text>
</g>
<!-- FormComponent&#45;&gt;FormModule -->
<g id="edge1" class="edge">
<title>FormComponent&#45;&gt;FormModule</title>
<path fill="none" stroke="black" d="M111.5,-122.11C111.5,-141.34 111.5,-169 111.5,-169 111.5,-169 184.37,-169 184.37,-169"/>
<polygon fill="black" stroke="black" points="184.37,-172.5 194.37,-169 184.37,-165.5 184.37,-172.5"/>
</g>
<!-- FormComponent  -->
<g id="node5" class="node">
<title>FormComponent </title>
<polygon fill="#fb8072" stroke="black" points="297.17,-252 181.83,-252 181.83,-216 297.17,-216 297.17,-252"/>
<text text-anchor="middle" x="239.5" y="-229.8" font-family="Times,serif" font-size="14.00">FormComponent </text>
</g>
<!-- FormModule&#45;&gt;FormComponent  -->
<g id="edge4" class="edge">
<title>FormModule&#45;&gt;FormComponent </title>
<path fill="none" stroke="black" stroke-dasharray="5,2" d="M239.5,-187.11C239.5,-187.11 239.5,-205.99 239.5,-205.99"/>
<polygon fill="black" stroke="black" points="236,-205.99 239.5,-215.99 243,-205.99 236,-205.99"/>
</g>
<!-- FormRoutingModule -->
<g id="node3" class="node">
<title>FormRoutingModule</title>
<polygon fill="#8dd3c7" stroke="black" points="440,-122 437,-126 416,-126 413,-122 305,-122 305,-86 440,-86 440,-122"/>
<text text-anchor="middle" x="372.5" y="-99.8" font-family="Times,serif" font-size="14.00">FormRoutingModule</text>
</g>
<!-- FormRoutingModule&#45;&gt;FormModule -->
<g id="edge2" class="edge">
<title>FormRoutingModule&#45;&gt;FormModule</title>
<path fill="none" stroke="black" d="M372.5,-122.11C372.5,-141.34 372.5,-169 372.5,-169 372.5,-169 294.53,-169 294.53,-169"/>
<polygon fill="black" stroke="black" points="294.53,-165.5 284.53,-169 294.53,-172.5 294.53,-165.5"/>
</g>
<!-- FormsModule -->
<g id="node4" class="node">
<title>FormsModule</title>
<polygon fill="#8dd3c7" stroke="black" points="287.33,-122 284.33,-126 263.33,-126 260.33,-122 191.67,-122 191.67,-86 287.33,-86 287.33,-122"/>
<text text-anchor="middle" x="239.5" y="-99.8" font-family="Times,serif" font-size="14.00">FormsModule</text>
</g>
<!-- FormsModule&#45;&gt;FormModule -->
<g id="edge3" class="edge">
<title>FormsModule&#45;&gt;FormModule</title>
<path fill="none" stroke="black" d="M239.5,-122.11C239.5,-122.11 239.5,-140.99 239.5,-140.99"/>
<polygon fill="black" stroke="black" points="236,-140.99 239.5,-150.99 243,-140.99 236,-140.99"/>
</g>
</g>
</svg>
