<?xml version="1.0" encoding="UTF-8" standalone="no"?>
<!DOCTYPE svg PUBLIC "-//W3C//DTD SVG 1.1//EN"
 "http://www.w3.org/Graphics/SVG/1.1/DTD/svg11.dtd">
<!-- Generated by graphviz version 2.47.0 (20210316.0004)
 -->
<!-- Title: dependencies Pages: 1 -->
<svg width="504pt" height="284pt"
 viewBox="0.00 0.00 504.00 284.00" xmlns="http://www.w3.org/2000/svg" xmlns:xlink="http://www.w3.org/1999/xlink">
<g id="graph0" class="graph" transform="scale(1 1) rotate(0) translate(4 280)">
<title>dependencies</title>
<polygon fill="white" stroke="transparent" points="-4,4 -4,-280 500,-280 500,4 -4,4"/>
<text text-anchor="start" x="227.01" y="-42.4" font-family="sans-serif" font-weight="bold" font-size="14.00">Legend</text>
<polygon fill="#ffffb3" stroke="transparent" points="14,-10 14,-30 34,-30 34,-10 14,-10"/>
<text text-anchor="start" x="37.63" y="-15.4" font-family="sans-serif" font-size="14.00"> &#160;Declarations</text>
<polygon fill="#8dd3c7" stroke="transparent" points="127,-10 127,-30 147,-30 147,-10 127,-10"/>
<text text-anchor="start" x="150.73" y="-15.4" font-family="sans-serif" font-size="14.00"> &#160;Module</text>
<polygon fill="#80b1d3" stroke="transparent" points="213,-10 213,-30 233,-30 233,-10 213,-10"/>
<text text-anchor="start" x="236.78" y="-15.4" font-family="sans-serif" font-size="14.00"> &#160;Bootstrap</text>
<polygon fill="#fdb462" stroke="transparent" points="310,-10 310,-30 330,-30 330,-10 310,-10"/>
<text text-anchor="start" x="333.67" y="-15.4" font-family="sans-serif" font-size="14.00"> &#160;Providers</text>
<polygon fill="#fb8072" stroke="transparent" points="406,-10 406,-30 426,-30 426,-10 406,-10"/>
<text text-anchor="start" x="429.73" y="-15.4" font-family="sans-serif" font-size="14.00"> &#160;Exports</text>
<g id="clust1" class="cluster">
<title>cluster_WorkflowModule</title>
<polygon fill="none" stroke="black" stroke-dasharray="1,5" points="70,-70 70,-268 426,-268 426,-70 70,-70"/>
</g>
<g id="clust4" class="cluster">
<title>cluster_WorkflowModule_imports</title>
<polygon fill="none" stroke="black" points="240,-78 240,-130 418,-130 418,-78 240,-78"/>
</g>
<g id="clust5" class="cluster">
<title>cluster_WorkflowModule_exports</title>
<polygon fill="none" stroke="black" points="164,-208 164,-260 322,-260 322,-208 164,-208"/>
</g>
<g id="clust2" class="cluster">
<title>cluster_WorkflowModule_declarations</title>
<polygon fill="none" stroke="black" points="78,-78 78,-130 232,-130 232,-78 78,-78"/>
</g>
<!-- WorkflowComponent -->
<g id="node1" class="node">
<title>WorkflowComponent</title>
<polygon fill="#ffffb3" stroke="black" points="224.37,-122 85.63,-122 85.63,-86 224.37,-86 224.37,-122"/>
<text text-anchor="middle" x="155" y="-99.8" font-family="Times,serif" font-size="14.00">WorkflowComponent</text>
</g>
<!-- WorkflowModule -->
<g id="node2" class="node">
<title>WorkflowModule</title>
<polygon fill="#8dd3c7" stroke="black" points="301.58,-187 298.58,-191 277.58,-191 274.58,-187 184.42,-187 184.42,-151 301.58,-151 301.58,-187"/>
<text text-anchor="middle" x="243" y="-164.8" font-family="Times,serif" font-size="14.00">WorkflowModule</text>
</g>
<!-- WorkflowComponent&#45;&gt;WorkflowModule -->
<g id="edge1" class="edge">
<title>WorkflowComponent&#45;&gt;WorkflowModule</title>
<path fill="none" stroke="black" d="M204.45,-122.11C204.45,-122.11 204.45,-140.99 204.45,-140.99"/>
<polygon fill="black" stroke="black" points="200.95,-140.99 204.45,-150.99 207.95,-140.99 200.95,-140.99"/>
</g>
<!-- WorkflowComponent  -->
<g id="node4" class="node">
<title>WorkflowComponent </title>
<polygon fill="#fb8072" stroke="black" points="314.37,-252 171.63,-252 171.63,-216 314.37,-216 314.37,-252"/>
<text text-anchor="middle" x="243" y="-229.8" font-family="Times,serif" font-size="14.00">WorkflowComponent </text>
</g>
<!-- WorkflowModule&#45;&gt;WorkflowComponent  -->
<g id="edge3" class="edge">
<title>WorkflowModule&#45;&gt;WorkflowComponent </title>
<path fill="none" stroke="black" stroke-dasharray="5,2" d="M243,-187.11C243,-187.11 243,-205.99 243,-205.99"/>
<polygon fill="black" stroke="black" points="239.5,-205.99 243,-215.99 246.5,-205.99 239.5,-205.99"/>
</g>
<!-- WorkflowRoutingModule -->
<g id="node3" class="node">
<title>WorkflowRoutingModule</title>
<polygon fill="#8dd3c7" stroke="black" points="410.2,-122 407.2,-126 386.2,-126 383.2,-122 247.8,-122 247.8,-86 410.2,-86 410.2,-122"/>
<text text-anchor="middle" x="329" y="-99.8" font-family="Times,serif" font-size="14.00">WorkflowRoutingModule</text>
</g>
<!-- WorkflowRoutingModule&#45;&gt;WorkflowModule -->
<g id="edge2" class="edge">
<title>WorkflowRoutingModule&#45;&gt;WorkflowModule</title>
<path fill="none" stroke="black" d="M274.72,-122.11C274.72,-122.11 274.72,-140.99 274.72,-140.99"/>
<polygon fill="black" stroke="black" points="271.22,-140.99 274.72,-150.99 278.22,-140.99 271.22,-140.99"/>
</g>
</g>
</svg>
